<?xml version="1.0" encoding="UTF-8"?>
<svg width="1794px" height="1276px" viewBox="0 0 1794 1276" version="1.1" xmlns="http://www.w3.org/2000/svg" xmlns:xlink="http://www.w3.org/1999/xlink">
    <!-- Generator: Sketch 56.1 (81669) - https://sketch.com -->
    <title>Batery</title>
    <desc>Created with Sketch.</desc>
    <g id="Batery" stroke="none" stroke-width="1" fill="none" fill-rule="evenodd">
        <path d="M1012.37555,281.87856 L1005,430.894065 C1021.28743,423.053349 1031.26195,398.442327 1034.92356,357.060999 C1038.57933,315.745587 1031.11658,290.223817 1012.53531,280.49569 C1016.06225,245.551517 1045.34496,218.069268 1081.30006,217.61772 L1184.52974,216.321293 L1184,215.401345 L1211.738,215.401345 C1271.84876,255.812991 1317.37628,276.092027 1348.32065,276.238455 C1379.26576,276.384885 1418.05299,256.105849 1464.68234,215.401346 L1478.35134,215.401345 C1532.16255,215.401345 1576.32524,257.983912 1578.285,311.759422 L1584.93917,494.348689 C1585.84336,519.159224 1574.78567,541.631748 1556.93166,556.209998 C1557.34664,552.92381 1557.54141,549.437804 1557.51598,545.751979 C1557.40137,529.145419 1545.94194,514.772147 1529.77818,510.961154 C1524.12583,509.628478 1518.09775,508.727951 1511.69393,508.259572 C1494.72293,507.018303 1463.30771,505.585675 1417.44826,503.961687 L1406.87395,503.13826 L1419.83557,368.930416 C1419.84141,368.869945 1419.84449,368.80924 1419.84481,368.748488 C1419.85051,367.643933 1418.95972,366.743888 1417.85517,366.73818 L1370.26843,366.492284 C1358.10254,344.504022 1336.3744,328.375018 1310.37122,324.011433 L1342.92188,391.236451 L1197.41207,458.13407 L1201.24073,483.597112 C1208.84605,534.177323 1177.0573,582.343231 1127.56029,595.236786 L880.444109,659.608461 C826.999151,673.53042 772.387474,641.4907 758.465515,588.045742 C754.15141,571.484342 754.159874,554.092885 758.490096,537.535691 C759.835217,532.392436 760.65345,528.714083 760.944794,526.500632 C761.126199,525.122425 761.21033,518.932516 761.197185,507.930907 C761.170253,485.388774 777.826592,466.3048 800.165316,463.283231 L1004.70286,435.617187 L1012.30469,281.850595 L1012.37555,281.87856 Z" id="Combined-Shape" fill="#6381DD"></path>
        <rect id="Rectangle" fill="#82D121" x="311" y="102" width="136" height="51" rx="25.5"></rect>
        <path d="M589.999966,917.472865 C589.999989,917.481907 590,917.490952 590,917.5 C590,921.612398 587.63584,925.172617 584.192501,926.895678 L511.397793,1095.74484 C505.154403,1110.22654 490.895365,1119.60689 475.125155,1119.60689 L293.292569,1119.60689 C277.638659,1119.60689 263.461698,1110.3627 257.147962,1096.03853 L183.080738,928 L181.5,928 C175.70101,928 171,923.29899 171,917.5 C171,911.70101 175.70101,907 181.5,907 L557.11679,907 L710.221729,608.298486 L755.236171,608.87207 L592,917.716877 L589.999966,917.472865 Z M294.537271,1027.26758 C293.579444,1027.26758 292.629401,1027.43959 291.732376,1027.77541 C287.594566,1029.32451 285.496003,1033.93466 287.045104,1038.07247 L306.875385,1091.04122 C308.045151,1094.16579 311.031196,1096.23633 314.367552,1096.23633 L333.408747,1096.23633 C334.100454,1096.23633 334.789241,1096.14662 335.457873,1095.96944 C339.728755,1094.83774 342.273564,1090.45808 341.141862,1086.1872 L327.106164,1033.21845 C326.176605,1029.71043 323.002138,1027.26758 319.373048,1027.26758 L294.537271,1027.26758 Z M369.38888,1027.26758 C369.062743,1027.26758 368.736911,1027.28752 368.413209,1027.3273 C364.027913,1027.86614 360.90975,1031.85795 361.448598,1036.24325 L367.95719,1089.212 C368.450022,1093.2228 371.856508,1096.23633 375.897472,1096.23633 L396.466092,1096.23633 C400.617446,1096.23633 404.079047,1093.06092 404.436398,1088.92497 L409.012962,1035.95622 C409.03275,1035.72721 409.042657,1035.49745 409.042657,1035.26758 C409.042657,1030.8493 405.460935,1027.26758 401.042657,1027.26758 L369.38888,1027.26758 Z M475.267417,1027.26758 L450.43164,1027.26758 C446.802549,1027.26758 443.628082,1029.71043 442.698524,1033.21845 L428.662825,1086.1872 C427.531124,1090.45808 430.075932,1094.83774 434.346814,1095.96944 C435.015446,1096.14662 435.704233,1096.23633 436.395941,1096.23633 L455.437136,1096.23633 C458.773492,1096.23633 461.759537,1094.16579 462.929303,1091.04122 L482.759584,1038.07247 C484.308684,1033.93466 482.210121,1029.32451 478.072312,1027.77541 C477.175287,1027.43959 476.225244,1027.26758 475.267417,1027.26758 Z" id="Combined-Shape" fill="#FBCEE4" fill-rule="nonzero"></path>
        <path d="M258,134 L509,134 C533.852814,134 554,154.147186 554,179 L554,907 L213,907 L213,179 C213,154.147186 233.147186,134 258,134 Z M228.007974,937.732422 L252.843751,937.732422 C256.472841,937.732422 259.647309,940.175273 260.576867,943.683295 L274.612566,996.652045 C275.744267,1000.92293 273.199458,1005.30259 268.928577,1006.43429 C268.259944,1006.61146 267.571158,1006.70117 266.87945,1006.70117 L247.838255,1006.70117 C244.501899,1006.70117 241.515854,1004.63063 240.346088,1001.50607 L220.515807,948.537317 C218.966706,944.399507 221.06527,939.789356 225.203079,938.240255 C226.100104,937.904429 227.050147,937.732422 228.007974,937.732422 Z M294.537271,938 L319.373048,938 C323.002138,938 326.176605,940.442851 327.106164,943.950873 L341.141862,996.919623 C342.273564,1001.19051 339.728755,1005.57016 335.457873,1006.70187 C334.789241,1006.87904 334.100454,1006.96875 333.408747,1006.96875 L314.367552,1006.96875 C311.031196,1006.96875 308.045151,1004.89821 306.875385,1001.77364 L287.045104,948.804895 C285.496003,944.667085 287.594566,940.056934 291.732376,938.507833 C292.629401,938.172008 293.579444,938 294.537271,938 Z M369.38888,938 L401.042657,938 C405.460935,938 409.042657,941.581722 409.042657,946 C409.042657,946.229868 409.03275,946.459629 409.012962,946.688644 L404.436398,999.657394 C404.079047,1003.79334 400.617446,1006.96875 396.466092,1006.96875 L375.897472,1006.96875 C371.856508,1006.96875 368.450022,1003.95522 367.95719,999.944421 L361.448598,946.975671 C360.90975,942.590374 364.027913,938.598567 368.413209,938.059719 C368.736911,938.019943 369.062743,938 369.38888,938 Z M536.267417,938 C537.225244,938 538.175287,938.172008 539.072312,938.507833 C543.210121,940.056934 545.308684,944.667085 543.759584,948.804895 L523.929303,1001.77364 C522.759537,1004.89821 519.773492,1006.96875 516.437136,1006.96875 L497.395941,1006.96875 C496.704233,1006.96875 496.015446,1006.87904 495.346814,1006.70187 C491.075932,1005.57016 488.531124,1001.19051 489.662825,996.919623 L503.698524,943.950873 C504.628082,940.442851 507.802549,938 511.43164,938 L536.267417,938 Z M475.267417,938 C476.225244,938 477.175287,938.172008 478.072312,938.507833 C482.210121,940.056934 484.308684,944.667085 482.759584,948.804895 L462.929303,1001.77364 C461.759537,1004.89821 458.773492,1006.96875 455.437136,1006.96875 L436.395941,1006.96875 C435.704233,1006.96875 435.015446,1006.87904 434.346814,1006.70187 C430.075932,1005.57016 427.531124,1001.19051 428.662825,996.919623 L442.698524,943.950873 C443.628082,940.442851 446.802549,938 450.43164,938 L475.267417,938 Z" id="Combined-Shape" fill="#6381DD"></path>
        <path d="M258,134 L509,134 C533.852814,134 554,154.147186 554,179 L554,501 L213,501 L213,179 C213,154.147186 233.147186,134 258,134 Z M339,847 L339,831 L429,831 L429,847 L339,847 Z M392,269 L392,232 L376,232 L376,269 L339,269 L339,285 L376,285 L376,322 L392,322 L392,285 L429,285 L429,269 L392,269 Z" id="Combined-Shape" fill="#C8FF57"></path>
        <path d="M499.676326,1166.75509 L492.207972,1116.68491 L516.059446,1116.68491 L529.743424,1116.86702 C546.323006,1114.01824 570.584672,1125.29234 580.395148,1137.38777 C592.381716,1152.16614 588.812374,1189.50242 560.546647,1203.94775 C532.280921,1218.39309 516.309214,1200.31259 504.322636,1185.53423 C500.631729,1180.98367 499.308724,1174.24766 499.676326,1166.75509 Z M239.496817,1116.22509 L257.148527,1115.99018 L281,1115.99018 L273.392957,1166.99018 L272.999064,1166.44109 C272.999688,1166.52208 273,1166.60285 273,1166.68339 C273,1185.72178 246.82931,1212.52611 215.91979,1205.98505 C185.010269,1199.44399 184,1175.32955 184,1156.29116 C184,1137.25278 217.759948,1115.99018 236.656646,1115.99018 C237.607723,1115.99018 238.555126,1116.07036 239.496817,1116.22509 Z" id="Combined-Shape" fill="#161616"></path>
        <path d="M220.16031,1191.31641 C199.669729,1186.93174 199,1170.76712 199,1158.00513 C199,1145.24313 221.38019,1130.99018 233.907215,1130.99018 C246.43424,1130.99018 258,1152.20935 258,1164.97134 C258,1177.73334 240.650891,1195.70108 220.16031,1191.31641 Z M554.008985,1190.11056 C535.109104,1198.87553 524.897288,1186.45072 517.254989,1176.32538 C509.612695,1166.20002 518.85255,1141.5189 528.801866,1134.03361 C538.751187,1126.54833 560.643766,1136.47269 568.286066,1146.59803 C575.928359,1156.72339 572.908866,1181.34559 554.008985,1190.11056 Z" id="Combined-Shape" fill="#FF8ADF"></path>
        <path d="M1291.87754,346.120069 L1351.23567,366 L1417.86782,366.725775 C1418.97233,366.737805 1419.85795,367.642935 1419.84592,368.747439 C1419.8453,368.80437 1419.84225,368.861248 1419.83678,368.917919 L1404.15606,531.28001 C1404.05814,532.293889 1403.21387,533.072208 1402.19539,533.087521 C1234.70975,517.011979 1211.47649,502.882142 1205.3002,492.610489 C1191.28795,469.307017 1192,436.172162 1192,417.999848 C1192,417.999848 1192,417.999848 1192,417.999848 C1192,376.134498 1225.93857,342.195926 1267.80392,342.195926 C1275.98767,342.195926 1284.11743,343.52114 1291.87754,346.120069 Z" id="Rectangle" fill="#FF8ADF"></path>
        <path d="M1275.61331,321.564313 L1300.94795,322.96521 C1347.54482,325.541819 1383.2303,365.404806 1380.65369,412.001684 C1380.53529,414.143074 1380.33539,416.279181 1380.05445,418.405363 L1364.64844,535 L1276.11825,539.057128 C1229.49912,541.193572 1189.97491,505.133228 1187.83847,458.514095 C1187.81387,457.977404 1187.7944,457.44049 1187.78004,456.903428 L1186.47811,408.193131 C1185.23122,361.54173 1222.03884,322.712488 1268.69024,321.465591 C1270.99831,321.403901 1273.30794,321.436836 1275.61331,321.564313 Z M1280.15039,479.324574 C1288.80958,478.414456 1302.09874,475.272067 1308.53176,470.07741 C1320.86365,460.119432 1322.43933,439.689255 1320.57428,421.944514 C1318.9861,406.83398 1313.99141,395.517818 1302.97407,387.608589 C1294.30424,381.384603 1280.82437,376.691891 1269.701,377.861005 C1254.45675,379.46324 1241.86092,383.982159 1234.83899,397.113514 C1230.2261,405.739825 1227.97973,420.853018 1229.1049,431.558333 C1230.40258,443.904975 1231.32542,460.30938 1239.29194,468.171943 C1248.74776,477.504369 1266.44152,480.765434 1280.15039,479.324574 Z M1249.00862,441.253612 C1249.00287,441.16917 1249,441.084633 1249,441 C1249,440.00437 1249.34447,438.934237 1250.0334,437.789601 C1252.50361,432.885128 1259.40868,426.559242 1270.81701,418.374929 C1271.71451,417.731062 1272.96404,417.936675 1273.6079,418.834177 C1274.25177,419.731679 1274.04616,420.981205 1273.14865,421.625071 C1268.56798,424.911241 1264.76274,427.887285 1261.73869,430.516544 L1267.7666,439.541511 L1263.33364,448.302424 C1266.82657,449.545747 1271.20298,450.811662 1276.45984,452.05358 C1277.53481,452.307541 1278.20038,453.384859 1277.94642,454.459837 C1277.69246,455.534815 1276.61514,456.200381 1275.54016,455.94642 C1257.82005,451.760086 1249,447.375969 1249,441.573429 C1249,441.467671 1249.00287,441.361068 1249.00862,441.253612 Z M1242.20667,431.045455 C1239.08569,431.045455 1239,427.239875 1239,422.545455 C1239,417.851034 1239.08569,414.045455 1242.20667,414.045455 C1244.02057,414.045455 1245.63485,414.084965 1246.66885,416.083296 C1247.41394,417.523288 1246.66885,420.579401 1246.66885,422.545455 C1246.66885,427.239875 1245.32765,431.045455 1242.20667,431.045455 Z M1299.6075,431 C1296.0964,431 1296,427.19442 1296,422.5 C1296,417.80558 1296.0964,414 1299.6075,414 C1301.64814,414 1303.46421,414.039511 1304.62745,416.037842 C1305.46568,417.477834 1304.62745,420.533946 1304.62745,422.5 C1304.62745,427.19442 1303.11861,431 1299.6075,431 Z M1312.30899,356.7624 L1302.05312,374.755849 C1301.50615,375.715483 1301.84068,376.936827 1302.80031,377.483798 C1303.75994,378.030768 1304.98129,377.696238 1305.52826,376.736605 L1315.78413,358.743155 C1316.3311,357.783521 1315.99657,356.562177 1315.03694,356.015206 C1314.07731,355.468236 1312.85596,355.802766 1312.30899,356.7624 Z M1236.84956,504.474158 L1247.10544,488.374756 C1247.6989,487.443156 1247.42478,486.20685 1246.49318,485.613389 C1245.56158,485.019928 1244.32528,485.294043 1243.73181,486.225643 L1233.47594,502.325045 C1232.88248,503.256645 1233.15659,504.492951 1234.08819,505.086412 C1235.01979,505.679873 1236.2561,505.405758 1236.84956,504.474158 Z M1316.89424,503.390946 L1307.10355,486.455079 C1306.55072,485.498806 1305.32736,485.171746 1304.37108,485.724571 C1303.41481,486.277396 1303.08775,487.500762 1303.64058,488.457035 L1313.43126,505.392902 C1313.98409,506.349175 1315.20745,506.676235 1316.16373,506.12341 C1317.12,505.570585 1317.44706,504.347219 1316.89424,503.390946 Z M1204.16643,392.908773 L1220.26583,403.164648 C1221.19743,403.758109 1222.43374,403.483994 1223.0272,402.552395 C1223.62066,401.620795 1223.34654,400.384489 1222.41495,399.791028 L1206.31554,389.535152 C1205.38394,388.941691 1204.14764,389.215807 1203.55418,390.147406 C1202.96071,391.079006 1203.23483,392.315312 1204.16643,392.908773 Z M1205.30045,473.05082 L1222.23632,463.260132 C1223.19259,462.707307 1223.51965,461.483942 1222.96683,460.527669 C1222.414,459.571395 1221.19063,459.244336 1220.23436,459.797161 L1203.29849,469.587849 C1202.34222,470.140674 1202.01516,471.364039 1202.56799,472.320312 C1203.12081,473.276586 1204.34418,473.603645 1205.30045,473.05082 Z M1195.9253,433.903896 L1216.62166,434.178406 C1217.72614,434.193056 1218.63336,433.30958 1218.64819,432.205107 C1218.66266,431.100635 1217.77919,430.193407 1216.67471,430.178758 L1195.97835,429.904247 C1194.87387,429.889598 1193.96665,430.773074 1193.95182,431.877546 C1193.93735,432.982019 1194.82082,433.889246 1195.9253,433.903896 Z M1349.41495,469.791028 L1333.31554,459.535152 C1332.38394,458.941691 1331.14764,459.215807 1330.55418,460.147406 C1329.96071,461.079006 1330.23483,462.315312 1331.16643,462.908773 L1347.26583,473.164648 C1348.19743,473.758109 1349.43374,473.483994 1350.0272,472.552395 C1350.62066,471.620795 1350.34654,470.384489 1349.41495,469.791028 Z M1348.23436,389.797161 L1331.29849,399.587849 C1330.34222,400.140674 1330.01516,401.364039 1330.56799,402.320312 C1331.12081,403.276586 1332.34418,403.603645 1333.30045,403.05082 L1350.23632,393.260132 C1351.19259,392.707307 1351.51965,391.483942 1350.96683,390.527669 C1350.414,389.571395 1349.19063,389.244336 1348.23436,389.797161 Z M1358.67471,429.178758 L1337.97835,428.904247 C1336.87387,428.889598 1335.96665,429.773074 1335.95182,430.877546 C1335.93735,431.982019 1336.82082,432.889246 1337.9253,432.903896 L1358.62166,433.178406 C1359.72614,433.193056 1360.63336,432.30958 1360.64819,431.205107 C1360.66266,430.100635 1359.77919,429.193407 1358.67471,429.178758 Z M1231.99319,357.847106 L1241.78387,376.664736 C1242.2937,377.64461 1243.50133,378.025663 1244.48121,377.515841 C1245.46108,377.006019 1245.84214,375.79838 1245.33231,374.818505 L1235.54163,356.000875 C1235.0318,355.021 1233.82417,354.639948 1232.84429,355.14977 C1231.86442,355.659592 1231.48336,356.867231 1231.99319,357.847106 Z M1271.57466,347.149101 L1271.30015,369.726957 C1271.28672,370.831445 1272.1712,371.737696 1273.27569,371.751276 C1274.38018,371.764553 1275.28643,370.880075 1275.29986,369.775587 L1275.57437,347.197731 C1275.5878,346.093243 1274.70332,345.186993 1273.59883,345.173413 C1272.49434,345.160135 1271.58809,346.044613 1271.57466,347.149101 Z M1278.16257,513.416036 L1278.43708,492.719668 C1278.45173,491.615195 1277.56826,490.707968 1276.46379,490.693139 C1275.35931,490.678669 1274.45209,491.562145 1274.43744,492.666618 L1274.16293,513.362986 C1274.14828,514.467458 1275.03175,515.374686 1276.13622,515.389515 C1277.2407,515.403984 1278.14792,514.520508 1278.16257,513.416036 Z" id="Combined-Shape" fill="#FBCEE4" fill-rule="nonzero"></path>
        <path d="M695.896798,670.481544 L692.082755,668.481323 L692.907956,669.135764 L696.288683,671.683324 C696.320798,671.337601 696.348866,671.020234 696.372886,670.731222 L697.362104,671.250003 L723.119182,627.415493 L710.3857,613.760505 L682.986553,661.267413 L665.777354,647.619343 C659.005661,642.248928 655.345243,633.864622 656.010257,625.247492 L656.945495,613.128845 C658.192707,596.96771 667.507102,582.525796 681.715065,574.723772 L737.249584,544.228085 C739.263101,543.122407 741.342825,542.141828 743.476939,541.291924 C772.172835,529.863879 804.699717,543.862238 816.127762,572.558134 C823.310483,590.593992 818.264925,608.509389 800.991088,626.304323 L705.252383,716.258392 C695.590338,705.715517 691.828243,694.064223 693.966099,681.304511 C694.834852,676.119389 695.478418,672.511734 695.896798,670.481544 Z M1102.89983,790.162467 L1249,625.140476 L1405.73087,615.128491 C1412.3448,614.705992 1418.04896,619.725143 1418.47146,626.33908 C1418.66132,629.311248 1417.73917,632.247823 1415.88427,634.57789 L1297.91058,782.773438 L1531.42897,904.371631 C1558.06436,918.241267 1571.20771,948.982738 1562.83194,977.821208 L1538.57757,1061.33105 C1529.9514,1091.03167 1498.88139,1108.11589 1469.18077,1099.48972 C1467.74217,1099.0719 1466.32091,1098.59652 1464.92044,1098.06473 L1125.30349,969.105316 C1121.78606,967.769676 1118.38777,966.257009 1115.1149,964.581308 L1113.86832,1038.96375 L894,1038.96375 L936.200727,758.438282 L1102.89983,790.162467 Z M1403.6476,529.968859 C1400.47638,524.881243 1398.12353,520.750031 1396.58907,517.575222 C1394.98245,514.251102 1392.87728,509.087744 1390.27358,502.085147 L1417.11306,504.175152 C1462.9725,505.79914 1494.38773,507.231768 1511.35873,508.473037 C1517.76254,508.941416 1523.79063,509.841943 1529.44298,511.174619 C1545.60674,514.985612 1557.06617,529.358884 1557.18077,545.965444 C1557.40443,578.372985 1540.60414,595.332985 1506.77991,596.845443 C1445.14608,599.601414 1444.44621,599.632708 1400.98826,595.814177 C1388.69294,597.1478 1366.02323,594.302433 1332.97913,587.278078 C1310.80459,582.669884 1297.29889,575.799122 1292.46201,566.665794 C1287.62513,557.532466 1284.46446,546.117745 1282.97999,532.421629 L1310.12001,535.683461 C1309.38579,531.67143 1309.12007,527.147451 1309.32285,522.111525 L1403.6476,529.968859 Z M1144.62731,130.858578 C1147.74981,134.486216 1149.6778,139.220184 1149.76868,144.426525 C1149.86832,150.134755 1145.83787,166.098693 1136.25765,171.884849 C1135.99981,172.04058 1135.73823,172.189435 1135.47325,172.331642 L1146.02168,211.169204 C1147.13532,215.269447 1145.22979,219.589989 1141.45105,221.532495 C1134.83445,224.933836 1129.11725,226.989576 1124.29946,227.699714 C1119.00948,228.479451 1112.8069,228.192443 1105.69173,226.83869 C1103.07665,226.341139 1100.88036,224.575424 1099.83267,222.12828 L1093.65914,207.708515 C1075.35148,208.952487 1063.62137,208.333209 1058.46883,205.850682 C1048.48192,201.038928 1043.28455,185.115642 1040.20179,161.844853 C1037.11903,138.574063 1031.16702,98.7665932 1043.56956,84.2579268 C1051.83792,74.5854826 1081.50003,73.2065113 1132.55589,80.1210128 C1143.65535,91.9016176 1148.11315,106.428874 1145.92929,123.702782 C1145.64899,125.91992 1145.215,128.305185 1144.62731,130.858578 Z M1127.75446,174.720702 C1127.67775,174.879783 1127.60079,175.039123 1127.5236,175.198724 L1128.12836,174.666598 C1128.00381,174.685441 1127.87918,174.70347 1127.75447,174.720701 Z M1012.44629,280.44925 C1031.47707,290.940804 1039.01401,316.894407 1035.05713,358.310059 C1031.10024,399.72571 1021.034,424.054161 1004.8584,431.29541 L1012.44629,280.44925 Z M1211,215.401345 C1285.24046,215.401345 1336.83921,215.401345 1365.79624,215.401345 C1390.55175,215.401345 1423.61967,215.401345 1465,215.401345 C1418.16601,256.373892 1379.2257,276.786711 1348.17905,276.6398 C1317.13241,276.492889 1271.40606,256.08007 1211,215.401345 Z" id="Combined-Shape" fill="#C7E0FF"></path>
        <path d="M1188.2301,463.055817 L1188.50109,465.363761 L1176.34945,530.753237 C1173.31285,547.09359 1174.39685,563.933137 1179.50345,579.749293 L1248.36719,793.03422 L1052.94482,832.21875 L932.997306,837.718613 C902.10182,839.135241 875.907677,815.237905 874.49105,784.34242 C874.268563,779.490158 874.678327,774.62957 875.710026,769.88304 L899.525293,660.316305 C905.634503,632.2097 923.550329,608.094614 948.696338,594.131022 L1188.04531,461.220409 L1188.2301,463.055817 Z" id="Mask-Copy" fill="#55ABD5"></path>
        <path d="M1284.83357,538.308396 C1286.34011,559.255607 1294.12508,572.753069 1308.18848,578.800781 C1331.31858,586.045974 1353.82151,590.928461 1375.69727,593.448242 C1397.57302,595.968023 1430.29665,597.446865 1473.86816,597.884766 C1473.74285,597.600174 1473.87197,597.267879 1474.15656,597.142563 C1474.43454,597.020156 1474.75951,597.140305 1474.89101,597.414107 L1502.89705,655.728327 C1520.83877,693.086592 1505.09855,737.916085 1467.74028,755.857802 C1461.58959,758.811739 1455.06475,760.912982 1448.34615,762.103439 L1052.47424,832.247314 L1188.43563,465.541051 C1194.14641,508.0974 1231.33934,540.191309 1275.15004,538.649241 L1284.83357,538.308396 Z" id="Combined-Shape" fill="#60CBFF"></path>
        <path d="M1397.14807,517.007022 C1421.95468,520.357459 1433.22247,516.165733 1432.56708,505.088487 C1432.50184,503.985846 1433.34282,503.039092 1434.44546,502.973854 C1435.5481,502.908616 1436.49485,503.749597 1436.56009,504.852238 C1437.39347,518.937697 1424.53741,524.232705 1399.44122,521.326304 C1402.17561,526.068946 1404.85026,529.237553 1407.42801,530.820102 C1408.09822,531.231557 1408.78731,531.612361 1409.49548,531.96259 C1418.93378,536.6304 1441.32934,542.732163 1476.49599,550.181953 C1477.57657,550.410868 1478.26699,551.47243 1478.03808,552.553018 C1477.80916,553.633607 1476.7476,554.324025 1475.66701,554.095111 C1440.15738,546.572661 1417.57117,540.418956 1407.72224,535.548067 C1406.90504,535.143912 1406.10931,534.704182 1405.33523,534.228952 C1399.22232,530.476076 1393.37925,520.517864 1387.51843,504.261238 C1387.14382,503.222135 1387.68249,502.076088 1388.72159,501.701472 C1389.7607,501.326855 1390.90674,501.865529 1391.28136,502.904632 C1393.25265,508.372547 1395.21247,513.07472 1397.14807,517.007022 Z M726.248252,624.694688 C726.550804,625.29732 726.541348,626.038556 726.158304,626.652517 L720.731098,635.348779 C704.99907,658.554018 696.301368,675.136112 694.662092,684.863089 C693.896184,689.407756 694.421376,694.08703 696.25965,698.907957 C696.27117,698.893811 696.282914,698.879774 696.294882,698.865855 C712.866638,679.593727 725.969884,674.63461 734.835818,685.477329 C735.439715,686.215873 735.427753,687.256468 734.862341,687.976911 C735.158179,688.693854 735.02013,689.549188 734.443612,690.13894 L707.143882,718.065356 C706.371746,718.855217 705.105497,718.869586 704.315637,718.09745 C704.266645,718.049558 704.220636,717.999764 704.177614,717.948302 C704.031431,717.85527 703.895016,717.741558 703.772677,717.607364 C693.31728,706.138862 688.900422,694.981618 690.717714,684.198348 C692.48286,673.724496 701.37567,656.77043 717.378826,633.167837 L721.858386,625.987785 C710.769922,617.687358 704.172513,616.09457 701.657426,619.967465 C700.326365,622.017118 700.643247,624.398509 702.895813,627.478086 C703.547924,628.369615 703.353838,629.620983 702.462309,630.273095 C701.57078,630.925206 700.319412,630.73112 699.6673,629.839591 C696.514653,625.529475 695.963887,621.390431 698.302743,617.788908 C702.788061,610.882125 712.037037,613.349621 725.592248,623.801494 C725.902214,624.040496 726.122728,624.352504 726.248252,624.694688 Z M697.691543,702.166347 C699.573872,705.954562 702.248905,709.828923 705.726898,713.792717 L731.363658,687.567446 C724.660117,679.984266 714.223786,684.150515 699.3278,701.473806 C698.904377,701.966226 698.293389,702.202013 697.691543,702.166347 Z M1391.3094,568.95158 C1390.89444,568.931449 1390.51517,568.786227 1390.20629,568.554158 C1390.167,568.550572 1390.12744,568.546966 1390.08761,568.54334 C1384.65294,568.048707 1374.1464,567.192015 1358.57563,565.973966 C1326.53061,563.467191 1308.9108,549.670772 1306.40102,524.763519 C1306.29028,523.664514 1307.09142,522.683822 1308.19043,522.573081 C1309.28943,522.462339 1310.27012,523.263485 1310.38087,524.362489 C1312.67569,547.136513 1328.61633,559.61813 1358.88758,561.986149 C1374.47495,563.205496 1384.99326,564.063148 1390.45017,564.559805 C1393.71939,564.857352 1394.85813,564.980468 1395.30457,565.13839 C1395.54716,565.176755 1395.54716,565.176755 1396.40313,566.057908 C1396.76157,567.385709 1396.76157,567.385709 1396.10288,568.422717 C1395.57141,568.8437 1395.57141,568.8437 1395.30975,568.93261 C1395.04648,569.024715 1394.89543,569.042267 1394.6407,569.05482 C1394.46984,569.06324 1394.24235,569.063023 1393.92865,569.05623 C1393.36801,569.044091 1392.49778,569.009233 1391.3094,568.95158 Z M1128.52516,492.303526 C1129.145,493.217791 1128.90631,494.461423 1127.99204,495.081256 C1127.07778,495.701088 1125.83418,495.463477 1125.21431,494.548138 C1121.84863,489.583689 1103.41551,447.685436 1069.37882,367.715805 C1068.94625,366.699463 1069.41948,365.524882 1070.43583,365.092306 C1071.45217,364.65973 1072.62675,365.132967 1073.05933,366.149309 C1106.73037,445.259842 1125.39769,487.690438 1128.52516,492.303526 Z M1150.34961,977.589844 C1149.96583,978.625577 1148.81508,979.154087 1147.77935,978.770305 C1147.77934,978.770301 1147.77933,978.770297 1147.77932,978.770293 L1113.39663,966.029402 C1060.64996,948.016827 1033.13468,888.569558 1051.54185,834.667382 C1051.78501,833.955348 1052.03603,833.246026 1052.29488,832.539546 L1053.06909,830.426493 C1053.4491,829.389347 1054.59793,828.856629 1055.63507,829.236634 C1056.67222,829.616638 1057.20493,830.765465 1056.82493,831.80261 L1056.05072,833.915664 C1055.80202,834.594438 1055.56084,835.275944 1055.32722,835.960055 C1037.6211,887.809334 1064.07289,944.958927 1114.73788,962.261326 L1149.16913,975.01954 C1150.20488,975.403329 1150.7334,976.554093 1150.34961,977.589844 Z" id="Combined-Shape" fill="#6674A9" fill-rule="nonzero"></path>
        <path d="M1117.98985,1038.96375 L1135.38837,1210.46375 L1045.98161,1210.46375 L1045.38837,1147.92469 L999.068055,1210.46375 L860.903993,1210.46375 L739.388368,1210.46375 L745.677825,1194.06162 C752.005843,1177.55894 765.879093,1165.10279 782.96565,1160.58261 L855.329553,1141.43903 L894,1038.96375 L1117.98985,1038.96375 Z M1682.16026,954.395921 L1656.54401,1022.41796 L1574.88682,1024.2935 L1648.31227,1044.27673 L1617.72416,1125.50118 L1591.45518,1210.96375 L1389.2356,1210.96375 L1398.93709,1185.78291 C1403.25041,1174.58743 1411.10618,1165.10941 1421.3069,1158.79366 L1476.35018,1124.71375 L1545.70035,914.242188 L1682.16026,954.395921 Z" id="Combined-Shape" fill="#161616"></path>
        <path d="M1060.36531,77.7147127 L1035.0339,113.195695 C1037.47246,93.7101171 1041.92461,82.8420537 1048.39036,80.5915043 C1054.61195,78.4259393 1058.55592,77.4378662 1060.22227,77.6272849 C1058.23098,76.3904429 1056.50573,74.4861173 1054.75773,71.5122804 C1052.14406,67.0656978 1046.7641,56.7072072 1046.95787,51.1582969 C1047.11377,46.6937626 1045.51074,39.6685774 1047.48761,35.9883912 C1049.24271,32.7210666 1052.97529,29.8934925 1056.27549,28.0494676 C1062.12568,24.7806015 1068.74001,23.9018789 1075.71551,24.1454685 C1081.93148,24.3625351 1088.19694,26.1461943 1093.26153,29.3410488 C1097.68216,32.1296794 1101.18789,35.9934548 1102.94723,40.829036 C1104.14738,44.1276671 1102.64896,49.3704201 1102.51877,53.0985264 C1102.27022,60.2159845 1099.79601,68.1407843 1095.27868,72.9273031 C1094.33469,73.9275483 1093.3061,74.8087491 1092.20615,75.5799049 L1141.5,74.6179119 L1201.40416,77.5550773 C1205.3219,77.7471681 1209.13946,78.8584168 1212.54824,80.7989866 C1224.54723,87.6298543 1228.73682,102.89447 1221.90595,114.893461 C1207.27824,140.588263 1197.41306,155.766761 1192.31043,160.428956 C1186.7722,165.489146 1167.52552,175.812212 1134.57038,191.398154 C1131.84176,192.688641 1128.80376,193.180972 1125.80723,192.818289 C1117.03469,191.756511 1110.78389,183.784225 1111.84567,175.011691 C1111.92058,174.392793 1111.98776,173.777719 1112.04721,173.16647 C1117.41603,174.692741 1128.6622,176.290225 1136.47763,171.569944 C1146.05784,165.783788 1150.08829,149.81985 1149.98865,144.111619 C1149.78513,132.451994 1140.36778,123.161501 1128.9544,123.360722 C1117.54102,123.559943 1108.45363,133.173438 1108.65715,144.833064 C1108.66318,145.178861 1108.65709,145.547625 1108.64068,145.936699 C1107.82139,143.916881 1106.86783,141.963517 1105.78002,140.076608 C1096.1488,123.370338 1081.37743,102.777917 1061.46593,78.2993441 C1061.2768,78.2112427 1061.09027,78.118435 1060.90613,78.0206318 C1060.62564,77.9386564 1060.46375,77.8476664 1060.42045,77.747662 C1060.40205,77.7367339 1060.38367,77.7257509 1060.36531,77.7147127 Z" id="Combined-Shape" fill="#FF461C"></path>
        <path d="M1059.64476,175.84088 C1059.13095,175.849849 1058.62552,175.845619 1058.13095,175.82903 C1056.31962,175.768275 1054.64766,175.071338 1053.24284,174.113396 C1050.68945,172.372251 1049.01858,169.768844 1048.99741,168.555975 C1048.97063,167.021707 1051.58545,167.724822 1055.3209,168.143708 C1056.60664,168.287888 1058.02515,168.398395 1059.5144,168.3724 C1061.24394,168.342211 1062.8993,168.130876 1064.3726,167.903041 C1067.85356,167.364735 1070.31815,166.734321 1070.34344,168.183378 C1070.36499,169.417784 1068.6115,171.881435 1065.95303,173.682372 C1064.1699,174.890321 1061.97963,175.800125 1059.64476,175.84088 Z M1081.94099,130.874672 C1078.35273,126.38278 1075.62377,126.430414 1072.31853,131.018093 C1071.65475,131.939415 1070.40707,132.117754 1069.53175,131.416424 C1068.65642,130.715094 1068.48493,129.399675 1069.14871,128.478353 C1074.00328,121.740203 1079.75962,121.639726 1084.98215,128.177439 C1085.69034,129.063971 1085.58366,130.386444 1084.74387,131.131265 C1083.90407,131.876085 1082.64918,131.761205 1081.94099,130.874672 Z M1050.8516,128.77341 C1050.91356,128.875261 1050.96533,128.981179 1051.00702,129.089797 C1052.52179,132.777723 1053.22751,134.822509 1053.24562,135.859791 C1053.26044,136.70872 1052.15292,142.951599 1049.66281,156.221097 L1059.79661,156.044211 C1060.88958,156.025133 1061.79104,156.893793 1061.81008,157.984416 C1061.82912,159.07504 1060.95852,159.974627 1059.86555,159.993704 L1047.30443,160.21296 C1046.05104,160.234838 1045.09331,159.103294 1045.32465,157.873874 C1046.66175,150.768178 1047.6629,145.355863 1048.32776,141.638834 C1048.93252,138.257821 1049.28989,136.059719 1049.28761,135.928878 C1049.28243,135.632198 1048.6315,133.740654 1047.44623,130.83747 C1043.93675,126.795667 1041.22363,126.920671 1037.95496,131.214211 C1037.29368,132.08283 1036.05197,132.252117 1035.18153,131.592325 C1034.31109,130.932533 1034.14153,129.693511 1034.80281,128.824893 C1039.66652,122.436206 1045.41955,122.323245 1050.6414,128.487825 C1050.71904,128.575452 1050.78953,128.670826 1050.8516,128.77341 Z M1044.15235,146.587096 C1041.61787,146.631336 1040.47775,143.730467 1040.41488,140.128613 C1040.38855,138.620133 1039.74254,136.285853 1040.32833,135.170439 C1041.14125,133.622537 1042.45165,133.56934 1043.92467,133.543628 C1046.45915,133.499389 1046.5797,136.418054 1046.64257,140.019908 C1046.70544,143.621762 1046.68683,146.542857 1044.15235,146.587096 Z M1077.56352,146.003902 C1075.02905,146.048141 1073.88893,143.147273 1073.82606,139.545419 C1073.79972,138.036939 1073.15372,135.702659 1073.73951,134.587245 C1074.55243,133.039343 1075.86283,132.986146 1077.33585,132.960434 C1079.87033,132.916195 1079.99088,135.83486 1080.05375,139.436714 C1080.11662,143.038568 1080.098,145.959662 1077.56352,146.003902 Z" id="Combined-Shape" fill="#6674A9" fill-rule="nonzero"></path>
        <path d="M1043.08301,178.349714 L1043.07935,178.350884 C1034.83734,186.250846 1030,197.229677 1030,209.02483 C1030,217.976334 1032.76744,226.281466 1037.49342,233.131318 C1035.93646,234.412677 1034.43598,235.759854 1032.99619,237.168531 C1027.33222,229.232562 1024,219.517837 1024,209.02483 C1024,194.288479 1030.6228,180.660459 1041.7105,171.548617 L1041.72658,171.556218 C1042.14608,173.921621 1042.59697,176.187888 1043.08301,178.349714 Z M1113.53539,169.394118 C1114.88837,168.437773 1116.76045,168.759315 1117.7168,170.112301 C1118.67314,171.465287 1118.3516,173.337369 1116.99862,174.293714 C1105.7945,182.213227 1099,195.045726 1099,209.02483 C1099,232.496932 1118.0279,251.52483 1141.5,251.52483 C1164.9721,251.52483 1184,232.496932 1184,209.02483 C1184,187.848615 1168.41563,169.983472 1147.66845,166.968823 C1146.02881,166.730577 1144.89276,165.208254 1145.13101,163.568618 C1145.36925,161.928983 1146.89158,160.792931 1148.53121,161.031177 C1172.21763,164.472908 1190,184.85773 1190,209.02483 C1190,235.81064 1168.28581,257.52483 1141.5,257.52483 C1114.71419,257.52483 1093,235.81064 1093,209.02483 C1093,193.076588 1100.75689,178.426467 1113.53539,169.394118 Z" id="Combined-Shape" fill="#FFE640"></path>
        <polygon id="Path-227" fill="#FFFFFF" points="403 465 413.321065 391 303 501 373.214506 500.337033 323.382812 621.855469 466.410156 499.33026"></polygon>
    </g>
</svg>