<?xml version="1.0" encoding="UTF-8"?>
<svg width="1794px" height="1276px" viewBox="0 0 1794 1276" version="1.1" xmlns="http://www.w3.org/2000/svg" xmlns:xlink="http://www.w3.org/1999/xlink">
    <!-- Generator: Sketch 56.1 (81669) - https://sketch.com -->
    <title>Green Mind</title>
    <desc>Created with Sketch.</desc>
    <g id="Green-Mind" stroke="none" stroke-width="1" fill="none" fill-rule="evenodd">
        <path d="M637.355255,315.192675 L618.717787,284.929383 C616.075432,280.638759 617.411618,275.018469 621.702242,272.376113 C621.735567,272.355591 621.769023,272.335283 621.802608,272.315191 C626.255561,269.651284 632.01331,270.921865 634.931603,275.212407 L642.579847,286.457034 L656.70071,208.791247 C656.864185,207.892127 657.212244,207.036649 657.722927,206.278794 C659.763828,203.250089 663.873556,202.449316 666.902261,204.490217 C672.000475,207.925662 674.583266,214.051919 673.483426,220.100425 L657.443666,308.310167 L689.944215,356.093233 L736.589512,250.236745 C737.895878,247.272089 741.358225,245.927779 744.322881,247.234145 C745.23581,247.636424 746.031059,248.264888 746.633445,249.060122 C750.322305,253.929937 750.933019,260.469478 748.209645,265.938118 L695.78,371.218844 L703.027829,522.902259 L672.058288,531.894605 L670.090493,405.942534 L671.332883,370.365132 L651.898173,338.807287 L644.816622,377.751868 L622.491134,515.617831 L570.693764,509.373487 C572.158271,448.339564 572.257733,405.754661 570.992148,381.618777 C569.796286,358.812561 564.085028,286.064841 553.858376,163.375619 C553.656993,160.959622 554.350319,158.553844 555.806572,156.615565 C559.086473,152.249998 565.284349,151.369893 569.649915,154.649795 C580.823327,163.04451 587.710614,175.952167 588.462764,189.907476 L602.739602,454.798627 L627.913996,367.120293 L637.355255,315.192675 Z M1308.65434,512.338669 L1299.17217,367.31388 L1292.52359,318.299614 C1275.47379,272.677028 1269.11932,244.161743 1273.46016,232.753757 C1277.11727,223.142674 1282.12036,212.560594 1288.46942,201.007517 C1290.68262,196.98029 1295.00469,194.574225 1299.5937,194.814725 C1302.7254,194.978851 1305.1311,197.650649 1304.96697,200.782354 C1304.94059,201.285861 1304.84725,201.783611 1304.68944,202.262474 L1292.17165,240.245663 L1299.17217,288.092236 L1318.93555,248.263588 C1320.79009,244.526185 1325.32325,242.999821 1329.06065,244.854359 C1329.44162,245.0434 1329.80595,245.264274 1330.14975,245.514628 C1334.40521,248.613444 1336.01401,254.205621 1334.0558,259.092032 L1320.10155,293.912767 L1326.62646,456.075813 L1323.07578,523.826898 L1308.65434,512.338669 Z M1048.23014,256.741929 C1045.5767,251.223388 1046.2331,244.68423 1049.93047,239.803189 C1050.51975,239.025261 1051.28901,238.401965 1052.17223,237.986813 C1055.18648,236.569971 1058.77859,237.864929 1060.19544,240.879183 L1097.68328,320.632539 C1098.19096,321.712598 1099.0092,322.616724 1100.03339,323.229336 C1102.8772,324.930338 1106.5615,324.003909 1108.2625,321.160099 L1151.65072,248.62174 C1151.65083,248.621562 1151.65094,248.621383 1151.65105,248.621204 C1154.2713,244.241222 1159.94611,242.814679 1164.32609,245.434932 C1164.35968,245.455024 1164.39313,245.475332 1164.42646,245.495855 C1168.71708,248.13821 1170.05327,253.7585 1167.41091,258.049124 L1114.79582,343.484874 L1116.03821,379.062275 L1114.07041,505.014346 L1083.10087,496.022001 L1090.3487,344.338586 L1048.23014,256.741929 Z M1175.4043,475.714565 L1181.53379,330.954856 L1183.50048,168.626474 C1183.55908,163.789752 1186.56722,159.479976 1191.08708,157.757132 C1193.84354,156.706447 1196.92985,158.089251 1197.98053,160.845711 C1198.23194,161.505273 1198.35012,162.208124 1198.32825,162.913637 L1193.38635,322.338216 C1193.27108,326.056793 1196.19214,329.16474 1199.91071,329.28001 C1203.41965,329.388781 1206.42384,326.784479 1206.81401,323.29561 L1225.21836,158.726652 C1225.76463,153.841945 1229.89466,150.148046 1234.80982,150.148046 C1238.98305,150.148046 1242.36613,153.531121 1242.36613,157.704355 C1242.36613,158.038749 1242.34393,158.372773 1242.29968,158.704226 L1208.13653,414.614722 L1175.4043,475.714565 Z M1404.51751,529.77883 C1394.1279,445.030004 1389.36229,394.470263 1390.2207,378.099609 C1391.07911,361.728956 1395.22957,349.52798 1402.67209,341.496683 L1405.25677,438.453825 C1405.30301,440.188472 1406.74671,441.557195 1408.48136,441.510953 C1410.14488,441.466607 1411.48531,440.132902 1411.53802,438.469627 L1414.42063,347.517277 C1414.70672,338.490505 1422.25629,331.404782 1431.28306,331.690873 C1431.39556,331.694439 1431.50802,331.699166 1431.62042,331.705053 C1440.34455,332.162021 1447.04641,339.604771 1446.58944,348.3289 C1446.57462,348.61189 1446.55219,348.894431 1446.52218,349.176215 C1434.18807,465.019143 1427.72822,528.524328 1427.14265,539.69177 C1426.52968,551.381531 1420.191,556.910446 1408.12659,556.278516 L1404.51751,529.77883 Z M497.632051,535.256702 L484.631949,526.02166 L422.09541,331.947598 C419.950217,325.290267 423.108163,318.078653 429.45536,315.140117 C429.864908,314.950511 430.285932,314.78675 430.715959,314.649797 C436.402013,312.838927 442.479469,315.980385 444.290338,321.666438 L491.806377,470.864799 L505.265466,316.664287 L494.399147,280.759862 C492.874271,275.721376 494.964339,270.290696 499.473684,267.574559 C499.750598,267.407764 500.037468,267.258087 500.332683,267.126368 C504.325519,265.344851 509.006557,267.137478 510.788074,271.130313 L531.513324,317.580882 L530.61303,343.361912 L519.717883,391.610203 L497.632051,535.256702 Z M382.117605,561.483626 L378.508519,587.983311 C366.44413,588.615579 360.105446,583.086664 359.492466,571.396566 C358.906893,560.229123 352.447046,496.723935 340.112928,380.881 C340.082942,380.599354 340.060524,380.316952 340.045701,380.034102 C339.588477,371.309747 346.29031,363.866607 355.014665,363.409383 C364.221849,362.926855 372.076978,369.999446 372.559763,379.206617 L382.117605,561.483626 Z" id="Combined-Shape" fill="#FFE640"></path>
        <path d="M1290.44928,232.112853 C1274.09797,225.236497 1265.73997,216.576565 1265.37527,206.133056 C1264.97402,194.642687 1264.12394,183.849765 1262.82503,173.754289 C1262.42508,162.238211 1265.5776,152.134928 1272.28261,143.444439 C1282.34012,130.408706 1301.58416,99.6529794 1321.21066,116.824219 C1323.51861,118.843446 1325.68272,120.782584 1327.70297,122.641634 C1339.71087,133.691371 1346.79086,149.091613 1347.36036,165.399953 L1347.6521,173.754289 C1363.72846,180.823482 1371.86722,187.238068 1372.06836,192.998047 C1372.37007,201.638016 1351.02529,256.791991 1342.94336,257.074219 C1338.00045,257.246829 1324.31248,250.823433 1301.87947,237.804029 C1298.19453,235.665412 1294.37669,233.764479 1290.44928,232.112853 Z M1362.82388,378.801988 C1361.76221,378.970058 1360.67756,378.922456 1359.6347,378.662024 C1355.34806,377.591532 1352.74086,373.248721 1353.81136,368.962086 C1367.88559,312.603778 1383.06892,281.133343 1399.36133,274.550781 C1416.7565,267.522677 1435.85071,280.957148 1456.64398,314.854193 C1478.72643,308.268965 1492.59771,311.980979 1498.25781,325.990234 C1503.91792,339.99949 1498.23693,353.315275 1481.21484,365.937588 C1503.31344,363.623444 1515.95602,366.409873 1519.14258,374.296875 C1522.32913,382.183877 1512.29398,390.194945 1443.13281,391.777344 C1428.79632,381.084113 1417.61533,375.25729 1409.58984,374.296875 C1402.63893,373.465055 1387.05028,374.966759 1362.82388,378.801988 Z M1168.94856,100.437934 C1178.60428,91.1280102 1194.25831,87.5151741 1215.91062,89.5994262 C1223.8577,78.4036906 1232.7726,68.702118 1242.65531,60.4947083 C1257.47939,48.1835937 1293.22656,48.1835937 1313.24023,60.4947083 C1333.25391,72.8058228 1322.64741,93.2491777 1305.00586,93.8652344 C1293.24482,94.2759388 1280.32408,104.354672 1266.24362,124.101433 L1238.32441,182.093684 L1193.11806,175.523437 C1169.11231,172.034448 1152.48018,149.745574 1155.96915,125.739826 C1157.37021,116.099926 1161.93608,107.199276 1168.94856,100.437934 Z M1112.39957,162.870298 C1120.11402,179.434961 1127.01358,189.990411 1133.09823,194.536648 C1137.83962,198.079244 1151.64183,210.500126 1174.50485,231.799293 C1176.86774,234.000564 1178.42592,236.92934 1178.93111,240.118958 C1180.18063,248.008097 1174.79815,255.416441 1166.90901,256.665958 L1110.95332,265.528468 L1064.02734,288.871094 C1049.61719,282.629459 1039.72461,272.97386 1034.34961,259.904297 C1026.28711,240.299953 1061.27671,231.461837 1050.43266,218.069497 C1039.58862,204.677156 1043.54309,199.302423 1050.43266,184.587994 C1057.32224,169.873565 1050.2117,161.694986 1067.42735,147.943391 C1078.90445,138.775661 1093.89519,143.751297 1112.39957,162.870298 Z M1148.46842,406.531828 C1150.93573,381.608305 1171.9895,362.671562 1197.03422,362.849486 C1197.67203,362.854017 1198.30965,362.872989 1198.9466,362.906388 C1222.25051,364.128347 1240.15146,384.010488 1238.9295,407.314394 C1237.97958,425.43027 1237.02966,443.546146 1236.07974,461.662022 C1233.3665,513.406029 1237.78352,590.395944 1249.3308,692.631769 L1199.11044,900.810161 L1124.54564,648.1875 L1148.46842,406.531828 Z M637.183065,441.184947 L661.932942,675.542969 L587.018262,927.690419 L536.797899,719.512028 C548.345177,617.276203 552.762197,540.286287 550.048959,488.542281 C549.095254,470.354236 548.141549,452.16619 547.187845,433.978145 C546.078309,412.818258 562.332331,394.765324 583.492218,393.655788 C585.235787,393.564362 586.983564,393.592063 588.72336,393.738697 C614.166131,395.883072 634.501513,415.793173 637.183065,441.184947 Z M505.265466,316.664287 C457.023064,325.605963 429.738293,329.966326 423.411153,329.745377 C413.920442,329.413955 395.837455,256.497307 396.192899,246.318713 C396.429862,239.532984 406.561021,237.033031 426.586377,238.818854 L427.83331,203.111359 C434.588048,191.087503 445.648747,178.331697 461.015407,164.843941 C484.065397,144.612308 504.032155,172.377764 514.395205,187.744562 C521.303905,197.989093 524.758255,212.862004 524.758255,232.363292 C524.192898,248.552988 523.673866,263.416135 523.201157,276.952735 C522.728449,290.489335 516.749885,303.726519 505.265466,316.664287 Z M345.257161,421.774088 C334.175004,378.88907 325.400265,357.61603 318.932942,357.954968 C309.231958,358.463375 285.634222,342.02753 278.887238,333.161577 C274.389248,327.250941 274.389248,317.974563 278.887238,305.332443 C259.980066,279.481994 254.902563,266.327429 263.654728,265.868747 C272.406893,265.410066 289.614865,278.664204 315.278645,305.631161 C310.461116,277.958712 315.82535,263.715122 331.371347,262.900391 C346.917344,262.085659 358.547952,274.703284 366.263171,300.753265 C385.875138,280.395427 396.186256,279.855044 397.196524,299.132116 C398.206793,318.409188 380.893672,359.289845 345.257161,421.774088 Z M613.162406,221.621152 L560.884114,236.733254 L540.88832,197.875 C526.696537,170.508883 517.460542,149.601414 513.180334,135.152594 C506.760023,113.479365 488.539998,101.93027 500.490038,81.2441582 C512.440079,60.5580462 548.97576,68.8507054 572.366103,81.2441582 C596.355891,93.9552296 584.752089,125.513173 605.054098,131.010366 C644.556501,141.706466 624.510251,156.35926 633.304846,177.476598 C639.16791,191.554823 632.453763,206.269674 613.162406,221.621152 Z M662.35448,224.14946 C651.559514,199.830393 652.561815,184.067314 665.361384,176.860223 C684.560738,166.049587 717.70651,63.8802303 749.656897,147.817847 C781.607283,231.755463 779.566597,203.343034 775.288708,236.733254 C772.436783,258.993401 756.974116,283.357717 728.900708,309.826201 L713.669279,335.175555 C695.799708,289.205394 685.897,262.547991 683.961154,255.203345 C682.025309,247.8587 674.823084,237.507405 662.35448,224.14946 Z" id="Combined-Shape" fill="#82D121"></path>
        <path d="M574.068784,1028.85502 L576.764663,1034.14748 L488.00215,1052.4236 C453.785845,1029.1188 422.775644,964.284526 394.971548,857.920774 C368.517149,756.720248 352.737255,638.029725 347.631867,501.849206 C347.181377,489.831954 355.662504,479.323206 367.503959,477.226246 C368.085663,477.123234 368.67187,477.0475 369.260655,476.999292 C379.683884,476.145874 388.825414,483.903738 389.67881,494.32697 C393.440405,540.269225 398.07493,579.273126 403.582385,611.338671 C406.926858,630.81089 415.232641,660.92663 428.499734,701.685892 C431.631947,681.909877 434.148316,666.022147 436.048841,654.022703 C440.630363,625.096113 447.659849,547.889145 457.1373,422.401798 C457.193619,421.656384 457.280346,420.913579 457.397287,420.175243 C459.768558,405.203631 473.827741,394.989037 488.799353,397.360307 C506.043119,400.091451 519.134934,414.338576 520.40154,431.751282 L533.773547,615.583488 L571.547488,892.544727 L535.768108,953.664463 L550.032954,981.668713 C555.874849,967.002403 561.931644,955.803523 568.203339,948.072071 C584.909471,927.477534 608.903411,819.600213 644.890734,724.176266 C667.458707,664.335056 674.786686,571.912391 666.874672,446.90827 C666.000466,433.096822 675.423107,420.747411 688.975105,417.943184 C689.618282,417.810096 690.266976,417.705227 690.919326,417.62888 C703.264403,416.184076 714.44331,425.020493 715.888149,437.365565 C727.776824,538.947932 726.07282,649.554489 710.776138,769.185236 C694.248774,898.440777 661.585318,987.350101 612.785771,1035.91321 L574.068784,1028.85502 Z M1220.46033,1000.44335 L1173.34293,1009.03295 C1124.54338,960.469842 1091.87993,871.560519 1075.35256,742.304978 C1060.05588,622.67423 1058.35188,512.067673 1070.24055,410.485307 C1071.68539,398.140234 1082.8643,389.303817 1095.20938,390.748621 C1095.86172,390.824969 1096.51042,390.929837 1097.1536,391.062926 C1110.70559,393.867153 1120.12824,406.216564 1119.25403,420.028012 C1111.34201,545.032132 1118.66999,637.454797 1141.23797,697.296007 C1158.82272,743.923724 1173.54386,793.524891 1185.95037,834.463259 L1242.78571,583.622525 L1272.12887,401.655303 C1274.90827,384.41925 1289.19199,371.367366 1306.60817,370.149508 C1321.72948,369.092123 1334.84491,380.493187 1335.90229,395.614497 C1335.95444,396.360215 1335.97609,397.107752 1335.96723,397.855239 C1334.47167,523.691082 1334.74538,601.216915 1336.78835,630.432736 C1338.23256,651.085901 1340.47427,683.143882 1343.51349,726.606678 C1361.93168,672.284704 1373.15462,633.398773 1377.18228,609.948886 C1382.68973,577.88334 1387.32426,538.87944 1391.08585,492.937185 C1391.93925,482.513953 1401.08078,474.756089 1411.50401,475.609507 C1412.09279,475.657715 1412.679,475.733449 1413.2607,475.836461 C1425.10216,477.933421 1433.58329,488.442169 1433.1328,500.459421 C1428.02741,636.63994 1412.24751,755.330463 1385.79311,856.530989 C1357.98902,962.894741 1326.97882,1027.72902 1292.76251,1051.03382 L1204,1032.75769 L1220.46033,1000.44335 Z" id="Combined-Shape" fill="#C8FF57"></path>
        <path d="M1052.44126,777.989352 L725.932076,772.774088 L630.092398,840.42524 C624.677998,844.247144 623.387029,851.734649 627.208935,857.149047 C628.44444,858.899356 630.126013,860.286977 632.079014,861.167799 C753.475239,915.918622 838.185556,947.341855 886.209964,955.4375 C936.713676,963.951089 1042.64369,931.805256 1204,859 L1052.44126,777.989352 Z" id="Path-38-Copy-5" fill="#E85353"></path>
        <path d="M958.92471,1182.77409 C955.682447,1183.35277 952.343703,1183.65235 948.934262,1183.64714 L504.964283,1182.96864 C490.362722,1182.94632 475.943188,1179.72664 462.718964,1173.53584 C412.700143,1150.11999 391.134173,1090.58943 414.550022,1040.57061 L490.096196,879.195695 C512.929004,830.422313 570.285191,808.490015 619.834885,829.585222 L867.115787,934.862197 C873.25204,928.647579 880.857324,923.849904 889.439731,921.022543 L1196.36078,819.91143 C1244.92669,803.912028 1297.73874,827.127802 1318.78605,873.72865 L1394.61096,1041.61254 C1400.45348,1054.54846 1403.4752,1068.57996 1403.4752,1082.77409 C1403.4752,1138.00256 1358.70368,1182.77409 1303.4752,1182.77409 L958.92471,1182.77409 Z" id="Combined-Shape" fill="#FF6C6C"></path>
        <path d="M1274.16087,762.66194 C1282.61922,760.174948 1292.99717,757.617979 1305.29471,754.991031 C1323.52144,753.537396 1335.72286,754.166756 1341.89899,756.87911 C1348.07512,759.591465 1354.14407,766.985864 1360.10585,779.062307 L1324.92125,789.966701 C1342.29137,788.670476 1353.97613,789.339729 1359.97551,791.974463 C1366.15163,794.686817 1372.22059,802.081216 1378.18237,814.157659 L1286.64451,842.527029 L1286.66615,842.638672 L1220.09019,855.703604 C1196.45225,860.342323 1172.57657,853.8462 1154.75803,839.081552 C1083.27162,832.694566 1038.22793,826.898137 1019.62695,821.692264 C995.066483,814.818503 980.118025,808.009319 976.310851,798.116409 C959.263703,753.819532 943.28232,657.601932 928.366703,509.463608 L989.119934,508.759704 C1040.82769,508.160604 1084.46356,547.082729 1089.75381,598.522635 C1090.03625,601.268983 1090.27503,603.895943 1090.47014,606.403514 C1092.25281,629.313954 1092.25281,666.191271 1090.47014,717.035463 L1140.80332,737.603548 C1144.5381,729.81611 1149.11011,721.72886 1154.51933,713.341797 L1154.7914,713.571798 C1174.50099,687.372083 1210.9497,679.025437 1240.39,695.364238 C1265.09928,709.077433 1277.69578,736.197264 1274.16087,762.66194 Z M635.823982,845.757776 C618.933605,856.195429 598.283046,860.100804 577.970058,855.698979 L511.966294,841.395928 C511.899828,841.448747 511.833226,841.501624 511.766479,841.554555 L509.970846,840.963513 L500.772177,838.970156 L501.062054,838.031138 L420.565257,811.5352 C426.736896,799.564644 432.933977,792.277289 439.1565,789.673136 C445.200949,787.143507 456.895603,786.678283 474.24046,788.277462 L439.251521,776.760671 C445.42316,764.790115 451.620241,757.50276 457.842764,754.898607 C464.065287,752.294454 476.275838,751.878134 494.474415,753.649648 C506.331166,756.39965 516.390954,759.052716 524.653779,761.608847 L525.25234,759.669887 C523.126272,733.868628 536.152329,708.078651 560.409874,695.16468 C588.944929,679.973512 623.542161,687.646407 643.29352,711.770779 L644.156586,710.947714 C649.636113,719.882513 654.26632,728.457542 658.047207,736.672803 L713.851896,717.035463 L713.851896,606.403514 C713.851896,551.931986 758.009794,507.774088 812.481322,507.774088 L852.366703,507.774088 C840.465272,657.038759 825.970863,753.819532 808.883475,798.116409 C799.974172,821.212644 742.287674,837.0931 635.823982,845.757776 Z M967.830867,1024.69228 C977.961719,1029.69747 987.268169,1036.43101 995.293439,1044.69968 L1012.75751,1062.69342 C1025.34994,1075.66778 1041.22439,1084.98537 1058.69154,1089.65464 L1223.68335,1133.75977 C1237.32556,1137.40656 1245.42844,1151.42206 1241.78164,1165.06427 C1238.77958,1176.29461 1228.57973,1184.08644 1216.95519,1184.02959 L984.043473,1182.89044 L955.765993,1183.47104 C983.477007,1180.14388 1004.97605,1156.57416 1005.01978,1127.9587 C1005.03078,1120.76021 1003.6538,1113.6271 1000.96424,1106.94992 L967.830867,1024.69228 Z M819.271067,914.718775 L850.557569,906.341844 C851.639695,906.052106 852.731443,905.79958 853.830887,905.584712 C880.378002,900.396511 906.104559,917.711332 911.29276,944.258447 L913.405011,955.066467 C911.313973,953.995988 909.179183,952.996112 907.003648,952.069903 L819.271067,914.718775 Z M602.992374,775.442896 C614.723288,769.197718 619.171133,754.60308 612.926914,742.844856 C606.682689,731.086634 592.110961,726.617426 580.380044,732.862598 C568.649129,739.107776 564.201285,753.702414 570.445504,765.460639 C576.689728,777.21886 591.261456,781.688069 602.992374,775.442896 Z M1196.41294,774.887061 C1208.03308,781.336015 1222.68058,777.121799 1229.12907,765.474344 C1235.57754,753.826887 1231.38509,739.156847 1219.76495,732.707887 C1208.14482,726.258933 1193.49731,730.473149 1187.04883,742.120603 C1180.60035,753.76806 1184.7928,768.438101 1196.41294,774.887061 Z M847.505122,473.80609 C841.627883,475.57586 829.28797,477.535027 820.60034,472.527404 C809.950293,466.388627 805.209964,449.024621 805.209964,442.786386 C805.209964,430.044171 815.391358,419.714565 827.950743,419.714565 C832.234536,419.714565 836.241679,420.916287 839.662527,423.005578 C838.520811,414.199479 837.488132,406.600959 836.56449,400.210019 C833.874861,381.599728 846.489015,363.033169 874.406952,344.510341 C875.232121,344.529176 875.84168,344.529176 876.235629,344.510341 C919.043102,342.463705 929.988712,344.153254 939.204948,352.059743 C952.41919,363.396068 956.214561,397.728494 954.994816,422.99069 C958.927088,419.694778 963.970203,417.714565 969.469186,417.714565 C982.028571,417.714565 992.209964,428.044171 992.209964,440.786386 C992.209964,447.024621 987.469636,464.388627 976.819588,470.527404 C968.371561,475.396918 956.46993,473.678627 950.41562,471.952801 C946.031093,485.891929 935.811684,497.330079 922.470862,503.257238 L924.988605,507.269236 C929.685704,514.754019 927.425841,524.629387 919.941058,529.326486 C917.392622,530.925765 914.444897,531.774088 911.436206,531.774088 L883.052191,531.774088 C874.215635,531.774088 867.052191,524.610644 867.052191,515.774088 C867.052191,512.970138 867.789053,510.215421 869.188953,507.785932 L872.911378,501.325759 C861.182796,495.672793 852.142125,485.77874 847.505122,473.80609 Z" id="Combined-Shape" fill="#FFBEBE"></path>
        <path d="M869.66886,507.774088 C868.757904,509.817811 868.282849,512.036622 868.282849,514.288038 C868.282849,523.124594 875.446293,530.288038 884.282849,530.288038 L910.736032,530.288038 C913.821828,530.288038 916.841792,529.395713 919.432037,527.718581 C926.142586,523.373636 928.517077,514.851447 925.352524,507.774088 L975.932511,507.774088 C978.15218,507.774088 980.350162,507.900321 982.518325,508.147054 L995.668378,508.246128 C998.479149,508.267305 1001.28378,508.512051 1004.05574,508.978051 C1032.92177,513.830787 1052.38839,541.165249 1047.53565,570.03128 L1039.06081,620.443072 L1009.42578,819.11013 C960.141192,822.845415 922.749375,824.733705 897.250332,824.775001 C871.751288,824.812521 834.605591,822.482333 785.81324,817.784439 L757.052443,604.765576 C756.862485,603.358641 756.70936,601.949009 756.592918,600.538087 L751.464347,570.03128 C746.61161,541.165249 766.078232,513.830787 794.944264,508.978051 C797.716218,508.512051 800.520851,508.267305 803.331622,508.246128 L816.534869,508.146653 C818.707012,507.900176 820.90886,507.774088 823.132299,507.774088 L869.66886,507.774088 Z" id="Combined-Shape" fill="#FF8ADF"></path>
        <path d="M446.325754,774.602391 C445.866485,775.606954 444.679816,776.049002 443.675253,775.589733 C442.670691,775.130464 442.228643,773.943794 442.687912,772.939231 C452.477764,751.525811 470.281491,744.033336 495.427835,750.619877 C519.530294,756.932995 533.338666,760.350601 536.53746,760.805026 C537.63105,760.960383 538.391637,761.972854 538.23628,763.066444 C538.080923,764.160033 537.068452,764.920621 535.974863,764.765264 C532.540769,764.277412 518.792416,760.874661 494.414312,754.489344 C471.080095,748.37745 455.274327,755.029109 446.325754,774.602391 Z M422.318752,809.837431 C421.878478,810.850462 420.700342,811.314774 419.68731,810.8745 C418.674279,810.434226 418.209967,809.256089 418.650241,808.243058 C428.271283,786.10589 446.077543,778.471736 471.353638,785.535495 C495.557299,792.299547 509.424497,795.968638 512.631287,796.468069 C513.7227,796.638048 514.469669,797.660608 514.299691,798.75202 C514.129712,799.843432 513.107153,800.590402 512.01574,800.420423 C508.56798,799.883463 494.763059,796.23085 470.277033,789.387887 C446.863441,782.844631 431.115809,789.596179 422.318752,809.837431 Z M560.774462,767.813058 C561.643895,767.131765 562.901007,767.284283 563.5823,768.153716 C564.263593,769.023149 564.111075,770.280261 563.241641,770.961554 C542.771994,787.001685 531.876809,804.765385 530.412979,824.30162 C530.330447,825.403102 529.370613,826.229123 528.269131,826.146591 C527.167649,826.064058 526.341628,825.104224 526.424161,824.002742 C527.979291,803.248014 539.477094,784.501796 560.774462,767.813058 Z M654.459358,736.785433 C654.000214,735.780814 654.442409,734.594199 655.447028,734.135055 C656.451648,733.67591 657.638263,734.118105 658.097407,735.122725 C666.163288,752.771076 667.852735,775.029751 663.226979,801.874773 C663.039411,802.9633 662.004931,803.693672 660.916404,803.506105 C659.827876,803.318537 659.097504,802.284057 659.285072,801.19553 C663.784096,775.085982 662.155114,753.623942 654.459358,736.785433 Z M1353.07084,776.780897 C1344.46523,757.054422 1328.77795,750.127928 1305.34062,755.831652 C1280.85479,761.79054 1267.04915,764.952831 1263.60706,765.380675 C1262.51093,765.516923 1261.51189,764.738781 1261.37564,763.642647 C1261.23939,762.546512 1262.01753,761.547469 1263.11367,761.411222 C1266.31991,761.012693 1280.18582,757.836597 1304.39479,751.945086 C1329.65225,745.798413 1347.3225,753.600464 1356.73715,775.18148 C1357.17882,776.193904 1356.71613,777.372679 1355.7037,777.814346 C1354.69128,778.256013 1353.5125,777.793322 1353.07084,776.780897 Z M1376.45921,812.42955 C1368.01675,792.037851 1352.38935,785.012497 1328.86513,791.146133 C1304.2634,797.560714 1290.39684,800.971841 1286.94023,801.448548 C1285.84602,801.599453 1284.83665,800.834751 1284.68575,799.740539 C1284.53484,798.646326 1285.29955,797.636959 1286.39376,797.486054 C1289.60878,797.042664 1303.5379,793.616148 1327.85592,787.275539 C1353.25144,780.653985 1370.92176,788.597737 1380.15499,810.899444 C1380.57752,811.920005 1380.09271,813.089859 1379.07215,813.512386 C1378.05159,813.934913 1376.88174,813.450111 1376.45921,812.42955 Z M1238.75755,767.995188 C1259.76041,785.053075 1270.9293,803.997102 1272.12197,824.77581 C1272.18527,825.878564 1271.34262,826.823836 1270.23987,826.887133 C1269.13711,826.950429 1268.19184,826.107782 1268.12855,825.005028 C1267.00589,805.446221 1256.42239,787.495079 1236.2358,771.100146 C1235.37839,770.403783 1235.24783,769.144201 1235.94419,768.286791 C1236.64056,767.42938 1237.90014,767.298825 1238.75755,767.995188 Z M1146.39369,731.287015 C1139.62272,757.373014 1139.12134,777.294513 1144.77213,791.012314 C1145.19284,792.033626 1144.70596,793.202615 1143.68465,793.623325 C1142.66333,794.044035 1141.49434,793.557151 1141.07363,792.53584 C1135.03142,777.867805 1135.55334,757.129612 1142.52199,730.282062 C1142.7995,729.212922 1143.89117,728.571178 1144.96031,728.848688 C1146.02946,729.126198 1146.6712,730.217874 1146.39369,731.287015 Z M902.878089,475.714565 C896.611507,475.714565 891.209964,470.556726 891.209964,468.589076 C891.209964,466.621427 896.611507,468.589076 902.878089,468.589076 C909.144671,468.589076 914.209964,466.621427 914.209964,468.589076 C914.209964,470.382895 910.002612,475.429823 904.508472,475.678061 C903.976061,475.702116 903.431705,475.714565 902.878089,475.714565 Z M879.714826,440.386242 C880.448455,439.560493 881.712581,439.485815 882.538331,440.219445 C883.36408,440.953074 883.438757,442.2172 882.705128,443.042949 C877.167756,449.275631 871.084341,449.275631 865.694775,443.020031 C864.973802,442.183208 865.067718,440.920366 865.904541,440.199393 C866.741364,439.478421 868.004207,439.572337 868.725179,440.40916 C872.525573,444.820227 875.77549,444.820227 879.714826,440.386242 Z M931.714826,440.386242 C932.448455,439.560493 933.712581,439.485815 934.538331,440.219445 C935.36408,440.953074 935.438757,442.2172 934.705128,443.042949 C929.167756,449.275631 923.084341,449.275631 917.694775,443.020031 C916.973802,442.183208 917.067718,440.920366 917.904541,440.199393 C918.741364,439.478421 920.004207,439.572337 920.725179,440.40916 C924.525573,444.820227 927.77549,444.820227 931.714826,440.386242 Z M907.999655,422.195837 C908.367409,421.758353 908.886295,421.444007 909.493879,421.340788 C918.335149,419.838793 927.055043,419.838793 935.641282,421.342976 C937.001283,421.581228 937.91064,422.876868 937.672388,424.236868 C937.434135,425.596869 936.138496,426.506225 934.778495,426.267973 C926.895544,424.886996 918.891416,424.863473 910.754447,426.19948 C910.747575,426.207151 910.740647,426.214791 910.733662,426.222399 C909.705169,427.342744 909.074437,428.507085 908.741513,429.687597 C908.525265,430.454387 908.470131,431.013285 908.470131,431.712087 C908.470131,431.863207 908.943485,434.526369 909.73323,438.59977 C910.604083,443.091518 911.911592,449.631379 913.655313,458.216978 C913.969918,459.766007 912.785986,461.214565 911.205332,461.214565 L896.209889,461.214565 C894.829177,461.214565 893.709889,460.095277 893.709889,458.714565 C893.709889,457.333854 894.829177,456.214565 896.209889,456.214565 L908.147314,456.214565 C904.911724,440.241467 903.470131,432.746803 903.470131,431.712087 C903.470131,431.256769 903.48139,430.918653 903.527862,430.447561 C903.595219,429.764749 903.723507,429.059889 903.929221,428.33045 C904.469323,426.415307 905.477215,424.554722 907.050366,422.841078 C907.321941,422.545249 907.648312,422.329744 907.999655,422.195837 Z M869.371361,427.375973 C868.005855,427.580319 866.733238,426.639012 866.528892,425.273506 C866.324546,423.907999 867.265852,422.635382 868.631358,422.431036 C874.160741,421.603572 879.72103,421.599788 885.304282,422.419151 C886.670362,422.619628 887.615269,423.889573 887.414792,425.255653 C887.214315,426.621733 885.944369,427.566641 884.578289,427.366163 C879.47993,426.61796 874.413603,426.621408 869.371361,427.375973 Z" id="Combined-Shape" fill="#E96868" fill-rule="nonzero"></path>
        <path d="M971.613778,418.122171 C970.839775,418.041393 970.054263,418 969.259221,418 C963.737103,418 958.674695,419.99691 954.735277,423.317796 C951.102313,423.257788 940.310089,386.921292 922.317774,375.219059 C917.649205,372.182614 905.191011,369.604088 884.943191,367.48348 L886.376394,354.364775 L882.347708,367.006992 C872.321689,371.242004 864.222017,381.393866 858.048691,397.462578 C850.646469,416.730016 845.888325,426.479276 843.774259,426.710358 C839.90272,422.805025 834.652914,420.304597 828.830047,420.026002 C826.433347,416.293704 826.69585,410.851402 829.617557,403.699096 C833.451766,394.312992 844.385032,367.80541 856.643495,351.433199 C860.872288,345.785288 870.216773,342.619054 884.676948,341.934495 C885.993966,341.872146 887.192321,342.454056 887.966728,343.40254 C888.502525,342.537616 889.360943,341.888696 890.390872,341.629313 C910.840133,336.479117 926.253341,338.154003 936.630496,346.65397 C952.874256,359.959296 970.310498,393.619615 972.086505,411.47071 C972.364004,414.259925 972.159754,416.433993 971.613779,418.122173 Z" id="Combined-Shape" fill="#7821D1"></path>
        <path d="M869.570658,667.710482 C846.968207,661.428018 833.630604,651.635961 830.1748,637.59482 C825.584752,618.945175 839.419503,597.539371 873.741938,630.922387 C880.536301,637.530786 884.65774,629.647588 885.171228,629.17103 C887.251678,627.240205 865.947034,575.701717 892.424893,570.094666 C914.625675,565.393346 921.150648,589.2515 911.999812,641.66913 C930.279322,617.226703 946.737574,610.183977 961.374569,620.540954 C966.546859,624.200809 967.248931,629.862417 965.731938,642.217339 C964.81072,649.720053 952.867244,661.372012 935.115969,668.159928 C952.849054,672.894541 963.901706,680.904953 967.922093,692.696669 C974.120098,710.875297 962.203631,733.405423 925.102281,703.140837 C917.757813,697.149753 914.339124,705.36216 913.869125,705.881658 C911.964874,707.986458 937.680322,757.472005 911.791906,765.365417 C890.085352,771.983773 881.505833,748.785095 886.05335,695.769382 C869.973697,721.711963 854.191887,730.16232 838.707921,721.120453 C833.236336,717.925319 832.043493,712.346445 832.477912,699.906322 C832.784814,691.117786 847.463071,675.434871 869.570658,667.710482 Z" id="Combined-Shape" fill="#C8FF57"></path>
        <circle id="Oval" fill="#82D121" cx="898" cy="668" r="15"></circle>
    </g>
</svg>