<?xml version="1.0" encoding="UTF-8"?>
<svg width="1794px" height="1276px" viewBox="0 0 1794 1276" version="1.1" xmlns="http://www.w3.org/2000/svg" xmlns:xlink="http://www.w3.org/1999/xlink">
    <!-- Generator: Sketch 56.1 (81669) - https://sketch.com -->
    <title>Eco-man</title>
    <desc>Created with Sketch.</desc>
    <g id="Eco-man" stroke="none" stroke-width="1" fill="none" fill-rule="evenodd">
        <path d="M782.394105,1127.5 L764.970912,1232.5 L729.844822,1232.5 L678.761488,1232.5 L401.998868,1232.5 L408.609156,1213.62294 C414.987932,1195.40702 430.448148,1181.86758 449.34624,1177.94703 L544.390284,1158.22942 L597.701054,1117 L782.394105,1127.5 Z M1486.03887,1044.75461 L1563.99887,1078.70981 L1593.39131,1200.12441 C1597.02978,1215.15424 1587.79525,1230.2879 1572.76542,1233.92637 C1570.60832,1234.44857 1568.39679,1234.71244 1566.17738,1234.71244 L1430.56527,1234.71244 L1319.53266,1235.62127 C1298.33392,1235.79478 1281.00829,1218.75047 1280.83477,1197.55173 C1280.69682,1180.69852 1291.56844,1165.72672 1307.63674,1160.6415 L1350.00668,1110.41106 L1486.03887,1044.75461 Z" id="Combined-Shape" fill="#161616"></path>
        <path d="M1119.17488,223.028444 C1125.30899,220.913364 1131.74027,219.367283 1138.41539,218.46029 C1140.56927,218.167627 1142.73212,217.945269 1144.9005,217.793572 L1271.70623,208.922364 L1271.9883,210.770077 L1272.50391,209.871385 L1488.12326,265.685628 C1530.2636,276.593883 1560.5069,313.508921 1562.91104,356.971756 L1564.24017,381 C1566.90727,429.216658 1529.98206,470.466096 1481.7654,473.133197 C1478.47146,473.315402 1475.16984,473.311041 1471.87639,473.120107 C1383.84783,468.01756 1316.60098,461.887696 1270.13585,454.730514 L1085.42661,459.044864 C1065.90607,483.740447 1048.81673,500.724396 1034.15858,509.996712 C1012.19774,523.888489 969.939885,542.925903 907.38501,567.108955 C868.652982,582.082346 824.697478,571.560746 796.943298,540.672593 L780.708981,522.605115 C775.278476,516.561403 771.094567,509.505042 768.39723,501.840761 C757.079733,469.682939 773.974154,434.43923 806.131975,423.121733 L913.56389,385.312567 C933.553499,378.277502 950.791444,365.074041 962.790728,347.607106 L1013.99231,273.074775 C1028.67575,251.700595 1051.08805,236.866172 1076.50035,231.701465 L1119.17488,223.028444 Z" id="Combined-Shape" fill="#FF8ADF"></path>
        <path d="M1316.29656,679 L1184.00609,453.820591 L1082.17042,453.833758 L786.19702,685.842251 C779.558217,691.046296 773.604553,697.069429 768.477869,703.768152 L518.79797,1030.00959 C493.288112,1063.34176 499.629349,1111.04265 532.96152,1136.55251 C546.221234,1146.70047 562.453868,1152.19928 579.151205,1152.19928 L768.778653,1152.19928 C786.924686,1152.19928 803.945872,1143.40675 814.447589,1128.60836 L1020.44015,838.335938 L1316.29656,679 Z" id="Path-38-Copy-3" fill="#E85353"></path>
        <path d="M1620.55354,453.820591 L1388.34543,448.504768 L1376.97396,563.646826 C1376.78738,565.536034 1376.65464,567.430172 1376.57589,569.326937 L1369.86374,731 L1122.8093,1024.73851 C1096.14754,1056.43835 1100.23171,1103.74976 1131.93155,1130.41152 C1145.13594,1141.51733 1161.76569,1147.73079 1179.01735,1148.00446 L1410.70793,1151.67977 C1430.9381,1152.00068 1449.76822,1141.38424 1459.96476,1123.90874 L1668.7661,766.051174 C1681.88105,743.573889 1685.71712,716.869382 1679.45958,691.609264 L1620.55354,453.820591 Z" id="Path-38-Copy-4" fill="#FF6C6C" transform="translate(1355.228389, 800.352023) scale(-1, 1) translate(-1355.228389, -800.352023) "></path>
        <path d="M1383.00877,258.471793 L1373.23251,250.207031 L1323.65721,221.823585 C1322.32917,221.063241 1320.84434,220.617832 1319.31707,220.521657 C1313.80514,220.174563 1309.05546,224.361489 1308.70837,229.873419 L1302.5,328.463623 C1282.69449,372.38355 1274.11998,402.506352 1276.77649,418.832029 C1276.94572,419.872082 1303.1815,444.823058 1309.71784,499.709275 C1316.25418,554.595493 1298.20035,605.454597 1302.55926,649.815214 C1302.56215,649.844597 1302.56497,649.873987 1302.56771,649.903383 C1303.53146,660.211685 1295.9562,669.349487 1285.6479,670.313235 C1275.3396,671.276984 1266.2018,663.701727 1265.23805,653.393425 L1265.23801,653.393429 C1259.78519,595.069867 1254.48656,555.054887 1249.34211,533.348489 C1236.2869,478.263514 1222.96428,507.939023 1214.32143,472.145838 C1208.55952,448.283715 1208.55952,425.679413 1214.32143,404.332934 L1242.14677,278.884064 C1246.30214,213.87047 1251.35767,171.275307 1257.31336,151.098577 C1266.24691,120.833481 1317.41094,118.321232 1317.41094,124.341048 C1317.41094,130.360865 1374.58936,210.308255 1374.58936,213.842851 C1374.58936,215.474903 1377.87198,224.749747 1384.43722,241.667385 C1389.38615,185.059162 1397.77305,103.985944 1403.8206,81.2396535 C1412.39896,48.9743741 1447.29784,43.7006725 1450.90626,85.7758789 C1451.12699,88.3496299 1444.73921,161.155173 1444.73921,163.767869 C1444.73921,167.980617 1447.24279,171.79045 1451.10966,173.46214 C1456.46366,175.77673 1462.68028,173.312804 1464.99487,167.958806 L1464.99489,167.958815 C1468.13455,160.696298 1471.55519,153.414708 1475.25679,146.114047 C1501.2607,94.8266437 1525.62189,131.117926 1495.85054,210.728807 C1466.0792,290.339688 1419.23411,326.923501 1419.23411,336.220848 C1419.23411,342.419079 1398.48941,347.167539 1357,350.466228 C1372.54262,326.31519 1380.31393,308.845424 1380.31393,298.056932 C1380.31393,293.745209 1381.33644,278.769863 1383.00877,258.471793 Z" id="Combined-Shape" fill="#82D121"></path>
        <path d="M1319.97852,296.230115 L1475.4925,295.183019 C1490.40385,295.082619 1502.57328,307.089266 1502.67368,322.000616 C1502.67409,322.061212 1502.67429,322.121809 1502.67429,322.182407 L1502.67429,449 C1502.67429,472.195959 1483.87025,491 1460.67429,491 L1361.97852,491 C1338.78256,491 1319.97852,472.195959 1319.97852,449 L1319.97852,296.230115 Z" id="Rectangle" fill="#60CBFF"></path>
        <path d="M905.443747,205.777751 L890.946613,144.101963 C887.237663,128.322815 891.73755,111.737344 902.913067,99.9965758 L911.29318,91.1926002 C917.251974,84.9324135 925.932026,82.0424382 934.454168,83.4812775 L968.597902,89.2459488 L972.753255,90.0536676 C968.431995,94.7377533 970.297269,92.016471 978.349079,81.8898208 C986.400888,71.7631706 997.57682,66.7627147 1011.87687,66.8884529 L1009.08967,198.227197 C1007.42391,222.971294 997.486313,238.708615 979.27688,245.439158 C950.304818,256.147767 918.137278,241.342314 907.428668,212.370252 C906.632269,210.2156 905.969374,208.013929 905.443747,205.777751 Z M1350.54334,729.603707 C1371.07579,769.946012 1368.59971,798.247706 1343.1151,814.508789 C1336.03525,819.026267 1329.56924,822.994803 1323.71708,826.414397 C1305.49669,837.061116 1283.99773,840.636921 1263.31201,836.461242 L1177.92479,819.22473 C1178.89523,806.879981 1184.06353,797.617993 1193.42968,791.438767 C1198.41563,788.149338 1206.9633,788.639325 1214.65179,788.12319 C1219.15474,787.820903 1226.06567,787.307257 1235.38456,786.582251 L1190.06192,720.995952 C1189.75926,720.557968 1189.52849,720.074457 1189.37834,719.563684 C1186.38723,709.389418 1187.73193,701.029892 1193.41244,694.485106 C1196.22029,691.250038 1204.46674,690.714171 1218.15177,692.877503 C1218.54378,679.636766 1219.73175,672.184033 1221.7157,670.519305 C1226.2746,666.693934 1234.76326,666.455516 1247.18168,669.804051 C1247.17548,656.475982 1248.76293,648.389299 1251.94402,645.544003 C1252.13086,645.376884 1252.32065,645.213086 1252.51329,645.052687 C1261.52555,637.548868 1274.91448,638.771702 1282.4183,647.78396 L1350.54334,729.603707 Z M913.701519,647.699786 L924.20071,640.135959 C927.16401,638.001138 931.196912,638.14423 934.001456,640.483705 C939.303444,644.906466 944.32258,651.258299 949.058864,659.539204 C953.910109,668.021108 957.430437,676.208874 959.619849,684.102501 C960.681638,687.930638 958.77341,691.958016 955.138401,693.560744 L910.488422,713.247571 L910.479968,713.139374 C910.011341,713.512338 909.544877,713.882929 909.080577,714.251147 C909.097737,726.017554 897.72747,738.376166 892.729455,741.499272 C885.885132,745.77608 877.612758,745.873433 870.894467,742.481167 C864.613152,746.641639 859.141784,749.913645 854.480364,752.297184 C839.408499,760.003929 824.04663,755.729012 808.394758,739.472435 C791.561356,719.980909 781.770995,706.321965 779.023676,698.495604 C773.186784,681.867898 779.694628,667.052278 798.547207,654.048745 C811.379566,644.987858 826.691506,636.349528 844.483027,628.133756 C871.170308,615.810097 898.472643,616.762227 910.855875,641.545843 C911.855897,643.547273 912.804446,645.598588 913.701519,647.699786 Z" id="Combined-Shape" fill="#FFBEBE" transform="translate(1070.619635, 452.523991) scale(1, -1) rotate(-51.000000) translate(-1070.619635, -452.523991) "></path>
        <path d="M1135.11688,131.66123 L1132.77628,123.515931 C1126.05821,96.2974206 1119.55521,78.7381821 1113.42355,71.0113445 C1110.94246,67.8847978 1107.73839,65.4103295 1103.79838,63.5954879 C1103.81141,63.6804507 1103.81911,63.767221 1103.82112,63.8554567 C1104.40148,89.2661075 1097.98216,101.719233 1084.1383,99.59399 C1083.26517,99.459952 1082.61115,98.7801565 1082.46993,97.9548241 C1082.307,97.675407 1082.20969,97.3524002 1082.19972,97.006321 L1081.08877,58.4428908 C1081.03605,58.2656851 1081.00721,58.0781391 1081.006,57.8839585 C1080.99921,56.7794101 1081.88909,55.8784607 1082.99364,55.8716316 C1098.51242,55.7756834 1109.75932,59.9589716 1116.55685,68.5248992 C1123.15932,76.8450334 1129.8082,94.7981628 1136.64014,122.484044 L1138.79104,129.965202 C1152.27868,128.219082 1158.02228,124.802275 1157.14879,120.308524 C1156.68246,117.909495 1154.80026,116.41659 1151.04065,115.766092 C1149.95225,115.577774 1149.22259,114.542792 1149.41091,113.454394 C1149.59923,112.365996 1150.63421,111.636336 1151.72261,111.824654 C1156.98449,112.735079 1160.2559,115.329864 1161.0753,119.545288 C1162.58671,127.320824 1154.9037,131.91933 1139.17818,133.94771 C1138.92476,134.317159 1138.54631,134.604113 1138.08212,134.737571 C1137.13661,135.009411 1136.15428,134.552727 1135.73514,133.699559 C1135.36903,133.38182 1135.11675,132.930914 1135.05876,132.411156 C1135.02983,132.151787 1135.05186,131.898478 1135.11688,131.66123 Z M1100.59581,62.3206685 C1096.20797,60.8246002 1091.0579,60.0106429 1085.13202,59.886699 L1086.16629,95.7882579 C1095.65423,96.2831744 1100.32899,86.137775 1099.82216,63.9467893 C1099.80711,63.2879 1100.11247,62.6961686 1100.59581,62.3206685 Z M1275.36754,646.338803 C1280.5826,645.346527 1282.00072,642.883574 1280.40527,637.746377 C1279.99576,636.427792 1280.7327,635.026893 1282.05129,634.617382 C1283.36987,634.207871 1284.77077,634.94482 1285.18028,636.263405 C1287.71096,644.411923 1284.3312,649.861998 1275.87803,651.327607 C1275.58291,651.388488 1275.27173,651.39666 1274.95673,651.343417 C1271.53177,650.764498 1268.54911,649.732746 1267.18483,648.880252 C1266.38343,648.379479 1261.72252,643.936958 1251.62856,634.10579 L1245.85339,643.348002 C1245.12172,644.518912 1243.57938,644.874989 1242.40847,644.143324 C1241.23756,643.411658 1240.88148,641.869315 1241.61315,640.698405 L1249.03202,628.825732 C1249.8772,627.473158 1251.7557,627.24717 1252.89756,628.360698 C1263.19571,638.403339 1269.48509,644.421719 1269.83443,644.640012 C1270.55709,645.091578 1272.73374,645.854666 1275.36754,646.338803 Z M1231.27994,632.057411 C1231.57359,631.587466 1231.87354,631.132383 1232.17762,630.693984 C1233.29132,629.088355 1234.86395,627.960828 1236.50175,627.219459 C1239.4786,625.871957 1242.90279,629.25403 1240.35654,632.402829 C1239.48013,633.486647 1238.55448,634.709246 1237.70336,636.071386 C1236.7149,637.653312 1235.92389,639.268324 1235.25365,640.727695 C1233.67008,644.175752 1229.38721,642.362815 1229.41549,638.960545 C1229.43446,636.678527 1229.94549,634.192972 1231.27994,632.057411 Z M1245.43572,665.618033 C1246.88286,663.302132 1250.16253,663.96768 1253.44108,666.016345 C1254.81415,666.874338 1256.42384,667.111406 1257.08403,668.292715 C1258.00021,669.932061 1258.14946,671.690916 1257.30839,673.036903 C1255.86126,675.352803 1253.16374,673.755616 1249.88519,671.706952 C1246.60664,669.658288 1243.98859,667.933933 1245.43572,665.618033 Z M1256.18635,677.536571 C1261.73759,676.595735 1263.27209,674.140016 1261.63546,668.870233 C1261.22595,667.551649 1261.9629,666.15075 1263.28149,665.741239 C1264.60007,665.331727 1266.00097,666.068677 1266.41048,667.387261 C1268.94976,675.563479 1265.53835,681.022876 1257.02185,682.466271 C1255.66055,682.696987 1254.36997,681.780468 1254.13925,680.419169 C1253.90854,679.05787 1254.82505,677.767287 1256.18635,677.536571 Z M1264.20553,634.494176 C1265.65266,632.178276 1268.93233,632.843824 1272.21088,634.892488 C1273.58396,635.750482 1276.06381,636.531292 1276.724,637.7126 C1277.64018,639.351947 1276.91926,640.56706 1276.0782,641.913046 C1274.63106,644.228947 1271.93354,642.63176 1268.655,640.583096 C1265.37645,638.534431 1262.75839,636.810077 1264.20553,634.494176 Z M846.47462,663.537175 C846.398077,663.782325 846.272745,664.016703 846.097349,664.225732 L827.456508,686.441021 C826.746504,687.287171 825.484993,687.397539 824.638844,686.687535 C823.792694,685.977531 823.682327,684.71602 824.39233,683.869871 L843.033171,661.654582 C843.124967,661.545183 843.225983,661.448083 843.334128,661.363466 C843.343104,661.303145 843.354904,661.242703 843.369618,661.182289 C846.367078,648.875035 845.286246,640.81927 840.485646,636.791089 C835.685815,632.763552 827.5729,633.103325 815.9875,638.203083 C814.976541,638.648095 813.796243,638.189305 813.351231,637.178346 C812.906219,636.167387 813.365009,634.987089 814.375968,634.542077 C827.204992,628.89489 836.818402,628.492276 843.056796,633.726911 C848.735302,638.491743 850.30531,646.826839 848.037318,658.563267 C859.375328,654.151132 867.981754,654.205366 873.731843,659.030262 C879.336353,663.733005 880.727422,671.691269 878.174666,682.707366 C889.0632,678.632962 897.358595,678.798996 902.946306,683.487642 C909.183932,688.721631 910.464162,698.263573 907.145522,711.88956 C906.884142,712.962758 905.802253,713.620867 904.729055,713.359487 C903.655857,713.098107 902.997748,712.016218 903.259128,710.94302 C906.256587,698.635766 905.175755,690.580001 900.375155,686.55182 C895.676477,682.60916 887.802883,682.851675 876.60484,687.647733 C876.358702,687.904368 876.048145,688.090715 875.707945,688.187966 C875.649826,688.28913 875.582013,688.386594 875.504397,688.479093 L856.863556,710.694382 C856.153553,711.540531 854.892041,711.650899 854.045892,710.940896 C853.199743,710.230892 853.089375,708.969381 853.799379,708.123232 L872.440219,685.907943 C872.662244,685.643344 872.9382,685.450695 873.23852,685.332582 C873.298112,685.196091 873.372909,685.066101 873.461829,684.945396 C876.726725,673.551686 875.841022,666.021703 871.160692,662.09444 C866.346924,658.055209 858.222065,658.386084 846.625904,663.477842 C846.575852,663.499819 846.525387,663.519583 846.47462,663.537175 Z M914.677005,809.910589 C892.335383,803.373904 881.315337,805.770642 880.161225,816.270887 C880.040545,817.368844 879.052645,818.161084 877.954687,818.040404 C876.85673,817.919725 876.06449,816.931824 876.18517,815.833867 C877.7154,801.911664 891.405635,798.93419 915.800232,806.071532 C916.860358,806.381702 917.468318,807.492548 917.158147,808.552674 C916.847977,809.6128 915.737132,810.22076 914.677005,809.910589 Z" id="Combined-Shape" fill="#E96868" transform="translate(1049.591296, 436.961284) scale(-1, -1) rotate(51.000000) translate(-1049.591296, -436.961284) "></path>
        <path d="M1075.68432,64.7470525 C1076.44799,64.3500307 1078.30522,63.8506603 1081.25603,63.2489412 C1089.65224,61.5368139 1139.82677,55.2206495 1157.28587,62.1223271 C1174.74496,69.0240046 1177.32438,77.0769773 1181.96925,88.1133002 C1186.61413,99.149623 1202.15467,124.844246 1190.43516,142.24525 C1187.23472,146.99724 1182.81513,149.82859 1177.1764,150.739298 C1178.80392,146.170044 1179.57865,141.921778 1179.57865,139.464193 C1179.57865,127.177058 1169.60937,117.216366 1157.31164,117.216366 C1145.71432,117.216366 1136.18778,126.074743 1135.14023,137.388796 C1130.95613,135.062903 1127.20862,131.626702 1123.92316,124.762625 C1117.39753,111.129053 1102.11459,92.0114075 1078.07434,67.4096879 C1078.05824,67.5156062 1077.99085,67.5943168 1077.87216,67.6458197 C1074.85708,68.9541419 1067.54715,72.7369896 1064.06696,77.8839402 C1057.00607,88.326465 1055.67024,100.215528 1055.1351,114.937333 C1054.91894,120.883779 1055.23993,130.166407 1056.09808,142.785215 C1048.31872,145.10999 1045.83212,133.145717 1048.63829,106.892396 C1051.44358,80.6471501 1060.45893,66.5987023 1075.68432,64.7470525 Z" id="Combined-Shape" fill="#7821D1" transform="translate(1121.120885, 104.852659) rotate(-7.000000) translate(-1121.120885, -104.852659) "></path>
        <path d="M1344.95534,203.250563 C1326.308,158.344279 1310.13083,134.332545 1296.42383,131.21536 C1264.60654,123.979614 1262.50391,191.552485 1262.50391,209.871385 C1262.50391,221.289902 1254.39107,266.292357 1238.16541,344.87875 C1235.88355,355.930575 1235.48884,367.288916 1236.99801,378.472481 C1240.80247,406.665116 1242.7047,426.434151 1242.7047,437.779588 C1242.7047,479.472971 1234.66253,499.5931 1234.66253,499.5931 C1234.66253,499.5931 1207.6127,562.338264 1187.87659,483.209275 C1168.14047,404.080287 1230.18437,274.30679 1230.18437,254.264018 C1230.18437,234.221245 1228.9127,140.860484 1248.07857,110.586942 C1267.24444,80.3134001 1284.19114,39.7581359 1323.18437,49.4662281 C1349.17985,55.9382896 1389.52741,137.78288 1444.22705,295 L1378.52994,295.789402 L1378.64063,296.230115 C1378.60324,296.082922 1378.56588,295.936023 1378.52854,295.789419 L1377.80469,295.798117 C1372.38632,278.596685 1367.12701,262.740763 1362.02678,248.23035 C1360.30123,245.364084 1358.62564,243.358915 1357,242.214844 C1347.35251,235.42527 1342.92507,249.029878 1339.53553,264.833984 C1336.14599,280.63809 1341.36542,293.918311 1338.01074,329.026367 C1334.65607,364.134424 1337.89567,363.601216 1336.14588,383.505037 C1335.58438,389.892123 1329.90752,410.53968 1330.53944,417.408358 C1333.14056,445.681624 1341.06032,440.868106 1339.53553,456.624048 C1331.80007,536.556042 1342.77483,501.679508 1343.67777,552.706335 C1343.79306,559.221677 1343.84375,565.66435 1343.82983,572.034352 L1343.8298,572.034352 C1343.80788,582.069461 1335.65505,590.186756 1325.61994,590.164837 C1317.85742,590.147882 1310.96297,585.201557 1308.45994,577.853646 C1302.31681,559.819808 1291.29231,532.103018 1275.38645,494.703276 C1268.92607,479.512873 1266.32655,462.959436 1267.81984,446.520004 C1269.70071,425.81368 1273.68739,397.763042 1279.77987,362.368092 C1294.01119,279.68962 1283.44763,249.631523 1302.55926,217.771775 C1313.0361,200.306523 1327.16813,195.466118 1344.95534,203.250563 Z" id="Combined-Shape" fill="#C8FF57"></path>
        <path d="M748.114262,553.259259 L379,967.66874 L390.477288,978.816469 L759.382073,562.593757 C757.65154,560.934454 756.079438,559.519244 754.665764,558.348126 C753.252091,557.177009 751.068257,555.48072 748.114262,553.259259 Z" id="Path-150" fill="#6381DD"></path>
        <path d="M1084.30718,453.40619 L1066.0657,367.278865 C1065.83684,366.198266 1064.7753,365.507801 1063.6947,365.736668 C1062.61411,365.965536 1061.92364,367.027067 1062.15251,368.107666 L1080.39399,454.234991 C1080.62286,455.31559 1081.68439,456.006055 1082.76499,455.777188 C1083.84559,455.548321 1084.53605,454.486789 1084.30718,453.40619 Z" id="Path-144" fill="#FF66D5"></path>
        <path d="M276.493381,1022.64507 C272.421344,1023.25577 268.211913,1023.38638 263.931939,1022.98284 L192.227207,1016.22208 C158.463501,1013.03863 133.673303,983.087044 136.856751,949.323338 C136.897532,948.890812 136.942902,948.458731 136.992854,948.027167 L211.487487,939.862353 C211.346509,938.291525 211.2569,936.705545 211.220371,935.106118 C210.453771,901.540346 237.042754,873.708459 270.608526,872.941859 C273.133947,872.884182 275.660509,872.983968 278.173515,873.240637 L305.825535,876.06491 C340.75835,879.632816 367.920531,908.055742 369.900937,943.1144 C370.138401,947.318166 369.918924,951.442074 369.285666,955.437795 C585.169125,912.725557 705.051554,888.417436 728.932952,882.513431 C739.189701,879.977738 751.15092,875.669692 763.2816,869.873355 C774.540843,864.493412 823.25468,760.782151 852.291894,766.217575 C881.329108,771.653 845.166871,844.05912 839.224693,874.549032 C833.790287,902.433509 840.097336,938.787445 837.666369,951.483012 C837.587426,951.895285 837.502305,952.306313 837.411106,952.716079 L915.034454,1079.01098 C920.928835,1088.60126 918.632933,1101.09391 909.713871,1107.96178 L889.01213,1123.90257 C886.939472,1125.49856 884.708925,1126.79498 882.379402,1127.78954 L857.465588,1147.41421 C849.656248,1153.56565 838.338802,1152.22165 832.187364,1144.41231 C830.337895,1142.06438 829.102201,1139.29286 828.591811,1136.3479 C827.038909,1127.38763 827.637183,1118.62043 830.386633,1110.04628 L708.667864,1030.63661 C646.174813,1052.71269 576.345193,1075.57789 565.931664,1078.47884 C557.763064,1080.7544 544.98986,1087.61274 527.612052,1099.05385 C525.631828,1106.77534 522.573726,1112.07884 518.437747,1114.96434 C513.94993,1118.0953 499.797794,1114.61728 495.351356,1117.79899 C489.221917,1122.185 491.370817,1132.03771 484.962806,1135.96824 C480.454826,1138.73333 466.840264,1136.21586 462.425063,1138.73553 C454.011989,1143.5367 463.358457,1150.11719 456.662768,1154.08126 C451.340274,1157.23235 430.309465,1165.08573 412.870356,1170.5605 C412.631735,1170.82418 412.387673,1171.08474 412.138169,1171.34204 C410.780455,1172.74215 409.291579,1174.0088 407.691992,1175.1246 L326.359279,1231.85865 L262.25309,1251.45364 C252.746168,1254.35957 242.683565,1249.00841 239.777636,1239.50148 C238.915806,1236.68196 238.759752,1233.69389 239.323191,1230.79993 C242.175912,1216.14763 250.246154,1204.05458 263.533918,1194.52078 C265.292665,1193.2589 267.051896,1192.1917 268.811611,1191.31918 C269.285906,1190.11519 269.837903,1188.93868 270.465795,1187.7973 L315.422649,1106.07467 C312.850937,1096.78586 311.538266,1089.01699 310.935396,1084.78304 C309.499774,1074.70068 298.019102,1053.98802 276.493381,1022.64507 Z" id="Combined-Shape" fill="#FFE640" transform="translate(527.437254, 1009.127926) rotate(4.000000) translate(-527.437254, -1009.127926) "></path>
        <path d="M145.625166,984.5565 C140.317901,974.403233 137.787687,962.649787 138.943231,950.394064 C138.984012,949.961537 139.029383,949.529456 139.079334,949.097893 L213.573967,940.933078 C213.432989,939.36225 213.343381,937.776271 213.306852,936.176844 C212.853774,916.338725 221.956201,898.503495 236.406964,887.074987 C269.204272,876.063201 261.097635,947.690685 249.194995,968.899961 C236.609601,991.325835 213.844738,998.309779 172.074926,993.655012 C166.272424,993.00839 157.455837,989.975552 145.625166,984.5565 Z M299.709286,1056.42844 C307.727246,1070.02592 312.164776,1079.83436 313.021876,1085.85377 C313.624747,1090.08772 314.937417,1097.85658 317.50913,1107.14539 L285.96553,1164.48539 L240.946253,1165.84641 C240.041033,1165.87378 239.145568,1165.85284 238.262333,1165.78591 C237.44329,1165.87405 236.654573,1165.95 235.896177,1166.01378 C228.512629,1166.63465 215.178797,1166.84279 195.894682,1166.63822 C185.954116,1166.53277 177.98118,1158.38887 178.086632,1148.4483 C178.112989,1145.96377 178.653438,1143.51161 179.673953,1141.24619 C186.11544,1126.94688 197.304083,1116.79292 213.239883,1110.78433 C216.890487,1109.40787 220.511203,1108.59724 224.10203,1108.35246 C225.563218,1106.83779 227.19082,1105.46467 228.968342,1104.26273 L299.709286,1056.42844 Z M894.475751,1044.28618 L838.879602,953.830018 C838.9708,953.420253 839.055922,953.009224 839.134864,952.596951 C840.621199,944.834666 838.840995,928.228156 838.475171,910.120765 L953.171785,977.726199 C958.881204,981.091492 960.781493,988.448 957.4162,994.157418 C957.130298,994.642467 956.810613,995.106793 956.459514,995.546955 L956.225926,995.839798 C955.927346,997.551271 955.333373,999.199684 954.468882,1000.71071 L929.755045,1043.90769 C924.818371,1052.53644 913.821427,1055.52945 905.192683,1050.59278 C903.097493,1049.39408 901.282436,1047.7968 899.838165,1045.91007 L894.475751,1044.28618 Z M672.41491,896.463166 C688.042256,892.384473 703.021794,888.348401 717.353526,884.35495 C731.685257,880.361499 747.556523,876.013739 764.967322,871.31167 L807.095574,809.018393 C808.453181,814.803877 809.247578,819.349684 809.478765,822.655812 C813.486705,879.972028 781.262839,928.37149 723.296717,920.213919 C706.198473,917.807684 689.237871,909.890766 672.41491,896.463166 Z M380.743878,869.851146 C435.123574,864.762694 448.346132,825.37396 507.396766,809.551391 C566.447399,793.728821 561.531289,820.500032 590.174445,834.991501 C618.817601,849.482969 615.76548,900.706589 586.507024,923.980455 C557.248568,947.254321 481.062346,992.72133 453.847905,993.632542 C426.633464,994.543755 386.515918,984.010897 346.268509,979.181205 C319.436904,975.961411 294.839093,941.079986 272.475078,874.536932 C308.401148,874.805376 344.490748,873.243447 380.743878,869.851146 Z" id="Combined-Shape" fill="#FFC635" transform="translate(548.874100, 985.710699) rotate(4.000000) translate(-548.874100, -985.710699) "></path>
        <path d="M277.232391,1005.20061 C290.461557,1000.77444 302.61325,995.338695 313.687469,988.893383 C324.761688,982.44807 333.940724,973.097159 341.224578,960.840649 L360.242156,967.846508 C348.531801,985.770006 337.482412,997.962783 327.09399,1004.42484 C316.705567,1010.88689 302.77994,1016.82815 285.317108,1022.24861 L277.232391,1005.20061 Z" id="Path-158" fill="#60CBFF" transform="translate(318.737274, 991.544628) rotate(-3.000000) translate(-318.737274, -991.544628) "></path>
        <path d="M229.773395,923.921357 C224.565143,923.097468 223.244076,916.960213 224.375377,909.826272 C224.849173,906.838532 224.041997,903.891017 225.632419,901.899406 C227.839508,899.135572 230.843194,897.608234 233.870197,898.087073 C239.078449,898.910962 238.304343,904.716783 237.173043,911.850724 C236.041743,918.984664 234.981648,924.745245 229.773395,923.921357 Z" id="Oval-Copy-37" fill="#6674A9" fill-rule="nonzero" transform="translate(231.000000, 911.000000) rotate(9.000000) translate(-231.000000, -911.000000) "></path>
        <path d="M144.073295,941.70646 C137.48168,940.627731 138.511619,924.455105 140.517434,921.893383 C142.37313,919.523383 148.799084,919.378329 159.795296,921.45822 C159.130139,921.662511 158.327949,924.828278 157.388725,930.955519 C155.979888,940.14638 150.66491,942.78519 144.073295,941.70646 Z" id="Oval-Copy-40" fill="#FF8ADF" transform="translate(149.397082, 930.966607) rotate(-3.000000) translate(-149.397082, -930.966607) "></path>
    </g>
</svg>