<?xml version="1.0" encoding="UTF-8"?>
<svg width="1794px" height="1276px" viewBox="0 0 1794 1276" version="1.1" xmlns="http://www.w3.org/2000/svg" xmlns:xlink="http://www.w3.org/1999/xlink">
    <!-- Generator: Sketch 56.1 (81669) - https://sketch.com -->
    <title>Eco Bag</title>
    <desc>Created with Sketch.</desc>
    <g id="Eco-Bag" stroke="none" stroke-width="1" fill="none" fill-rule="evenodd">
        <path d="M363.139066,523.75629 C292.247528,637.896825 284.030851,717.809855 338.489035,763.49538 C420.176311,832.023666 568.523194,1046.22726 606.492404,1078.08002 C644.461615,1109.93277 970.007367,1266.27018 1175.49707,1095.5164 C1312.49021,981.680543 1396.36292,799.759307 1427.11521,549.752689 C1435.26897,494.737439 1387.0674,430.136293 1282.51049,355.949252 C1125.67513,244.668689 986.339957,284.297013 766.788918,226.1654 C620.421559,187.410991 485.871608,286.607955 363.139066,523.75629 Z" id="Path-41-Copy-5" fill="#FFFAF0"></path>
        <path d="M242.800742,553.563757 C237.79619,549.479017 234.538081,543.324118 234.344808,536.37789 L232.611442,474.080992 C232.607475,473.938409 232.605303,473.795781 232.604925,473.653144 C232.580083,464.264336 240.171076,456.633064 249.559884,456.608222 L353.260034,456.333834 C353.45,456.333331 353.63996,456.336012 353.829836,456.341877 C363.214201,456.631727 370.586763,464.474229 370.296912,473.858595 L368.251517,540.081527 C367.935219,550.322171 359.556339,558.467787 349.310847,558.494896 L343.979224,558.509003 C347.060033,561.694504 348.899839,566.073919 348.752222,570.853252 L346.706826,637.076184 C346.390528,647.316828 338.011648,655.462444 327.766156,655.489553 L235.852076,655.732756 C223.375074,655.76577 213.147147,645.844765 212.800117,633.372547 L211.066752,571.075649 C211.062784,570.933066 211.060612,570.790439 211.060234,570.647801 C211.035392,561.258993 218.626386,553.627721 228.015193,553.602879 L242.800742,553.563757 Z M1356.06675,491.239384 C1356.06278,491.096801 1356.06061,490.954174 1356.06023,490.811536 C1356.03539,481.422728 1363.62639,473.791457 1373.01519,473.766614 L1476.71534,473.492226 C1476.90531,473.491723 1477.09527,473.494405 1477.28515,473.500269 C1486.66951,473.79012 1494.04207,481.632621 1493.75222,491.016987 L1491.70683,557.239919 C1491.39053,567.480563 1483.01165,575.626179 1472.76616,575.653288 L1380.85208,575.896491 C1368.37507,575.929505 1358.14715,566.0085 1357.80012,553.536282 L1356.06675,491.239384 Z" id="Combined-Shape" fill="#82D121"></path>
        <path d="M493.999151,930.799579 L563.751896,1013.61145 L640.629414,1156.22213 L680.158216,1166.33213 C697.40624,1170.74354 711.452131,1183.23079 717.852631,1199.84369 L724,1215.79958 L505.705081,1215.79958 L479.436094,1130.33701 L424.656313,984.873373 C424.609718,984.749641 424.564031,984.625569 424.519258,984.501167 C419.469562,970.470521 426.75006,955.002848 440.780705,949.953152 L493.999151,930.799579 Z M826.868784,1044.79958 L1112.83367,1044.79958 L1087.05881,1146.77486 L1159.42272,1165.91844 C1176.50927,1170.43862 1190.38252,1182.89477 1196.71054,1199.39745 L1203,1215.79958 L1081.48437,1215.79958 L945.906259,1215.79958 L896.406756,1215.79958 L807,1215.79958 L826.868784,1044.79958 Z" id="Combined-Shape" fill="#161616"></path>
        <path d="M988.928119,140.059596 C990.70849,131.791517 998.296066,126.08963 1006.73305,126.679602 L1110.77969,133.955252 C1111.29897,133.991563 1111.81631,134.051707 1112.33008,134.135493 C1121.5965,135.646682 1127.88337,144.383665 1126.37218,153.65009 L1112.24316,240.287494 L995.959854,232.179742 C994.869687,232.103731 993.786323,231.950121 992.717996,231.720077 C980.300077,229.046119 972.401036,216.811736 975.074994,204.393817 L988.928119,140.059596 Z M306.63334,452.818085 C307.132698,451.398336 307.485604,450.098475 307.692059,448.918502 C308.257127,445.688903 308.2321,440.45967 307.616975,433.230802 C300.119497,434.248504 292.799775,431.909211 285.65781,426.212922 C281.27832,422.719928 277.966098,417.870535 275.721143,411.664741 C274.218149,407.509964 276.367842,402.923432 280.522619,401.420436 C282.159681,400.828226 283.945241,400.786184 285.608362,401.300687 C291.357566,403.079262 295.446759,405.165624 297.875944,407.559774 C301.837468,411.464163 306.070177,417.352029 310.574072,425.22337 C310.634661,412.276463 312.116916,403.472249 315.020836,398.810728 C317.023047,395.596676 321.012171,392.247431 326.988208,388.762996 C330.805064,386.537511 335.703349,387.82757 337.928835,391.644425 C338.445947,392.531305 338.787522,393.509428 338.934921,394.525418 C339.87945,401.03587 339.309874,406.92465 337.226192,412.191758 C334.069501,420.171204 326.365108,426.80241 314.113012,432.085376 C315.859819,440.866198 316.323433,447.356179 315.503854,451.555318 C315.421698,451.976246 315.322156,452.397169 315.205229,452.818085 L363.701015,452.818085 C363.854432,452.818085 364.007842,452.820162 364.161202,452.824315 C373.546602,453.078469 380.94894,460.892872 380.694785,470.278272 L378.79319,540.500337 C378.677246,544.781915 377.151356,548.701087 374.667359,551.818085 L439.701015,551.818085 C439.854432,551.818085 440.007842,551.820162 440.161202,551.824315 C449.546602,552.078469 456.94894,559.892872 456.694785,569.278272 L454.79319,639.500337 C454.514558,649.789652 446.09324,657.986011 435.800153,657.986011 L343.885652,657.986011 C331.446484,657.986011 321.261406,648.096174 320.895599,635.662386 L318.943723,569.318015 C318.938822,569.151417 318.93637,568.984755 318.93637,568.818085 C318.93637,565.154535 320.095231,561.761652 322.066375,558.986011 L304.235972,558.986011 C306.409025,561.929497 307.652192,565.593335 307.545476,569.534148 L305.749267,635.864493 C305.411976,648.31998 295.217748,658.241887 282.757695,658.241887 L194.736342,658.241887 C182.297174,658.241887 172.112096,648.35205 171.746289,635.918263 L169.794413,569.573892 C169.789512,569.407293 169.787061,569.240632 169.787061,569.073962 C169.787061,559.685121 177.39822,552.073962 186.787061,552.073962 L251.448504,552.073962 C247.541003,548.082814 245.07233,542.669495 244.895599,536.662386 L242.943723,470.318015 C242.938822,470.151417 242.93637,469.984755 242.93637,469.818085 C242.93637,460.429244 250.54753,452.818085 259.93637,452.818085 L306.63334,452.818085 Z M1518.36327,470.818085 C1518.23312,470.530109 1518.11203,470.240532 1518,469.949355 C1516.4637,465.956328 1515.7933,459.484439 1515.98879,450.533687 C1503.00546,447.458535 1494.26661,442.265926 1489.77226,434.955859 C1486.80561,430.130598 1485.22211,424.430188 1485.02177,417.854629 C1484.9905,416.828478 1485.15704,415.805902 1485.51229,414.842699 C1487.04117,410.697379 1491.64103,408.576341 1495.78635,410.105225 C1502.27666,412.498997 1506.78677,415.104654 1509.31668,417.922198 C1512.98595,422.008639 1515.97452,430.421707 1518.28239,443.1614 C1521.35102,434.627549 1524.49701,428.094131 1527.72036,423.561147 C1529.6969,420.781546 1533.36167,418.016799 1538.71469,415.266906 C1540.2632,414.471421 1542.02893,414.202766 1543.74396,414.501706 C1548.09661,415.260399 1551.01009,419.40396 1550.2514,423.75661 C1549.11817,430.257956 1546.69836,435.608837 1542.99195,439.809255 C1536.94764,446.659194 1530.14534,450.234004 1522.58504,450.533687 C1523.23454,457.759547 1524.11794,462.913683 1525.23524,465.996094 C1525.76195,467.449202 1526.56344,469.056533 1527.6397,470.818085 L1590.70102,470.818085 C1590.85443,470.818085 1591.00784,470.820162 1591.1612,470.824315 C1600.5466,471.078469 1607.94894,478.892872 1607.69479,488.278272 L1605.79319,558.500337 C1605.51456,568.789652 1597.09324,576.986011 1586.80015,576.986011 L1494.88565,576.986011 C1482.44648,576.986011 1472.26141,567.096174 1471.8956,554.662386 L1469.94372,488.318015 C1469.93882,488.151417 1469.93637,487.984755 1469.93637,487.818085 C1469.93637,478.429244 1477.54753,470.818085 1486.93637,470.818085 L1518.36327,470.818085 Z M1331.63195,487.525349 C1331.62451,487.299979 1331.62156,487.074483 1331.62309,486.848996 C1331.68684,477.460371 1339.3495,469.901065 1348.73812,469.964813 L1440.30783,470.586564 C1440.3742,470.587014 1440.44057,470.587854 1440.50694,470.589082 C1449.89417,470.762794 1457.36321,478.513472 1457.18949,487.900706 L1455.96485,554.079265 C1455.73177,566.674576 1445.4098,576.738723 1432.81262,576.653189 L1356.65439,576.136081 C1344.30808,576.052251 1334.23046,566.235385 1333.82308,553.895514 L1331.63195,487.525349 Z" id="Combined-Shape" fill="#C8FF57"></path>
        <path d="M717.191429,754.523902 L451.774471,893.652461 C437.099821,901.344747 431.439496,919.47673 439.131781,934.15138 C439.659303,935.157738 440.243571,936.133315 440.881763,937.073393 L537.112858,1078.82513 C566.562729,1122.20581 624.518313,1135.47371 669.908298,1109.22628 L1102.03642,859.341788 C1149.84673,831.694764 1166.19231,770.524502 1138.54529,722.714184 C1135.03799,716.648983 1130.903,710.969168 1126.20844,705.768319 L981.812074,545.799579 L717.191429,754.523902 Z" id="Path-177" fill="#E85353"></path>
        <path d="M648.103814,529.607373 C604.952273,512.021914 578.68641,465.959778 587.695918,418.408098 C606.445063,319.451152 635.280271,262.179853 674.201542,246.594203 C692.206854,239.384148 709.552642,235.294901 726.238904,234.326462 C705.799285,241.444853 690.170354,259.346601 686.6798,281.772019 L648.103814,529.607373 Z M1016.01095,294.842796 L1087.24436,385.659546 L1120.59279,286.966153 L1077.66351,237.019447 L1101.63599,239.013269 C1106.77511,239.440696 1111.39651,235.890081 1112.30755,230.814331 L1114.68988,217.541454 L1136.87214,235.103781 L1142.66797,185.247222 C1139.86745,184.111807 1136.94627,182.898146 1133.90443,181.60624 C1119.35994,173.040235 1110.46913,166.096188 1107.232,160.774099 C1103.99487,155.452009 1103.30952,146.652113 1105.17595,134.374409 L1185.84608,159.999012 C1186.71409,156.128131 1187.68965,152.014788 1188.77277,147.658981 C1194.94378,131.955162 1200.40219,122.089845 1205.148,118.063031 C1205.59125,117.686933 1206.44072,118.382145 1206.94145,118.063031 C1210.18178,115.997977 1217.62429,115.237374 1229.26898,115.781224 L1224.39056,149.961121 C1224.64007,148.935419 1224.89589,147.895517 1225.158,146.841415 C1231.32901,131.137596 1236.78742,121.272279 1241.53323,117.245465 C1246.27904,113.218651 1254.85981,111.171741 1267.27554,111.104735 L1253.71025,198.647108 C1253.65025,198.674608 1253.59032,198.70204 1253.53046,198.72941 L1238.41208,271.508038 L1238.81727,271.53589 L1188.64429,500.652586 C1176.83007,554.602643 1123.51759,588.760488 1069.56753,576.946268 C1050.30252,572.727532 1032.71506,562.906569 1019.01699,548.7185 C941.67808,468.613027 893.832521,402.372996 875.480313,349.998405 L1016.01095,294.842796 Z M1008.02553,282.06383 C985.434565,249.121346 958.83551,232.372222 928.228363,231.816457 C919.973704,231.666569 912.770895,232.815971 906.489794,234.953515 C913.814882,229.540324 920.915174,223.253376 922.622938,206.169305 C923.332697,199.069049 924.454364,193.306193 924.683051,187.78467 C925.040561,179.152795 925.569212,170.337309 926.269004,161.338214 C926.405179,159.187949 926.550477,156.921756 926.704898,154.539635 C927.264519,145.906861 928.941972,137.383196 931.695243,129.182131 C935.796489,116.965905 939.829355,108.784209 943.793841,104.637045 C948.211057,100.016288 956.055295,96.7304017 967.326552,94.7793864 C967.761836,94.7040402 968.204111,94.6769965 968.645332,94.698747 C971.955022,94.8619024 974.505792,97.6771997 974.342636,100.98689 L973.469805,118.692715 C978.30579,117.165848 984.133075,116.025106 990.951661,115.27049 L986.904191,201.750379 L1011.09953,190.067577 L1008.02553,282.06383 Z M782.665142,168.495062 C777.256419,141.002545 774.544093,121.419971 774.528163,109.747339 C774.504249,92.2253511 785.675576,80.0655687 808.042142,73.2679917 C836.236832,71.1134454 854.64682,69.8855715 863.272104,69.58437 C878.315244,69.0590519 887.730683,80.6384292 891.518422,104.322502 L893.724346,136.458825 L902.616196,153.574883 C903.634622,155.535267 902.871015,157.950069 900.910631,158.968495 C900.027354,159.42736 899.004726,159.540424 898.042542,159.285596 L891.220863,157.478922 C892.524277,194.803827 878.861468,213.570971 850.232435,213.780354 C850.062354,213.781598 849.892608,213.782858 849.723197,213.784134 L849.723197,231.76934 L768.775932,231.600422 L782.665142,168.495062 Z" id="Combined-Shape" fill="#FFBEBE"></path>
        <path d="M746.063599,231.361816 C701.772827,229.594564 669.904297,239.530924 650.458008,261.170898 C631.011719,282.810872 617.355794,307.000301 609.490234,333.739185 L737.571965,333.739185 L746.063599,231.361816 Z" id="Path-180" fill="#FF66D5"></path>
        <path d="M905.797154,235.64114 C912.364654,233.223956 919.970181,231.906697 928.771484,232.066512 C963.044271,232.688837 992.291425,253.61556 1016.51295,294.84668 L900.020539,340.567739 L889.671214,528.553209 C888.578274,548.405397 871.598893,563.612773 851.746705,562.519834 C850.918025,562.474212 850.091171,562.399947 849.267625,562.297173 L647.059786,537.062746 L686.739587,282.135826 C691.296724,252.858035 716.543653,231.290813 746.173895,231.363993 L902.849029,231.750944 C904.505878,231.755036 905.845703,233.101495 905.841611,234.758344 C905.841481,234.810876 905.839972,234.863395 905.837084,234.915847 L905.797154,235.64114 Z" id="Combined-Shape" fill="#FF8ADF"></path>
        <path d="M647.72377,530.799579 L618.637037,707.409622 C609.662107,761.90398 646.562894,813.356005 701.057253,822.330935 C703.747494,822.774004 706.454731,823.106863 709.172175,823.32868 L846.329477,834.524398 L817.142419,1130.79958 L1066.73758,1130.79958 C1094.92882,1130.79958 1118.72504,1109.84312 1122.28842,1081.87798 L1176.95847,652.831158 C1183.93936,598.045652 1145.18605,547.974099 1090.40055,540.993214 C1086.92919,540.550886 1083.437,540.291079 1079.9384,540.214866 L647.72377,530.799579 Z" id="Mask" fill="#FF6C6C"></path>
        <rect id="Rectangle" fill="#C8FF57" transform="translate(917.500000, 566.000000) rotate(-6.000000) translate(-917.500000, -566.000000) " x="835" y="463" width="165" height="206" rx="64"></rect>
        <path d="M1019.80388,157.886188 C1020.00423,164.461748 1021.58773,170.162158 1024.55438,174.987419 C1029.04873,182.297486 1037.78757,187.490095 1050.77091,190.565247 C1050.57542,199.515999 1051.24582,205.987888 1052.78212,209.980914 C1054.04371,213.259927 1056.45425,216.335952 1060.01376,219.20899 C1061.40756,220.333975 1063.39766,220.333088 1064.79045,219.206853 C1066.0451,218.192319 1066.27374,216.367642 1065.3082,215.074903 C1062.70286,211.586711 1060.93924,208.570961 1060.01736,206.027654 C1058.90006,202.945242 1058.01666,197.791107 1057.36716,190.565247 C1064.92746,190.265564 1071.72976,186.690753 1077.77407,179.840815 C1081.48048,175.640397 1083.90029,170.289515 1085.03352,163.78817 L1085.03351,163.788169 C1085.79221,159.43552 1082.87873,155.291959 1078.52608,154.533266 C1076.81105,154.234326 1075.04532,154.502981 1073.49681,155.298466 C1068.14379,158.048359 1064.47902,160.813106 1062.50248,163.592707 C1059.27913,168.125691 1056.13314,174.659109 1053.06451,183.19296 C1050.75664,170.453266 1047.76807,162.040199 1044.0988,157.953758 C1041.56889,155.136214 1037.05878,152.530557 1030.56847,150.136785 L1030.56847,150.136787 C1026.42315,148.607901 1021.82329,150.728939 1020.29441,154.874259 C1019.93916,155.837462 1019.77262,156.860038 1019.80388,157.886188 Z" id="Path-183" fill="#82D121" transform="translate(1052.782120, 184.044255) rotate(4.000000) translate(-1052.782120, -184.044255) "></path>
        <path d="M815.279192,640.049553 C816.39461,639.90637 817.519684,639.791533 818.653723,639.705818 L875.552224,635.405243 C885.78573,580.941665 900.606265,547.003096 920.013828,533.589535 C950.138748,512.76866 963.714844,516.941406 982.845987,516.941406 C1001.97713,516.941406 1003.73242,533.589535 1000.58691,542.792929 C997.441406,551.996322 973.830275,554.196515 953.369307,556.996094 C940.278465,558.787253 930.15857,583.727973 923.009623,631.818256 L947.24453,629.986503 C982.490221,627.322517 1013.22209,653.735209 1015.88607,688.9809 C1016.23102,693.544692 1016.08542,698.132319 1015.45177,702.665053 L1007.49263,759.600316 C1003.43255,788.643879 980.152229,811.212006 950.996572,814.368036 L832.823335,827.160006 C811.707367,829.445759 791.88039,821.185432 778.592398,806.603437 C775.140452,807.745669 771.53054,808.563348 767.795928,809.018414 C738.456613,812.593442 711.03186,793.806997 703.766949,765.157436 C695.602436,732.960171 693.017253,711.241025 696.0114,700 C699.267809,687.774354 701.840144,659.610519 703.728406,615.508493 C704.97784,586.326832 725.82599,561.69335 754.399613,555.637076 L759.706017,554.512366 C784.335631,549.292037 808.53379,565.026371 813.754119,589.655985 C814.371859,592.570494 814.702401,595.538541 814.741004,598.517547 L815.279192,640.049553 Z" id="Combined-Shape" fill="#82D121"></path>
        <path d="M766.22671,282.796754 C793.876863,276.633996 821.287644,294.052971 827.450402,321.703124 C827.74666,323.032333 827.989866,324.372813 828.179441,325.721378 L886.273978,738.983238 C890.640835,770.04735 870.405433,799.252927 839.78718,806.077225 C812.137027,812.239983 784.726246,794.821008 778.563488,767.170854 C778.267229,765.841646 778.024024,764.501166 777.834448,763.152601 L719.739911,349.890741 C715.373055,318.826629 735.608456,289.621052 766.22671,282.796754 Z" id="Rectangle" fill="#FFE640" transform="translate(803.006945, 544.436989) rotate(-5.000000) translate(-803.006945, -544.436989) "></path>
        <path d="M1012.91989,130.248539 C1006.08669,129.429448 1000.22335,130.496126 995.298926,133.41036 C989.381489,136.912249 979.622069,145.094649 966.082785,157.918519 L964.359592,154.042001 C977.586892,141.566847 987.201588,133.554342 993.261758,129.967985 C1002.39071,124.565546 1014.01652,124.679855 1028.00956,130.150962 C1029.0383,130.553184 1029.54619,131.713202 1029.14421,132.74203 C1028.74174,133.770668 1027.58172,134.278555 1026.55299,133.876334 C1023.16319,132.550964 1019.94955,131.565714 1016.90974,130.917711 C1016.96683,131.512291 1016.75809,132.125992 1016.28936,132.566957 C999.54567,148.319152 996.048656,158.712768 1004.26908,164.596556 C1005.16728,165.239446 1005.37425,166.488748 1004.73136,167.38695 C1004.08847,168.285151 1002.83917,168.492122 1001.94097,167.849232 C990.97336,159.999139 995.125309,147.192337 1012.91989,130.248539 Z M1137.57866,144.098079 L1137.4346,143.903315 C1136.77773,143.015284 1136.96513,141.762896 1137.85316,141.106029 C1138.74119,140.449162 1139.99357,140.636557 1140.65044,141.524588 L1163.46556,172.368776 C1163.69154,172.674291 1163.8176,173.022931 1163.84958,173.37561 C1164.33729,173.634349 1164.71625,174.09268 1164.85659,174.671424 C1165.11689,175.744885 1164.45769,176.826112 1163.38423,177.086413 C1144.49314,181.667266 1135.67946,170.287036 1137.44389,144.695847 C1137.45841,144.485236 1137.50504,144.284497 1137.57866,144.098079 Z M1141.23614,149.042699 C1140.73266,167.852055 1146.71904,175.705115 1159.53129,173.776248 L1141.23614,149.042699 Z M1250.65141,194.45024 C1251.51775,195.135463 1251.66457,196.393252 1250.97935,197.259591 C1250.29413,198.12593 1249.03634,198.272754 1248.17,197.587531 C1232.64136,185.305292 1216.93755,186.416974 1200.39327,201.079536 C1183.0422,216.457116 1173.18028,224.960852 1170.55608,226.794103 C1169.65059,227.426679 1168.40373,227.205434 1167.77116,226.299939 C1167.13858,225.394443 1167.35983,224.14759 1168.26532,223.515015 C1170.69413,221.818257 1180.6029,213.274131 1197.74021,198.085996 C1215.6843,182.182843 1233.54314,180.918605 1250.65141,194.45024 Z M973.852524,100.563426 C974.080227,100.235069 974.388627,99.9959795 974.732511,99.8543406 C974.745427,99.8373109 974.758393,99.8202108 974.771411,99.8030403 C977.806801,95.7994121 983.597858,88.0096692 992.139937,76.4399303 C1009.78982,52.534204 1031.02538,46.4322193 1055.22742,58.4252967 C1056.21714,58.9157407 1056.62188,60.1156478 1056.13143,61.1053641 C1055.64099,62.0950805 1054.44108,62.4998207 1053.45136,62.0093767 C1031.05423,50.9107011 1011.89614,56.4157324 995.3579,78.8157913 C986.805917,90.398945 981.007793,98.1981928 977.958884,102.219654 C976.105543,104.664179 975.470313,105.473147 975.111774,105.758526 C974.951195,105.943684 974.951195,105.943684 973.749072,106.201832 C972.435204,105.801331 972.435204,105.801331 971.905886,104.696219 C971.829889,104.023457 971.829889,104.023457 971.892731,103.75465 C971.953582,103.483515 972.017496,103.348409 972.139604,103.129298 C972.218665,102.987431 972.33133,102.80721 972.49152,102.562412 C972.775271,102.12879 973.227407,101.464869 973.852524,100.563426 Z M945.890087,42.6509272 L941.213322,48.7183397 C940.092879,46.9928879 939.361944,45.696673 939.020518,44.8296951 C937.718027,41.5223079 937.651682,38.2470099 938.438394,37.2030078 C939.361908,35.9774631 941.215136,38.1526926 944.051426,40.923124 C944.433203,41.2960365 945.04609,41.8719708 945.890087,42.6509272 Z M957.02318,21.7406517 C954.70728,20.2935164 956.304467,17.5959963 958.353131,14.3174481 C960.401795,11.0388999 962.12615,8.42084304 964.44205,9.86797831 C965.788037,10.709044 966.424922,12.3553197 966.320108,14.2303809 C966.24458,15.5815449 964.901732,16.5002572 964.043738,17.8733344 C961.995074,21.1518826 959.339081,23.1877869 957.02318,21.7406517 Z M938.576089,8.20884819 C938.920777,7.49113412 939.261599,6.84124482 939.600172,6.2777643 C940.091493,5.46006882 940.525916,4.62396125 940.904596,3.77401068 C950.814531,8.33973346 955.99969,19.6340011 952.698323,30.2825361 C952.28946,31.6013219 950.888924,32.3389599 949.570138,31.9300966 C948.251352,31.5212333 947.513714,30.120697 947.922577,28.8019111 C950.499767,20.4892035 946.385723,11.6673654 938.576089,8.20884819 Z M968.249624,10.7399123 C967.751076,3.76189254 964.940969,1.79423508 958.358249,3.77817992 C957.036273,4.17660614 955.641611,3.42792073 955.243184,2.10594425 C954.844758,0.783967763 955.593444,-0.610694192 956.91542,-1.00912041 C966.583785,-3.92303768 972.511301,0.227453519 973.236911,10.3835931 C973.335306,11.7607946 972.298628,12.9570017 970.921427,13.0553965 C969.544225,13.1537913 968.348018,12.1171137 968.249624,10.7399123 Z M976.286216,340.008468 C976.194869,338.907682 977.013181,337.941267 978.113966,337.84992 C979.214752,337.758573 980.181167,338.576885 980.272514,339.67767 L983.592819,379.68922 C983.684167,380.790006 982.865855,381.75642 981.765069,381.847768 C980.664283,381.939115 979.697868,381.120803 979.606521,380.020017 L976.286216,340.008468 Z M1283.72057,212.322866 C1284.58691,213.008089 1284.73373,214.265878 1284.04851,215.132217 C1283.36328,215.998556 1282.10549,216.14538 1281.23916,215.460157 C1265.71052,203.177918 1250.00671,204.2896 1233.46242,218.952162 C1216.11136,234.329742 1206.24943,242.833478 1203.62524,244.666729 C1202.71975,245.299305 1201.47289,245.07806 1200.84032,244.172565 C1200.20774,243.26707 1200.42899,242.020217 1201.33448,241.387641 C1203.76329,239.690883 1213.67206,231.146757 1230.80937,215.958622 C1248.75346,200.055469 1266.61229,198.791231 1283.72057,212.322866 Z" id="Combined-Shape" fill="#E96868" transform="translate(1111.203447, 189.967326) rotate(-35.000000) translate(-1111.203447, -189.967326) "></path>
        <path d="M764.381109,540.279186 C780.4096,532.699749 792.790033,528.024663 801.522406,526.253927 C810.27298,524.479501 822.848237,523.752775 839.248177,524.073751 L839.248177,524.073762 C839.80035,524.084569 840.239213,524.540955 840.228406,525.093127 C840.221753,525.433084 840.04281,525.746366 839.753367,525.924798 C825.093646,534.961994 813.794951,540.285386 805.857281,541.894973 C797.912776,543.505946 784.205617,543.601126 764.735804,542.180512 L764.735808,542.180464 C764.185014,542.140275 763.771087,541.661189 763.811275,541.110395 C763.837508,540.750867 764.055224,540.433288 764.381109,540.279186 Z M721.785031,361.445243 C737.813522,353.865807 750.193955,349.190721 758.926328,347.419985 C767.676902,345.645559 780.252158,344.918833 796.652099,345.239809 L796.652099,345.23982 C797.204272,345.250627 797.643135,345.707012 797.632328,346.259185 C797.625675,346.599142 797.446732,346.912424 797.157289,347.090855 C782.497568,356.128052 771.198872,361.451444 763.261203,363.061031 C755.316698,364.672004 741.609539,364.767184 722.139726,363.34657 L722.139729,363.346521 C721.588936,363.306333 721.175008,362.827247 721.215197,362.276453 C721.24143,361.916925 721.459146,361.599346 721.785031,361.445243 Z M736.381109,420.279186 C752.4096,412.699749 764.790033,408.024663 773.522406,406.253927 C782.27298,404.479501 794.848237,403.752775 811.248177,404.073751 L811.248177,404.073762 C811.80035,404.084569 812.239213,404.540955 812.228406,405.093127 C812.221753,405.433084 812.04281,405.746366 811.753367,405.924798 C797.093646,414.961994 785.794951,420.285386 777.857281,421.894973 C769.912776,423.505946 756.205617,423.601126 736.735804,422.180512 L736.735808,422.180464 C736.185014,422.140275 735.771087,421.661189 735.811275,421.110395 C735.837508,420.750867 736.055224,420.433288 736.381109,420.279186 Z M749.381109,480.279186 C765.4096,472.699749 777.790033,468.024663 786.522406,466.253927 C795.27298,464.479501 807.848237,463.752775 824.248177,464.073751 L824.248177,464.073762 C824.80035,464.084569 825.239213,464.540955 825.228406,465.093127 C825.221753,465.433084 825.04281,465.746366 824.753367,465.924798 C810.093646,474.961994 798.794951,480.285386 790.857281,481.894973 C782.912776,483.505946 769.205617,483.601126 749.735804,482.180512 L749.735808,482.180464 C749.185014,482.140275 748.771087,481.661189 748.811275,481.110395 C748.837508,480.750867 749.055224,480.433288 749.381109,480.279186 Z" id="Combined-Shape" fill="#FFC635"></path>
        <path d="M1013.52908,543.243649 C1013.68701,545.557127 1013.82304,547.801431 1013.93717,549.976563 C1015.3776,577.428883 1007.01068,603.42883 1010.31449,624 C1016.40592,661.92829 1018.00766,701.185828 1015.11972,741.772613 C1011.30527,795.380478 965.801093,836.386703 912.0867,834.621117 C862.521324,832.991909 830.912825,831.718063 817.261203,830.799579 C805.562774,830.012506 784.849265,825.244032 755.120676,816.494157 C707.140712,802.372441 676.972567,754.974362 684.492371,705.527903 C688.748746,677.540113 692.489303,655.30668 695.714042,638.827602 L695.503471,638.679971 L695.904819,637.856356 C698.201542,626.208068 700.233269,617.516016 702,611.780201 C703.996635,605.297986 712.456347,583.55623 714.541016,578 C720.326522,562.579996 730.73469,547.02666 743.428765,531.510583 L747.208053,547.957008 C747.190934,547.982805 747.173821,548.008599 747.156715,548.034389 L771.521121,562.328249 L799.806253,554.892642 L836.003471,442.574219 L833.811467,433.720565 C833.793088,433.744828 833.774707,433.769093 833.756322,433.79336 L833.735278,433.701782 C833.753521,433.679122 833.771758,433.656464 833.789988,433.633806 L833.528862,432.579102 C843.807104,407.40477 849.176244,393.868962 849.636284,391.97168 C852.637679,379.593403 854.491431,362.000077 855.197542,339.1917 C849.752067,287.240424 858.020922,236.617178 892.551004,226.959719 C898.054522,225.420482 906.03673,224.924365 916.497628,225.47137 L907.167562,235.261024 C895.967154,239.889238 884.824589,249.950873 874.772682,270.552935 C858.6223,303.65423 867.992472,348.753272 902.883198,405.850059 C907.020605,414.700921 911.604348,424.354417 916.634429,434.810547 C937.315267,477.800227 957.294033,514.135507 976.570727,543.816385 L997.06528,545.729599 L996.630835,525.258719 C1002.09095,531.172536 1007.7237,537.167509 1013.52908,543.24364 Z M738.153757,562.285896 C732.610592,571.585966 728.1757,580.257821 725.253938,588.057237 C721.385601,598.383464 717.580756,610.318955 713.839404,623.863709 L722.663089,632.454734 C732.425979,629.859466 740.059159,628.22215 745.56263,627.542788 C751.825877,606.23968 758.136557,589.5584 764.494671,577.498949 L738.262403,562.328249 L738.153757,562.285896 Z M707.811166,647.30886 C704.645723,660.487229 701.52745,674.86115 698.456347,690.430624 C698.249898,691.477252 698.060593,692.523284 697.888237,693.568431 L706.282167,693.142138 C708.653672,676.196531 711.333757,662.440446 714.322423,651.873884 L707.811166,647.30886 Z M696.680028,715.033362 C697.978797,740.097069 708.716482,763.409389 725.994803,780.647713 L728.919233,782.393948 C728.500872,774.038215 728.37899,766.555861 728.553587,759.946886 C728.766799,751.876211 729.531414,740.971493 730.847431,727.232731 L707.595261,713.787219 L696.680028,715.033362 Z M767.642278,805.516269 C768.207313,805.686246 768.774792,805.851529 769.344681,806.012063 C785.384481,803.865762 797.155265,802.340585 804.657034,801.436532 C804.629928,792.388025 804.888927,784.349568 805.434029,777.321163 C806.05527,769.311058 807.36502,758.526848 809.36328,744.968534 L779.174074,725.64219 C777.992416,725.54851 776.88214,725.456586 775.843246,725.366418 L753.82436,731.106512 C750.416467,746.198872 748.906559,767.323228 749.294637,794.479579 C749.294964,794.502452 749.285292,794.523656 749.26562,794.543191 L767.642278,805.516269 Z M940.532973,814.394738 C969.299714,801.908394 991.500271,776.179565 998.50005,743.950342 L966.06153,731.822011 L931.252888,751.608798 C930.223809,761.961003 929.184938,770.386146 928.136274,776.884227 C926.845486,784.882643 924.87437,794.085141 922.222925,804.491722 C926.874959,806.802209 932.978309,810.103214 940.532973,814.394738 Z M1000.7777,724.557503 C1000.80409,723.201951 1000.80291,721.845647 1000.77413,720.489433 L999.533672,662.039383 L977.769624,671.881786 C977.937638,682.583573 977.871344,691.548362 977.570742,698.776152 C977.326883,704.639603 977.202484,710.383207 977.197546,716.006962 L1000.7777,724.557503 Z M998.799156,627.429228 L997.634269,572.540172 L971.872667,566.629487 L944.469768,583.676604 C944.780181,596.209936 944.778739,606.243118 944.465442,613.776152 C944.134168,621.741455 943.286559,630.942799 941.922616,641.380186 C948.548343,643.103272 957.52472,645.651023 968.851746,649.023437 L998.799156,627.429228 Z M955.42114,551.601093 C938.792209,529.583083 926.110918,510.254132 917.377265,493.614241 C909.380376,478.378076 896.317239,449.404657 878.187854,406.693982 L894.422346,553.057525 L929.873546,573.103698 L955.42114,551.601093 Z M874.184199,554.134482 L862.04335,417.903996 L821.618804,559.119085 L838.038555,573.103698 L874.184199,554.134482 Z M961.998987,713.991597 C963.168973,696.391586 963.323898,683.015383 962.463763,673.86299 L928.853302,663.067691 L888.069867,678.428598 C887.100669,687.952613 886.122805,695.771156 885.136274,701.884227 C884.438568,706.207592 883.542089,710.882755 882.446839,715.909714 L926.18761,731.822011 L961.998987,713.991597 Z M921.414405,585.382786 L885.668441,567.610241 L849.951713,587.638675 L841.584625,639.484089 L878.625796,662.972311 C899.306673,651.556148 913.728751,644.163747 921.892028,640.795107 C923.676963,616.350547 923.517755,597.879773 921.414405,585.382786 Z M908.831309,751.174552 L871.981269,738.405309 L833.096258,746.66108 C828.920243,759.902605 826.169277,778.641285 824.843361,802.87712 C833.44701,805.214694 847.112444,809.240512 865.839664,814.954575 C882.355963,809.022173 894.514283,804.909499 902.314626,802.616554 C906.363688,781.965448 908.535916,764.818114 908.831309,751.174552 Z M865.830635,676.427646 L830.499259,653.216341 L797.92331,662.374671 L787.605404,710.375679 L822.686955,729.069399 L861.09026,718.186106 C864.15805,701.04858 865.738175,687.129094 865.830635,676.427646 Z M774.093151,663.703477 L754.28645,649.023437 L729.011251,651.808684 L718.385269,695.820532 L743.972486,710.289183 L766.14839,706.967207 C768.162778,689.395434 770.811032,674.97419 774.093151,663.703477 Z M763.751936,631.235406 C771.117511,634.563403 778.390295,639.045215 785.570288,644.680841 L821.600149,634.876367 C823.380424,617.682449 825.723957,603.31617 828.630749,591.777531 L804.511253,575.696728 L783.17574,579.490264 C777.102342,588.196369 772.881833,595.810617 770.514213,602.333008 C768.326953,608.358539 766.07286,617.992672 763.751936,631.235406 Z" id="Combined-Shape" fill="#FFFFFF"></path>
        <path d="M392.942064,703 L214.057936,703 C215.605181,705.462743 216.5,708.376873 216.5,711.5 L216.5,752.5 C216.5,761.336556 209.336556,768.5 200.5,768.5 L182.5,768.5 C173.663444,768.5 166.5,761.336556 166.5,752.5 L166.5,711.5 C166.5,708.376873 167.394819,705.462743 168.942064,703 L105,703 C96.163444,703 89,695.836556 89,687 L89,669 C89,660.163444 96.163444,653 105,653 L506,653 C514.836556,653 522,660.163444 522,669 L522,687 C522,695.836556 514.836556,703 506,703 L438.057936,703 C439.605181,705.462743 440.5,708.376873 440.5,711.5 L440.5,752.5 C440.5,761.336556 433.336556,768.5 424.5,768.5 L406.5,768.5 C397.663444,768.5 390.5,761.336556 390.5,752.5 L390.5,711.5 C390.5,708.376873 391.394819,705.462743 392.942064,703 Z M1554.94206,624 L1376.05794,624 C1377.60518,626.462743 1378.5,629.376873 1378.5,632.5 L1378.5,673.5 C1378.5,682.336556 1371.33656,689.5 1362.5,689.5 L1344.5,689.5 C1335.66344,689.5 1328.5,682.336556 1328.5,673.5 L1328.5,632.5 C1328.5,629.376873 1329.39482,626.462743 1330.94206,624 L1267,624 C1258.16344,624 1251,616.836556 1251,608 L1251,590 C1251,581.163444 1258.16344,574 1267,574 L1668,574 C1676.83656,574 1684,581.163444 1684,590 L1684,608 C1684,616.836556 1676.83656,624 1668,624 L1600.05794,624 C1601.60518,626.462743 1602.5,629.376873 1602.5,632.5 L1602.5,673.5 C1602.5,682.336556 1595.33656,689.5 1586.5,689.5 L1568.5,689.5 C1559.66344,689.5 1552.5,682.336556 1552.5,673.5 L1552.5,632.5 C1552.5,629.376873 1553.39482,626.462743 1554.94206,624 Z" id="Combined-Shape" fill="#FFEECB"></path>
        <path d="M831.116323,166.42125 L780.558974,166.924971 C766.752541,167.062528 755.448703,155.981716 755.311144,142.175283 C755.297235,140.779214 755.400296,139.384434 755.619246,138.005572 C759.722963,112.161956 762.967516,96.7000235 765.352904,91.6197748 C770.120305,81.4664654 770.274457,76.1626122 788.331069,69.8708333 C799.212217,66.0793259 826.594575,65.8158339 870.478141,69.0803575 C878.188822,69.653959 883.974568,76.3696971 883.400966,84.080378 C883.365137,84.5620133 883.304409,85.0414718 883.219025,85.5168306 C880.246925,102.063566 874.29447,113.79957 865.36166,120.724841 C863.446047,122.209945 861.708898,123.870021 860.150213,125.705072 C855.565865,119.813242 848.198039,116.236488 840.157995,116.798702 C827.368188,117.693053 817.720557,128.722511 818.609409,141.433686 C818.971406,146.610482 823.211047,159.234153 831.116323,166.42125 Z" id="Combined-Shape" fill="#7821D1"></path>
    </g>
</svg>