<?xml version="1.0" encoding="UTF-8"?>
<svg width="1794px" height="1276px" viewBox="0 0 1794 1276" version="1.1" xmlns="http://www.w3.org/2000/svg" xmlns:xlink="http://www.w3.org/1999/xlink">
    <!-- Generator: Sketch 56.1 (81669) - https://sketch.com -->
    <title>Natutal Cloth</title>
    <desc>Created with Sketch.</desc>
    <g id="Natutal-Cloth" stroke="none" stroke-width="1" fill="none" fill-rule="evenodd">
        <path d="M352.776335,230.571877 C350.850701,230.1445 348.92695,229.735776 347.005082,229.345703 C339.678751,227.858712 332.361586,227.149105 325.053587,227.216881 C324.785075,218.463683 324.704124,210.063858 324.704124,202.222104 C324.704124,138.624611 391.98843,113.288103 462.254736,104.226419 L576.016685,81.4926052 C592.813251,78.1360348 610.045404,84.7178617 620.327485,98.4171313 L629.824418,111.070313 C638.210526,122.243494 636.152189,138.011 625.316286,146.674898 C630.847649,158.720855 634.388722,172.819256 636.573411,188.654307 C653.830318,193.164485 668.859421,197.918853 681.660719,202.91741 C709.195157,213.668856 722.80046,244.705697 712.049014,272.240135 C704.657339,291.170207 687.182402,304.281015 666.940471,306.083433 C665.39014,306.221478 663.896717,306.354452 662.460203,306.482355 C656.71314,321.53507 642.967414,332.921203 625.872593,334.856718 L616.802039,335.883707 C609.776443,353.755017 601.134433,373.463146 590.876009,395.008094 C544.904745,400.572582 508.527351,403.354826 481.743829,403.354826 C446.880672,403.354826 393.254339,400.453975 367.302934,373.045797 C348.33047,353.008321 337.735379,324.423118 331.857142,294.318692 C213.366697,338.691562 165.881707,298.165255 192.503305,284.0103 C243.192502,257.058376 296.616845,239.245568 352.776335,230.571877 Z M1352.56152,1172.39453 L481.719699,1172.39453 C426.573871,1172.39453 381.836654,1127.75191 381.719923,1072.60621 L380.863481,668.010712 C518.588257,655.189138 712.256331,655.189138 961.867703,668.010712 C1211.47907,680.832287 1341.71035,848.960226 1352.56152,1172.39453 Z" id="Combined-Shape" fill="#D2F7FF"></path>
        <path d="M625.482136,146.654623 C631.088105,158.762359 634.667528,172.957244 636.869287,188.916026 C654.126194,193.426204 669.155297,198.180572 681.956595,203.179129 C709.491033,213.930575 723.096336,244.967416 712.344891,272.501854 C704.953215,291.431926 687.478279,304.542734 667.236348,306.345151 C665.473854,306.502088 663.784912,306.652471 662.16952,306.796299 C664.565,300.495705 665.55982,293.554822 664.813649,286.397017 L662.249919,261.803911 C659.85406,238.821143 640.266076,221.4961 617.162756,221.925535 L505.065831,224.009147 L492.156117,194.543743 C491.58082,193.230673 491.148368,191.859555 490.866215,190.454026 C488.734871,179.836844 495.437234,169.496579 505.905719,167.046412 L612.38994,152.462412 C616.736543,151.867105 620.859342,150.17248 624.368147,147.538922 C624.749698,147.252547 625.121049,146.957625 625.482136,146.654623 Z M360.739874,282.626379 C360.330748,283.120477 359.862173,283.578165 359.335448,283.988923 C349.437719,291.707523 335.499259,301.335275 317.520067,312.872178 C266.242763,345.775845 203.004221,322.437887 196.315112,307.274581 C218.606233,318.811438 273.72725,321.817413 360.739874,282.626379 Z" id="Combined-Shape" fill="#FFBEBE"></path>
        <path d="M674.052934,200.175781 C698.373291,200.776042 712.100391,204.250651 715.234235,210.599609 C718.368079,216.948568 718.368079,229.78125 715.234235,249.097656 L674.052934,200.175781 Z M632.814443,187.148344 C633.515664,185.958951 635.048309,185.56321 636.237702,186.264431 C637.427094,186.965652 637.822836,188.498296 637.121615,189.687689 C625.786152,208.91461 611.089623,211.242311 594.764377,196.366877 C593.743801,195.436936 593.670327,193.85573 594.600267,192.835154 C595.530208,191.814578 597.111414,191.741104 598.13199,192.671044 C612.098065,205.39682 623.081433,203.657226 632.814443,187.148344 Z" id="Combined-Shape" fill="#E96868"></path>
        <path d="M503.265081,963.222656 L491.146684,963.222656 L491.146684,1014.98636 C491.146684,1028.3717 480.295724,1039.22266 466.910387,1039.22266 C453.504003,1039.22266 442.615807,1028.3929 442.543659,1014.98671 L442.265081,963.222656 L429.146684,963.222656 L429.146684,1014.98636 C429.146684,1028.3717 418.295724,1039.22266 404.910387,1039.22266 C391.504003,1039.22266 380.615807,1028.3929 380.543659,1014.98671 L380.265081,963.222656 L368.146684,963.222656 L368.146684,1014.98636 C368.146684,1028.3717 357.295724,1039.22266 343.910387,1039.22266 C330.504003,1039.22266 319.615807,1028.3929 319.543659,1014.98671 L319.265081,963.222656 L319.146684,963.222656 L319.16304,944.261962 L319.146684,941.222656 L319.165661,941.224536 L319.520067,530.394531 L552.146684,627.222656 L552.146684,954.649685 L552.146684,1014.98636 C552.146684,1028.3717 541.295724,1039.22266 527.910387,1039.22266 C514.504003,1039.22266 503.615807,1028.3929 503.543659,1014.98671 L503.265081,963.222656 Z" id="Combined-Shape" fill="#55ABD5" transform="translate(435.646684, 784.808594) rotate(7.000000) translate(-435.646684, -784.808594) "></path>
        <path d="M850.402862,395.350146 L854.799398,382.180573 C856.20659,377.965412 860.114913,375.092551 864.557944,375.007436 L938.24978,373.595715 C942.904892,373.506537 947.062804,376.493592 948.464072,380.933689 L953.145731,395.768125 C978.986132,393.351714 1007.21837,396.697282 1037.84244,405.804829 C1096.52806,423.257838 1202.3034,456.370511 1246.20965,497.752335 C1290.1159,539.13416 1293.30402,584.41015 1271.06406,625.617186 C1256.23741,653.088544 1196.3866,665.866018 1091.51163,663.949608 L1091.51163,574.081129 L1028.4137,557.224292 L1031.15112,670.662105 L766.151121,653.232422 L768.905476,569.536196 L736.329824,580.412362 L732.582444,667.143465 C619.92286,667.526782 556.179745,653.982762 541.3531,626.511404 C519.113132,585.304368 523.065191,539.345896 566.971441,497.964071 C610.877691,456.582246 716.653026,423.469573 775.338652,406.016565 C802.200275,398.027962 827.221678,394.472489 850.402862,395.350146 Z" id="Combined-Shape" fill="#FF8ADF"></path>
        <path d="M775.64269,458.285327 C776.128917,457.748841 776.671972,457.266748 777.262302,456.847528 C781.765229,453.649797 788.007847,454.707868 791.205578,459.210795 L828.888257,512.27416 C831.350561,515.741486 831.350561,520.386843 828.888257,523.854169 L792.014972,575.777776 C791.396838,576.648209 790.643309,577.414043 789.783002,578.046194 C785.332457,581.316439 779.073521,580.359617 775.803277,575.909073 L732.837469,517.436006 C730.022476,513.605024 730.293733,508.32177 733.486275,504.799231 L775.64269,458.285327 Z M899.732268,459.589658 C900.325184,458.834828 901.023687,458.169295 901.806281,457.61354 C906.309209,454.415808 912.551826,455.473879 915.749558,459.976807 L952.888257,512.27416 C955.350561,515.741486 955.350561,520.386843 952.888257,523.854169 L915.749558,576.151522 C915.193802,576.934116 914.528269,577.63262 913.773439,578.225535 C909.430262,581.637083 903.143816,580.881848 899.732268,576.538671 L858.65291,524.241318 C855.804934,520.615613 855.804934,515.512716 858.65291,511.887011 L899.732268,459.589658 Z M1023.27853,459.265479 C1023.84234,458.568728 1024.49725,457.950938 1025.22568,457.428709 C1029.7142,454.210785 1035.96151,455.240808 1039.17943,459.729328 L1073.27441,507.286715 C1075.61819,510.555934 1075.77494,514.911271 1073.67225,518.340521 L1038.93045,575.000335 C1038.33584,575.970078 1037.58012,576.83126 1036.69584,577.546811 C1032.40254,581.020911 1026.10581,580.356814 1022.63171,576.063509 L980.78936,524.354579 C977.820983,520.686249 977.820983,515.442081 980.78936,511.77375 L1023.27853,459.265479 Z" id="Combined-Shape" fill="#FF66D5"></path>
        <path d="M462.011442,437.017918 C465.772606,429.292677 475.084177,426.079159 482.809418,429.840323 C482.961098,429.914171 483.111567,429.990481 483.260765,430.069224 L904.023492,652.135507 C907.010951,653.712201 908.154602,657.412177 906.577908,660.399636 C906.403918,660.729305 906.200155,661.042378 905.969163,661.334947 C903.308138,664.705332 898.662892,665.774641 894.796086,663.906925 L469.448293,458.458584 C461.480386,454.609984 458.141027,445.030812 461.989627,437.062904 C461.996875,437.047897 462.004147,437.032902 462.011442,437.017918 Z M1354.22266,400.218506 C1354.28521,400.322661 1354.34643,400.427618 1354.40628,400.533351 C1358.25442,407.331267 1355.86316,415.961603 1349.06525,419.809747 L923.649481,660.627836 C923.257425,660.84977 922.848319,661.040134 922.426043,661.197122 C918.032746,662.830401 913.14724,660.592964 911.513961,656.199667 C909.505713,650.797755 911.655796,644.733086 916.618156,641.802435 L1334.25331,395.157101 C1341.16997,391.072286 1350.08669,393.332307 1354.22266,400.218506 Z" id="Combined-Shape" fill="#FFE640"></path>
        <path d="M1075.73179,547.912937 C1076.4062,555.385187 1072.79673,563.098248 1064.90338,571.052118 C1059.66623,576.329434 1052.4217,575.026482 1043.16982,567.143261 L1036.84187,570.880399 C1035.97301,575.743497 1033.60922,580.708494 1029.75049,585.775391 C1028.13997,587.890162 1024.9071,588.370937 1022.91607,590.761243 C1021.57295,592.3737 1016.873,591.263847 1008.81621,587.431684 L994.638935,595.80444 C991.978996,600.402804 988.56452,603.854872 984.395508,606.160645 C982.743337,607.074417 980.299914,607.081884 977.065238,606.183045 L968.249002,611.389704 C955.292861,592.526005 946.598174,576.63213 942.164959,563.708063 C942.133791,563.617199 942.103219,563.526132 942.073243,563.434868 C938.281823,551.891296 944.566184,539.459829 956.109755,535.668408 L1019.70166,514.78201 C1048.64864,513.24521 1072.19641,521.412123 1090.34496,539.282748 L1075.73179,547.912937 Z M1105.27391,557.888737 C1122.85219,583.578977 1133.43672,601.81523 1137.0275,612.597498 L1071.4359,626.928981 C1033.90946,645.690477 1004.22202,645.867415 982.37358,627.459796 L1105.27391,557.888737 Z M708.785918,601.093194 L735.930386,546.646132 C740.46773,537.545017 750.651576,532.739804 760.561133,535.024198 C771.81253,537.61792 786.484734,543.724893 804.577745,553.345118 C834.92396,569.480487 848.574862,581.505274 845.530449,589.419478 C845.481659,589.558012 845.422944,589.692652 845.358395,589.824515 L827.520067,630.394531 C835.107709,626.436348 843.929584,626.429191 853.98569,630.373059 C864.041796,634.316926 870.762127,642.003771 874.146684,653.433594 L814.912982,681.856366 C794.625868,691.59096 771.331497,692.986629 750.0272,685.743962 C744.739653,683.946393 738.988591,681.88331 732.774012,679.554714 C705.522606,669.34364 697.526575,643.1898 708.785918,601.093194 Z M957.42786,309.917433 C961.18274,306.843696 965.979858,305 971.206754,305 C983.242831,305 993,314.776234 993,326.83583 C993,332.739874 988.457185,349.173665 978.25089,354.983579 C970.072591,359.639059 958.516982,357.932291 952.771951,356.282825 C946.315847,375.716704 928.223408,389.849419 906.696575,390.378833 C900.387175,390.534001 893.775339,389.538874 886.861067,387.393452 C872.130498,382.822718 860.514301,371.940082 854.81631,358.108032 C849.305958,359.803385 837.21712,361.803977 828.74911,356.983579 C818.542815,351.173665 814,334.739874 814,328.83583 C814,316.776234 823.757169,307 835.793246,307 C839.895641,307 843.733288,308.135734 847.010075,310.11051 C845.901095,301.606501 844.899038,294.278649 844.003906,288.126953 C841.427843,270.423243 853.509386,252.761133 880.248535,235.140625 C881.038863,235.158542 881.622684,235.158542 882,235.140625 C923,233.193689 933.483451,234.800933 942.310547,242.322266 C954.987839,253.124247 958.613995,285.874749 957.42786,309.917433 Z" id="Combined-Shape" fill="#FFBEBE"></path>
        <path d="M1319.0415,1079.10937 L1498.82478,1017.09961 L1529.60112,1037.33934 L1617.90725,1025.9823 C1637.04057,1023.52157 1656.06448,1031.26489 1668.04059,1046.38811 L1678.36728,1059.42847 L1443.22069,1140.39593 L1352.56152,1172.39453 L1319.0415,1079.10937 Z M955.518736,1074.39453 L1142.81103,1074.39453 L1142.81103,1103.07532 L1230.0036,1121.0867 C1248.89565,1124.98923 1264.36213,1138.50426 1270.76213,1156.70259 L1276.28068,1172.39453 L1027.58478,1172.39453 L979.702158,1172.39453 L929.146684,1172.39453 L955.518736,1074.39453 Z" id="Combined-Shape" fill="#161616"></path>
        <path d="M907.160815,360.394531 C901.166693,360.394531 896,355.236692 896,353.269042 C896,351.301393 901.166693,353.269042 907.160815,353.269042 C913.154936,353.269042 918,351.301393 918,353.269042 C918,355.062861 913.975576,360.109789 908.720312,360.358026 C908.211049,360.382082 907.690361,360.394531 907.160815,360.394531 Z M877.805837,333.394531 C875.074977,333.394531 875,330.484382 875,326.894531 C875,323.30468 875.074977,320.394531 877.805837,320.394531 C879.392995,320.394531 880.805497,321.377539 881.710242,322.905674 C882.362198,324.006845 881.710242,325.391079 881.710242,326.894531 C881.710242,330.484382 880.536697,333.394531 877.805837,333.394531 Z M928.805837,333.394531 C926.074977,333.394531 926,330.484382 926,326.894531 C926,323.30468 926.074977,320.394531 928.805837,320.394531 C930.392995,320.394531 931.805497,321.377539 932.710242,322.905674 C933.362198,324.006845 932.710242,325.391079 932.710242,326.894531 C932.710242,330.484382 931.536697,333.394531 928.805837,333.394531 Z M874.542761,315.66728 C873.839841,316.519323 872.579295,316.640212 871.727251,315.937292 C870.875208,315.234372 870.75432,313.973826 871.457239,313.121783 C876.660306,306.814891 882.497418,306.814891 887.561723,313.145123 C888.251752,314.007639 888.111924,315.266226 887.249408,315.956255 C886.386892,316.646284 885.128306,316.506455 884.438277,315.643939 C880.969048,311.307505 878.139493,311.307505 874.542761,315.66728 Z M924.542761,315.66728 C923.839841,316.519323 922.579295,316.640212 921.727251,315.937292 C920.875208,315.234372 920.75432,313.973826 921.457239,313.121783 C926.660306,306.814891 932.497418,306.814891 937.561723,313.145123 C938.251752,314.007639 938.111924,315.266226 937.249408,315.956255 C936.386892,316.646284 935.128306,316.506455 934.438277,315.643939 C930.969048,311.307505 928.139493,311.307505 924.542761,315.66728 Z M900,343.394531 L910.491717,343.394531 C907.207785,328.998897 905.754309,322.30168 905.754309,321.394531 C905.754309,320.289962 906.649739,319.394531 907.754309,319.394531 C908.858878,319.394531 909.754309,320.289962 909.754309,321.394531 C909.754309,321.514733 910.231765,323.891676 911.019605,327.496186 C911.892255,331.488722 913.202427,337.306927 914.949686,344.948746 C915.235994,346.200944 914.284512,347.394531 913,347.394531 L900,347.394531 C898.895431,347.394531 898,346.499101 898,345.394531 C898,344.289962 898.895431,343.394531 900,343.394531 Z M755.464936,590.678927 L768.219903,566.690324 C768.738467,565.715047 769.949464,565.344808 770.924741,565.863372 C771.900018,566.381936 772.270257,567.592933 771.751693,568.56821 L760.40908,589.900563 C760.738242,590.465546 760.760724,591.137707 760.512391,591.706979 C759.817543,602.905981 762.202955,609.720921 767.392946,612.480488 C772.442893,615.165593 779.450996,613.662859 788.489093,607.633495 L801.219903,583.690324 C801.738467,582.715047 802.949464,582.344808 803.924741,582.863372 C804.900018,583.381936 805.270257,584.592933 804.751693,585.56821 L793.379218,606.956726 C793.598833,607.285826 793.723245,607.683218 793.714036,608.108786 C793.454024,620.124902 796.131703,627.402736 801.460149,630.235921 C806.787711,633.068636 814.309828,631.21545 824.110485,624.273384 C825.011844,623.634928 826.260111,623.848053 826.898567,624.749411 C827.537023,625.65077 827.323898,626.899036 826.42254,627.537493 C815.520904,635.25941 806.54615,637.470476 799.582263,633.767712 C793.262366,630.407363 790.047858,622.94658 789.7242,611.604918 C780.006432,617.842736 771.914828,619.415096 765.515059,616.012279 C759.278554,612.69627 756.308867,605.552775 756.398811,594.828813 C747.034418,600.665251 739.213372,602.073835 732.995459,598.767712 C726.032457,595.065418 722.839001,586.385721 723.128168,573.022252 C723.152064,571.917941 724.066656,571.042091 725.170967,571.065987 C726.275278,571.089883 727.151128,572.004475 727.127232,573.108786 C726.86722,585.124902 729.544899,592.402736 734.873346,595.235921 C739.821595,597.866952 746.663027,596.455583 755.464936,590.678927 Z M995.955514,577.97757 L984.292331,551.781631 C983.843062,550.772557 984.296874,549.590336 985.305948,549.141067 C986.315023,548.691798 987.497244,549.14561 987.946512,550.154684 L1000.84671,579.12902 C1010.34513,587.362252 1018.14659,589.908007 1024.32634,587.156606 C1030.88113,584.238226 1034.60109,575.834709 1035.21172,561.631132 C1035.22242,561.382317 1035.27814,561.146079 1035.37068,560.92994 L1023.44768,534.150452 C1022.99841,533.141377 1023.45222,531.959157 1024.4613,531.509888 C1025.47037,531.060619 1026.65259,531.514431 1027.10186,532.523505 L1039.90227,561.273697 C1050.20867,569.453474 1058.45895,571.971721 1064.69365,569.19585 C1071.20069,566.298729 1074.88208,557.91484 1075.45801,543.728943 C1075.50281,542.625283 1076.43383,541.766913 1077.53749,541.81172 C1078.64115,541.856527 1079.49952,542.787544 1079.45471,543.891204 C1078.82374,559.432955 1074.53897,569.190977 1066.3206,572.850031 C1058.79203,576.201969 1049.66055,573.679349 1038.96164,565.603511 C1037.78398,578.959598 1033.51817,587.442686 1025.95329,590.810787 C1018.35851,594.192202 1009.48672,591.521922 999.405584,583.151013 C998.230755,596.343894 994.00947,604.723945 986.530889,608.053624 C978.313435,611.71227 968.186323,608.372108 956.19568,598.451005 C955.344649,597.74686 955.225576,596.48614 955.929721,595.63511 C956.633867,594.78408 957.894586,594.665006 958.745617,595.369152 C969.69192,604.426163 978.395986,607.296971 984.903942,604.399442 C991.410982,601.502321 995.092367,593.118432 995.668294,578.932536 C995.682503,578.582555 995.785828,578.25724 995.955514,577.977569 Z" id="Combined-Shape" fill="#E96868"></path>
        <path d="M973.397016,305.108906 C972.676681,305.036881 971.946016,305 971.206754,305 C965.993747,305 961.208237,306.833911 957.457815,309.892956 C957.456898,309.893479 957.455986,309.894004 957.455078,309.894531 C954.241671,311.762224 943.77081,275.514443 926,264.046853 C921.507974,261.148127 909.859048,258.718447 891.053223,256.757813 L891.053223,241.879148 L887.364258,256.603027 C877.788086,260.656543 870.051829,270.373338 864.155488,285.75341 C857.799015,302.333692 853.4839,311.549997 851.210141,313.402326 C847.318781,309.499968 841.960861,307.065995 836.035542,307.001322 C833.97734,303.441918 834.298826,298.349029 837,291.722656 C840.662177,282.738803 851.104889,257.367228 862.81334,241.696663 C866.821821,236.331721 875.230694,233.268262 888.03996,232.506285 C889.373208,232.426971 890.592709,233.010177 891.377664,233.971126 C891.871128,232.823587 892.889487,231.93923 894.168353,231.649134 C914.6475,227.003716 929.848543,228.713119 939.771484,236.777344 C955.400984,249.479202 972.177872,281.612845 973.886719,298.654297 C974.15955,301.375102 973.948402,303.482754 973.397016,305.108906 Z" id="Combined-Shape" fill="#7821D1"></path>
        <path d="M1058.36934,655.355312 L1052.77053,709.041814 C1048.86471,746.494443 1066.32919,782.965905 1097.956,803.403613 L1223.92986,884.809772 L1234.02689,1081.20149 L1463.89946,1075.7259 C1494.81863,1074.9894 1519.28653,1049.32741 1518.55003,1018.40823 C1518.43329,1013.50722 1517.67349,1008.64275 1516.29012,1003.93957 L1420.04506,676.726464 C1405.461,627.143684 1355.49665,596.843065 1304.78741,606.829059 L1058.36934,655.355312 Z" id="Path-38-Copy-2" fill="#E85353" transform="translate(1291.648806, 835.201490) rotate(-20.000000) translate(-1291.648806, -835.201490) "></path>
        <path d="M885.75427,667.786032 L858.966463,698.759595 C873.590318,708.938115 894.517301,721.048344 921.747412,735.090282 C948.977524,749.132219 983.03833,771.73624 1023.92983,802.902344 C1008.54998,863.56517 997.067843,909.547362 989.483407,940.84892 C981.898971,972.150478 970.410253,1016.66568 955.017251,1074.39453 L1223.56039,1074.39453 C1252.47134,1074.39453 1276.63008,1052.38645 1279.31787,1023.60072 L1308.85823,707.228023 C1313.99269,652.238735 1273.57737,603.498806 1218.58808,598.364345 C1208.17786,597.392322 1197.67961,598.058911 1187.47593,600.339818 L885.75427,667.786032 Z" id="Path-38-Copy" fill="#FF6C6C"></path>
        <path d="M819.493868,646.848414 L877.833824,695.695523 C880.429131,697.868532 880.771472,701.734016 878.598463,704.329323 C878.361309,704.612564 878.099033,704.873784 877.814838,705.109793 C874.498052,707.864204 869.725867,707.987028 866.271783,705.406883 L805.953893,660.041325 M486.700835,396.194321 C486.789984,396.074976 486.880427,395.956602 486.972147,395.839221 L486.972147,395.839221 M515.504144,392.337819 C515.684469,392.478724 515.862402,392.622664 516.037867,392.769578" id="Shape" fill="#FFE640" transform="translate(683.364569, 549.799857) rotate(-12.000000) translate(-683.364569, -549.799857) "></path>
        <path d="M863.027377,714.8568 C854.241391,727.514505 846.268862,738.165474 839.10979,746.809705 L843.911493,748.094064 C856.346801,751.420257 864.991514,762.69221 864.979319,775.564672 C864.971438,783.88281 858.221866,790.619604 849.903729,790.611724 C848.076745,790.609993 846.265321,790.275871 844.557947,789.625681 L811.868369,777.177061 C804.219469,786.798689 795.61793,799.025076 786.063749,813.856223 C786.307967,813.913297 786.551915,813.973833 786.795531,814.037852 L798.257368,817.049876 C810.477161,820.26108 818.991502,831.312976 818.979319,843.947652 C818.971388,852.171228 812.298435,858.831324 804.074859,858.823394 C802.29799,858.821681 800.535773,858.501945 798.871564,857.879311 L766.426001,845.740381 C763.718378,850.307598 760.950666,855.039117 758.122863,859.934936 C753.723013,867.552466 744.66944,871.153629 736.239521,868.639286 C629.225893,836.720978 545.194721,811.204643 484.146004,792.090282 C388.491445,762.140827 369.299969,701.806592 352.771472,649.667969 C342.543632,617.404573 343.902126,535.228109 356.846952,403.138578 C358.657497,384.663704 372.940804,369.862263 391.339467,367.39483 L590.536851,340.680599 C592.071747,340.474755 593.617303,340.358222 595.165712,340.331589 C617.253835,339.951664 635.467786,357.549636 635.84771,379.637759 L637.155591,455.675633 C617.89515,464.442923 600.019233,473.93855 585.373675,484.037312 L485.373706,431.246163 C485.132696,431.118931 484.888303,430.998212 484.640794,430.884139 C477.027169,427.375145 468.010505,430.702605 464.501511,438.31623 C460.778649,446.393891 464.211997,455.965027 472.220495,459.834428 L562.291968,503.35353 C523.244909,543.367137 521.160582,586.676142 542.511088,626.23515 C556.422809,652.011303 613.39945,665.091816 713.441009,665.476688 C718.163957,671.508663 724.658925,676.073467 732.925916,679.171099 C739.140494,681.499696 744.891557,683.562778 750.179103,685.360347 C771.4834,692.603014 794.777772,691.207345 815.064886,681.472751 L860.23026,659.800542 L861.349334,659.874147 C862.557904,657.132258 864.230811,654.562919 866.348835,652.289061 L874.082832,643.986036 C882.844706,634.579507 896.836523,632.240056 908.181843,638.284635 C915.513929,642.191037 918.290996,651.301631 914.384594,658.633718 C913.52683,660.243691 912.383376,661.684217 911.010063,662.88496 L887.146702,683.749659 L895.911493,686.094064 C908.346801,689.420257 916.991514,700.69221 916.979319,713.564672 C916.971438,721.88281 910.221866,728.619604 901.903729,728.611724 C900.076745,728.609993 898.265321,728.275871 896.557947,727.625681 L863.027377,714.8568 Z M925.609773,612.466994 C929.549292,605.285909 938.564323,602.658101 945.745408,606.59762 C947.371399,607.489634 948.815655,608.67871 950.003268,610.103178 L973.439571,638.213552 C978.368666,644.125692 977.571751,652.91425 971.65961,657.843345 C970.701589,658.642071 969.640683,659.308579 968.505314,659.825015 C958.47343,664.388131 946.668931,662.321506 938.783935,654.621664 L930.710711,646.738014 C921.51086,637.754191 919.425071,623.740672 925.609773,612.466994 Z" id="Combined-Shape" fill="#60CBFF"></path>
        <path d="M1026.93328,800.458272 L1039.90274,751.512271 C1040.18566,750.444549 1039.54945,749.349638 1038.48172,749.066718 C1037.414,748.783799 1036.31909,749.420007 1036.03617,750.487729 L1023.06672,799.43373 C1022.7838,800.501452 1023.42001,801.596364 1024.48773,801.879283 C1025.55545,802.162202 1026.65036,801.525994 1026.93328,800.458272 Z" id="Path-41" fill="#E85353"></path>
    </g>
</svg>