<?xml version="1.0" encoding="UTF-8"?>
<svg width="1794px" height="1276px" viewBox="0 0 1794 1276" version="1.1" xmlns="http://www.w3.org/2000/svg" xmlns:xlink="http://www.w3.org/1999/xlink">
    <!-- Generator: Sketch 56.1 (81669) - https://sketch.com -->
    <title>Eco Education</title>
    <desc>Created with Sketch.</desc>
    <g id="Eco-Education" stroke="none" stroke-width="1" fill="none" fill-rule="evenodd">
        <path d="M492.417728,1144.25496 L492.417728,1034 L750.417728,1034.21983 L772.476542,1136.47528 L844.840445,1155.61886 C861.927002,1160.13904 875.800252,1172.59519 882.12827,1189.09787 L888.417728,1205.5 L766.902103,1205.5 L628.73804,1205.5 L582.417728,1142.96094 L581.824484,1205.5 L492.417728,1205.5 L492.417728,1205 L358.122809,1205 L331.853822,1119.53743 L301.265715,1038.31299 L374.691165,1018.32975 L293.033973,1016.45421 L267.417728,948.432172 L346.416878,920 L416.169624,1002.81188 L492.417728,1144.25496 Z M1344.08727,1027 L1364.70866,1205 L1271.91529,1205 L1220.5408,1205 L1079.82715,1205 L953.708663,1205 L960.640744,1186.86875 C966.954311,1170.35525 980.82115,1157.88342 997.909175,1153.34954 L1074.04156,1133.14971 L1079.30021,1027 L1344.08727,1027 Z" id="Combined-Shape" fill="#161616"></path>
        <path d="M742.480846,523.40819 L559.091126,560.820101 L327.767463,888.086924 L403.349477,1045.94759 C426.711722,1094.742 484.642634,1116.10984 534.094189,1094.17282 C655.899771,1040.13911 731.736453,989.002989 761.604236,940.764466 C789.703303,895.38254 822.364034,796.870621 859.586429,645.22871 C872.752119,591.592444 839.944234,537.438759 786.307967,524.273069 C771.942689,520.746933 756.974055,520.451544 742.480846,523.40819 Z" id="Mask-Copy" fill="#55ABD5"></path>
        <path d="M252,852 L413,852 C461.601058,852 501,891.398942 501,940 L501,1117 C501,1165.60106 461.601058,1205 413,1205 L252,1205 C203.398942,1205 164,1165.60106 164,1117 L164,940 C164,891.398942 203.398942,852 252,852 Z M252,887 C222.728908,887 199,910.728908 199,940 L199,1117 C199,1146.27109 222.728908,1170 252,1170 L413,1170 C442.271092,1170 466,1146.27109 466,1117 L466,940 C466,910.728908 442.271092,887 413,887 L252,887 Z" id="Rectangle" fill="#FBCEE4" fill-rule="nonzero"></path>
        <circle id="Mask" fill="#60CBFF" cx="1185.5" cy="281.851562" r="118.5"></circle>
        <path d="M268.720347,552.523947 L225.899934,730.402876 C212.974151,784.097462 246.023797,838.103942 299.718383,851.029725 C307.383031,852.874819 315.238979,853.807076 323.122583,853.807076 L436.820762,853.807076 L450.002572,1032.09273 C453.014429,1072.82847 486.943315,1104.34138 527.790245,1104.34138 L775.636413,1104.34138 C806.564359,1104.34138 831.636413,1079.26933 831.636413,1048.34138 C831.636413,1042.45256 830.707567,1036.60059 828.884113,1031.00119 L679.846048,573.340043 C664.644997,526.661159 617.808607,497.919356 569.306729,505.506048 L268.720347,552.523947 Z" id="Mask-Copy-2" fill="#60CBFF"></path>
        <path d="M1206,151.674221 C1199.16262,150.572525 1192.14817,150 1185,150 C1112.6507,150 1054,208.650698 1054,281 C1054,353.349302 1112.6507,412 1185,412 C1192.14817,412 1199.16262,411.427475 1206,410.325779 L1206,441.850045 C1206,452.89574 1197.04569,461.850045 1186,461.850045 L698,461.850045 C686.954305,461.850045 678,452.89574 678,441.850045 L678,81 C678,69.954305 686.954305,61 698,61 L1186,61 C1197.04569,61 1206,69.954305 1206,81 L1206,151.674221 Z M1091.12143,209.830951 C1094.76747,205.036994 1098.77043,200.529247 1103.09069,196.347321 C1109.59081,194.426632 1117.0712,196.894525 1123.94088,196.894525 C1135.26148,196.894525 1140.78645,202.513699 1135.29364,207.472237 C1129.80084,212.430775 1129.17181,220.705052 1134.59852,224.751762 C1140.02524,228.798471 1144.73068,213.824892 1154.86283,213.824892 C1164.99499,213.824892 1168.41431,233.394484 1160.53006,236.550269 C1152.6458,239.706054 1149.29291,250.584388 1149.02199,258.991798 C1148.75107,267.399208 1135.29364,278.02967 1123.23305,282.418106 C1111.17245,286.806542 1107.49733,296.153202 1112.62028,302.945444 C1116.03558,307.473606 1124.58874,309.813992 1138.27976,309.966602 L1135.29364,323.719056 C1123.46041,318.246411 1116.49924,315.510088 1114.41015,315.510088 C1111.27651,315.510088 1096.47791,306.185826 1093.38501,299.170023 C1090.2921,292.154219 1081,277.351451 1081,259.66734 C1081,242.787962 1084.285,226.320969 1091.12143,209.830951 Z M1186.65159,163.00548 C1214.1234,163.267018 1239.3597,172.876695 1259.33258,188.806601 C1257.39508,193.532954 1255.64004,199.718046 1254.06747,207.361876 C1259.43072,206.819188 1264.33738,203.433941 1268.78744,197.206135 C1287.17323,215.37377 1299.64529,239.512895 1303.05671,266.476591 C1303.63826,277.673327 1303.95091,283.060058 1303.99466,282.636788 C1303.99577,282.518806 1303.99671,282.400782 1303.99747,282.282718 C1303.89476,279.490161 1300.66569,273.942876 1294.31028,265.640861 L1279.73173,278.567222 C1265.67824,276.071823 1258.65149,269.771862 1258.65149,259.66734 C1258.65149,249.562817 1256.60736,240.248913 1252.5191,231.725627 C1250.31152,226.156513 1248.86328,221.545203 1248.17439,217.891697 L1245.34455,217.891697 C1245.34455,217.891697 1223.2992,185.570771 1223.2992,185.570771 C1223.2992,185.570771 1202.85939,175.063393 1197.31873,171.40352 C1194.6223,169.622392 1191.06658,166.823046 1186.65159,163.00548 Z M1198.14996,399.332747 C1195.63819,399.599295 1193.10299,399.787368 1190.54686,399.894468 C1184.18978,381.600085 1179.36384,372.452894 1176.06902,372.452894 C1172.46143,372.452894 1164.01376,365.768664 1150.72599,352.400204 C1146.72912,338.541082 1151.09272,326.219258 1163.8168,315.434731 C1182.90293,299.25794 1185.02768,324.125988 1216.40811,324.125988 C1237.3284,324.125988 1246.90508,329.441219 1245.13813,340.071681 C1233.2301,361.659156 1223.65342,375.603684 1216.40811,381.905264 C1210.77945,386.800774 1204.69339,392.609935 1198.14995,399.332748 Z" id="Combined-Shape" fill="#C8FF57"></path>
        <path d="M678,81.0024233 C678,69.95539 686.96395,61 697.997455,61 L1184.00255,61 C1195.04683,61 1204,69.9577971 1204,81.0024233 L1204,106.340365 L678,106.340365 L678,81.0024233 Z" id="Top-bar-Copy" fill="#82D121"></path>
        <path d="M865.310204,158.781978 L794.069327,229.516039 L789,217.813714 L866.888835,145 L927.878627,196.928359 L1024,230.009928 L1019.86751,242 L922.544509,208.504871 L865.310204,158.781978 Z M769,322.847096 C769,320.722404 770.712136,319 772.852631,319 L801.147369,319 C803.275119,319 805,320.730161 805,322.847096 L805,391.152904 C805,393.277596 803.287864,395 801.147369,395 L772.852631,395 C770.724881,395 769,393.269839 769,391.152904 L769,322.847096 Z M824,279.841295 C824,277.719806 825.712136,276 827.852631,276 L856.147369,276 C858.275119,276 860,277.728093 860,279.841295 L860,391.158705 C860,393.280194 858.287864,395 856.147369,395 L827.852631,395 C825.724881,395 824,393.271907 824,391.158705 L824,279.841295 Z M878,308.838397 C878,306.718509 879.712136,305 881.852631,305 L910.147369,305 C912.275119,305 914,306.717504 914,308.838397 L914,391.161603 C914,393.281491 912.287864,395 910.147369,395 L881.852631,395 C879.724881,395 878,393.282496 878,391.161603 L878,308.838397 Z M934,265.836997 C934,263.717882 935.712136,262 937.852631,262 L966.147369,262 C968.275119,262 970,263.730255 970,265.836997 L970,391.163003 C970,393.282118 968.287864,395 966.147369,395 L937.852631,395 C935.724881,395 934,393.269745 934,391.163003 L934,265.836997 Z M988,279.841295 C988,277.719806 989.712136,276 991.852631,276 L1020.14737,276 C1022.27512,276 1024,277.728093 1024,279.841295 L1024,391.158705 C1024,393.280194 1022.28786,395 1020.14737,395 L991.852631,395 C989.724881,395 988,393.271907 988,391.158705 L988,279.841295 Z" id="Combined-Shape" fill="#FFFFFF" transform="translate(896.500000, 270.000000) scale(-1, 1) translate(-896.500000, -270.000000) "></path>
        <path d="M774.701763,253.003654 C764.925349,253.003654 757,245.071064 757,235.285718 C757,225.500372 764.925349,217.567782 774.701763,217.567782 C784.478178,217.567782 792.403527,225.500372 792.403527,235.285718 C792.403527,245.071064 784.478178,253.003654 774.701763,253.003654 Z M844.125416,228.722953 C834.349002,228.722953 826.423652,220.790362 826.423652,211.005017 C826.423652,201.219671 834.349002,193.28708 844.125416,193.28708 C853.90183,193.28708 861.827179,201.219671 861.827179,211.005017 C861.827179,220.790362 853.90183,228.722953 844.125416,228.722953 Z M924.568696,172.435872 C914.792281,172.435872 906.866932,164.503282 906.866932,154.717936 C906.866932,144.93259 914.792281,137 924.568696,137 C934.34511,137 942.270459,144.93259 942.270459,154.717936 C942.270459,164.503282 934.34511,172.435872 924.568696,172.435872 Z M997.298236,238.966972 C987.521822,238.966972 979.596473,231.034381 979.596473,221.249035 C979.596473,211.46369 987.521822,203.531099 997.298236,203.531099 C1007.07465,203.531099 1015,211.46369 1015,221.249035 C1015,231.034381 1007.07465,238.966972 997.298236,238.966972 Z" id="Oval" fill="#FF8ADF"></path>
        <path d="M275.824446,556.847504 C295.703109,582.686213 305.697066,603.735728 305.806316,619.996049 C305.996236,648.263176 263.120161,710.082807 222.488281,684.029382 C205.428666,673.090646 179.077404,652.073717 143.434493,620.978596 C102.568459,585.326787 97.5678812,523.598932 132.162384,481.83406 C207.820994,390.493761 251.871929,337.059689 264.315188,321.531843 C265.354487,320.04931 266.47264,318.624868 267.663906,317.26486 C268.020534,316.778892 268.083897,316.644629 267.854004,316.862061 C267.791023,316.921628 267.757166,317.023501 267.750962,317.165735 C276.359401,307.389753 288.755825,300.966494 302.793302,300.267804 C303.204315,300.247347 303.615566,300.231964 304.02696,300.22166 L425.253288,297.185387 C444.444605,296.704715 461.380689,307.102935 470.154369,322.761551 L551.058594,406.408071 L615.948456,338.437914 C627.255189,326.594455 645.397498,324.492281 659.112914,333.436389 L697.16347,358.249947 C715.667902,370.317071 720.886371,395.100215 708.819246,413.604647 C708.331048,414.35328 707.817895,415.085339 707.280653,415.799594 L631.833862,516.104858 C627.842,513.948527 623.569336,512.031331 619.015869,510.353271 C612.185669,507.836182 607.341835,506.868157 606.900024,506.762573 C605.87085,506.51662 587.780433,503.583365 578.663086,504.742755 C560.081706,507.10562 515.19401,514.155561 444,525.892578 L443.75809,525.66379 L275.824446,556.847504 Z" id="Combined-Shape" fill="#6381DD"></path>
        <polygon id="Path-209" fill="#FFE640" transform="translate(356.267726, 362.230504) rotate(5.000000) translate(-356.267726, -362.230504) " points="299.970423 304.827847 378.469223 432.292557 412.564826 292.168452 392.415642 294.432513 374.485187 414.433156 321.798333 302.383525"></polygon>
        <path d="M395.141955,287.907872 L391.082212,301.254471 C390.300822,303.823328 388.282844,305.828869 385.709206,306.594367 C376.373277,309.371214 368.784845,310.380243 362.94391,309.621453 C356.260727,308.753247 348.098071,305.566311 338.455941,300.060643 L351.31277,262.740604 C341.784446,252.649192 335.75711,244.525214 333.230762,238.368668 C328.427441,226.66329 339.310741,207.76267 338.187223,199.953251 C335.562811,181.711317 340.002232,166.253674 351.505484,153.58032 C405.2901,145.318976 436.637002,146.230467 445.54619,156.314794 C458.909972,171.441284 453.358709,213.682487 450.532409,238.368668 C447.706109,263.054849 442.511477,280.003679 432.054561,285.280819 C426.67926,287.993495 414.375058,288.869179 395.141955,287.907872 Z M761.535539,256.785517 L803.707777,296.040994 C804.2115,296.509878 804.690687,297.004449 805.143425,297.522732 C812.410158,305.841504 811.557312,318.476052 803.23854,325.742785 L742.561501,378.746263 C713.541253,392.008032 687.930673,392.008032 665.72976,378.746263 C643.528847,365.484495 633.935847,350.446873 636.950762,333.633398 L636.950762,240.378075 C648.11308,240.279581 656.836775,244.196583 663.121847,252.129081 C669.406919,260.061579 674.68018,272.318034 678.941629,288.898444 L714.425676,253.807631 C719.833306,245.750835 730.567377,234.224662 746.627888,219.229111 C760.356244,209.419752 770.307088,204.118864 776.48042,203.326447 C782.653751,202.53403 790.965019,205.49077 801.414222,212.196667 L761.535539,256.785517 Z M253.87046,685.449188 C227.763752,668.736459 220.563795,661.541961 219.065663,637.985054 C218.066908,622.280449 226.487483,609.718077 244.327387,600.297938 L341.014639,554.778131 C345.820436,565.320646 345.787145,575.246993 340.914766,584.55717 C336.042388,593.867348 323.50027,605.658228 303.288415,619.92981 L353.366903,616.944229 C354.075501,616.901984 354.78363,616.852195 355.491167,616.79487 L388.212486,614.143801 C399.532332,613.226672 410.427765,618.659791 416.506558,628.25293 L421.527899,636.177269 C422.035125,636.977739 422.304428,637.905871 422.304428,638.853516 C422.304428,641.614939 420.065852,643.853516 417.304428,643.853516 L401.765615,643.853516 C413.767101,649.929892 421.31301,654.921519 424.403341,658.828397 C428.106528,663.510064 430.196687,671.274599 430.673818,682.122001 L381.503893,682.122001 C401.786804,684.981386 414.645773,691.180215 420.080801,700.718486 C425.515829,710.256758 427.727071,718.332309 426.714529,724.945141 C328.889622,709.756324 271.274932,696.591007 253.87046,685.449188 Z" id="Combined-Shape" fill="#C7E0FF"></path>
        <path d="M436.915178,209.912354 L437.953821,209.912354 C439.137289,198.367282 448.873055,189.36045 460.709863,189.36045 C473.345337,189.36045 483.586675,199.623722 483.586675,212.281974 C483.586675,224.940226 473.345337,235.203499 460.709863,235.203499 C454.297664,235.203499 448.50203,232.560378 444.348524,228.302455 C444.757437,230.071933 445.19942,232.110657 445.674472,234.418629 C445.941418,235.715544 444.950967,236.930835 443.627053,236.930835 L430.359199,236.930835 C429.204729,236.930835 428.268846,235.994817 428.268846,234.840177 C428.268846,233.685536 429.204729,232.749515 430.359199,232.749515 L441.063169,232.749515 C439.414217,224.718095 438.045489,217.960406 436.956983,212.476446 C436.49182,225.261704 426.000899,235.48503 413.12525,235.48503 C400.101896,235.48503 389.518298,225.025803 389.281477,212.035445 L378.67604,219.213858 C378.974285,217.72292 378.974285,216.564476 378.67604,215.738525 C378.390576,214.947972 378.083025,214.092748 377.753387,213.172852 L390.054236,205.518443 C392.735485,195.26297 402.047794,187.695792 413.12525,187.695792 C425.733893,187.695792 436.055687,197.499506 436.915178,209.912354 Z M442.345815,207.883077 C442.010546,209.29462 441.833052,210.767502 441.833052,212.281974 C441.833052,222.733 450.285447,231.203499 460.709863,231.203499 C471.13428,231.203499 479.586675,222.733 479.586675,212.281974 C479.586675,201.830948 471.13428,193.36045 460.709863,193.36045 C455.311124,193.36045 450.441307,195.632355 447.000579,199.274668 C450.336284,198.58001 453.691443,200.289642 456.762641,204.408763 C457.480532,205.371605 457.323691,206.76698 456.412328,207.525421 C455.500965,208.283862 454.180194,208.118163 453.462304,207.155321 C449.887602,202.360895 447.005101,202.360895 443.298891,207.181294 C443.040222,207.517725 442.707583,207.753289 442.345815,207.883077 Z M430.210233,247.960455 C427.604508,245.781507 427.946711,244.494856 431.477531,243.04385 C435.00835,241.592844 442.75394,242.162021 442.034346,244.953755 C441.782352,245.931394 442.788456,247.290516 441.252535,247.986871 C438.331291,249.311301 431.918036,249.388546 430.210233,247.960455 Z M414.425996,207.080343 C413.694528,208.031711 412.371555,208.17648 411.471053,207.403695 C410.570551,206.630909 410.433522,205.233207 411.16499,204.28184 C416.559183,197.266005 422.639405,197.266005 427.889746,204.307813 C428.607637,205.270655 428.450796,206.66603 427.539433,207.424471 C426.62807,208.182912 425.307299,208.017212 424.589409,207.05437 C421.014707,202.259945 418.132206,202.259945 414.425996,207.080343 Z M448.852003,222.677538 C446.174923,222.677538 446.101423,219.586267 446.101423,215.772992 C446.101423,211.959717 446.174923,208.868447 448.852003,208.868447 C450.407904,208.868447 451.792589,208.900541 452.679516,210.523784 C453.318633,211.693489 452.679516,214.175968 452.679516,215.772992 C452.679516,219.586267 451.529082,222.677538 448.852003,222.677538 Z M419.327205,223.011877 C416.650126,223.011877 416.576626,219.920607 416.576626,216.107332 C416.576626,212.294057 416.650126,209.202787 419.327205,209.202787 C420.883107,209.202787 422.267792,209.234881 423.154719,210.858124 C423.793836,212.027829 423.154719,214.510308 423.154719,216.107332 C423.154719,219.920607 422.004285,223.011877 419.327205,223.011877 Z M413.12525,231.48503 C424.085942,231.48503 432.973076,222.578863 432.973076,211.590411 C432.973076,200.60196 424.085942,191.695792 413.12525,191.695792 C402.164557,191.695792 393.277424,200.60196 393.277424,211.590411 C393.277424,222.578863 402.164557,231.48503 413.12525,231.48503 Z M738.133682,323.745022 L785.873723,281.847283 C786.703916,281.118686 787.967565,281.201047 788.696161,282.03124 C789.424758,282.861433 789.342397,284.125082 788.512204,284.853679 L741.497502,326.114844 C741.483648,326.165976 741.467668,326.216961 741.449514,326.267697 C740.120199,329.982777 739.227556,333.328955 738.760102,336.31183 C747.598256,333.344806 753.88791,333.582601 757.498653,337.454649 C760.879388,341.080044 760.802481,346.67184 757.645674,354.119448 C760.256965,353.700608 763.133775,352.99075 766.279649,351.983231 C767.331586,351.646331 768.457462,352.225983 768.794362,353.27792 C769.131263,354.329857 768.551611,355.455732 767.499674,355.792633 C754.150637,360.067885 744.547806,359.463419 738.890754,353.60537 C733.741431,348.27309 733.051267,339.819576 736.533593,328.384559 C724.796532,331.587359 716.242942,330.6338 711.028701,325.234296 C705.332199,319.335396 705.32773,309.922187 710.608608,297.23184 C710.78063,296.818459 711.075288,296.493333 711.432819,296.281102 L759.167595,254.648834 C760.00004,253.922811 761.263428,254.009083 761.989451,254.841527 C762.715474,255.673972 762.629202,256.93736 761.796758,257.663383 L714.097147,299.264981 C713.06433,301.798238 712.270416,304.151819 711.710794,306.328413 C720.574866,303.343935 726.881199,303.575405 730.498653,307.454649 C734.12267,311.340931 733.773508,317.486808 729.916465,325.756052 C732.413584,325.351891 735.151632,324.683452 738.133682,323.745022 Z M738.374538,340.639353 C738.320697,345.060781 739.47051,348.447499 741.768113,350.826737 C744.274114,353.421776 748.023695,354.69181 753.054949,354.565482 C756.507397,347.370141 756.849675,342.623822 754.573238,340.182642 C752.189946,337.626874 746.978752,337.579757 738.788924,340.537639 C738.651992,340.587094 738.513192,340.620684 738.374538,340.639353 Z M725.477065,326.206869 C725.477162,325.907537 725.544718,325.603652 725.687209,325.317517 C729.480719,317.699755 729.928065,312.707885 727.573238,310.182642 C725.189946,307.626874 719.978752,307.579757 711.788924,310.537639 C711.487167,310.646623 711.176344,310.67856 710.877984,310.643556 C710.250665,315.826436 711.289796,319.746442 713.90606,322.455663 C716.463032,325.103485 720.306622,326.378802 725.477065,326.206869 Z M641.584639,243.723843 C653.189149,265.998767 652.816479,279.831056 639.406506,284.088559 C638.353723,284.422805 637.229313,283.840315 636.895067,282.787532 C636.560821,281.734748 637.143311,280.610338 638.196094,280.276092 C648.777033,276.916773 648.647656,264.886271 636.614389,242.90992 C636.174174,242.105956 636.343955,241.132175 636.968103,240.520892 C636.979768,240.450675 636.995286,240.380383 637.014793,240.310259 C637.31082,239.246096 638.413471,238.6234 639.477634,238.919427 C666.995504,246.574305 680.941629,264.246962 680.941629,291.534624 L680.941629,305.809257 L676.941629,305.809257 L676.941629,294.042687 L680.941629,294.042686 L680.941629,305.809257 C680.941629,305.809257 680.941629,305.809257 676.941629,305.809257 L676.941629,294.045116 C676.941629,294.043254 676.941629,294.043254 680.941629,294.042687 L680.941629,303.495573 C680.941629,304.600143 680.046199,305.495573 678.941629,305.495573 C677.83706,305.495573 676.941629,304.600143 676.941629,303.495573 L676.941629,291.534624 C676.941629,267.141804 665.265708,251.32294 641.584639,243.723843 Z M798.861745,209.653912 C799.769637,210.283043 799.995618,211.529046 799.366487,212.436938 C798.737356,213.344831 797.491353,213.570811 796.583461,212.94168 C780.014026,201.459763 764.231992,203.707092 748.565756,219.893215 C732.142915,236.86105 722.790659,246.264024 720.272655,248.325237 C719.417936,249.024901 718.15786,248.899205 717.458196,248.044486 C716.758532,247.189767 716.884228,245.929691 717.738947,245.230027 C720.071924,243.320275 729.468235,233.873007 745.691546,217.111323 C762.671462,199.567926 780.618729,197.012273 798.861745,209.653912 Z M343.242483,571.823707 C343.070255,572.298376 342.719261,572.708568 342.2281,572.944386 C323.116062,582.120527 311.402531,581.593762 308.419924,570.255775 C308.218557,569.490308 308.489173,568.711722 309.051801,568.228476 C309.216872,568.048432 309.41793,567.89581 309.650889,567.782449 L340.157038,552.93772 C341.150256,552.454406 342.347221,552.867765 342.830535,553.860983 C342.89268,553.988691 342.94,554.119768 342.973169,554.252263 C348.078428,565.675728 348.63683,575.403223 344.486331,583.31565 C340.446224,591.017628 329.267626,601.905887 310.91413,616.145916 L304.573419,621.462378 C303.727005,622.172066 302.465535,622.061228 301.755847,621.214814 C301.046159,620.3684 301.156997,619.106931 302.003411,618.397242 L308.403021,613.033263 C326.376265,599.086488 337.255058,588.490248 340.94409,581.457551 C342.453224,578.580569 343.223642,575.372438 343.242483,571.823707 Z M343.209285,570.373684 C343.012376,566.467381 341.948142,562.167461 340.000696,557.462247 L312.788868,570.703912 C315.588176,577.191025 324.461889,577.037214 340.496814,569.338468 C341.492561,568.860386 342.687335,569.280037 343.165416,570.275784 C343.180988,570.308217 343.195607,570.340861 343.209285,570.373684 Z M427.968332,721.96272 C427.980304,723.067225 427.094632,723.972308 425.990127,723.984281 C424.885623,723.996253 423.980539,723.110581 423.968567,722.006076 C423.743185,701.213961 412.449867,689.129511 389.546084,685.333538 C365.5779,681.361156 352.142488,678.946366 348.92345,678.021965 C347.861788,677.717092 347.24829,676.609296 347.553164,675.547634 C347.858038,674.485972 348.965834,673.872474 350.027496,674.177348 C353.017432,675.035958 366.513768,677.461698 390.200105,681.387368 C414.950843,685.489448 427.721094,699.154294 427.968332,721.96272 Z M431.91768,682.199909 C431.89204,683.304181 430.976066,684.178585 429.871794,684.152945 C428.767522,684.127305 427.893118,683.211331 427.918758,682.107059 C428.381571,662.174424 417.089428,650.091794 393.439939,645.493298 C368.867765,640.715391 339.35999,634.457207 304.914896,626.718526 C303.83719,626.476401 303.159818,625.406467 303.401943,624.328761 C303.644068,623.251056 304.714002,622.573684 305.791708,622.815809 C340.20169,630.546601 369.672831,636.797016 394.203415,641.566836 C419.656685,646.516066 432.428903,660.18238 431.91768,682.199909 Z M448,522.419922 C448,523.524491 447.104569,524.419922 446,524.419922 C444.895431,524.419922 444,523.524491 444,522.419922 L444,458 C444,456.895431 444.895431,456 446,456 C447.104569,456 448,456.895431 448,458 L448,522.419922 Z M273.471036,553.448155 C274.044222,554.392365 273.743447,555.622457 272.799237,556.195642 C271.855027,556.768827 270.624935,556.468053 270.05175,555.523843 C266.860196,550.266385 267.432281,534.380144 271.487196,506.863945 C275.459712,479.906901 277.832253,464.530866 278.627394,460.603518 C278.84658,459.520914 279.90189,458.820976 280.984494,459.040163 C282.067098,459.25935 282.767035,460.314659 282.547849,461.397263 C281.774386,465.217542 279.399064,480.611597 275.444458,507.447105 C271.572252,533.723458 271.008048,549.390866 273.471036,553.448155 Z" id="Combined-Shape" fill="#6674A9" fill-rule="nonzero"></path>
        <path d="M451.140344,233.099965 C451.560048,233.282389 451.991192,233.469526 452.433777,233.661377 L454.586914,234.34021 L460.350066,249.662096 C461.651824,253.122943 462.169683,256.829456 461.86633,260.514563 C460.736132,274.244128 448.714512,284.465855 434.99258,283.386743 C443.511278,276.591699 447.984339,260.624661 450.532409,238.368668 C450.724711,236.689014 450.929628,234.928089 451.140344,233.099965 Z M378.661448,219.613443 C377.446558,208.447263 368.197627,199.764961 356.968225,199.764961 C344.912679,199.764961 335.139728,209.771766 335.139728,222.115787 C335.139728,228.159078 339.689891,244.980458 349.912696,250.927398 C358.07505,255.675707 369.596127,253.958016 375.371147,252.275327 C373.531277,263.776312 364.352466,273.204289 352.21467,274.827244 C347.830201,275.413495 343.36887,274.916762 339.22073,273.380473 L310.503428,262.744851 C297.555758,257.949606 290.946912,243.56613 295.742158,230.61846 C296.343548,228.994646 297.112016,227.437708 298.035188,225.972718 C318.147348,194.056555 329.323546,175.146212 331.563782,169.241688 C332.874037,165.788286 334.672648,162.778186 336.959616,160.211387 C334.78093,158.975996 332.810801,157.41515 331.123153,155.481892 C326.412618,150.085817 324.033113,141.34255 324.033113,133.565225 C324.033113,129.491482 322.608816,123.712537 324.033113,120.158216 C326.121041,114.94781 330.063274,110.864572 334.955544,107.989594 C340.560477,104.695814 347.412394,102.987952 354.151487,102.987952 C361.714017,102.987952 368.84303,104.199057 375.054227,107.989594 C378.558071,110.127903 382.492926,113.356117 384.26986,116.9889 C386.271329,121.080725 384.26986,128.686778 384.26986,133.565225 C384.26986,137.83947 381.180307,144.616567 378.306734,149.908931 L394.899045,148.187316 C407.640641,147.254479 416.784233,147.254479 422.32982,148.187316 C424.999423,148.636377 427.059059,148.987797 428.508728,149.241577 L428.506653,149.243423 C431.491718,149.650208 434.572468,150.339534 437.748901,151.311401 C438.942681,151.676652 441.06114,152.382625 442.384094,153.108582 C449.750427,157.150777 453.831584,168.371053 454.627563,186.769409 L428.398821,149.339347 L427.315604,150.302933 C405.416786,177.340089 389.524186,199.81037 379.637802,217.713776 C379.293346,218.337556 378.967895,218.970778 378.661448,219.613443 Z" id="Combined-Shape" fill="#FF461C"></path>
        <path d="M1086.50341,1146.4091 L1288.92444,1146.4091 L1376.21298,702.813014 C1386.87607,648.62369 1351.59109,596.050417 1297.40177,585.387323 C1291.01616,584.130795 1284.52313,583.500634 1278.01506,583.505806 L1163.89088,583.596495 C1115.77979,583.634726 1074.51538,617.926924 1065.67358,665.218586 L996.070385,1037.50146 C986.732549,1087.44623 1019.65098,1135.50429 1069.59576,1144.84212 C1075.17129,1145.88454 1080.83127,1146.4091 1086.50341,1146.4091 Z" id="Path-177" fill="#E85353"></path>
        <path d="M362.796755,430.198353 C362.768946,430.170028 362.755041,430.14028 362.755041,430.109107 C362.755041,429.61494 361.578424,427.317864 359.225191,423.217877 C358.400422,421.780895 358.896716,419.947382 360.333697,419.122611 C360.788177,418.861757 361.303057,418.724497 361.827077,418.724497 L381.828996,418.724497 C383.485851,418.724497 384.828996,420.067643 384.828996,421.724497 C384.828996,422.181284 384.724687,422.632039 384.524021,423.04239 L381.086933,430.071066 L409.01446,429.87671 C415.089445,429.834433 420.048466,434.724908 420.090744,440.799893 C420.09105,440.843807 420.091092,440.887723 420.090872,440.931637 L419.839907,490.948265 C419.809682,496.971935 414.940196,501.850885 408.916596,501.892805 L334.675877,502.409469 C328.600892,502.451747 323.64187,497.561271 323.599593,491.486286 C323.599287,491.442372 323.599244,491.398456 323.599465,491.354542 L323.85043,441.337914 C323.880655,435.314244 328.750141,430.435294 334.773741,430.393374 L362.796755,430.198353 Z" id="Combined-Shape" fill="#FF8ADF"></path>
        <path d="M340.642677,441.206305 L398.217884,435.691901 C404.265341,435.112691 409.637317,439.545582 410.216527,445.59304 C410.221448,445.644422 410.226008,445.695838 410.230205,445.747284 L412.962477,479.235475 C413.45159,485.230302 409.035008,490.506422 403.04766,491.079874 L345.472453,496.594279 C339.424995,497.173488 334.05302,492.740597 333.47381,486.693139 C333.468889,486.641757 333.464329,486.590341 333.460132,486.538895 L330.72786,453.050704 C330.238747,447.055877 334.655329,441.779757 340.642677,441.206305 Z" id="Rectangle" fill="#FBCEE4" fill-rule="nonzero" transform="translate(371.845168, 466.143090) rotate(5.000000) translate(-371.845168, -466.143090) "></path>
        <path d="M1589.43523,598 L1626.70533,1097.60312 C1630.81393,1152.67856 1589.49714,1200.6567 1534.4217,1204.76529 C1531.99419,1204.94639 1529.56087,1205.03878 1527.12661,1205.04229 L1352.97005,1205.29338 C1306.08004,1205.36099 1265.43998,1172.83891 1255.22679,1127.07465 L1161.87621,708.780506 C1149.84681,654.87802 1183.79165,601.429665 1237.69414,589.400264 C1245.93823,587.560433 1254.38221,586.772553 1262.82436,587.055445 L1589.43523,598 Z" id="Mask" fill="#FF6C6C"></path>
        <path d="M1356.13025,409.497753 C1351.80902,385.919313 1349.64088,368.636838 1349.62584,357.650328 C1349.59913,338.148454 1362.07264,324.614685 1387.04635,317.04902 C1421.60967,317.48952 1443.70667,317.542153 1453.33736,317.206917 C1470.13399,316.622241 1479.10587,328.090774 1480.253,351.612515 L1482.71605,387.38006 L1493.11696,407.336902 C1494.13795,409.295948 1493.37751,411.71175 1491.41846,412.732746 C1490.53515,413.1931 1489.51186,413.307327 1488.54878,413.053077 L1479.92075,410.77531 C1481.3761,452.317718 1466.12069,473.205443 1434.15453,473.438486 C1427.23286,473.488947 1420.80822,473.56335 1414.8806,473.661697 L1416.10818,475.002387 L1408.96583,499.910698 L1323.21399,479.15909 L1355.16792,408.446758 L1356.13025,409.497762 Z M1085.69811,628.566086 L1128.05986,659.519144 C1114.99109,693.438332 1099.43654,733.345907 1082.96919,777.782309 C1050.42801,761.485137 1043.86096,722.6621 1066.29377,669.095966 C1072.38299,654.555829 1079.00468,641.117332 1085.69811,628.566086 Z M1569.92755,807.188324 C1573.57655,804.465219 1577.45628,802.021253 1581.53806,799.888648 L1662.60663,757.532879 C1669.87891,768.112143 1671.75879,778.945746 1668.24626,790.033688 C1666.37642,795.936206 1659.17203,801.11683 1653.31608,806.547681 C1649.8864,809.728387 1644.65512,814.650041 1637.62224,821.312644 L1679.18033,828.0372 C1679.92481,828.157666 1680.6324,828.444982 1681.25012,828.877633 C1690.11926,835.089706 1694.4026,842.641335 1694.10014,851.53252 C1693.94917,855.970529 1687.6567,861.781211 1675.22271,868.964569 C1683.37446,877.584713 1687.19441,883.212464 1686.68254,885.847823 C1685.97729,889.478792 1684.09498,895.086888 1679.49276,899.311111 C1677.44381,901.191774 1673.24426,903.584891 1666.89412,906.490462 C1675.59457,917.22496 1679.59185,924.775919 1678.88596,929.143339 C1678.34122,932.513721 1674.44195,937.14627 1667.18815,943.040986 C1662.76797,946.632994 1657.12697,948.370744 1651.45175,947.8887 L1571.2576,941.077124 C1570.61441,940.747634 1569.97864,940.416281 1569.35029,940.083067 L1391.07248,918.450749 C1336.24614,911.798095 1297.19366,861.95953 1303.84632,807.133198 C1304.20655,804.164408 1304.69978,801.213272 1305.32452,798.288688 L1320.11982,729.02719 L1472.01027,729.727132 L1462.29136,791.735696 L1569.92755,807.188324 Z" id="Combined-Shape" fill="#FFBEBE" transform="translate(1373.606815, 632.508352) scale(-1, 1) rotate(-17.000000) translate(-1373.606815, -632.508352) "></path>
        <path d="M1334.54586,396.421069 C1335.80617,396.627709 1336.73043,396.770806 1337.31865,396.85036 C1341.70532,397.443639 1344.89247,397.581384 1344.45057,399.231177 C1344.07413,400.636584 1341.14949,402.82071 1337.34612,403.941579 C1336.38538,404.224713 1334.75764,404.444159 1332.46289,404.599915 C1332.95188,402.506912 1333.3303,400.934565 1333.59814,399.882874 C1333.86599,398.831182 1334.18189,397.677247 1334.54586,396.421069 Z M1369.73976,379.366476 C1361.23831,374.836781 1350.54238,377.312239 1344.94512,385.378672 C1344.15799,386.51304 1342.60031,386.79453 1341.46594,386.007398 C1340.33157,385.220266 1340.05008,383.662584 1340.83722,382.528216 C1347.82389,372.459438 1361.11387,369.302578 1371.77734,374.789173 C1371.34436,375.626706 1370.95324,376.496594 1370.60759,377.397247 C1370.37339,378.007501 1370.07998,378.666602 1369.73976,379.366476 Z M1015.12161,807.823347 L1043.60173,813.169866 C1044.68734,813.373664 1045.40218,814.418933 1045.19839,815.504539 C1044.99459,816.590145 1043.94932,817.304991 1042.86371,817.101192 L1014.58118,811.791767 C1014.28589,811.809875 1013.98505,811.762842 1013.70156,811.646337 C1002.047,817.002706 996.297923,822.967222 996.073443,829.401013 C995.845809,835.925182 1001.31972,842.35557 1012.90283,848.575782 C1013.87596,849.098361 1014.2412,850.310874 1013.71862,851.284005 C1013.19604,852.257137 1011.98353,852.622382 1011.0104,852.099803 C998.230137,845.236706 991.782749,837.662748 992.075875,829.261534 C992.349052,821.432089 998.41278,814.719624 1009.94535,809.006842 C1000.29313,801.635363 995.842637,794.220343 996.897975,786.709597 C997.975378,779.041819 1004.48139,773.374049 1016.08109,769.572528 C1005.78466,761.048612 1001.28677,752.88606 1002.95279,745.046883 C1004.70013,736.825108 1012.78863,731.027084 1026.85216,727.441144 C1027.92249,727.168232 1029.0114,727.814661 1029.28431,728.884985 C1029.55722,729.955308 1028.91079,731.044216 1027.84047,731.317129 C1015.09232,734.567668 1008.22268,739.491984 1006.8654,745.878413 C1005.50832,752.263937 1009.78245,759.547169 1020.10945,767.684266 C1020.43715,767.94248 1020.66236,768.28257 1020.7789,768.6526 C1020.84701,768.682179 1020.9134,768.715501 1020.97776,768.752381 L1049.86603,773.02866 C1050.9587,773.190405 1051.71335,774.207303 1051.55161,775.299966 C1051.38986,776.392629 1050.37297,777.147287 1049.2803,776.985542 L1019.78765,772.619798 C1007.91852,776.014793 1001.74631,780.951756 1000.85906,787.266172 C999.961205,793.656156 1004.58249,800.531353 1015.12161,807.823347 Z M1347.12887,354.633073 C1345.94016,355.335459 1344.40713,354.94122 1343.70475,353.752515 C1343.00236,352.56381 1343.3966,351.030778 1344.5853,350.328392 C1353.63101,344.983433 1361.0236,347.243574 1365.34463,356.704842 C1365.91822,357.960771 1365.36508,359.443891 1364.10915,360.017483 C1362.85322,360.591076 1361.3701,360.037933 1360.79651,358.782004 C1357.71646,352.037977 1353.63339,350.789657 1347.12887,354.633073 Z M1062.84463,669.118008 C1070.19179,692.141481 1078.67724,700.256741 1088.42698,695.133766 C1089.40479,694.619982 1090.61396,694.996144 1091.12774,695.973948 C1091.64152,696.951751 1091.26536,698.160922 1090.28756,698.674706 C1077.49117,705.398531 1067.0313,695.394988 1059.03395,670.334055 C1058.69815,669.281766 1059.27898,668.156497 1060.33127,667.820695 C1061.38355,667.484893 1062.50882,668.065719 1062.84463,669.118008 Z M1345.13433,372.72029 C1342.2814,371.681724 1342.24822,367.957585 1343.71964,363.914176 C1344.33588,362.22077 1344.22215,360.413702 1345.3546,359.421349 C1346.92614,358.044223 1348.80466,357.474299 1350.4628,358.077811 C1353.31572,359.116377 1352.20123,362.422722 1350.72982,366.466131 C1349.2584,370.50954 1347.98725,373.758857 1345.13433,372.72029 Z" id="Combined-Shape" fill="#E96868"></path>
        <path d="M1437.05366,424.535021 L1376.38451,425.140157 C1362.57808,425.277867 1351.27412,414.197179 1351.13641,400.390747 C1351.12268,399.014504 1351.22263,397.639476 1351.43522,396.279683 C1356.24859,365.492929 1360.03211,347.164007 1362.78578,341.292916 C1368.08601,329.99234 1368.25739,324.089182 1388.33209,317.086467 C1400.49322,312.844269 1432.92078,313.961609 1485.61477,320.43849 C1493.289,321.381768 1498.74552,328.36764 1497.80224,336.041872 C1497.66905,337.125444 1497.40958,338.189718 1497.02911,339.213001 C1491.25273,354.748563 1483.56702,366.239793 1473.97199,373.686691 C1472.03348,375.191202 1470.25936,376.857059 1468.64962,378.684262 C1463.5646,372.010105 1455.29947,367.943479 1446.27209,368.575434 C1432.05283,369.570841 1421.32694,381.846565 1422.31513,395.994031 C1422.73059,401.935348 1427.72924,416.689825 1437.05366,424.535021 Z" id="Combined-Shape" fill="#7821D1" transform="translate(1424.521709, 369.854773) scale(-1, 1) rotate(-17.000000) translate(-1424.521709, -369.854773) "></path>
        <path d="M1371.65126,491.476806 C1371.25105,491.111094 1371,490.584865 1371,490 L1371,486 C1371,484.895431 1371.89543,484 1373,484 L1471,484 C1472.10457,484 1473,484.895431 1473,486 L1473,490 C1473,490.122759 1472.98894,490.242934 1472.96776,490.359584 L1516.58448,489.87862 C1537.5277,489.647678 1556.59963,500.292031 1567.57909,517.206898 C1568.1489,517.653683 1568.72094,518.108678 1569.29525,518.572022 C1603.23123,545.951201 1630.16211,610.732095 1650.08789,712.914705 L1601.1452,730.93266 C1603.72592,767.190677 1606.39421,808.974352 1609.15007,856.283683 C1539.1043,867.645395 1489.43103,872.931301 1460.13025,872.141402 C1438.28557,871.552506 1406.97745,870.25875 1366.20591,868.260135 C1377.19055,855.098391 1384.93343,838.93511 1387.97758,820.808277 C1388.30865,818.836877 1388.58053,816.855994 1388.79285,814.868297 L1396.72292,740.631362 L1251.0791,696.708747 C1260.76392,612.825993 1269.48627,560.168637 1277.24615,538.73668 C1284.12928,519.726222 1297.07505,510.391912 1304.66797,505.064354 C1311.83717,500.0341 1315.24681,495.69207 1324.30762,493.391485 C1325.91142,492.984271 1327.69244,492.643444 1329.70215,492.365538 C1330.99555,492.14456 1332.31417,491.996516 1333.65369,491.925829 C1340.22132,491.350231 1348.89482,491.266825 1360.8599,491.595803 L1371.65126,491.476806 Z" id="Combined-Shape" fill="#FF8ADF"></path>
        <path d="M1398.47068,744.382203 C1397.4055,744.089869 1396.77898,742.989383 1397.07132,741.924201 C1397.36365,740.859018 1398.46414,740.232501 1399.52932,740.524836 L1411.74421,743.877159 C1415.47235,744.90033 1419.32405,742.707521 1420.34722,738.979381 C1420.51287,738.375779 1420.59682,737.752686 1420.59682,737.126765 L1420.59682,615 C1420.59682,613.895431 1421.49225,613 1422.59682,613 C1423.70139,613 1424.59682,613.895431 1424.59682,615 L1424.59682,737.126765 C1424.59682,738.110355 1424.4649,739.089502 1424.20459,740.038019 C1422.59674,745.896524 1416.54408,749.342368 1410.68557,747.734526 L1398.47068,744.382203 Z M1603.79668,734.282172 C1603.89541,735.382321 1603.0836,736.354203 1601.98345,736.452932 C1600.8833,736.551662 1599.91142,735.739851 1599.81269,734.639703 C1588.34059,606.805231 1577.0897,534.97889 1566.47974,520.437639 C1565.82867,519.545342 1566.02424,518.294203 1566.91653,517.643143 C1567.80883,516.992082 1569.05997,517.187642 1569.71103,518.079939 C1580.98866,533.536244 1592.21064,605.178002 1603.79668,734.282172 Z" id="Combined-Shape" fill="#FF66D5"></path>
    </g>
</svg>