<?xml version="1.0" encoding="UTF-8"?>
<svg width="1794px" height="1276px" viewBox="0 0 1794 1276" version="1.1" xmlns="http://www.w3.org/2000/svg" xmlns:xlink="http://www.w3.org/1999/xlink">
    <!-- Generator: Sketch 56.1 (81669) - https://sketch.com -->
    <title>Eco Food  &amp; Transport</title>
    <desc>Created with Sketch.</desc>
    <g id="Eco-Food--&amp;-Transport" stroke="none" stroke-width="1" fill="none" fill-rule="evenodd">
        <path d="M366.139066,546.75629 C295.247528,660.896825 287.030851,740.809855 341.489035,786.49538 C423.176311,855.023666 571.523194,1069.22726 609.492404,1101.08002 C647.461615,1132.93277 973.007367,1289.27018 1178.49707,1118.5164 C1315.49021,1004.68054 1399.36292,822.759307 1430.11521,572.752689 C1438.26897,517.737439 1390.0674,453.136293 1285.51049,378.949252 C1128.67513,267.668689 989.339957,307.297013 769.788918,249.1654 C623.421559,210.410991 488.871608,309.607955 366.139066,546.75629 Z" id="Path-41-Copy-5" fill="#FFFAF0"></path>
        <path d="M488.924856,1046.73586 L514.804505,1059.92699 L1250.08347,1059.92699 L1276.83479,1046.49155 C1290.83781,1039.45874 1307.89072,1045.10922 1314.92353,1059.11224 C1316.9081,1063.06374 1317.94163,1067.4244 1317.94163,1071.84626 L1317.94163,1078.34626 C1317.94163,1100.16151 1300.25688,1117.84626 1278.44163,1117.84626 L487.441629,1117.84626 C465.626382,1117.84626 447.941629,1100.16151 447.941629,1078.34626 L447.941629,1071.84626 C447.941629,1056.28057 460.560117,1043.66208 476.12581,1043.66208 C480.574969,1043.66208 484.960924,1044.7154 488.924856,1046.73586 Z" id="Rectangle" fill="#FBCEE4" fill-rule="nonzero"></path>
        <path d="M651.395545,780.120709 L665,925.506886 L584.823201,967.443853 C579.738478,986.130235 576.129889,1010.87744 573.997435,1041.68546 C571.864981,1072.49349 551.918238,1087.23792 514.157208,1085.91875 L499.808689,1007.33422 C497.297481,993.58073 497.69812,979.453499 500.984745,965.864434 L527.027694,858.18582 L576.534361,825.935651 L532.876789,811.626191 L549.178345,735 L651.395545,780.120709 Z M887.465989,987 L1102.10287,987 L1102.10287,1015.97345 L1190.55498,1034.23613 C1209.44633,1038.13662 1224.91351,1051.64888 1231.31591,1069.8452 L1237,1086 L985.644258,1086 L942.171677,1040.52178 L937.24952,1086 L859,1086 L887.465989,987 Z" id="Combined-Shape" fill="#161616"></path>
        <path d="M650,779 L1019,779 C1074.22847,779 1119,823.771525 1119,879 L1119,887 C1119,942.228475 1074.22847,987 1019,987 L750,987 C694.771525,987 650,942.228475 650,887 L650,779 Z" id="Rectangle-Copy-2" fill="#55ABD5"></path>
        <path d="M1090.45076,1168.18985 L1082.94163,1117.84626 L1106.7931,1117.84626 L1126.94163,1118.11441 L1126.60223,1118.58753 C1142.55745,1118.83975 1162.4708,1128.87459 1171.1288,1139.54912 C1183.11537,1154.32749 1179.54603,1191.66377 1151.2803,1206.10911 C1123.01458,1220.55445 1107.04287,1202.47395 1095.05629,1187.69558 C1091.24645,1182.99839 1089.95958,1175.97264 1090.45076,1168.18985 Z M664.438446,1118.08118 L682.090156,1117.84626 L705.941629,1117.84626 L698.334587,1168.84626 L697.940694,1168.29718 C697.941317,1168.37817 697.941629,1168.45893 697.941629,1168.53948 C697.941629,1187.57787 671.77094,1214.38219 640.861419,1207.84113 C609.951899,1201.30007 608.941629,1177.18564 608.941629,1158.14725 C608.941629,1139.10886 642.701577,1117.84626 661.598276,1117.84626 C662.549352,1117.84626 663.496755,1117.92645 664.438446,1118.08118 Z" id="Combined-Shape" fill="#161616"></path>
        <path d="M645.101939,1193.1725 C665.59252,1197.55716 682.941629,1179.58943 682.941629,1166.82743 C682.941629,1154.06543 671.375869,1132.84626 658.848844,1132.84626 C646.32182,1132.84626 623.941629,1147.09921 623.941629,1159.86121 C623.941629,1172.62321 624.611358,1188.78783 645.101939,1193.1725 Z" id="Oval" fill="#FFEECB"></path>
        <path d="M833.54733,355.700738 C850.702506,349.806488 869.66864,348.506088 888.638391,352.924061 C896.856461,354.838015 904.799243,357.784417 912.277388,361.69303 L935.468974,373.81461 C945.914773,377.613522 958.726381,384.172304 973.903799,393.490955 C999.526944,409.223087 1033.0862,432.666851 1074.58158,463.822246 L1186.19556,385.617033 C1200.82027,395.801665 1211.53583,404.018376 1218.34225,410.267164 C1229.08269,420.127674 1275.02525,412.376957 1269.479,424.963097 C1260.7312,444.814541 1221.64367,493.201016 1152.2164,570.122523 C1120.74733,604.98849 1069.25478,613.255846 1028.45291,589.993296 L922.629042,529.659462 L903.103005,594.655649 L731.158219,588.239539 L743.84494,533.765708 L627.264716,580.17782 C646.43742,632.731065 647.493801,665.728904 630.43386,679.171337 C604.843949,699.334986 573.634548,682.727094 543.600821,646.101043 C513.567094,609.474991 507.994552,563.900295 543.600821,514.333084 C579.207091,464.765872 677.836389,411.467957 732.73453,382.809473 C768.283173,364.25201 801.887439,355.215765 833.54733,355.700738 Z" id="Mask" fill="#6381DD"></path>
        <path d="M704.621432,566.748792 C704.097375,597.954182 703.384265,634.07683 702.482101,675.116736 C650.077332,537.598626 622.340759,458.176029 619.272383,436.848945 C616.204007,415.521862 591.783586,378.279392 546.011121,325.121535 C491.940304,254.35867 459.416664,214.957016 448.440202,206.916572 C438.43276,199.585952 425.429406,189.235455 409.430139,175.865079 C406.887414,173.740168 406.548719,169.956301 408.673636,167.413582 C408.710774,167.369141 408.748554,167.32524 408.786964,167.281893 L446.130238,125.138553 C447.961609,123.071784 451.121675,122.880953 453.188446,124.712322 C453.275584,124.789535 453.359999,124.869769 453.441536,124.952875 C503.486389,175.961142 535.788819,209.2182 550.348826,224.724049 C572.730387,248.559553 589.368198,290.271513 613.114306,303.318388 C623.378034,308.957611 641.123102,329.211322 658.256304,351.289744 C674.344556,338.80424 696.531547,326.060423 721.266551,320.449378 C751.839428,313.514034 776.505448,326.437803 795.26461,359.220685 C805.02982,401.992655 803.756932,434.357026 791.445947,456.313797 C779.195203,478.163128 750.253698,514.974793 704.621432,566.748792 Z M636.904977,71.6201537 L625.916499,231.103215 L565.781398,165.863391 L580.966793,83.985817 C581.878033,79.0725304 585.98657,75.3907943 590.969999,75.0217584 L636.904977,71.6201537 Z M1187,143.587546 L1195.35886,138.619099 L1199.97947,160.862436 C1203.52547,148.698104 1209.68612,140.215385 1218.46141,135.414279 C1231.62435,128.21262 1247.37853,118.654701 1250.14638,130.831322 C1252.91424,143.007944 1249.8622,164.641642 1227.27123,174.171268 C1204.68027,183.700893 1207.13562,187.21119 1199.97947,180.607138 C1195.20871,176.204437 1190.88222,163.864573 1187,143.587546 Z" id="Combined-Shape" fill="#82D121"></path>
        <path d="M655.373137,549.374461 L633.277063,556.964363 C500.490494,447.477763 433.605835,385.703425 432.623088,371.641349 C432.305941,367.103317 434.340863,366.432925 436.26705,366.298155 C438.193237,366.163385 439.497919,367.150103 439.890455,367.396201 C499.155119,404.551855 532.013152,421.801554 538.464554,419.1453 C548.524395,415.003332 469.494101,362.240034 465.47898,345.462276 C464.95162,343.258626 463.860501,341.325003 466.810121,339.329309 C469.75974,337.333615 471.371229,338.5927 472.306047,338.944774 C488.90216,345.195262 538.100106,385.961552 556.577125,383.874451 C564.130568,383.021239 501.378374,325.478133 497.508839,311.917607 C496.058213,306.833986 501.735345,304.10949 507.611574,307.255905 C520.771099,314.302147 545.96194,330.432877 556.292927,337.582193 C595.402255,384.283294 616.371032,417.462792 619.199258,437.120685 C621.162143,450.763926 633.220102,488.181851 655.373137,549.374461 Z M515.510979,188.81703 L506.447261,176.867522 L480.026821,132.734002 C478.033179,129.403762 478.717636,125.122921 481.650272,122.580336 C494.97971,111.023761 508.309147,99.467187 521.638584,87.9106127 L619.224048,216.088599 C621.98662,205.368832 622.86366,198.457037 621.855166,195.353213 C619.403647,187.808211 621.600442,163.130323 628.445553,121.31955 C631.727692,74.8447015 636.416564,50.616986 642.51217,48.6364036 C648.607776,46.6558212 662.19664,50.3822741 683.278763,59.8157622 C695.740872,157.532793 700.659851,233.939709 698.035702,289.036511 C694.099478,371.681713 715.842468,414.989421 723.097927,437.319427 C730.353386,459.649434 768.527302,577.136666 776.331934,601.156854 C781.535022,617.170312 791.440853,641.822698 806.049425,675.114011 L717.489831,706.161099 L702.482101,675.116736 L702.419936,674.889731 C706.004369,511.713137 706.594254,426.424444 704.189591,419.02365 C700.578922,407.911155 636.787289,316.637004 613.041181,303.590128 C589.295073,290.543252 572.657262,248.831292 550.275701,224.995789 C543.053233,217.304137 531.464992,205.244551 515.510979,188.81703 Z" id="Combined-Shape" fill="#C8FF57"></path>
        <path d="M665.670186,451.392829 L766.379956,480.909109 L775.635746,693.809374 C755.609776,706.200273 739.840854,712.091574 728.328979,711.483278 C716.817104,710.874982 701.092335,707.028069 681.154674,699.942539 C672.232549,643.754271 667.072029,599.890544 665.673114,568.351357 C664.274198,536.81217 664.273222,497.825994 665.670186,451.392829 Z" id="Rectangle" fill="#FFFFFF" transform="translate(720.129470, 581.459402) rotate(-17.000000) translate(-720.129470, -581.459402) "></path>
        <path d="M1125.24025,1193.26588 C1145.60926,1197.64009 1162.83875,1179.7931 1162.82893,1167.10739 C1162.8191,1154.42168 1151.30754,1133.32045 1138.8569,1133.31081 C1126.40627,1133.30118 1104.17352,1147.45172 1104.18334,1160.13743 C1104.19316,1172.82314 1104.87125,1188.89166 1125.24025,1193.26588 Z" id="Oval-Copy-2" fill="#FFEECB" transform="translate(1133.506134, 1163.625649) rotate(-37.000000) translate(-1133.506134, -1163.625649) "></path>
        <path d="M651.941629,583.882321 L655.218673,741.195569 C656.368906,796.412065 702.063168,840.241431 757.279664,839.091198 C759.390571,839.047225 761.499556,838.93641 763.603448,838.758919 L971.970207,821.180418 L886.911545,986.846263 L1131.6535,986.846263 C1155.1762,986.846263 1176.1916,972.146083 1184.25796,950.04968 L1268.91517,718.145819 C1287.85401,666.266107 1261.15017,608.856322 1209.27046,589.917475 C1198.28075,585.905648 1186.6723,583.85337 1174.97323,583.854004 L651.941629,583.882321 Z" id="Mask" fill="#60CBFF"></path>
        <path d="M616.063765,543.597704 C686.417791,531.762253 719.251543,529.997454 757.592856,490.715612 C783.153731,464.527717 795.948122,420.713218 795.976028,359.272116 C805.955162,354.726904 814.977296,352.323849 823.042429,352.062953 C831.107562,351.802057 837.850253,352.352086 843.270504,353.71304 C866.65731,521.385121 857.819194,627.830448 816.756154,673.049023 C755.161593,740.876885 607.405053,695.521935 585.006871,637.694078 C562.60869,579.866222 609.590096,544.68675 616.063765,543.597704 Z" id="Path-14" fill="#FBCEE4" fill-rule="nonzero"></path>
        <path d="M901.753188,342.361599 L895.172748,358.507464 C894.172458,360.961789 892.021571,362.761405 889.429258,363.312956 C881.551161,364.989135 874.678889,365.446987 868.812443,364.686512 C861.929762,363.794301 853.323939,360.418601 842.994973,354.559412 L852.563571,322.35258 C838.665427,311.266623 830.857153,299.764187 829.138741,287.845266 C826.435989,269.098947 835.733932,241.260818 857.032571,204.330878 C912.422698,195.841109 944.705328,196.777803 953.880462,207.140959 C967.643163,222.685693 961.92619,266.094856 959.015523,291.463604 C956.104856,316.832353 950.75516,334.249814 939.986098,339.672866 C934.430018,342.47078 921.685714,343.367024 901.753188,342.361599 Z M704.607348,659.46272 L783.827177,666.812511 C782.342558,672.617288 780.644397,677.517987 778.732692,681.514608 L800.4852,683.478244 C797.158268,696.486364 792.758968,704.954402 787.287301,708.882359 C781.815633,712.810315 770.028503,715.962062 751.925911,718.337597 C724.723976,718.3347 706.392471,716.776932 696.931396,713.664294 C662.063547,709.388389 661.517541,709.246383 613.433756,696.740675 C581.009714,688.307779 571.656504,665.176883 585.374124,627.347986 L626.137084,628.978232 L722.874959,639.257363 L709.407118,659.361977 L704.607348,659.46272 Z M1262.25539,288.433591 C1260.63979,285.937432 1258.97212,283.312644 1257.25238,280.559228 C1250.25154,265.199929 1246.95158,254.412094 1247.35252,248.195723 C1247.75345,241.979352 1252.23945,234.377757 1260.81052,225.390936 L1312.19385,292.652372 C1315.12514,289.979381 1318.28362,287.169466 1321.66927,284.222626 C1335.7316,274.898355 1345.86138,269.947975 1352.05861,269.371487 C1358.25584,268.795 1366.45885,272.039997 1376.66766,279.106481 L1353.14088,303.632851 C1366.58214,294.8186 1376.31271,290.131478 1382.33258,289.571487 C1388.52981,288.995 1396.73282,292.239997 1406.94163,299.306481 L1352.81507,355.732728 L1353.45761,356.371193 L1292.5615,414.746263 C1263.54125,428.008032 1237.93067,428.008032 1215.72976,414.746263 C1193.52885,401.484495 1183.93585,386.446873 1186.95076,369.633398 L1186.95076,276.378075 C1198.11308,276.279581 1206.83678,280.196583 1213.12185,288.129081 C1219.40692,296.061579 1224.09144,309.067318 1227.17541,327.146297 L1262.25539,288.433591 Z" id="Combined-Shape" fill="#C7E0FF"></path>
        <path d="M888.114887,199.408609 C888.196873,199.416003 888.279043,199.423457 888.361397,199.430969 L890.560324,199.71527 L901.078108,198.62628 C914.20005,197.66765 923.616584,197.66765 929.327711,198.62628 C931.994076,199.073837 934.223584,199.434698 936.016235,199.708862 L935.97022,199.745756 C939.755674,199.977279 944.097295,201.232682 948.995082,203.511963 C954.538764,206.091824 955.8479,209.286743 959.002075,216.21814 C961.008696,220.627751 962.190052,227.994003 962.546143,238.316895 L935.660337,199.994207 L934.308105,201.078369 C912.581795,226.437335 896.62789,248.316033 886.446391,266.714464 C885.619946,268.207887 884.89272,269.735735 884.264712,271.298009 C882.698183,260.17656 873.333441,251.630034 862.015025,251.630034 C849.599612,251.630034 839.534931,261.913526 839.534931,274.598855 C839.534931,280.809242 844.220919,298.095729 854.748882,304.207101 C865.13944,310.238711 880.815018,306.117678 884.066737,304.461488 C885.086675,307.807579 886.386932,311.25093 887.967509,314.791542 C891.569636,322.860583 887.948487,332.321933 879.879446,335.92406 C877.779171,336.86165 875.501437,337.335398 873.201495,337.313012 L817.653754,336.772353 C803.847289,336.637971 792.763876,325.336682 792.898257,311.530217 C792.936386,307.612867 793.894592,303.759303 795.695598,300.2803 C820.130715,253.079009 833.516262,226.406509 835.85224,220.2628 C838.729187,212.696318 843.892335,207.200682 851.341684,203.775891 L853.717999,203.529852 C850.168179,202.110464 847.002648,200.022995 844.459823,197.116329 C839.608674,191.571053 837.15814,182.586038 837.15814,174.593671 C837.15814,170.40729 835.691326,164.468559 837.15814,160.815962 C839.308394,155.461489 843.368305,151.26535 848.406613,148.31088 C854.178858,144.926028 861.23531,143.170944 868.175569,143.170944 C875.963847,143.170944 883.305666,144.415535 889.702271,148.31088 C893.310709,150.508313 897.363022,153.825786 899.192998,157.559015 C901.254212,161.763978 899.192998,169.580337 899.192998,174.593671 C899.192998,180.824677 892.790093,192.231601 889.702271,197.116329 C889.170621,197.957364 888.643414,198.718957 888.114887,199.408609 Z M960.723577,272.540066 C964.340551,281.347397 968.430942,291.25305 972.99475,302.257023 C974.214772,305.198666 974.861527,308.346318 974.900231,311.530689 C975.068032,325.336788 964.012008,336.664873 950.205909,336.832674 L943.978181,336.908367 C951.85208,329.344296 956.106361,313.495486 958.587853,291.867341 C959.242328,286.163072 960.038689,279.546691 960.723577,272.540066 Z" id="Combined-Shape" fill="#FF461C"></path>
        <path d="M938.137679,307.055354 C935.597818,307.055354 933.19871,306.107397 931.236693,304.827437 C928.311514,302.919138 926.357897,300.272865 926.357897,298.929867 C926.357897,297.353335 929.05002,297.992209 932.845651,298.511606 C934.452131,298.731438 936.256289,298.929867 938.137679,298.929867 C939.757675,298.929867 941.298152,298.782746 942.693612,298.601519 C946.747821,298.075006 949.577993,297.260629 949.577993,298.929867 C949.577993,300.249434 947.810405,303.112722 945.066741,305.054934 C943.557233,306.123501 941.752268,306.913259 939.783663,307.013726 C939.246158,307.041158 938.696593,307.055354 938.137679,307.055354 Z M913.037806,258.571633 C912.284503,259.549306 910.922039,259.698078 909.994656,258.903925 C909.067273,258.109773 908.926154,256.673425 909.679457,255.695752 C915.234671,248.485931 921.496392,248.485931 926.90346,255.722443 C927.64278,256.711907 927.481258,258.145865 926.54269,258.925276 C925.604122,259.704688 924.243925,259.534407 923.504605,258.544942 C919.823195,253.617952 916.85465,253.617952 913.037806,258.571633 Z M946.806497,255.695992 C946.872042,255.583239 946.946892,255.478168 947.029657,255.381388 C952.591206,248.577413 958.849564,248.591053 964.259935,255.447303 C964.995539,256.379492 964.83467,257.73032 963.900622,258.464461 C962.966574,259.198602 961.613054,259.038052 960.877449,258.105863 C957.24139,253.498095 954.288591,253.413643 950.548889,257.876294 C949.315057,261.056412 948.643098,263.126088 948.643098,263.448868 C948.643098,263.591219 949.073447,265.975176 949.795281,269.641017 C950.588853,273.671181 951.780296,279.53882 953.369219,287.241869 C953.644133,288.574643 952.624117,289.823536 951.260683,289.823536 L937.596773,289.823536 C936.407841,289.823536 935.444022,288.861638 935.444022,287.675072 C935.444022,286.488506 936.407841,285.526603 937.596773,285.526603 L948.620266,285.526603 C945.660486,271.141451 944.337595,264.372477 944.337595,263.448868 C944.337595,262.320335 945.066231,260.082947 946.643479,256.043058 C946.686758,255.924128 946.741046,255.807946 946.806497,255.695992 Z M954.429818,274.943671 C951.672826,274.943671 951.597132,271.766928 951.597132,267.848216 C951.597132,263.929505 951.672826,260.752762 954.429818,260.752762 C956.032165,260.752762 957.458184,260.785744 958.371586,262.453869 C959.029781,263.655916 958.371586,266.207035 958.371586,267.848216 C958.371586,271.766928 957.186811,274.943671 954.429818,274.943671 Z M918.085321,274.943671 C915.328328,274.943671 915.252634,271.766928 915.252634,267.848216 C915.252634,263.929505 915.328328,260.752762 918.085321,260.752762 C919.687667,260.752762 921.113686,260.785744 922.027089,262.453869 C922.685284,263.655916 922.027089,266.207035 922.027089,267.848216 C922.027089,271.766928 920.842313,274.943671 918.085321,274.943671 Z M717.857177,642.413067 L686.761338,638.553535 C685.975468,645.948855 694.211611,650.319168 712.878196,651.389088 C712.912838,651.391074 712.947224,651.39393 712.981333,651.397634 C714.783569,648.875334 716.409207,645.88279 717.857177,642.413067 Z M722.557845,641.156212 C722.54452,641.345029 722.50395,641.535122 722.433798,641.72132 C719.710587,648.949227 716.258607,654.574179 712.071539,658.555261 L783.078029,663.90863 C784.337286,664.003569 785.194462,665.227396 784.853306,666.443272 C778.445605,689.280296 761.936979,699.570559 735.957692,697.050915 C723.449963,695.837832 715.002706,695.04661 710.623551,694.677885 C710.303898,694.817582 709.943546,694.875417 709.572329,694.828282 C708.618688,694.707193 707.92081,694.612584 707.470262,694.54304 C707.21197,694.503171 707.024339,694.470218 706.878591,694.437 C706.640404,694.382715 706.501331,694.341128 706.26088,694.206151 C706.019605,694.073593 706.019605,694.073593 705.570147,693.56726 C705.102304,692.433101 705.102304,692.433101 705.684901,691.18848 C706.679934,690.469529 706.679934,690.469529 706.922639,690.474509 C707.351312,690.402918 708.209172,690.460508 710.950209,690.691236 C715.349094,691.061513 723.811085,691.854088 736.343827,693.069596 C759.539574,695.319274 774.001499,686.944038 780.290256,667.709804 L708.3162,662.283488 C708.031069,662.261991 707.764424,662.181712 707.527243,662.055416 C705.808196,663.101675 703.990083,663.925168 702.072595,664.523878 C693.581996,667.174957 674.822514,669.233292 645.596851,670.754727 C644.493775,670.812151 643.553004,669.964483 643.49558,668.861407 C643.438156,667.758332 644.285824,666.817561 645.3889,666.760136 C674.264322,665.256934 692.827257,663.220165 700.88041,660.705673 C704.162409,659.680911 707.135138,657.846292 709.796071,655.185464 C690.890021,653.646286 681.471058,648.00422 682.779142,638.01682 C681.901621,637.717174 681.323998,636.834648 681.442728,635.878057 C681.57878,634.781898 682.577685,634.003579 683.673843,634.139631 L720.8482,638.753612 C721.944359,638.889665 722.722679,639.888569 722.586627,640.984727 C722.579417,641.042811 722.569786,641.100002 722.557845,641.156212 Z M801.563719,684.209611 C794.412146,710.422503 777.552852,722.484584 751.519508,719.959698 C726.612648,717.544065 712.374575,716.358151 709.127999,716.418644 C708.023621,716.439222 707.111664,715.560628 707.091087,714.456251 C707.070509,713.351873 707.949102,712.439916 709.05348,712.419338 C712.538197,712.354408 726.714682,713.535192 751.905642,715.978379 C775.970118,718.312312 791.058602,707.517166 797.704761,683.156785 C797.995491,682.091163 799.095031,681.462989 800.160653,681.753719 C801.226275,682.044449 801.854449,683.143989 801.563719,684.209611 Z M1263.30813,225.944938 L1286.12324,256.789126 C1286.78011,257.677157 1286.59272,258.929545 1285.70468,259.586412 C1284.81665,260.243279 1283.56427,260.055883 1282.9074,259.167852 L1260.09228,228.323664 C1259.43542,227.435633 1259.62281,226.183246 1260.51084,225.526379 C1261.39887,224.869512 1262.65126,225.056907 1263.30813,225.944938 Z M1374.19267,279.383444 C1375.05446,280.074374 1375.19298,281.333105 1374.50205,282.1949 C1373.81112,283.056694 1372.55239,283.195208 1371.69059,282.504278 C1355.96246,269.894505 1340.0621,271.03546 1323.30494,286.089333 C1305.73849,301.870236 1295.75309,310.597925 1293.09744,312.47847 C1292.196,313.116807 1290.94776,312.903518 1290.30942,312.002076 C1289.67109,311.100633 1289.88437,309.852394 1290.78582,309.214057 C1293.24633,307.471697 1303.27876,298.702896 1320.63179,283.113723 C1338.79411,266.797521 1356.87593,265.500031 1374.19267,279.383444 Z M1224.94163,327.534624 C1224.94163,302.07399 1212.22109,285.954406 1186.40562,278.7731 C1185.34146,278.477073 1184.71877,277.374421 1185.01479,276.310259 C1185.31082,275.246096 1186.41347,274.6234 1187.47763,274.919427 C1214.9955,282.574305 1228.94163,300.246962 1228.94163,327.534624 L1228.94163,356.846238 C1228.94163,356.846238 1228.94163,356.846238 1224.94163,356.846238 L1224.94163,327.534624 Z M1239.55199,379.032317 C1238.89696,379.921697 1237.64496,380.111668 1236.75558,379.456629 C1235.8662,378.801589 1235.67622,377.54959 1236.33126,376.66021 C1253.19708,353.760623 1277.36184,346.08927 1308.41658,353.681255 C1309.48956,353.943565 1310.14673,355.026025 1309.88442,356.098996 C1309.62211,357.171967 1308.53965,357.829137 1307.46667,357.566827 C1277.92195,350.343997 1255.42004,357.487459 1239.55199,379.032317 Z M1408.19267,297.383444 C1409.05446,298.074374 1409.19298,299.333105 1408.50205,300.1949 C1407.81112,301.056694 1406.55239,301.195208 1405.69059,300.504278 C1389.96246,287.894505 1374.0621,289.03546 1357.30494,304.089333 C1339.73849,319.870236 1329.75309,328.597925 1327.09744,330.47847 C1326.196,331.116807 1324.94776,330.903518 1324.30942,330.002076 C1323.67109,329.100633 1323.88437,327.852394 1324.78582,327.214057 C1327.24633,325.471697 1337.27876,316.702896 1354.63179,301.113723 C1372.79411,284.797521 1390.87593,283.500031 1408.19267,297.383444 Z" id="Combined-Shape" fill="#6674A9" fill-rule="nonzero"></path>
        <ellipse id="Oval-Copy-19" fill="#FFE640" cx="1204.5" cy="221" rx="57.5" ry="57"></ellipse>
        <path d="M971.236068,823.118034 L1011.23607,743.118034 C1011.85354,741.883088 1011.35298,740.381405 1010.11803,739.763932 C1008.88309,739.146459 1007.38141,739.64702 1006.76393,740.881966 L966.763932,820.881966 C966.146459,822.116912 966.64702,823.618595 967.881966,824.236068 C969.116912,824.853541 970.618595,824.35298 971.236068,823.118034 Z" id="Path-39" fill="#55ABD5"></path>
    </g>
</svg>