<?xml version="1.0" encoding="UTF-8"?>
<svg width="1794px" height="1276px" viewBox="0 0 1794 1276" version="1.1" xmlns="http://www.w3.org/2000/svg" xmlns:xlink="http://www.w3.org/1999/xlink">
    <!-- Generator: Sketch 56.1 (81669) - https://sketch.com -->
    <title>Farmer Products</title>
    <desc>Created with Sketch.</desc>
    <g id="Farmer-Products" stroke="none" stroke-width="1" fill="none" fill-rule="evenodd">
        <path d="M1107,142.26971 L1162.77854,102.165569 C1185.12493,57.8843187 1208.84589,55.4230045 1233.94141,94.7816261 C1259.03692,134.140248 1267.37156,173.121245 1258.94531,211.724619 L1107,142.26971 Z" id="Path-94" fill="#FFC635"></path>
        <path d="M1266.98089,333.871061 C1351.71766,332.804034 1394.08605,314.621937 1394.08605,279.324769 C1394.08605,226.379018 1269.02996,158.602712 1218.24441,141.534531 C1167.45886,124.46635 1040.10377,119.736859 1005.57606,122.217699 C971.048357,124.698539 954.221986,143.345012 954.221986,160.504731 C954.221986,177.664449 1012.17296,227.461712 1026.19908,233.113479 C1035.54982,236.881323 1115.81042,270.467184 1266.98089,333.871061 Z" id="Path-93" fill="#FFE640"></path>
        <path d="M345.707373,755.465965 C322.932867,812.89528 304.62228,832.021619 290.775611,812.844981 C266.345369,779.010858 278.359711,683.126739 278.359711,667.546995 C278.359711,660.723242 285.475885,650.96968 299.708231,638.286311 C261.01585,590.075942 258.532266,563.567862 292.257478,558.76207 C282.901822,540.905017 275.479947,528.882073 269.991853,522.693239 C225.390422,472.396932 189.877859,435.371192 163.454164,411.616019 C162.626755,410.87217 162.071086,409.873597 161.875119,408.778374 C161.388744,406.060117 163.198042,403.46225 165.916299,402.975881 C214.439843,394.293613 252.562139,396.560639 280.283188,409.776958 C294.110365,416.369219 316.71277,432.173787 348.090404,457.190662 C353.848377,429.877722 373.777385,385.351673 407.877428,323.612515 C440.334097,264.848733 495.238486,217.97595 572.590593,182.994165 C573.894972,182.404271 575.389637,182.401774 576.695979,182.987306 C579.215855,184.11677 580.343007,187.075145 579.213541,189.59502 L501.644031,362.655413 L459.027491,454.069899 L487.331697,531.125116 C560.487262,534.428931 606.571897,546.677629 625.585603,567.87121 C643.207651,587.513581 654.540838,621.248779 659.585166,669.076801 C659.716125,670.318497 659.377773,671.56426 658.63665,672.569096 C656.997544,674.791442 653.86722,675.264252 651.644879,673.62514 C622.563165,652.17574 589.121531,639.467309 551.319978,635.499848 C502.97244,630.425533 471.266871,663.075156 457.894675,679.840636 C452.792356,690.70666 448.656129,703.904106 445.485994,719.432975 C440.150417,745.569232 433.664957,792.58304 426.029612,860.474398 C420.830654,866.339199 411.698276,869.2716 398.632478,869.2716 C385.56668,869.2716 374.97293,866.339199 366.851228,860.474398 L345.707373,755.465965 Z" id="Combined-Shape" fill="#C8FF57" transform="translate(410.704429, 525.910772) rotate(-2.000000) translate(-410.704429, -525.910772) "></path>
        <path d="M311.54283,431.130691 L216.818059,241.661131 C216.19798,240.420842 216.120816,238.978745 216.605004,237.67937 C217.569228,235.091758 220.448559,233.775742 223.036171,234.739966 C291.373826,260.204682 332.419322,283.126187 346.172658,303.504481 C359.865868,323.793685 372.607979,344.068567 384.398989,364.329125 C363.307208,405.534114 350.553013,436.6117 346.136403,457.561883 C333.087606,447.158291 321.556415,438.347893 311.54283,431.130691 Z M144.550118,694.032558 C143.698265,695.048668 142.477688,695.684806 141.156848,695.801056 C138.406061,696.043159 135.979844,694.009469 135.737735,691.258683 C128.995266,614.65043 151.319053,564.906144 202.709094,542.025823 C209.309587,539.087095 226.058232,539.583417 252.95503,543.514791 L286.772552,551.397666 L325.686921,619.00475 L296.711335,639.514515 C259.173603,628.115061 234.833257,624.577805 223.690297,628.902748 C199.440463,638.314894 173.060403,660.02483 144.550118,694.032558 Z M646.73193,418.579751 L485.19864,531.750844 L440.186921,551.397666 L456.449938,454.898738 C502.550035,421.898023 536.655974,405.397666 558.767757,405.397666 C578.485532,405.397666 606.972561,406.764498 644.228845,409.498163 C646.982864,409.70024 649.051624,412.096628 648.849548,414.850647 C648.739633,416.348656 647.962096,417.71789 646.73193,418.579751 Z" id="Combined-Shape" fill="#82D121" transform="translate(391.713940, 465.122254) rotate(-2.000000) translate(-391.713940, -465.122254) "></path>
        <path d="M412.639653,862 C340.661755,862 314.19291,893.995339 255.090007,960.088783 C195.987104,1026.18223 203.592535,1059.61602 210.985741,1097.25756 C218.378948,1134.8991 245.994608,1167.37681 296.670868,1171.79227 C330.273705,1174.72011 408.281275,1174.73582 530.693578,1171.83942 L530.693578,1171.83942 C532.36299,1171.79992 534.031151,1171.71861 535.696492,1171.59556 C578.84419,1168.40762 606.763518,1149.99429 619.454477,1116.35556 C638.931054,1064.73084 607.367114,1009.88518 554.072922,942.883377 C500.77873,875.881575 484.617551,862 412.639653,862 Z" id="Mask" fill="#FFE640"></path>
        <path d="M1128.64447,692.120915 L1102.62456,837.448096 C1092.89104,891.812081 1129.07118,943.773381 1183.43516,953.506906 C1184.44947,953.688511 1185.46652,953.854427 1186.48595,954.004596 L1386.12937,983.413233 L1380.90267,1054.54956 L1599.61915,1018.14899 C1624.60509,1013.99063 1643.68884,993.578317 1646.15876,968.369417 L1658.75323,839.825483 C1664.13862,784.860203 1623.94618,735.93632 1568.9809,730.550933 C1568.6284,730.516396 1568.27573,730.483733 1567.92289,730.452944 L1128.64447,692.120915 Z" id="Mask-Copy" fill="#E85353" transform="translate(1376.527780, 873.335238) scale(-1, 1) rotate(94.000000) translate(-1376.527780, -873.335238) "></path>
        <path d="M1487.0074,875.234783 L1596.85562,836.765844 C1609.88265,832.19056 1624.14595,839.05493 1628.70947,852.086078 C1628.71084,852.09 1628.71221,852.093923 1628.70182,852.10196 L1646.69677,903.568885 L1662.69279,970.320558 L1688.29229,1084.70823 L1706.95061,1149.14692 L1657.13917,1149.14692 C1634.92459,1149.14692 1614.89105,1135.78325 1606.35829,1115.27278 L1593.64282,1084.70823 L1532.47369,1099.94234 L1487.0074,875.234783 Z M1243.39283,1016.79358 L1262.61261,1181.12752 L1176.12629,1181.12752 L1128.24366,1181.12752 L879.547768,1181.12752 L885.252173,1166.34831 C891.612362,1149.87006 905.499602,1137.44907 922.582551,1132.95936 L991.701788,1114.79358 L966.768861,1016.79358 L1243.39283,1016.79358 Z" id="Combined-Shape" fill="#161616"></path>
        <path d="M929.856904,587.989163 L912.844245,701.851289 C904.682904,756.473418 942.346814,807.369477 996.968943,815.530818 C1001.39691,816.19242 1005.8643,816.555908 1010.34098,816.618829 L1181.78667,819.028529 L1187.85838,1020.67693 L1451.98012,983.557036 C1479.84284,979.641187 1500.47386,955.659063 1500.18345,927.524022 L1497.14221,632.888422 C1496.57218,577.662889 1451.34093,533.355856 1396.1154,533.925895 C1392.57085,533.962482 1389.03075,534.18751 1385.5101,534.600027 L929.856904,587.989163 Z" id="Mask" fill="#FF6C6C" transform="translate(1198.313858, 771.165744) scale(-1, 1) rotate(8.000000) translate(-1198.313858, -771.165744) "></path>
        <path d="M877.226676,913.238827 C877.226676,921.523098 822.605415,928.238827 755.226676,928.238827 C693.371738,928.238827 642.436488,923.129305 634.500727,915.88226 L634.483683,915.905982 C568.829765,842.502023 529.310461,789.611142 524.192651,755.295703 C520.579545,731.069451 523.138542,711.727706 531.293142,697.345864 C538.598849,684.461173 550.100163,676.169587 563.673875,672.784256 C579.942657,668.726766 605.857864,678.758209 644.177819,702.250998 L644.348786,698.988308 L740.817582,699.015378 L740.817582,538.080824 L770.817582,538.080824 L766.895443,699.022695 L866.324074,699.050595 L868.475214,741.311047 L868.52423,741.01027 L958.524847,759.199136 L1050.15755,684.467433 C1053.78227,681.511272 1059.06722,681.824353 1062.31756,685.187793 L1070.84646,694.013464 C1070.88804,694.056489 1070.92919,694.099929 1070.9699,694.143775 C1074.35204,697.786249 1074.141,703.480825 1070.49852,706.862965 L875.918359,887.536159 L877.226676,913.238827 Z M869.411547,759.705887 L872.938728,828.9995 L940.859037,773.606612 L869.411547,759.705887 Z M634.402313,888.803368 L643.177555,721.33968 L642.37846,723.299673 C599.435415,700.346297 574.891415,689.635896 568.746458,691.168469 C560.413796,693.246664 553.503547,698.228435 548.890259,706.36465 C542.956703,716.82935 540.930688,732.142642 543.985795,752.627446 C548.131006,780.421517 578.140197,824.720851 634.402313,888.803368 Z" id="Combined-Shape" fill="#60CBFF" transform="translate(797.983115, 733.159826) scale(-1, 1) rotate(17.000000) translate(-797.983115, -733.159826) "></path>
        <ellipse id="Oval-Copy-28" fill="#60CBFF" transform="translate(513.150484, 766.995979) scale(-1, 1) rotate(68.000000) translate(-513.150484, -766.995979) " cx="513.150484" cy="766.995979" rx="64" ry="20.030156"></ellipse>
        <path d="M545.734854,742.279197 C491.257472,741.449874 449.182862,735.994555 449.182862,729.38832 C449.182862,722.782085 491.257472,717.326766 545.734854,716.497443 L545.734854,742.279197 Z M572.101143,716.462381 C627.800217,717.158741 671.182862,722.680182 671.182862,729.38832 C671.182862,736.121736 627.472644,741.659496 571.470948,742.321927 L572.101143,716.462381 Z M879.338795,717.17949 C856.65623,689.171021 845.238149,660.822635 853.83521,653.860873 C862.43227,646.899111 887.789893,663.961427 910.472458,691.969896 C933.155023,719.978366 944.573104,748.326751 935.976043,755.288514 C927.378983,762.250276 902.02136,745.18796 879.338795,717.17949 Z" id="Combined-Shape" fill="#6381DD" transform="translate(694.010921, 704.574693) scale(-1, 1) rotate(17.000000) translate(-694.010921, -704.574693) "></path>
        <path d="M1245.88174,557.29948 L1164.56623,557.29948 L1151.30192,516.865652 L1107.75816,560.014398 L979.861785,562.95495 C976.317984,563.036428 972.781023,563.306275 969.265878,563.76335 C936.08116,568.078365 908.823075,588.198537 894.077136,615.569742 L804.739913,578.953316 C776.556203,567.401728 763.073203,535.189904 774.624791,507.006194 C774.962147,506.183108 775.319367,505.368305 775.696137,504.5625 L785.079014,484.495182 C793.941984,465.539796 814.701392,455.194942 835.171898,459.532835 L953.915097,484.695633 L1105.17303,359.526505 C1108.28065,341.989529 1121.93169,327.383947 1140.47504,323.939347 L1194.95714,313.818788 L1193.90471,312.87277 C1241.40238,302.858305 1278.34617,297.159554 1304.73607,295.776518 C1344.32091,293.701964 1516.8548,509.110411 1489.14386,593.682691 C1472.49243,644.501963 1371.46822,688.55609 1186.07122,725.845072 C1151.41895,732.8147 1117.67774,710.373483 1110.70811,675.721212 C1110.64074,675.386264 1110.57606,675.050781 1110.51406,674.714797 L1105.22111,646.029744 C1101.17439,624.098674 1113.80097,602.512007 1134.90033,595.289492 L1245.88174,557.29948 Z" id="Combined-Shape" fill="#FF8ADF"></path>
        <path d="M816.099513,624.80406 L816.07541,624.725351 L816.717038,624.588969 C816.337033,624.191216 816.004079,623.847828 815.718177,623.558803 L800.240593,573.016642 L782.727051,580.218994 L796.935041,628.391537 L778.538488,631.828769 C770.042755,633.416121 761.313588,630.678074 755.246446,624.522836 L746.713958,615.866454 C735.33524,604.322514 730.546581,587.818103 733.979582,571.976628 L747.398117,510.057224 C747.884638,507.812213 748.509007,505.599308 749.267681,503.431085 C759.469028,474.276545 791.373278,458.911945 820.527818,469.113292 C838.851942,475.525011 849.062679,491.0865 851.16003,515.797757 L856.238985,647.067854 C841.943305,647.443144 830.681805,642.638496 822.454487,632.653912 C819.548133,629.126791 817.429808,626.510174 816.099513,624.80406 Z M1178.07021,304.111688 C1171.93262,305.636276 1165.89792,306.681354 1159.96612,307.246924 C1131.39541,309.971005 1115.57111,286.527157 1111.74745,256.341264 C1109.19834,236.217336 1108.38164,218.038216 1109.29735,201.803903 C1110.3719,178.122425 1119.81514,164.283254 1137.62707,160.28639 C1140.40842,159.662275 1144.17926,159.366492 1148.9396,159.39904 C1158.52821,159.4646 1226.6491,201.805312 1226.72547,204.5252 C1226.79849,207.12608 1226.75519,210.451619 1226.59558,214.501814 C1233.15268,218.280906 1237.71707,225.174662 1238.14086,233.261069 C1238.42078,238.602264 1235.57641,252.296935 1228.11916,260.316925 L1239.86419,306.59375 C1239.86419,314.291766 1231.22024,319.337924 1213.93236,321.732223 C1196.64447,324.126523 1185.35519,324.126523 1180.06451,321.732223 L1178.07021,304.111688 Z M1123.86562,730.894945 L1062.7921,757.888186 C1056.70966,760.576501 1049.73761,760.369289 1043.82556,757.324494 C1036.85203,753.733026 1032.79187,750.531467 1031.64507,747.719817 C1030.03322,743.767983 1032.1514,735.803829 1037.99961,723.827357 C1025.03065,719.190761 1017.33588,714.154108 1014.9153,708.717398 C1013.86191,706.351446 1016.23096,700.233381 1022.02244,690.363202 C1008.77407,686.308468 1001.59712,682.21183 1000.4916,678.073288 C998.242695,669.654472 1000.73828,661.508254 1007.97835,653.634635 C1008.26261,653.32551 1008.58468,653.053424 1008.93695,652.824809 L1045.33935,629.200684 C1037.2814,624.463919 1031.29508,620.972708 1027.38037,618.727051 C1020.69625,614.892736 1012.79886,611.586081 1009.75951,606.443867 C1004.05006,596.784164 1003.46501,586.193911 1008.00437,574.67311 L1092.30588,596.612331 C1112.72858,601.927277 1130.48419,614.565714 1142.19335,632.122215 C1145.95419,637.761144 1150.02611,644.162552 1154.40911,651.32644 C1170.18613,677.113519 1160.00497,703.636354 1123.86562,730.894945 Z" id="Combined-Shape" fill="#FFBEBE"></path>
        <path d="M1128.71415,158.699839 C1129.50249,158.288515 1131.42792,157.770855 1134.49046,157.14686 C1136.31676,156.774749 1140.10735,156.350073 1145.12426,155.977442 C1152.08769,158.088401 1159.05498,160.506503 1165.81455,164.265189 C1191.81919,178.725172 1217.83869,196.567716 1243.13061,216.410035 C1243.11906,218.398269 1243.08812,220.474394 1243.03779,222.638411 C1243.02511,223.183167 1242.98966,223.727154 1242.93153,224.268947 C1242.3772,229.434894 1239.85736,233.913642 1236.19569,237.041165 C1236.20353,236.84646 1236.20744,236.660225 1236.20744,236.482972 C1236.20744,223.740758 1225.81393,213.411152 1212.99289,213.411152 C1201.12544,213.411152 1191.33784,222.261342 1189.94756,233.683108 C1185.75914,231.27863 1181.99873,227.724884 1178.69054,220.818919 C1171.90136,206.646259 1155.96202,186.74815 1130.8725,161.124592 C1124.45314,165.319686 1120.54941,168.344936 1119.16131,170.200333 C1117.06961,172.996183 1115.45702,175.173416 1114.25565,178.218495 C1109.73737,189.670852 1107.68938,210.165731 1108.11169,239.703132 C1100.64517,240.407405 1098.17488,227.946915 1100.70082,202.321664 C1103.22577,176.706446 1112.56355,162.165838 1128.71415,158.699839 Z" id="Combined-Shape" fill="#7821D1" transform="translate(1171.436825, 197.854416) rotate(-3.000000) translate(-1171.436825, -197.854416) "></path>
        <path d="M1150.03815,275.704323 C1149.4605,275.744716 1148.89156,275.770671 1148.33417,275.782892 C1146.29276,275.827651 1144.37369,275.191279 1142.74105,274.262826 C1139.77359,272.575282 1137.75242,269.92281 1137.66282,268.641513 C1137.54948,267.020685 1140.52983,267.606846 1144.75567,267.825007 C1146.2102,267.900098 1147.8123,267.93159 1149.4866,267.814479 C1151.43105,267.678471 1153.28221,267.355371 1154.92762,267.02578 C1158.81521,266.247055 1161.55418,265.432094 1161.66122,266.962904 C1161.75241,268.266952 1159.91291,270.977714 1157.01922,273.042135 C1155.07832,274.426813 1152.66315,275.520765 1150.03815,275.704323 Z M1169.03291,245.918269 C1166.30205,245.918269 1165.1285,242.784262 1165.1285,238.918269 C1165.1285,237.299166 1164.47655,235.808452 1165.1285,234.622577 C1166.03325,232.976892 1167.44575,231.918269 1169.03291,231.918269 C1171.76377,231.918269 1171.83874,235.052275 1171.83874,238.918269 C1171.83874,242.784262 1171.76377,245.918269 1169.03291,245.918269 Z M1131.37948,246.38694 C1128.64862,246.38694 1127.47508,243.252934 1127.47508,239.38694 C1127.47508,237.767837 1126.82312,235.251039 1127.47508,234.065163 C1128.37982,232.419479 1129.79232,232.38694 1131.37948,232.38694 C1134.11034,232.38694 1134.18532,235.520947 1134.18532,239.38694 C1134.18532,243.252934 1134.11034,246.38694 1131.37948,246.38694 Z M798.866803,565.054863 L800.921712,573.276886 C806.685779,600.713273 812.572008,618.488766 818.430273,626.424889 C820.80073,629.636119 823.916491,632.220901 827.790768,634.172141 C827.780714,634.086775 827.776046,633.999789 827.777112,633.911537 C828.083928,608.496112 834.933938,596.274603 848.695202,598.881695 C849.563119,599.046123 850.193015,599.74833 850.305343,600.578088 C850.458421,600.863021 850.544405,601.189227 850.542291,601.535443 L850.30672,640.114153 C850.353224,640.293091 850.375501,640.481529 850.369931,640.675634 C850.338169,641.779746 849.417391,642.649091 848.313277,642.617367 C832.800599,642.171659 821.706541,637.598408 815.212103,628.800469 C808.904018,620.25498 802.885748,602.080744 797.02419,574.173298 L795.135692,566.621631 C781.595333,567.895976 775.735979,571.110252 776.452114,575.63175 C776.83443,578.045593 778.66338,579.603276 782.398002,580.384587 C783.479165,580.610774 784.172259,581.670591 783.946072,582.751754 C783.719884,583.832917 782.660068,584.526011 781.578905,584.299824 C776.352001,583.206316 773.173141,580.498941 772.501361,576.257488 C771.262233,568.433941 779.101047,564.10637 794.887778,562.628039 C795.153938,562.267659 795.542173,561.994088 796.010737,561.876911 C796.965152,561.638234 797.930946,562.128922 798.320061,562.996199 C798.674858,563.326521 798.91125,563.785958 798.95106,564.307422 C798.970926,564.567643 798.940061,564.820029 798.866803,565.054863 Z M830.946898,635.557952 C835.279848,637.206242 840.398377,638.199439 846.316318,638.530117 L846.535628,602.614333 C837.070734,601.788594 832.044761,611.764666 831.77682,633.959822 C831.768865,634.618835 831.443047,635.199549 830.946898,635.557952 Z M1028.17809,725.011401 C1028.36388,724.834096 1028.58713,724.689867 1028.84188,724.592079 L1055.91571,714.199409 C1056.94691,713.803566 1058.10376,714.318629 1058.49961,715.349834 C1058.89545,716.381038 1058.38039,717.537888 1057.34918,717.93373 L1030.27535,728.326401 C1030.14202,728.377579 1030.0066,728.413531 1029.87099,728.43511 C1029.83389,728.483516 1029.79427,728.530659 1029.75211,728.576365 C1021.1638,737.887334 1018.2036,745.457063 1020.4494,751.307566 C1022.69484,757.157133 1029.95528,760.793181 1042.56051,761.949546 C1043.66046,762.050452 1044.47035,763.023938 1044.36944,764.123889 C1044.26854,765.22384 1043.29505,766.033726 1042.1951,765.93282 C1028.23677,764.652326 1019.6335,760.343787 1016.71508,752.741038 C1014.05858,745.820628 1016.72636,737.769434 1024.39992,728.604067 C1012.34443,726.966231 1004.84337,722.746319 1002.15339,715.738671 C999.531509,708.908439 1002.1731,701.273581 1009.7465,692.876286 C998.24786,691.160974 991.073039,686.994071 988.459017,680.184312 C985.540955,672.582501 989.047265,663.616263 998.555823,653.307614 C999.304728,652.495694 1000.57003,652.444609 1001.38195,653.193514 C1002.19387,653.942419 1002.24495,655.207718 1001.49605,656.019638 C992.907736,665.330608 989.947541,672.900336 992.193339,678.75084 C994.391457,684.477133 1001.39543,688.082219 1013.51463,689.31641 C1013.85433,689.211283 1014.21629,689.198861 1014.56099,689.278735 C1014.66086,689.218432 1014.76743,689.166065 1014.88015,689.122792 L1041.95399,678.730121 C1042.98519,678.334279 1044.14204,678.849342 1044.53788,679.880546 C1044.93373,680.911751 1044.41866,682.068601 1043.38746,682.464443 L1016.31363,692.857114 C1015.99116,692.980897 1015.6564,693.015606 1015.33648,692.973311 C1015.21818,693.063798 1015.08974,693.141228 1014.95345,693.20369 C1006.57413,701.586 1003.69818,708.601269 1005.88771,714.305199 C1008.13967,720.171751 1015.40624,723.821371 1028.01701,724.98995 C1028.07144,724.994994 1028.12516,725.002174 1028.17809,725.011401 Z M1005.56687,577.63106 C1021.93825,594.179607 1032.73856,597.425997 1038.83859,588.801801 C1039.47644,587.900012 1040.72456,587.686047 1041.62635,588.323896 C1042.52814,588.961745 1042.7421,590.209868 1042.10425,591.111657 C1034.01626,602.546419 1020.59901,598.513419 1002.72326,580.444224 C1001.94643,579.658983 1001.95325,578.392672 1002.73849,577.615838 C1003.52373,576.839004 1004.79004,576.845819 1005.56687,577.63106 Z M1174.31578,229.492154 C1170.22872,225.198571 1166.90114,225.198571 1162.96355,229.464193 C1162.02703,230.478734 1160.44538,230.541982 1159.43084,229.60546 C1158.4163,228.668939 1158.35305,227.087291 1159.28957,226.07275 C1165.19837,219.671706 1171.87079,219.671706 1177.93734,226.044789 C1178.8893,227.044854 1178.85031,228.627287 1177.85024,229.57925 C1176.85018,230.531214 1175.26775,230.492219 1174.31578,229.492154 Z M1139.37826,227.466089 C1139.45608,227.596848 1139.52075,227.732736 1139.57244,227.871982 C1141.23585,232.053257 1141.99484,234.341124 1141.99484,235.559349 C1141.99484,236.533333 1140.65599,243.26651 1137.60737,257.811615 L1148.75455,257.811615 C1150.13527,257.811615 1151.25455,258.930909 1151.25455,260.311615 C1151.25455,261.692333 1150.13527,262.811615 1148.75455,262.811615 L1134.52811,262.811615 C1132.9405,262.811615 1131.75499,261.351019 1132.08157,259.79736 C1135.20702,244.928404 1136.99484,236.018621 1136.99484,235.559349 C1136.99484,235.29497 1136.30413,233.207822 1135.05409,230.041996 C1131.28164,225.643178 1128.37578,225.741225 1124.70278,230.308829 C1123.83755,231.384807 1122.26388,231.555646 1121.1879,230.690408 C1120.11192,229.82517 1119.94108,228.251503 1120.80632,227.175525 C1126.54076,220.044388 1133.22037,220.028546 1139.11313,227.099048 C1139.21134,227.211716 1139.30027,227.334303 1139.37826,227.466089 Z" id="Combined-Shape" fill="#E96868" transform="translate(975.500356, 493.604889) rotate(-3.000000) translate(-975.500356, -493.604889) "></path>
        <path d="M386.126444,745.103942 C382.935504,756.925148 381.644536,768.412516 382.25354,779.566047 C382.273453,779.930754 382.295118,780.293842 382.318493,780.655341 C382.471836,780.533237 382.627619,780.406312 382.785842,780.274565 C382.663,780.890993 382.542006,781.504947 382.42286,782.116426 C384.519114,808.919912 395.943288,827.020012 399.907791,849.617381 C403.996748,872.924125 392.277553,881.52322 380.283674,858.729678 C379.707655,857.634994 379.072421,856.465732 378.402115,855.208585 C381.519786,872.784493 383.29491,889.689789 383.727486,905.924474 C383.775776,907.736959 383.206947,909.512092 382.114223,910.958947 C375.575629,919.616563 367.867273,915.59846 358.989154,898.904637 C357.20075,895.541841 355.049032,891.634995 352.977599,886.892017 C352.069926,897.557273 351.079751,909.181588 349.861236,923.823247 C346.632498,962.619718 334.765551,970.128904 320.505302,966.5386 C306.245053,962.948295 296.694643,912.273611 300.637341,840.970058 C304.793508,765.805925 314.542622,743.53515 353.440482,717.849955 C392.338342,692.16476 473.849118,737.555633 485.943792,738.853919 C498.038465,740.152204 495.854611,763.659549 485.943792,764.155955 C477.268372,764.590483 411.776491,718.823454 386.126444,745.103942 Z" id="Combined-Shape" fill="#FFFFFF" transform="translate(396.979906, 838.665270) rotate(2.000000) translate(-396.979906, -838.665270) "></path>
        <path d="M1294.58896,297 C1266.12954,305.242458 1251.89982,326.763282 1251.89982,361.562472 C1251.89982,396.361663 1270.87462,452.47126 1308.82422,529.891264 L1246.60702,557 L1166.67207,558.741335 L1144.80871,491.561934 L1107.53643,382.240444 C1099.15994,357.671763 1112.2863,330.964422 1136.85498,322.587929 C1138.97591,321.864814 1141.14584,321.294304 1143.34817,320.880764 L1255.1631,299.884809 C1259.61692,299.048495 1264.12245,298.515897 1268.64851,298.290698 L1294.58896,297 Z" id="Mask" fill="#FF66D5"></path>
    </g>
</svg>