<?xml version="1.0" encoding="UTF-8"?>
<svg width="1794px" height="1276px" viewBox="0 0 1794 1276" version="1.1" xmlns="http://www.w3.org/2000/svg" xmlns:xlink="http://www.w3.org/1999/xlink">
    <!-- Generator: Sketch 56.1 (81669) - https://sketch.com -->
    <title>Swap Party</title>
    <desc>Created with Sketch.</desc>
    <g id="Swap-Party" stroke="none" stroke-width="1" fill="none" fill-rule="evenodd">
        <path d="M956.723711,27.1915757 L954.88235,187.786294 L948.882745,187.717503 L950.751802,24.7071908 C864.435187,77.6555961 803.762103,114.150427 768.714657,134.201758 C695.274206,176.218482 638.061845,205.470194 597.03423,221.969059 C463.12247,275.820401 345.262295,312.784745 243.701314,336.172084 C208.287066,344.327234 177.499929,350.207082 150.683279,354.346124 C135.949439,356.620232 117.529314,358.923614 117.957354,358.776986 C116.389915,359.313923 114.683981,358.478535 114.147045,356.911097 C113.610108,355.343658 114.445495,353.637724 116.012934,353.100787 C116.270072,353.012703 135.85824,350.563261 149.76804,348.41634 C176.441964,344.299327 207.085357,338.446932 242.35488,330.325109 C343.612464,307.007636 461.17431,270.136857 594.795618,216.402317 C635.51848,200.026005 692.51276,170.885794 765.735111,128.99385 C801.102534,108.759453 862.694374,71.7004651 950.492134,17.8272998 C951.499021,17.2094686 952.774754,17.2400594 953.750871,17.9054413 C1056.93113,88.2395015 1130.26115,136.848315 1173.71654,163.717224 C1218.39791,191.344157 1259.26853,215.080588 1296.32617,234.925954 C1387.48693,283.744999 1530.56187,349.177398 1725.51919,431.203679 C1727.04637,431.846227 1727.76352,433.605144 1727.12097,435.132331 C1726.47842,436.659517 1724.7195,437.376658 1723.19232,436.73411 C1528.07691,354.641318 1384.8546,289.141521 1293.49361,240.215246 C1256.31978,220.307657 1215.34304,196.509595 1170.56114,168.820498 C1127.90793,142.447594 1056.63643,95.2425418 956.72373,27.1915634 Z" id="Combined-Shape" fill="#FF8ADF"></path>
        <path d="M815.974942,507.606512 C717.790179,439.861397 668.697797,441.080538 668.697797,511.263934 C668.697797,616.539029 768.491826,918.874274 768.491826,967.807382 C768.491826,1016.74049 985.990722,1771.46302 1099.14802,1686.95632 C1146.97763,1651.23681 1162.25559,1661.37915 1150.10499,1579.05973 C1145.42921,1547.38168 1123.79231,1471.59459 1085.19428,1351.69846 C1013.96384,1095.44392 955.782643,899.670396 910.650681,764.377887 C865.518718,629.085377 833.960139,543.494918 815.974942,507.606512 Z" id="Path-41-Copy-6" fill="#FFFAF0" transform="translate(911.392865, 1075.623297) rotate(-74.000000) translate(-911.392865, -1075.623297) "></path>
        <path d="M481.942629,692.277629 C485.00341,691.702424 488.117288,691.264688 491.278184,690.97145 L574.105689,683.287509 L572.492584,672.497615 C582.205964,670.34637 605.194407,669.438567 641.457912,669.774206 C677.721417,670.109845 726.979267,673.48298 789.231462,679.893611 L830,510.424739 L926,543.91597 L919.324799,742.274665 C917.541516,795.266276 874.708475,837.654468 821.701134,838.884442 L649.902289,842.870835 L645.680089,911.372333 C643.649952,944.30954 622.951878,973.180424 592.40978,985.676876 C566.267826,996.372987 544.825071,1002.91306 528.081516,1005.2971 C501.650998,1009.06042 462.644852,1005.92552 411.06308,995.892397 L407.720739,931.644432 L346,969.294293 C323.149201,984.349678 309.518421,998.66308 305.107659,1012.2345 C300.696898,1025.80592 284.008477,1039.41731 255.042396,1053.06869 C218.117364,1060.70268 187.590701,1049.80995 163.462406,1020.39052 C127.269965,976.26137 120.554717,938.216485 163.462406,878.495087 C206.370096,818.77369 306.811814,760.927894 372.967366,726.398521 C417.071067,703.378939 452.353473,689.815412 478.814583,685.707942 L481.942629,692.277629 Z" id="Mask" fill="#60CBFF"></path>
        <path d="M1188.26742,640.285804 L1287.23357,614.765828 C1290.23765,613.991177 1293.27616,613.356742 1296.33923,612.864582 C1299.34416,612.381762 1302.33931,612.038219 1305.3181,611.829195 C1355.43163,595.333688 1403.38597,599.04226 1449.18114,622.954911 C1521.76445,660.855408 1519.45388,740.452172 1566.53054,806.004207 C1597.91498,849.705563 1624.32294,942.744289 1645.75442,1085.12038 L1521.2312,1093.37704 C1500.44043,1094.75559 1481.42239,1081.68092 1475.26421,1061.77531 L1438.68626,943.541075 C1377.39129,958.57416 1333.54256,966.297813 1307.14006,966.712036 C1292.69311,966.938691 1274.56943,964.817534 1252.76903,960.348567 C1217.38787,953.095617 1189.23917,927.531175 1178.05903,894.256909 C1175.36883,896.224889 1172.57777,898.060164 1169.69539,899.754618 C1054.4581,967.498612 982.174472,1008.4535 952.844491,1022.61928 C922.665021,1037.19535 886.408516,1028.80311 865.703143,1002.4488 C841.357309,971.46082 846.741831,926.603904 877.729837,902.258107 L1009.87934,798.4343 C1048.13275,738.875448 1080.37293,698.147303 1106.59989,676.249867 C1127.81134,658.539982 1176.9978,627.929789 1187.82894,639.758467 C1187.97104,639.913644 1188.11719,640.089423 1188.26742,640.285804 Z M768.283629,129.98788 C781.227636,171.15492 788.296473,200.26574 789.490141,217.320339 C790.20668,227.557929 790.695316,237.330714 790.956047,246.638692 C791.079758,251.055236 787.599732,254.735842 783.183189,254.859556 C781.074019,254.918638 779.026912,254.14207 777.487604,252.698941 C770.873097,246.497726 763.716874,239.221894 756.018936,230.871446 C742.67223,216.393418 724.572243,194.86679 701.718973,166.291563 L768.283629,129.98788 Z M490.217328,258.422044 C495.816105,301.211368 497.72251,331.107419 495.936544,348.110199 C494.864458,358.316683 493.648643,368.025847 492.2891,377.237692 C491.644007,381.60862 487.57772,384.62901 483.206791,383.98392 C481.119405,383.675851 479.238248,382.555604 477.972922,380.867102 C472.535734,373.6115 466.751665,365.20354 460.620716,355.64322 C449.99086,339.067515 435.903912,314.724895 418.359871,282.615361 L490.217328,258.422044 Z M634.634866,201.012413 C640.81582,245.932164 643.608515,276.935011 643.012953,294.020956 C642.655447,304.277362 642.119872,314.047686 641.406226,323.331929 C641.067605,327.737209 637.221915,331.033891 632.816635,330.695273 C630.712843,330.533563 628.758124,329.547268 627.378096,327.951143 C621.448028,321.092495 615.091539,313.108492 608.30863,303.999134 C596.548405,288.205308 581.4486,264.086812 563.009214,231.643647 L634.634866,201.012413 Z M344.938998,304.667488 C344.016856,350.001116 341.925255,381.059141 338.664195,397.841563 C336.706635,407.915769 334.649238,417.482022 332.492003,426.540321 C331.468413,430.838393 327.154356,433.492889 322.856283,432.469303 C320.803689,431.980478 319.027327,430.700541 317.913978,428.908183 C313.129848,421.206309 308.100591,412.326228 302.826208,402.267941 C293.681471,384.828858 282.540533,358.645171 269.403395,323.71688 L344.938998,304.667488 Z M1436.13537,310.415582 L1506.27956,342.155397 C1483.7726,372.574437 1466.23378,395.362307 1453.66309,410.519006 C1446.41273,419.26089 1439.6471,426.901278 1433.36621,433.440171 C1431.90454,434.961883 1429.90088,435.844524 1427.7915,435.895909 C1423.37454,436.003508 1419.70666,432.510076 1419.59905,428.093111 C1419.37228,418.784243 1419.34878,408.999279 1419.52855,398.738218 C1419.82801,381.64452 1425.36362,352.203641 1436.13537,310.415582 Z M1298.01698,241.737182 L1367.33143,277.290153 C1346.67384,308.368022 1329.9284,331.374457 1317.0951,346.309459 C1309.69327,354.923475 1302.79533,362.444623 1296.40128,368.872903 C1294.91327,370.368874 1292.89451,371.216411 1290.78456,371.230975 C1286.36639,371.261471 1282.76004,367.704558 1282.72954,363.286387 C1282.66527,353.97498 1282.81254,344.191096 1283.17135,333.934735 C1283.7691,316.848867 1288.71764,286.116349 1298.01698,241.737182 Z M1575.8051,373.438605 L1647.95444,402.815135 C1630.08407,435.57517 1615.40749,459.95352 1603.9247,475.950185 C1597.3018,485.176534 1591.08562,493.270257 1585.27615,500.231354 C1583.92419,501.851321 1581.98699,502.87158 1579.88634,503.069982 C1575.48764,503.485431 1571.585,500.256367 1571.16954,495.857668 C1570.29398,486.587294 1569.58797,476.827805 1569.05152,466.5792 C1568.15785,449.506252 1570.40905,418.459387 1575.8051,373.438605 Z" id="Combined-Shape" fill="#FF8ADF"></path>
        <path d="M1392.75595,1056.92686 L1275.11973,1054.27392 C1277.2256,926.472336 1261.47736,860.743489 1227.875,857.087385 C1177.47146,851.603228 1125.51953,851.603228 1125.51953,926.477627 C1125.51953,976.393894 1122.27487,1022.18908 1115.78556,1063.86317 L1027.40432,1064.23303 C999.532727,1064.34967 977,1086.97689 977,1114.84872 L977,1114.84872 L1446,1111.38521 C1446,1081.77959 1422.35404,1057.59435 1392.75595,1056.92686 Z" id="Mask" fill="#FF6C6C"></path>
        <path d="M1160.06042,612.813807 L1143.57588,575.40695 L1184.18553,601.990717 L1171.58289,564.297823 L1205.26584,603.213465 L1301.94607,589.162529 L1313.22446,547.655895 L1324.09766,584.974609 L1350.23242,550.837891 L1347.04401,589.162529 L1408.42424,572.021934 L1366.55403,601.983351 L1423.91481,601.438229 L1363.12109,621.728447 L1398.41317,662.799057 L1347.04401,635.175632 L1359.10879,693.694571 L1317.08602,643.949262 L1314.03775,699.498682 L1280.23456,643.982708 L1265.92384,703.708103 L1244.21646,644.171877 L1235.08653,706.406018 L1215.07415,651.16941 L1213.44293,716.416427 L1184.45993,652.416411 L1168.75638,712.209154 L1163.8683,656.338158 L1087.90969,688.431009 L1147.27123,643.949262 L1072.63503,647.986388 L1146.76675,625.685543 L1087.90969,600.600023 L1160.06042,612.813807 Z M725.895452,1149.92221 C709.44599,1149.63508 676.237775,1174.74969 658.109984,1170.53219 C634.244226,1164.97973 656.94048,1140.85382 662.750433,1119.5415 C672.12506,1085.15308 672.416577,1026.41493 715.351098,1098.55427 C719.399677,1105.35676 726.477672,1112.65893 732.048084,1114.01908 C750.760662,1118.58819 773.292467,1094.56122 785.272077,1088.72752 C792.869804,1085.02766 801.403306,1080.29196 803.984893,1082.80134 C807.856586,1086.56474 808.21167,1097.0483 798.564027,1135.23895 C794.335365,1151.97831 798.818219,1169.21238 797.775431,1177.69351 C796.280252,1189.85399 790.023135,1189.46412 786.374968,1189.97684 C780.182448,1190.84714 744.56018,1150.248 725.895452,1149.92221 Z M853.712061,178.588695 C852.727407,171.661661 857.007933,165.071223 863.736852,163.154198 L961.560422,135.284905 C966.502676,133.876889 971.792888,135.772126 974.716713,139.998192 L1039.9306,234.257672 C1097.69213,237.793199 1129.785,240.791461 1136.2092,243.252458 C1142.6334,245.713455 1149.13652,254.045683 1155.71856,268.249143 C1087.93245,286.952719 1045.69956,298.854252 1029.01988,303.95374 C1004.00037,311.602972 951.136206,284.829862 935.200988,274.394482 C924.577509,267.437562 898.866606,259.294859 858.068279,249.966374 L858.070073,209.247285 L853.712061,178.588695 Z" id="Combined-Shape" fill="#C8FF57"></path>
        <path d="M496.681828,655.982534 C572.652634,594.935196 614.397159,571.312868 621.915403,585.115552 C629.593073,599.210926 629.372729,610.583273 621.254371,619.232595 C645.059001,617.221648 657.609634,620.656153 658.906272,629.536111 C660.202909,638.416068 648.046294,646.453325 622.436425,653.647883 C647.620874,655.777448 656.051645,661.56835 647.728738,671.02059 C639.405832,680.472829 623.490662,683.402467 599.983231,679.809503 C614.419542,699.823584 615.758992,712.194558 604.001583,716.922423 C592.244173,721.650288 579.157111,718.04592 564.740395,706.109319 C565.275116,708.643912 565.695701,711.015762 566.002151,713.224868 L566.482295,713.621355 C574.185616,739.970993 572.037504,755.737433 560.037961,760.920674 C548.038418,766.103915 536.981402,753.349619 526.866913,722.657786 C526.866913,742.983137 520.485298,758.190427 507.722068,768.279655 C498.926848,775.232204 491.992592,770.172266 486.919299,753.09984 C484.044759,746.946184 482.071659,738.464501 481,727.654793 L481.455837,724.796474 C481.365689,724.091591 481.276783,723.378696 481.189118,722.657786 C466.02241,742.983137 451.52393,753.145812 437.693679,753.145812 C423.863427,753.145812 420.139605,739.970993 426.522212,713.621355 C404.225701,726.935104 386.929172,730.476535 374.632627,724.245649 C362.336081,718.014762 368.484354,708.64507 393.077445,696.136572 C364.226581,699.303965 348.634126,696.090407 346.300081,686.495897 C343.966035,676.901387 355.247746,668.245797 380.145212,660.529127 C368.385112,655.033712 363.493916,643.518143 365.471624,625.98242 C367.449331,608.446697 411.017626,618.307643 496.176507,655.565258 L496.681828,655.982534 Z M1214.06738,1047.51367 C1260.77273,1093.66897 1288.58976,1118.78066 1297.51846,1122.84872 C1310.91151,1128.95082 1370.07216,1159.84052 1370.07216,1159.84052 C1370.07216,1159.84052 1382.0481,1172.84325 1406,1198.84872 L1346.16079,1190.09675 C1292.17584,1172.15905 1254.98114,1155.65552 1234.57669,1140.58618 C1214.17225,1125.51683 1207.33581,1094.49266 1214.06738,1047.51367 Z" id="Combined-Shape" fill="#FFE640"></path>
        <path d="M462.749847,647.84044 C458.847865,648.368199 455.002614,648.236892 451.510295,647.081081 C437.96218,642.597225 426.846712,626.210471 424.881579,619.35724 C421.229648,606.621442 427.658094,593.369425 439.454626,588.04091 C436.988198,579.538193 435.254541,572.154956 434.253656,565.891198 C431.107542,546.202143 441.493818,530.547731 465.412485,518.927964 C483.909595,509.132036 498.043667,504.118979 507.814703,503.888793 C538.95368,503.155221 544.142554,515.414299 551.404646,522.815159 C567.424989,539.141625 572.945135,565.486522 577.03393,599.868149 C579.80869,623.200399 574.089126,645.142711 559.954817,658.141511 C553.261278,664.29731 544.581698,668.191226 534.206607,669.751613 C520.655379,671.789683 506.545547,671.010271 491.877112,667.413375 C480.027906,664.507792 469.759502,657.496261 462.749847,647.84044 Z M971.720297,430.445042 C973.225173,429.521942 974.772761,428.582398 976.363061,427.62641 C991.689541,420.954513 1002.42626,417.870709 1008.57322,418.374999 C1014.72018,418.879288 1022.16756,423.454895 1030.91535,432.101818 L1003.73888,451.968023 C1018.37157,445.686549 1028.67344,442.790741 1034.64449,443.280599 C1040.79145,443.784889 1048.23883,448.360495 1056.98662,457.007418 L994.252757,502.866342 L994.980737,503.445422 L925.516139,549.885652 C894.91533,557.822926 869.922081,553.415942 850.536391,536.664699 C831.150702,519.913457 824.374339,503.600184 830.207302,487.724881 L846.240586,396.795609 C857.150776,398.620346 864.990745,403.940792 869.760492,412.756946 C874.53024,421.5731 876.865779,435.060535 876.76711,453.219252 L906.183657,432.810759 L906.599847,433.141822 C912.826826,426.270363 926.290234,416.612916 946.990072,404.169481 C962.316552,397.497584 973.053272,394.41378 979.200232,394.918069 C985.347192,395.422359 992.794569,399.997965 1001.54236,408.644888 L971.720297,430.445042 Z M936.032447,456.533127 C936.028715,456.537227 936.024984,456.541325 936.021257,456.545423 L936.032447,456.533127 Z M308.722112,867.606583 L310.714131,919.31494 C322.340418,909.357639 333.063312,903.372451 342.882813,901.359375 C352.702313,899.346299 362.927782,901.036906 373.559221,906.431195 L314.209353,977.161613 C305.797522,991.834371 288.945068,997.129345 263.651991,993.046536 C231.682912,987.886087 207.158735,961.908026 203.845994,929.695016 L197.83494,871.243702 L191.969359,783.693771 C204.21626,784.836836 212.508459,787.600714 216.845957,791.985408 C221.059326,796.244621 225.462923,805.997702 230.056748,821.244649 L227.806444,787.656511 C240.053345,788.799575 248.345545,791.563454 252.683043,795.948147 C257.02054,800.33284 261.55964,810.539876 266.300342,826.569254 C266.995015,830.961014 267.604371,835.104201 268.12841,838.998813 L349.944033,820.713673 C350.730879,832.988609 349.298214,841.611084 345.646037,846.581097 C341.993861,851.55111 332.622563,857.631058 317.532142,864.820941 C314.474066,865.813885 311.537389,866.742432 308.722112,867.606583 Z" id="Combined-Shape" fill="#C7E0FF"></path>
        <path d="M534.359357,611.857316 C526.820322,611.857316 526.820322,602.857316 534.359357,602.857316 C541.898391,602.857316 542.930541,611.497665 536.320796,611.811207 C535.680277,611.841591 535.025387,611.857316 534.359357,611.857316 Z M503.114234,581.760883 C500.031675,582.249112 499.386738,578.724892 498.695567,574.36101 C498.004396,569.997128 497.528724,566.446099 500.611282,565.95787 C502.402845,565.674114 504.186522,566.616544 505.502005,568.312418 C506.449938,569.534461 505.980531,571.333716 506.269998,573.161338 C506.961169,577.52522 506.196792,581.272654 503.114234,581.760883 Z M494.561461,561.424696 C493.869299,562.619383 492.339706,563.026759 491.145019,562.334597 C489.950332,561.642435 489.542955,560.112842 490.235117,558.918155 C495.33945,550.107964 502.486521,548.975979 509.899013,555.833323 C510.912539,556.770942 510.974073,558.352658 510.036454,559.366184 C509.098834,560.37971 507.517118,560.441245 506.503592,559.503625 C501.456786,554.834793 498.068516,555.371442 494.561461,561.424696 Z M526.168061,593.746864 L534.864365,591.513429 C530.191971,574.033178 528.125777,565.964203 528.086945,564.852201 C528.038759,563.47233 529.118303,562.314661 530.498173,562.266475 C531.878044,562.218289 533.035713,563.297833 533.083899,564.677704 C533.080792,564.588732 533.080192,564.584128 533.083079,564.600901 C533.097887,564.686934 533.122455,564.812552 533.156233,564.972947 C533.230084,565.323619 533.342502,565.815137 533.49256,566.442332 C533.798438,567.720801 534.256312,569.544986 534.865283,571.910856 C536.087316,576.658492 537.914757,583.575776 540.346966,592.660142 C540.706635,594.003515 539.900879,595.382188 538.553905,595.728126 L527.411825,598.589699 C526.074514,598.933155 524.711982,598.127476 524.368526,596.790164 C524.02507,595.452852 524.830749,594.09032 526.168061,593.746864 Z M552.392733,575.428714 C549.319165,575.970667 548.61282,572.458239 547.845594,568.107085 C547.078368,563.75593 546.540795,560.213743 549.614363,559.67179 C551.4007,559.356811 553.200553,560.267967 554.545433,561.940625 C555.514549,563.145938 555.076615,564.953112 555.397935,566.775403 C556.165161,571.126558 555.466301,574.886761 552.392733,575.428714 Z M543.486347,555.244891 C542.815141,556.451476 541.29289,556.885486 540.086305,556.214279 C538.87972,555.543073 538.44571,554.020822 539.116917,552.814237 C544.066713,543.916305 551.19294,542.659759 558.72398,549.386692 C559.753715,550.306481 559.842845,551.886882 558.923057,552.916617 C558.003269,553.946352 556.422868,554.035482 555.393132,553.115694 C550.265613,548.535652 546.887224,549.131353 543.486347,555.244891 Z M1028.26867,431.221359 C1029.00286,432.04661 1028.92904,433.310787 1028.10379,434.044976 C1027.27854,434.779166 1026.01436,434.705346 1025.28017,433.880095 C1012.12024,419.087931 996.461966,417.455787 977.622898,429.022707 C957.865144,441.153686 946.676387,447.815726 943.773721,449.165439 C942.772137,449.631167 941.582645,449.19677 941.116917,448.195185 C940.651189,447.193601 941.085587,446.004109 942.087171,445.538381 C944.773722,444.289159 956.015622,437.595477 975.529968,425.613947 C995.963,413.068357 1013.77006,414.92448 1028.26867,431.221359 Z M1000.05414,406.95327 C1000.78833,407.778521 1000.71451,409.042698 999.889258,409.776887 C999.064007,410.511077 997.799831,410.437257 997.065641,409.612006 C983.905704,394.819842 968.247434,393.187698 949.408365,404.754618 C929.650612,416.885597 918.461854,423.547637 915.559188,424.89735 C914.557604,425.363078 913.368112,424.928681 912.902384,423.927096 C912.436657,422.925512 912.871054,421.73602 913.872639,421.270292 C916.559189,420.02107 927.801089,413.327388 947.315435,401.345858 C967.748467,388.800268 985.555523,390.656391 1000.05414,406.95327 Z M869.602765,482.135145 C869.794571,481.047357 870.831888,480.32102 871.919677,480.512826 C873.007465,480.704633 873.733802,481.74195 873.541996,482.829738 L873.189989,484.826069 L869.250748,484.131534 L869.602765,482.135145 Z M874.713665,453.149792 C879.121225,428.153274 869.386061,410.118211 845.206108,398.583827 C844.209158,398.10826 843.786494,396.914548 844.262062,395.917598 C844.73763,394.920648 845.931341,394.497985 846.928291,394.973552 C872.702668,407.268513 883.378224,427.045715 878.652896,453.844384 L873.192255,484.813215 C873.190418,484.823635 873.190418,484.823635 869.250748,484.131534 L874.713665,453.149792 Z M880.317676,506.553649 C879.523393,507.321235 878.257248,507.299592 877.489662,506.505309 C876.722076,505.711025 876.743719,504.44488 877.538002,503.677295 C897.893677,484.005823 922.704139,480.584387 951.549634,493.384483 C952.559264,493.832503 953.014539,495.014162 952.566519,496.023791 C952.118499,497.033421 950.93684,497.488696 949.927211,497.040676 C922.519,484.878369 899.45574,488.058861 880.317676,506.553649 Z M1058.45282,455.836745 C1059.18701,456.661996 1059.11319,457.926172 1058.28794,458.660362 C1057.46269,459.394551 1056.19851,459.320731 1055.46432,458.49548 C1042.30439,443.703316 1026.64611,442.071173 1007.80705,453.638092 C988.049292,465.769071 976.860535,472.431111 973.957869,473.780825 C972.956285,474.246553 971.766793,473.812155 971.301065,472.810571 C970.835338,471.808986 971.269735,470.619495 972.27132,470.153767 C974.95787,468.904545 986.19977,462.210862 1005.71412,450.229332 C1026.14715,437.683742 1043.9542,439.539865 1058.45282,455.836745 Z M312.384554,833.196022 C311.306108,833.434827 310.238266,832.754162 309.999461,831.675716 C309.760657,830.59727 310.441321,829.529427 311.519767,829.290623 L348.62026,821.075323 C349.698707,820.836519 350.766549,821.517183 351.005353,822.595629 C351.244158,823.674075 350.563494,824.741918 349.485047,824.980722 L312.384554,833.196022 Z M230.590058,786.314225 C252.456083,787.176194 265.070063,799.837625 268.021083,823.726 C270.838653,846.534109 272.625526,859.540602 273.32733,862.424962 C273.588468,863.498219 272.930115,864.57996 271.856858,864.841098 C270.783601,865.102236 269.70186,864.443884 269.440722,863.370627 C268.682377,860.253889 266.904013,847.309322 264.051259,824.216407 C261.331955,802.203758 250.262672,791.092835 230.432498,790.311121 C229.328786,790.267612 228.469321,789.337605 228.51283,788.233893 C228.556339,787.130181 229.486346,786.270716 230.590058,786.314225 Z M295.115659,940.041988 C295.147703,940.031362 295.169528,940.017185 295.188444,939.950206 C295.161093,939.984445 295.136799,940.015083 295.115659,940.041988 Z M308.395157,918.892752 C326.139813,898.479861 347.761735,893.946075 372.738804,905.385772 C373.743053,905.845726 374.184292,907.032697 373.724338,908.036946 C373.264384,909.041195 372.077413,909.482433 371.073164,909.022479 C347.70026,898.317503 327.98791,902.450881 311.413995,921.516989 C302.824961,931.397542 297.584208,937.389447 295.675728,939.510723 C294.985004,940.278462 294.812605,940.463317 294.586205,940.631785 C294.47189,940.7196 294.47189,940.7196 294.108336,940.896589 C293.793292,941.019143 293.793292,941.019143 293.017342,940.999253 C291.89862,940.529288 291.89862,940.529288 291.438603,939.509199 C291.552306,938.039406 291.552306,938.039406 291.676265,937.98049 C291.73614,937.88122 291.791227,937.804184 291.870884,937.699272 C291.964252,937.576299 292.104262,937.400768 292.298183,937.162828 C293.030666,936.26407 294.592655,934.402471 296.993062,931.566597 C297.236501,931.279568 297.543342,931.078023 297.875574,930.965361 C300.511194,927.952601 304.018432,923.927598 308.395157,918.892752 Z M266.740793,950.902215 C268.925579,924.447176 256.772148,904.482682 229.994693,890.710774 C229.012423,890.205582 228.625674,888.999756 229.130865,888.017486 C229.636057,887.035215 230.841883,886.648466 231.824153,887.153657 C259.987739,901.638467 273.050697,923.097045 270.727222,951.231434 C270.63631,952.332256 269.67022,953.15095 268.569398,953.060039 C267.468576,952.969127 266.649882,952.003037 266.740793,950.902215 Z M194.590058,781.314225 C216.456083,782.176194 229.070063,794.837625 232.021083,818.726 C234.838653,841.534109 236.625526,854.540602 237.32733,857.424962 C237.588468,858.498219 236.930115,859.57996 235.856858,859.841098 C234.783601,860.102236 233.70186,859.443884 233.440722,858.370627 C232.682377,855.253889 230.904013,842.309322 228.051259,819.216407 C225.331955,797.203758 214.262672,786.092835 194.432498,785.311121 C193.328786,785.267612 192.469321,784.337605 192.51283,783.233893 C192.556339,782.130181 193.486346,781.270716 194.590058,781.314225 Z" id="Combined-Shape" fill="#6674A9" fill-rule="nonzero"></path>
        <path d="M578.099695,654.6016 L559.571413,658.31445 C569.633426,649.273866 575.587281,635.930098 577.316139,620.690372 C574.203974,562.503504 561.873145,526.958989 540.323653,514.056827 C530.402215,508.11664 519.674751,504.845228 508.141263,504.242591 C506.610099,504.589636 504.952203,504.87074 503.138853,505.122563 C482.699572,531.852053 472.559287,554.056655 472.717998,571.736371 C472.779759,578.616373 472.373844,586.771913 471.879187,595.503431 C465.459944,587.138063 454.308769,583.107579 443.503146,586.206041 C429.418147,590.24485 421.253972,604.866899 425.267949,618.865302 C427.233081,625.718533 438.34855,642.105286 451.896665,646.589142 C457.627533,648.485819 464.308795,647.623656 470.631552,645.617503 C470.637415,645.72037 470.643369,645.82313 470.649414,645.925781 C470.755358,647.724714 471.855979,653.449932 475.296875,658.269531 C476.671286,660.194644 478.820581,661.875649 480.672569,663.291919 C484.233388,665.139899 488.036335,666.579762 492.017756,667.556059 C495.629461,668.441697 499.2073,669.156524 502.751273,669.700538 L448.548929,680.56205 L421.476005,686.101615 C407.949153,688.86943 394.739715,680.147509 391.971899,666.620658 C391.064109,662.184113 391.378416,657.584308 392.881251,653.312482 C409.183648,606.972742 420.719754,574.214331 427.489567,555.037249 C438.05417,525.110537 467.496358,511.395382 484.566931,506.345862 C476.748218,505.964215 469.562979,504.090369 464.051882,500.056364 C457.162506,495.013488 453.013822,486.105293 452.149751,477.884206 C451.697153,473.578021 459.055328,460.433189 465.268444,456.707573 C467.492946,455.373678 470.211519,454.081571 473.172748,452.906538 C476.968282,462.56752 480.608441,468.529534 484.093226,470.792579 C488.175344,473.443538 488.613625,466.206299 485.40807,449.080863 C488.255273,448.412897 491.034256,447.918707 493.56235,447.652994 C493.727013,447.635687 493.890452,447.619391 494.052701,447.604089 C493.344711,454.973739 493.33393,464.047765 495.088217,466.138443 C496.984135,468.397911 498.387744,462.168944 499.299042,447.451544 C506.067751,447.739359 510.955825,449.976606 517.870724,452.46422 C522.786893,454.232796 530.389379,466.509535 530.931381,471.666338 C531.605028,478.075659 526.187473,488.445629 522.711987,493.890938 C520.660755,497.10476 518.576287,499.351284 516.190299,500.972899 C518.519705,501.141719 521.076392,501.512791 523.86036,502.086115 C539.519411,505.310902 562.084259,513.030132 578.099695,549.488658 C586.268934,568.085619 595.94718,590.317943 607.134432,616.185632 C607.397106,616.793 607.635562,617.410557 607.849236,618.036846 C612.307544,631.104364 605.3284,645.311853 592.260882,649.77016 L578.099695,654.6016 Z" id="Combined-Shape" fill="#FF461C"></path>
        <path d="M1232.5496,1056.05441 C1278.81885,1080.82288 1306.19332,1093.90619 1314.67302,1095.30435 C1329.17376,1097.69527 1394.24518,1111.99752 1394.24518,1111.99752 C1394.24518,1111.99752 1409.16345,1121.30934 1439,1139.93297 L1378.99976,1146.84872 C1322.2722,1143.54149 1282.11585,1137.32266 1258.53071,1128.19221 C1237.08504,1119.89001 1222.31572,1096.19842 1214.22277,1057.11743 L1115.83447,1062.82432 L1121.70605,1013.58466 L1275.28809,1002.18066 L1276.60645,1053.49895 L1232.5496,1056.05441 Z" id="Combined-Shape" fill="#FFBEBE"></path>
        <path d="M1306.78868,504.06006 C1314.6002,507.487843 1320.59824,514.602451 1322.18407,523.596152 C1323.42208,530.617253 1321.42169,551.120688 1310.40368,560.187436 C1309.82262,560.665584 1309.21826,561.114052 1308.5941,561.534464 C1308.58658,562.887224 1308.57663,564.254295 1308.56425,565.635676 C1308.42471,581.200046 1300.58864,595.685836 1287.63799,604.320056 C1274.62946,612.992861 1261.18236,618.735109 1247.29669,621.546799 C1215.2995,628.025863 1189.66778,599.791319 1181.75078,566.084708 C1176.47278,543.613633 1173.386,523.137548 1172.49043,504.656452 C1170.88851,477.728578 1179.92487,460.944365 1199.59951,454.303815 C1208.86001,451.178228 1228.64599,450.359966 1258.95746,451.84903 C1285.40785,454.587374 1300.52188,465.745393 1304.29955,485.323088 C1305.30515,490.534564 1306.13486,496.780222 1306.78868,504.06006 Z M1635.98523,1094.88291 L1645.16607,1113.07862 L1545.09661,1111.48251 C1537.6764,1111.36416 1530.29241,1110.42018 1523.08106,1108.66802 L1516.79596,1107.14091 C1496.35142,1102.17341 1483.80477,1081.57289 1488.77224,1061.12834 C1492.48073,1045.86537 1505.17678,1034.44317 1520.74548,1032.36311 C1577.71576,1024.75157 1582.35766,1026.24002 1623.92307,1026.23125 C1651.63335,1026.2254 1672.2415,1026.79587 1685.74753,1027.94266 L1684.93479,1028.68404 L1686.55063,1028.67937 C1709.99706,1034.35328 1724.55087,1039.80313 1730.21205,1045.02893 C1735.87323,1050.25473 1739.68256,1060.49171 1741.64002,1075.73986 L1714.27416,1074.86925 C1716.2968,1079.75057 1717.96165,1085.78192 1719.2687,1092.96331 L1635.98523,1094.88291 Z M811.101907,1046.77009 C810.060841,1047.68811 808.996081,1048.62041 807.907626,1049.56698 C793.972552,1058.79893 783.934444,1063.7003 777.793301,1064.27108 C771.652159,1064.84186 763.523379,1061.62899 753.406961,1054.63247 L796.141201,1010.12083 L779.692464,1020.76669 C763.842812,1026.07741 752.878177,1028.21371 746.79856,1027.1756 C740.718943,1026.13749 733.698696,1020.93021 725.737818,1011.55377 L813.705621,957.686523 L813.723603,957.726502 L842.161358,937.565146 C851.549174,930.909519 862.678447,927.144565 874.178871,926.733849 C886.977216,926.27678 897.454892,928.939708 905.611899,934.722635 C917.866177,943.410331 922.132129,957.189395 918.409755,976.059828 L894.1282,1075.00975 C883.418562,1072.24107 876.072135,1066.25757 872.088916,1057.05926 C868.245243,1048.18319 867.542842,1034.75697 869.981711,1016.7806 C866.087251,1025.66532 858.705178,1038.16869 847.835493,1054.29071 C836.76465,1066.81476 828.337149,1074.14717 822.55299,1076.28794 C816.76883,1078.42872 808.08548,1077.42921 796.502938,1073.28941 L811.101907,1046.77009 Z" id="Combined-Shape" fill="#FFBEBE"></path>
        <path d="M883.76631,1066.5638 C883.002008,1046.89956 887.858209,1037.08214 898.821482,1038.70096 C899.047492,1038.73434 899.259056,1038.8043 899.451053,1038.90395 C899.755836,1038.81005 900.087542,1038.78787 900.422426,1038.8534 C901.50644,1039.0655 902.213266,1040.11621 902.001164,1041.20022 L895.789719,1072.94589 C895.746061,1073.16902 895.666873,1073.37617 895.559177,1073.56261 C895.546485,1073.72389 895.513877,1073.88622 895.459808,1074.04649 C895.106639,1075.09308 893.971932,1075.65525 892.925332,1075.30212 C881.429352,1071.42328 874.149901,1065.43269 871.289355,1057.29149 C868.533239,1049.4475 868.202597,1034.56106 870.201041,1012.4929 L870.61396,1004.61393 C870.619128,1004.51531 870.631356,1004.41874 870.650127,1004.32468 C845.423509,1023.57732 823.952361,1040.36543 806.237793,1054.688 C786.968537,1070.26756 769.088089,1071.22005 753.262035,1057.32016 C752.432117,1056.59125 752.350234,1055.32757 753.079144,1054.49765 C753.808054,1053.66774 755.071734,1053.58585 755.901652,1054.31476 C770.162702,1066.84012 785.881252,1066.0028 803.722889,1051.57749 C822.294808,1036.56174 844.977661,1018.84921 871.772719,998.438717 C872.651404,997.769399 873.906308,997.939126 874.575626,998.817811 C875.244943,999.696496 875.075217,1000.9514 874.196532,1001.62072 C873.712847,1001.98915 873.230506,1002.35671 872.749508,1002.72338 C873.83611,1002.79833 874.665698,1003.73145 874.608478,1004.82327 L874.190161,1012.77782 C872.23645,1034.36757 872.557787,1048.83508 875.063178,1055.9655 C876.516316,1060.10117 879.402405,1063.63681 883.76631,1066.5638 Z M887.39877,1068.68665 C888.857665,1069.43173 890.437405,1070.12724 892.139028,1070.77298 L897.653719,1042.58831 C890.401181,1041.93124 886.960686,1049.67978 887.805372,1067.37949 C887.828723,1067.86878 887.67421,1068.32538 887.39877,1068.68665 Z M1640.53867,1112.58415 C1639.51393,1108.88343 1638.29194,1105.57608 1636.87388,1102.6577 C1636.4019,1103.01163 1635.77858,1103.15429 1635.16377,1102.99245 C1613.90683,1097.3969 1603.22233,1099.47579 1601.77263,1108.48859 L1640.53867,1112.58415 Z M1644.58099,1113.99055 C1644.72818,1114.30776 1644.79406,1114.66767 1644.75475,1115.04071 C1644.63841,1116.13913 1643.65386,1116.93553 1642.5554,1116.81948 L1598.5236,1112.1676 C1597.42514,1112.05155 1596.62875,1111.067 1596.74451,1109.96851 C1596.8146,1109.30674 1597.19982,1108.7546 1597.73523,1108.44557 C1599.18932,1096.00458 1611.95538,1093.0153 1634.71002,1098.74508 C1631.52062,1093.68122 1627.55913,1090.14519 1622.83478,1088.10242 C1613.94476,1084.25843 1593.06086,1079.70592 1560.37341,1074.52121 C1559.28248,1074.34818 1558.53838,1073.32353 1558.71142,1072.2326 C1558.88445,1071.14166 1559.9091,1070.39756 1561.00003,1070.5706 C1594.03406,1075.81028 1615.11137,1080.40495 1624.4223,1084.43094 C1634.15883,1088.64094 1640.89983,1098.1136 1644.69852,1112.65005 C1644.82012,1113.11537 1644.76744,1113.58525 1644.58099,1113.99055 Z M1209.49573,577.694424 C1208.84196,577.774697 1208.19721,577.83802 1207.56478,577.885061 C1205.24851,578.057347 1203.0306,577.448346 1201.12067,576.490397 C1197.64919,574.749241 1195.19511,571.855294 1195.01698,570.404603 C1194.79166,568.569492 1198.21209,569.058315 1203.02544,569.05487 C1204.68219,569.053685 1206.50397,568.994178 1208.39891,568.761509 C1210.5996,568.491298 1212.68317,568.014031 1214.53262,567.541627 C1218.90232,566.425477 1221.96511,565.336467 1222.17792,567.06966 C1222.3592,568.54611 1220.43123,571.735929 1217.26719,574.253977 C1215.14497,575.942919 1212.46665,577.329641 1209.49573,577.694424 Z M1229.36787,538.752876 C1226.2943,539.294829 1224.35153,536.000417 1223.5843,531.649263 C1223.26298,529.826971 1222.23337,528.278565 1222.7318,526.814484 C1223.42349,524.782724 1224.80316,523.310931 1226.5895,522.995952 C1229.66307,522.453999 1230.36941,525.966427 1231.13664,530.317581 C1231.90387,534.668736 1232.44144,538.210923 1229.36787,538.752876 Z M1231.35482,519.694542 C1226.06809,515.112863 1222.6897,515.708564 1219.43788,521.766111 C1218.78483,522.98262 1217.26925,523.439394 1216.05274,522.786345 C1214.83624,522.133297 1214.37946,520.617721 1215.03251,519.401213 C1219.80863,510.504196 1226.93485,509.24765 1234.62941,515.916041 C1235.67282,516.820294 1235.78562,518.399182 1234.88137,519.442586 C1233.97711,520.48599 1232.39823,520.598794 1231.35482,519.694542 Z M1192.70478,523.67886 C1192.80226,523.793954 1192.88782,523.916145 1192.96135,524.043703 C1195.58149,528.355116 1196.86689,530.772096 1197.09492,532.065329 C1197.28155,533.123732 1197.13635,541.147352 1196.65803,558.228757 L1209.26518,556.005777 C1210.62491,555.766019 1211.92156,556.673945 1212.16132,558.033676 C1212.40108,559.393417 1211.49315,560.690058 1210.13342,560.929816 L1194.50653,563.685258 C1192.94722,563.960206 1191.52832,562.734742 1191.57342,561.152023 C1191.83413,552.004358 1192.01112,545.040122 1192.10436,540.261758 C1192.18918,535.915355 1192.19965,533.096696 1192.17088,532.93357 C1192.10566,532.563683 1190.91897,530.327461 1188.86531,526.932045 C1183.68663,522.572249 1180.32669,523.264483 1177.09932,529.277957 C1176.44639,530.494533 1174.93086,530.951462 1173.71429,530.298538 C1172.49771,529.645614 1172.04078,528.130085 1172.69371,526.91351 C1177.49596,517.965601 1184.65065,516.68792 1192.386,523.363345 C1192.50021,523.457558 1192.60704,523.56287 1192.70478,523.67886 Z M1187.02114,546.219747 C1183.94757,546.7617 1182.00479,543.467289 1181.23757,539.116134 C1180.91625,537.293843 1179.683,534.590583 1180.18143,533.126503 C1180.87312,531.094742 1182.45643,530.777803 1184.24277,530.462823 C1187.31634,529.92087 1188.02268,533.433298 1188.78991,537.784453 C1189.55713,542.135607 1190.09471,545.677794 1187.02114,546.219747 Z M1639.18228,1046.06814 C1639.58168,1046.08027 1639.95016,1046.2087 1640.25624,1046.41996 C1640.27756,1046.42152 1640.29896,1046.42308 1640.32045,1046.42465 C1645.33137,1046.78981 1655.01843,1047.404 1669.37398,1048.26665 C1699.03583,1050.0491 1715.7191,1064.53536 1718.84223,1091.3648 C1718.96995,1092.46196 1718.18406,1093.45492 1717.0869,1093.58263 C1715.98974,1093.71035 1714.99678,1092.92446 1714.86906,1091.8273 C1711.97884,1066.99871 1696.92769,1053.92964 1669.13405,1052.25945 C1654.76185,1051.39579 1645.06297,1050.78085 1640.02973,1050.41407 C1636.97018,1050.19111 1635.94575,1050.09896 1635.51114,1049.95369 C1635.26839,1049.91986 1635.26839,1049.91986 1634.39717,1049.05227 C1634.01747,1047.73224 1634.01747,1047.73224 1634.65601,1046.68643 C1635.17885,1046.25628 1635.17885,1046.25628 1635.43851,1046.16258 C1635.69905,1046.06595 1635.84717,1046.04596 1636.09743,1046.02904 C1636.25947,1046.01808 1636.47198,1046.01441 1636.76453,1046.01543 C1637.28274,1046.01724 1638.0858,1046.03483 1639.18228,1046.06814 Z M726.096033,1015.14336 C725.361843,1014.31811 725.435663,1013.05393 726.260914,1012.31974 C727.086165,1011.58555 728.350342,1011.65937 729.084532,1012.48462 C742.244468,1027.27679 757.902739,1028.90893 776.741807,1017.34201 C796.499561,1005.21103 807.688319,998.548993 810.590984,997.199279 C811.592569,996.733551 812.78206,997.167949 813.247788,998.169533 C813.713516,999.171118 813.279118,1000.36061 812.277534,1000.82634 C809.590984,1002.07556 798.349083,1008.76924 778.834737,1020.75077 C758.401705,1033.29636 740.594649,1031.44024 726.096033,1015.14336 Z" id="Combined-Shape" fill="#E96868"></path>
        <path d="M1314.71371,537.332974 C1314.71515,537.248443 1314.71587,537.165527 1314.71587,537.084263 C1314.71587,522.521733 1302.83758,510.716469 1288.18496,510.716469 C1274.90779,510.716469 1263.90854,520.409433 1261.96053,533.063675 C1257.35605,530.331059 1253.21227,526.296546 1249.55452,518.657954 C1241.71529,502.287069 1223.607,479.712174 1195.22967,450.933271 C1182.02118,457.368523 1174.19903,471.119406 1171.76322,492.185917 C1170.42557,502.736428 1169.68638,514.061712 1169.54566,526.161771 C1164.22103,529.273714 1162.50568,520.023851 1164.3996,498.412183 C1166.3896,475.704178 1176.44232,458.954698 1194.55776,448.163745 C1195.4099,447.460477 1197.08481,446.746286 1199.58248,446.021173 C1207.51364,443.718641 1269.74495,440.813507 1290.3182,448.942706 C1310.89144,457.071905 1313.93094,466.557167 1319.40432,479.556393 C1322.12295,486.013119 1323.23794,499.740285 1322.74929,520.737892 C1322.73489,521.357736 1322.69453,521.976704 1322.62836,522.593174 C1321.98494,528.587103 1319.01524,533.767589 1314.71371,537.332974 Z" id="Combined-Shape" fill="#7821D1" transform="translate(1243.257600, 490.451506) rotate(-10.000000) translate(-1243.257600, -490.451506) "></path>
        <path d="M898.82702,100.525825 L974.023644,87.5183801 C973.833276,123.661004 973.107582,151.557764 971.846562,171.208659 C971.119248,182.542646 970.136647,192.700587 968.898761,201.68248 C968.610684,203.77272 967.508494,205.664512 965.832179,206.945941 C962.322024,209.629217 957.301256,208.9589 954.617977,205.448748 C948.962903,198.051006 943.192431,190.148618 937.306562,181.741583 C927.501409,167.736471 914.674895,140.664552 898.82702,100.525825 Z M1195.65173,22.500273 L1266.98484,-4.61638034 C1273.69431,30.8985261 1278.3049,58.4212125 1280.81662,77.9516791 C1282.26529,89.2162073 1283.23897,99.3750065 1283.73766,108.428077 C1283.85371,110.534881 1283.13274,112.602223 1281.73173,114.179965 C1278.79806,117.483711 1273.74164,117.783717 1270.43789,114.85005 C1263.47516,108.667265 1256.30286,102.011123 1248.92099,94.8816267 C1236.62369,83.0047391 1218.86727,58.8776212 1195.65173,22.500273 Z M1048.52594,69.0135592 L1123.13683,47.3851412 C1129.38683,81.5422495 1133.42612,108.423917 1135.2547,128.030144 C1136.30937,139.338368 1136.92792,149.52496 1137.11035,158.589919 C1137.15281,160.699489 1136.36013,162.740411 1134.90491,164.268297 C1131.85773,167.467647 1126.79391,167.591004 1123.59456,164.543825 C1116.85185,158.12181 1109.91621,151.219414 1102.78766,143.836637 C1090.91234,131.537814 1072.8251,106.596789 1048.52594,69.0135592 Z M1339.57754,-34.3395813 L1410.45223,-66.1413413 C1421.39515,-33.1864797 1429.13634,-7.12858343 1433.67579,12.0323474 C1436.29399,23.0837395 1438.32422,33.0851105 1439.76647,42.0364606 C1440.10211,44.1195925 1439.60119,46.2509718 1438.37277,47.9665155 C1435.80051,51.5588154 1430.80314,52.3857182 1427.21084,49.8134579 C1419.63998,44.3923459 1411.81121,38.5223772 1403.72455,32.2035517 C1390.25314,21.6771454 1368.8708,-0.503898913 1339.57754,-34.3395813 Z M495.509593,447.771425 C531.476234,471.618296 555.289785,489.793089 566.950246,502.295802 C573.949826,509.800971 580.479779,517.088343 586.540106,524.157917 C589.415668,527.512363 589.027461,532.562782 585.673019,535.438347 C584.071067,536.811606 581.991456,537.496385 579.886998,537.343581 C570.84401,536.686976 560.703751,535.53615 549.466222,533.891102 C529.982565,531.038915 502.544536,525.948688 467.152135,518.620422 L495.509593,447.771425 Z M363.368152,724.691341 C395.665925,753.311725 416.718282,774.623847 426.525223,788.627707 C432.412165,797.03399 437.864363,805.159235 442.881817,813.003443 C445.262546,816.725444 444.175234,821.672685 440.453236,824.053417 C438.675753,825.190363 436.521078,825.579052 434.458367,825.134852 C425.594766,823.226096 415.713356,820.675218 404.814135,817.482218 C385.91704,811.946187 359.454459,803.086863 325.426392,790.904244 L363.368152,724.691341 Z M432.981885,588.533122 C465.238106,619.557057 486.269687,642.070955 496.076628,656.074815 C501.96357,664.481098 507.415769,672.606343 512.433223,680.450551 C514.813951,684.172552 513.72664,689.119793 510.004641,691.500525 C508.227158,692.637471 506.072484,693.02616 504.009772,692.58196 C495.146172,690.673204 485.264761,688.122326 474.365541,684.929326 C455.468446,679.393295 429.851403,670.298953 397.514414,657.646299 L432.981885,588.533122 Z" id="Combined-Shape" fill="#FFE640" transform="translate(882.647380, 379.586413) scale(-1, 1) rotate(37.000000) translate(-882.647380, -379.586413) "></path>
        <path d="M632.268288,1082.2668 C632.400031,1081.17656 632.622004,1080.09913 632.931896,1079.04559 C636.026991,1068.52322 647.066131,1062.50222 657.588504,1065.59732 C658.41437,1065.84024 659.221065,1066.14414 660.001937,1066.5065 C668.716243,1070.55036 672.502386,1080.8929 668.458552,1089.60722 L656.720768,1114.90151 C656.119263,1116.19772 655.074885,1117.2367 653.775574,1117.83148 C648.005227,1120.47292 642.396658,1121.0618 636.949868,1119.59813 C627.491761,1117.05653 625.688148,1109.41009 625.9875,1107.26751 C627.57136,1095.93122 627.402741,1098.36806 632.238576,1082.51263 C632.238576,1082.51263 632.24848,1082.43068 632.268288,1082.2668 Z M930.775084,247.010563 L937.622276,240.115886 L1042.82936,301.629036 L1107.44634,318.782151 L1210.40865,302.527562 C1216.11592,313.616329 1217.18894,322.355407 1213.62772,328.744796 C1210.06649,335.134185 1155.2566,343.385169 1049.19803,353.497747 L990.125049,294.793108 L958.022766,271.329027 L985.372822,356.770974 L934.281685,363.044176 L925.190632,244.858908 L930.775084,247.010563 Z M1106.31274,261.292336 C1094.29073,259.172531 1084.93485,256.013782 1078.24509,251.816089 C1071.55533,247.618396 1051.72198,214.760552 1018.74504,153.242558 C1068.30634,135.452943 1092.30354,138.149132 1090.73663,161.331126 C1089.16972,184.513119 1094.36175,217.833523 1106.31274,261.292336 Z" id="Combined-Shape" fill="#82D121" transform="translate(920.818756, 631.018642) rotate(-10.000000) translate(-920.818756, -631.018642) "></path>
        <path d="M330.806453,949.866984 L459.474797,949.866984 C455.467812,949.120007 451.928041,948.007807 448.468198,946.390067 C439.417491,942.158173 432.781454,934.951669 427.631783,924.275478 C424.522183,917.82872 421.907801,911.573879 419.251363,904.471558 C418.079131,901.337447 414.403766,891.038556 413.638773,889.000993 C408.05017,874.115713 404.382833,870.249919 391.038551,867.139255 C383.546128,865.392709 379.143563,867.330702 374.16222,874.185409 C369.095691,881.157339 365.497812,889.820813 358.471057,910.382289 L358.235107,911.07275 C356.269476,916.824729 355.304964,919.606803 354.116068,922.899841 C349.655502,935.254837 341.714355,944.445745 330.806453,949.866984 Z M490.150048,949.866984 L492.868705,949.866984 C509.411684,949.866984 523.553669,961.773928 526.371753,978.075111 L553.686162,1136.07511 C556.884925,1154.57833 544.478209,1172.17127 525.974987,1175.37003 C524.06209,1175.70073 522.124385,1175.86698 520.183114,1175.86698 L261.698817,1175.86698 C242.921136,1175.86698 227.698817,1160.64467 227.698817,1141.86698 C227.698817,1139.71971 227.902233,1137.57727 228.306337,1135.46837 L258.582035,977.468372 C260.794926,965.91994 268.695221,956.677312 279.043715,952.417931 C276.806922,951.906776 274.526958,951.334036 272.203527,950.700535 C264.477438,948.593957 259.921924,940.623005 262.028502,932.896915 C264.13508,925.170826 272.106032,920.615312 279.832121,922.72189 C294.987032,926.853994 306.553189,927.530014 314.348487,925.264309 C320.577677,923.453794 324.414628,919.768026 326.839327,913.052028 C327.953723,909.965344 328.880481,907.292168 330.79321,901.694996 L331.029264,901.004228 C339.075278,877.460231 343.264874,867.371937 350.702528,857.137159 C362.186208,841.33474 378.076054,834.340088 397.622185,838.896455 C410.297185,841.851104 419.723849,846.778369 426.894583,854.337146 C432.877794,860.644138 436.618711,867.701975 440.788346,878.807822 C441.662606,881.13642 445.346075,891.458021 446.413617,894.312228 C448.781039,900.64183 451.064122,906.104048 453.751948,911.676391 C458.044823,920.57629 461.013774,921.964501 476.265937,922.213138 C480.667718,922.284895 485.792778,921.436704 491.629135,919.583292 C499.261651,917.159486 507.41391,921.381979 509.837716,929.014495 C512.261522,936.64701 508.039029,944.79927 500.406513,947.223075 C496.910747,948.333202 493.492186,949.216364 490.150048,949.866984 Z" id="Combined-Shape" fill="#6674A9" fill-rule="nonzero" transform="translate(390.943741, 1006.696826) rotate(-26.000000) translate(-390.943741, -1006.696826) "></path>
        <path d="M471.624453,946.464203 L491.53574,946.464203 C508.59643,946.464203 523.01541,959.107763 525.244327,976.022226 L531.50732,1023.54986 C533.951595,1042.0986 520.950724,1059.13691 502.414865,1061.67701 C489.286991,1063.47602 479.796937,1064.47193 473.944702,1064.66474 C459.34008,1065.14591 406.960976,1055.92154 391.985809,1055.41911 C343.634018,1053.79685 334.184618,1057.53078 312.323569,1057.53078 C293.600633,1057.53078 277.646789,1056.61941 264.462035,1054.79667 C245.86126,1052.22519 232.866949,1035.06169 235.438429,1016.46091 C235.524906,1015.83538 235.628793,1015.21239 235.749969,1014.59264 L243.698655,973.939856 C246.819251,957.979867 260.80459,946.464203 277.066797,946.464203 L292.578792,946.464203 L292.578792,927.020097 C292.578792,922.325677 296.384371,918.520097 301.078792,918.520097 L304.078792,918.520097 C308.773212,918.520097 312.578792,922.325677 312.578792,927.020097 L312.578792,946.464203 L451.624453,946.464203 L451.624453,924.153379 C451.624453,919.458959 455.430033,915.653379 460.124453,915.653379 L463.124453,915.653379 C467.818874,915.653379 471.624453,919.458959 471.624453,924.153379 L471.624453,946.464203 Z" id="Combined-Shape" fill="#6381DD" transform="translate(383.458257, 990.168153) rotate(-26.000000) translate(-383.458257, -990.168153) "></path>
        <rect id="Rectangle" fill="#C7E0FF" transform="translate(419.726906, 1055.848161) rotate(-26.000000) translate(-419.726906, -1055.848161) " x="390.226906" y="1012.34816" width="59" height="87" rx="29.5"></rect>
        <path d="M1436.49498,941.208679 L1403.28172,824.774556 L1374.21124,773.712161 C1373.66476,772.752252 1373.9999,771.531076 1374.95981,770.984588 C1375.91972,770.4381 1377.14089,770.773243 1377.68738,771.733152 L1406.87701,823.004836 C1406.95615,823.14386 1407.01834,823.291879 1407.06222,823.445718 L1440.34154,940.111433 C1440.64454,941.173632 1440.02908,942.280342 1438.96688,942.583338 C1437.90468,942.886334 1436.79798,942.270879 1436.49498,941.208679 Z M1178.88265,853.69799 C1179.13299,854.773816 1178.46381,855.84889 1177.38798,856.099234 C1176.31215,856.349578 1175.23708,855.680393 1174.98674,854.604567 L1161.04272,794.681735 C1160.79237,793.605909 1161.46156,792.530836 1162.53738,792.280491 C1163.61321,792.030147 1164.68828,792.699332 1164.93863,793.775158 L1178.88265,853.69799 Z" id="Combined-Shape" fill="#FF66D5"></path>
    </g>
</svg>