<?xml version="1.0" encoding="UTF-8"?>
<svg width="1794px" height="1276px" viewBox="0 0 1794 1276" version="1.1" xmlns="http://www.w3.org/2000/svg" xmlns:xlink="http://www.w3.org/1999/xlink">
    <!-- Generator: Sketch 56.1 (81669) - https://sketch.com -->
    <title>Home Plants</title>
    <desc>Created with Sketch.</desc>
    <g id="Home-Plants" stroke="none" stroke-width="1" fill="none" fill-rule="evenodd">
        <path d="M260.420026,331.475755 L1103.56972,807.379765 C1111.46436,811.835781 1115.23006,821.157685 1112.6456,829.846868 C1110.71209,836.347513 1103.87485,840.049905 1097.37421,838.11639 C1096.46917,837.847203 1095.59821,837.474533 1094.77857,837.005766 L250.722692,354.273401 C244.607322,350.775899 242.075956,343.256092 244.831405,336.772437 C247.216429,331.160405 253.699324,328.544397 259.311357,330.929421 C259.690824,331.090688 260.06096,331.273085 260.420026,331.475755 Z" id="Path-215-Copy" fill="#FFE640" transform="translate(678.531415, 585.050986) rotate(69.000000) translate(-678.531415, -585.050986) "></path>
        <polygon id="Rectangle" fill="#FBCEE4" fill-rule="nonzero" points="253.730469 193.511719 531.671875 196.940908 702.884107 1131 127 1131"></polygon>
        <path d="M1002,469 L1430,469 C1531.06811,469 1613,550.931891 1613,652 L1613,926 L819,926 L819,652 C819,550.931891 900.931891,469 1002,469 Z" id="Rectangle-Copy-5" fill="#55ABD5"></path>
        <ellipse id="Oval" fill="#FF8ADF" cx="415" cy="1131.5" rx="288" ry="41.5"></ellipse>
        <rect id="Rectangle-Copy" fill="#6381DD" x="777" y="920" width="863" height="110" rx="55"></rect>
        <path d="M406.153081,157.429314 C369.260035,157.625056 362.265124,168.927334 362.265124,199.305152 C362.265124,219.55703 371.593036,256.756318 390.248861,310.903016 L424.72539,311.427509 L444.265124,199.305152 C443.45246,171.257432 430.748445,157.298819 406.153081,157.429314 Z" id="Path-99" fill="#FF66D5" transform="translate(403.265124, 234.427509) rotate(-179.000000) translate(-403.265124, -234.427509) "></path>
        <path d="M391.009782,177.639376 C391.572592,169.428965 388.536835,162.161493 383.570316,159.988206 C377.820955,157.472357 372.172558,162.231905 368.776884,172.649579 C365.304074,183.303897 371.585679,189.919823 383.983688,192.492985 C384.251799,192.548631 384.522934,192.602271 384.796881,192.653929 C381.617434,210.681523 375.112888,242.034532 365.300266,286.597795 L369.206683,287.45797 C379.044798,242.778934 385.554223,211.412753 388.751866,193.245042 C391.550509,193.565462 394.512873,193.717084 397.45707,193.718835 C394.874278,204.303557 391.72652,218.760425 387.572998,238.509663 C385.495426,248.388141 381.575601,265.366767 375.81587,289.433959 L379.70602,290.364945 C385.473822,266.264028 389.400156,249.257208 391.487366,239.332905 C395.765353,218.991859 399.009822,204.219395 401.621338,193.621889 C405.667855,193.430669 409.508769,192.96247 412.642656,192.269472 C419.378759,190.779916 422.35967,182.872966 421.068595,174.625005 C420.489195,170.923539 419.062967,167.755787 416.972005,165.958564 C414.337114,163.693823 410.977571,163.815737 407.797297,166.410343 C404.80564,168.851067 402.239035,174.854354 398.454768,189.712951 C395.41114,189.747648 392.322969,189.616718 389.429398,189.296361 C390.314581,183.983359 390.841175,180.099057 391.009782,177.639376 Z M410.325905,169.509721 C412.064276,168.091482 413.266212,168.047865 414.364686,168.992025 C415.625919,170.07608 416.671268,172.397873 417.116718,175.243602 C418.122629,181.669811 415.946414,187.442281 411.778999,188.363823 C409.173214,188.940041 406.009922,189.350451 402.644095,189.559726 C405.922167,176.843021 408.162211,171.274956 410.325905,169.509721 Z M384.796551,188.576449 C374.428523,186.424602 370.010657,181.771608 372.579953,173.889202 C375.344775,165.406937 378.978451,162.345066 381.966772,163.652718 C385.125658,165.035007 387.478327,170.667195 387.019147,177.365824 C386.856845,179.73353 386.341851,183.516658 385.474751,188.711243 C385.246356,188.667801 385.020239,188.622875 384.796551,188.576449 Z" id="Path-100" fill="#FFFFFF" transform="translate(393.331655, 224.846026) rotate(-192.000000) translate(-393.331655, -224.846026) "></path>
        <path d="M436.651053,129.896774 C440.837604,144.986416 444.923921,155.679631 448.910004,161.976417 C454.674085,171.081896 468.171193,181.511766 489.401327,193.266026 L564.93416,193.266026 C574.683703,193.266026 582.58727,201.169592 582.58727,210.919136 C582.58727,211.704046 582.534921,212.488083 582.430571,213.266026 C580.900022,224.676492 571.082282,233.142271 559.570797,232.977873 L233.272566,228.317938 C222.541247,228.164682 213.182322,220.987292 210.251308,210.662862 C208.190243,203.40281 212.404855,195.846552 219.664908,193.785487 C220.878916,193.440841 222.134814,193.266026 223.396795,193.266026 L323.084291,193.266026 C339.325237,179.003483 349.522038,167.073395 353.674696,157.475763 C358.405827,146.541159 364.93544,123.25111 373.263534,87.6056142 C376.220076,74.9510247 387.503443,66 400.498818,66 C413.334206,66 424.382561,75.0659534 426.888241,87.6543908 C428.101916,93.7518217 429.307752,99.5053706 430.505747,104.915038 L811.992322,185.268457 C817.597848,186.449162 821.184874,191.95049 820.004169,197.556016 C819.941504,197.853525 819.865789,198.148134 819.777242,198.438991 C817.909299,204.574779 811.668762,208.271891 805.390024,206.96248 L630.581307,170.506674 L436.651053,129.896774 Z" id="Combined-Shape" fill="#FFEECB"></path>
        <path d="M920.076279,1024.66169 L967.700353,1024.66169 L900.193463,1139.85792 C893.193187,1151.80345 877.93979,1155.98046 865.830192,1149.268 L865.302803,1148.97566 C852.985305,1142.14796 848.534945,1126.62771 855.362645,1114.31021 L897.773477,1037.79905 C902.267402,1029.69179 910.806815,1024.66169 920.076279,1024.66169 Z M1511.62407,1024.66169 C1520.89354,1024.66169 1529.43295,1029.69179 1533.92688,1037.79905 L1576.33771,1114.31021 C1583.16541,1126.62771 1578.71505,1142.14796 1566.39755,1148.97566 L1565.87016,1149.268 C1553.76056,1155.98046 1538.50717,1151.80345 1531.50689,1139.85792 L1464,1024.66169 L1511.62407,1024.66169 Z" id="Combined-Shape" fill="#6381DD"></path>
        <path d="M980.159433,273.303817 C952.913866,318.168837 937.448709,354.461623 933.763963,382.182176 C929.612515,413.41375 942.380592,486.628439 972.068195,601.826244 L972.068182,601.826247 C985.00123,652.010793 1036.16815,682.209098 1086.3527,669.276049 C1094.88103,667.078213 1103.05749,663.69071 1110.64139,659.21326 C1110.64139,659.21326 1110.64139,659.21326 1110.64139,659.21326 C1139.49211,642.180096 1152.69498,506.987818 1150.25,253.636427 L1106.68211,234.023633 C1060.6393,213.29671 1006.36849,230.145604 980.159433,273.303817 Z" id="Combined-Shape" fill="#FF8ADF"></path>
        <path d="M1307.05919,288.439286 C1277.70305,332.351373 1261.06469,369.607538 1257.14409,400.207782 C1253.03582,432.272818 1276.60299,495.312021 1327.84562,589.325389 L1327.84562,589.325389 C1354.27703,637.818328 1415.01521,655.702734 1463.50815,629.271328 C1466.30407,627.747394 1469.0256,626.090785 1471.66345,624.307165 C1474.96354,622.075757 1478.24654,619.95984 1481.51247,617.959414 C1510.36319,600.287909 1522.58278,485.160349 1518.17123,272.576733 L1414.13317,246.923894 C1373.26136,236.846066 1330.4547,253.443332 1307.05919,288.439286 Z" id="Combined-Shape-Copy-7" fill="#FF8ADF" transform="translate(1387.867792, 442.747994) scale(-1, 1) rotate(-3.000000) translate(-1387.867792, -442.747994) "></path>
        <path d="M1160.39865,981.004697 C1206.02666,938.79239 1238.43285,916.786918 1257.61721,914.988281 C1259.96001,914.768631 1351.20558,919.760329 1354.11445,920 C1383.32508,922.406762 1405.05391,948.037724 1402.64715,977.248356 C1400.8763,998.741043 1386.27546,1017.02492 1365.70703,1023.50653 L1293.80545,1046.16457 L1196.09479,1148 L1182.10553,1160.02727 C1161.04504,1178.13402 1131.08962,1181.61287 1106.44,1168.81464 L1092.35999,1161.50421 C1078.56536,1154.34195 1069.07822,1142.15142 1064.97754,1128.34193 C1051.33756,1114.62331 1039.35286,1099.59503 1029.02343,1083.2571 C992.274442,1025.13165 915.334478,1031.4232 915.078087,990.174429 C914.90716,962.675252 954.990448,920.457855 1035.32795,863.522239 L1123.74081,915.459677 L1160.39865,981.004697 Z M1012.58858,230.139592 C1026.0501,238.8594 1045.97816,251.556838 1072.37274,268.231902 L1071.85516,270.313981 L1071.84464,366.288071 L995.034591,377.92344 L933,334.291016 C928.472857,329.451935 926.209286,322.821726 926.209286,314.400391 C926.209286,306.779018 927.400917,300.260463 929.78418,294.844727 C927.400917,292.870872 926.209286,286.231137 926.209286,274.925522 C926.209286,270.477444 927.8028,263.591818 931.128179,254.072341 C929.200848,252.24145 927.993413,249.733293 927.505875,246.54787 C925.191658,231.427489 928.990806,222.657137 938.903318,220.236816 L1020.21875,199 C1019.93446,214.008637 1017.75254,223.991072 1013.673,228.947305 C1013.34985,229.339895 1012.98838,229.737324 1012.58858,230.139592 Z M1481.74666,232.279046 L1491.49619,560.113205 C1492.32247,587.897504 1481.31099,614.72563 1461.20346,633.917741 L1414.07379,678.901775 L1372.58733,351.62224 L1390.49381,179.196497 L1401.53428,185.100454 L1473.41666,212.407401 C1479.69086,216.788778 1482.46753,223.412657 1481.74666,232.279039 Z M1246.42786,168.719399 C1250.18274,165.645663 1254.97986,163.801966 1260.20675,163.801966 C1272.24283,163.801966 1282,173.5782 1282,185.637796 C1282,191.541841 1277.45719,207.975631 1267.25089,213.785545 C1259.07259,218.441026 1247.51698,216.734258 1241.77195,215.084791 C1235.31585,234.518671 1217.22341,248.651386 1195.69658,249.180799 C1189.38717,249.335967 1182.77534,248.34084 1175.86107,246.195418 C1161.1305,241.624685 1149.5143,230.742048 1143.81631,216.909998 C1138.30596,218.605351 1126.21712,220.605943 1117.74911,215.785545 C1107.54281,209.975631 1103,193.541841 1103,187.637796 C1103,175.5782 1112.75717,165.801966 1124.79325,165.801966 C1128.89564,165.801966 1132.73329,166.9377 1136.01007,168.912476 C1134.90109,160.408467 1133.89904,153.080615 1133.00391,146.928919 C1130.42784,129.225209 1142.25987,112.357994 1168.5,96.3272729 C1181.55955,92.1730565 1191.13004,90.1780606 1197.21147,90.3422852 C1213.0971,90.7712652 1227.5724,97.9390589 1231.31055,101.124232 C1243.98784,111.926213 1247.614,144.676715 1246.42786,168.719399 Z" id="Combined-Shape" fill="#FFBEBE"></path>
        <path d="M1272.1816,975.155257 L1437.33199,971.930479 C1492.54994,970.852276 1536.43887,925.215227 1535.36067,869.997278 C1535.21837,862.709558 1534.27968,855.459241 1532.56135,848.375566 L1433.63206,440.548244 C1428.01926,417.409972 1404.71191,403.20277 1381.57364,408.815569 C1365.25504,412.774077 1352.71985,425.847739 1349.4508,442.31831 L1312.16902,630.156167 C1311.64008,632.82112 1311.21997,635.506522 1310.90974,638.205689 L1272.1816,975.155257 Z" id="Path-177-Copy-2" fill="#E85353"></path>
        <path d="M1262.32974,164.102284 C1261.6312,164.034621 1260.92301,164 1260.20675,164 C1255.15794,164 1250.51012,165.720206 1246.81526,168.607571 C1246.65857,168.620625 1246.537,168.648883 1246.45508,168.696497 C1243.24167,170.56419 1232.77081,134.316409 1215,122.848819 C1210.50797,119.950093 1198.80844,116.716958 1179.90141,113.149414 L1180.98024,100.006776 L1175,113.59375 C1166.33333,118.854762 1159.05183,129.175304 1153.15549,144.555376 C1146.69304,161.412078 1142.34059,170.657218 1140.09812,172.290796 C1136.16292,168.400902 1130.75792,166 1124.79325,166 C1123.67028,166 1122.56715,166.085101 1121.48994,166.249218 C1118.06881,162.641428 1117.78245,157.343749 1120.63086,150.35618 C1124.29304,141.372327 1127.01616,124.960414 1138.72461,109.289849 C1142.78633,103.85365 1155.71851,97.9369184 1177.52115,91.5396533 C1179.14623,91.0628309 1180.83177,91.6651729 1181.81021,92.9273783 C1182.31083,91.8535994 1183.27583,91.0316277 1184.47288,90.7346255 C1204.05312,85.8764453 1218.81932,87.4913401 1228.77148,95.57931 C1244.40098,108.281168 1261.17787,140.414811 1262.88672,157.456263 C1263.17038,160.285089 1262.93087,162.451109 1262.32974,164.102287 Z" id="Combined-Shape" fill="#7821D1"></path>
        <path d="M1419.07531,130.888443 C1417.50598,129.673066 1399.22854,129.673066 1364.24302,130.888443 L1188.9082,216.801966 L1028.09233,122.990652 L975.278352,122.571795 L1165.1816,220.584859 L1216,229.420779 C1352.95288,164.947932 1420.64465,132.10382 1419.07531,130.888443 Z" id="Path-222" fill="#FFEECB"></path>
        <path d="M1448.81343,203.128901 L1395.09432,182.721886 C1395.01853,183.226932 1394.94612,183.726505 1394.87708,184.220606 L1394.69662,184.126118 C1394.73509,184.318066 1394.77322,184.509181 1394.81101,184.699463 C1393.01173,197.905154 1393.6628,207.144982 1396.76423,212.418947 C1396.97105,212.77064 1397.20175,213.129269 1397.45634,213.494836 C1396.42941,217.380905 1393.29461,219.972687 1392.0001,223.519475 C1386.35718,238.980334 1387.25602,250.810416 1386.40198,279.203193 L1415.61997,335.054373 L1408.46279,363.500197 C1404.18729,380.492925 1391.16337,393.909294 1374.30502,398.687239 L1181.51484,453.327273 L1012.63537,393.71927 C996.499212,388.023822 984.503079,374.323159 980.988854,357.5761 L974.35009,325.939034 C982.945328,322.292096 992.099572,317.680583 1001.81282,312.104497 C1021.20596,300.971476 1014.99293,282.515862 1013.2265,279.244922 C1012.04889,277.064295 1010.12624,274.874971 1007.45855,272.676948 C1012.39403,270.126094 1015.85056,262.960771 1017.82813,251.180978 C1018.32771,248.205115 1019.19746,237.117986 1016.21307,234.772205 C1014.77605,233.642677 1011.6379,233.5879 1006.79861,234.607875 C1011.50849,230.770069 1014.64665,226.715525 1016.21307,222.444243 C1017.7795,218.172961 1018.97582,210.408365 1019.80205,199.150456 L951.496011,217.027798 L939.61341,160.401196 C935.870487,142.564278 947.295927,125.070362 965.132845,121.327439 C972.022078,119.881793 979.193073,120.676981 985.598218,123.596833 L1186.64055,215.244074 L1413.59017,131.524153 C1430.68923,125.216444 1449.66417,133.964564 1455.97187,151.063626 C1458.27298,157.301511 1458.63617,164.089011 1457.01385,170.536831 L1448.81343,203.128901 Z" id="Combined-Shape" fill="#FFE640"></path>
        <polygon id="Rectangle" fill="#FFC635" transform="translate(1188.469176, 328.232139) rotate(2.000000) translate(-1188.469176, -328.232139) " points="1164.28192 207.790773 1182.69844 215.376721 1212.40643 203.284985 1212.65643 453.180794 1164.65643 453.180794"></polygon>
        <path d="M1184.60024,442.993166 C1202.02036,421.071952 1228.38033,406.783166 1257.90983,405.301439 L1379.90997,399.179735 C1407.48951,397.795853 1430.969,419.031629 1432.35289,446.611168 C1432.43755,448.298517 1432.43665,449.989072 1432.35016,451.676329 L1408.3887,919.165833 C1405.66659,972.274386 1361.8552,1013.96328 1308.677,1014.04687 L1197.53676,1014.22157 C1178.74847,1014.25111 1161.16223,1009.09729 1146.13114,1000.109 C1132.05368,1008.21859 1115.75892,1012.89197 1098.40516,1013.00487 L985.596049,1013.73878 C982.258253,1013.7605 978.921749,1013.60055 975.601337,1013.25964 C925.056836,1008.07027 888.289242,962.889036 893.478617,912.344536 L937.888944,479.788008 C938.421353,474.602343 939.358434,469.466247 940.691617,464.426683 C954.816067,411.034883 1009.5488,379.202406 1062.9406,393.326856 L1135.14224,412.427324 C1154.85818,417.643046 1171.85029,428.514382 1184.60024,442.993166 Z" id="Combined-Shape" fill="#FF6C6C"></path>
        <path d="M337.529736,567.268413 C304.909198,570.501768 310.984935,504.111757 307.940782,464.445362 C304.896628,424.778968 327.773103,387.568644 360.393641,384.335289 C393.014179,381.101934 417.856792,406.808376 420.900945,446.47477 C423.945098,486.141165 370.150274,564.035058 337.529736,567.268413 Z M503.218047,672.908178 C482.297811,683.50211 469.969551,641.989533 458.160225,618.956738 C446.350898,595.923942 452.404375,567.49339 473.32461,556.899458 C494.244846,546.305526 517.124011,555.167457 528.933337,578.200252 C540.742663,601.233047 524.138282,662.314246 503.218047,672.908178 Z M302.795812,842.567149 C279.765908,838.150006 246.968492,784.011777 251.971646,758.616141 C256.9748,733.220506 276.524986,718.395519 299.55489,722.812662 C322.584795,727.229804 336.240292,752.890441 331.237138,778.286076 C326.233984,803.681712 325.825717,846.984291 302.795812,842.567149 Z M1315.86678,306.871934 C1297.44267,308.401322 1281.44463,291.309981 1280.13417,268.697355 C1278.82371,246.08473 1292.69706,226.513761 1311.12118,224.984373 C1329.54529,223.454985 1345.54333,240.546326 1346.85379,263.158952 C1348.16425,285.771577 1334.2909,305.342546 1315.86678,306.871934 Z" id="Combined-Shape" fill="#FFFFFF"></path>
        <path d="M1183.02734,455.231648 C1183.02734,462.245759 1170.15094,642.755809 1144.27557,998.551318 C1144.08241,1001.20735 1140.09978,1000.92315 1140.28572,998.266604 C1153.20128,813.742095 1162.88796,676.214928 1169.34579,585.684751 C1172.57479,540.418475 1174.99656,506.901634 1176.61117,485.13344 C1177.41868,474.246574 1178.02436,466.297385 1178.42839,461.283865 C1178.63104,458.769281 1178.78315,456.990662 1178.88542,455.941115 C1178.94057,455.375146 1178.98138,455.014755 1179.01699,454.802162 C1179.03842,454.674255 1179.05959,454.573855 1179.10224,454.441352 C1179.13743,454.243043 1179.13743,454.243043 1179.7469,453.49209 C1180.78192,452.914923 1180.78192,452.914923 1182.17229,453.408983 C1182.7766,454.023726 1182.7766,454.023726 1182.88615,454.330604 C1182.99327,454.610963 1183.00946,454.745936 1183.02243,455.002691 C1183.02598,455.072976 1183.02734,455.146701 1183.02734,455.231648 Z" id="Path-216" fill="#E85353"></path>
        <path d="M480.466399,748.120321 C456.547789,800.638824 448.503998,844.63579 455.648215,880.052331 C463.030856,916.65083 459.036915,968.635008 443.983607,1036.61266 C444.64251,1053.32718 444.924181,1071.14717 444.834695,1090.08044 C444.790319,1099.46918 437.143272,1107.04428 427.754536,1106.9999 C418.3658,1106.95553 410.790699,1099.30848 410.835074,1089.91974 C410.839218,1089.04298 410.842537,1088.16882 410.845032,1087.29725 C403.530737,1083.91457 399.450792,1075.68867 401.542899,1067.61076 C404.592785,1055.83473 407.345981,1044.51006 409.803991,1033.63965 C408.504343,1037.05205 407.132018,1040.5375 405.687402,1044.09677 C402.156464,1052.79636 392.241664,1056.98637 383.542078,1053.45544 C374.842491,1049.9245 370.652474,1040.0097 374.183412,1031.31011 C388.568274,995.86844 394.53237,969.883383 392.637166,954.49872 C391.371968,944.228254 387.549536,940.992503 375.927595,940.992503 C328.160115,940.992503 299.354549,915.247917 294.174875,868.291284 C292.042519,857.973051 290.181656,851.972148 288.592285,850.288574 C275.418206,836.333663 252.389496,826.859809 246.479974,817.293311 C237.743794,803.150939 234.723813,791.742387 237.420031,783.067654 C246.153895,784.876576 252.16548,786.225594 255.454784,787.114706 C263.347229,789.248066 265.572147,790.000374 269.656946,793.450889 C276.295355,799.058492 283.422019,807.005965 291.036938,817.293311 L291.036938,762.93457 L312.443359,812.791016 C311.868504,806.761471 313.087905,799.319088 316.101563,790.463867 C318.629435,783.036058 329.43217,776.62818 348.509766,771.240234 C349.616655,773.402196 348.732281,783.562326 345.856642,801.720625 C343.876255,814.225828 330.075686,820.952768 329.986328,842.079102 C329.963647,847.441528 329.963042,858.768074 329.984514,876.058737 C335.527617,897.630836 349.864851,906.992503 375.927595,906.992503 C380.594138,906.992503 384.99446,907.414303 389.105512,908.241201 C388.592727,907.009747 388.071158,905.809556 387.540809,904.640659 C369.236009,864.296651 366.875018,812.479679 379.769359,749.287723 C342.689003,727.003192 324.881969,680.756496 324.881969,613.066114 L324.881969,597.821804 C324.827086,597.256877 324.772708,596.709707 324.718834,596.180286 C323.888784,588.023336 324.64752,578.845044 322.321511,572.23595 C312.843856,545.306248 278.558626,515.222714 276.311746,498.650013 C272.990131,474.150211 275.976785,455.575342 285.271706,442.925403 C294.497841,449.221732 301.080688,453.968802 305.020247,457.166614 C314.472931,464.83953 318.85157,473.116817 322.321511,480.275989 C327.960684,491.910713 331.431062,506.34919 332.732644,523.591419 L367.324441,452.228516 L367.324441,532.481608 C377.446427,518.844763 387.24305,506.922124 396.71431,496.713692 C404.658857,488.150801 420.225722,486.296883 443.414905,491.151938 C442.679105,495.773158 434.849774,509.549715 419.926913,532.481608 C409.649882,548.274275 377.193101,550.14062 364.264669,578.790638 C360.977808,586.074478 359.293131,602.491399 359.210638,628.0414 C361.593869,680.45407 376.89381,711.440316 403.668559,723.47673 C422.454823,731.921973 442.134332,730.91404 457.951966,722.067255 C472.303581,714.040413 480.971858,700.835628 480.971858,687.70934 L480.971858,680.628614 C480.893783,680.29657 480.807535,679.978431 480.713113,679.674199 C474.450917,659.497111 455.506075,658.355773 449.956055,646.975996 C441.897095,630.451885 438.581591,621.099966 440.009545,618.920239 C459.697287,619.003773 471.835707,622.227626 476.424805,628.591797 C481.895795,636.178979 485.186974,643.27423 486.29834,649.877552 L492.397493,591.997983 L506.962716,646.975996 C509.242377,635.575618 512.736626,626.223699 517.445464,618.920239 C520.342944,614.426216 522.25069,613.056276 529.174538,608.708606 C532.060164,606.896644 537.414657,603.848956 545.238015,599.56554 C550.352668,607.07293 550.800183,618.86594 546.580562,634.944569 C543.726232,645.820834 525.963877,657.540539 517.445464,674.737415 C515.881553,677.89462 515.550581,681.151676 514.971858,684.842834 L514.971858,687.70934 C514.971858,711.695046 501.641595,733.986247 480.466399,748.120321 Z M437.526366,762.981198 C429.133965,763.663959 420.557569,763.208055 412.000193,761.563419 C401.651795,815.706877 404.026809,858.687081 418.502914,890.592597 C420.764639,895.577468 422.877162,900.962223 424.841862,906.748636 C424.379123,899.472921 423.537591,892.813718 422.31954,886.775384 C415.051981,850.747394 420.252796,809.493972 437.526366,762.981198 Z" id="Combined-Shape" fill="#C8FF57"></path>
        <path d="M1320.00567,353.863401 L1320.00567,353.863401 L1320.08511,352.753421 C1321.4878,333.155242 1332.57711,315.549317 1349.64709,305.819369 C1366.18718,296.391464 1375.43114,277.93858 1373.0781,259.046172 L1371.3914,245.503826 C1347.88059,256.733087 1330.43704,277.658568 1323.62351,302.806739 L1322.32985,307.581533 L1308.63369,243.756329 C1308.51781,243.216337 1307.98613,242.872523 1307.44614,242.988399 C1306.9852,243.087311 1306.65595,243.494712 1306.65595,243.966141 L1306.65595,307.581533 L1301.04435,294.145443 C1292.32189,273.260871 1271.58393,259.95496 1248.96433,260.729813 L1248.96433,260.729813 L1248.96433,268.661873 C1248.96433,284.377636 1256.20992,299.215713 1268.60315,308.879731 C1278.40502,316.523061 1287.45927,321.226212 1295.76589,322.989187 C1305.49649,325.054383 1311.19951,335.124654 1312.87494,353.2 C1313.06059,355.203433 1314.83523,356.676993 1316.83866,356.491293 C1318.33537,356.35256 1319.59322,355.308835 1320.00567,353.863401 Z" id="Path-221" fill="#82D121" transform="translate(1312.964329, 306.539895) rotate(5.000000) translate(-1312.964329, -306.539895) "></path>
        <path d="M1593,739 L1633,739 C1655.64367,739 1674,757.356325 1674,780 L1674,992 C1674,1014.64367 1655.64367,1033 1633,1033 L1593,1033 C1570.35633,1033 1552,1014.64367 1552,992 L1552,780 C1552,757.356325 1570.35633,739 1593,739 Z M799,739 L839,739 C861.643675,739 880,757.356325 880,780 L880,992 C880,1014.64367 861.643675,1033 839,1033 L799,1033 C776.356325,1033 758,1014.64367 758,992 L758,780 C758,757.356325 776.356325,739 799,739 Z" id="Combined-Shape" fill="#60CBFF"></path>
        <path d="M365.759256,1038 L457.806232,1038 C470.508781,1038 480.806232,1048.29745 480.806232,1061 C480.806232,1062.55163 480.649218,1064.09928 480.337589,1065.6193 L470.291784,1114.6193 C468.098216,1125.31877 458.682441,1133 447.760426,1133 L375.029363,1133 C363.975522,1133 354.485015,1125.13662 352.430234,1114.27544 L343.160127,1065.27544 C340.798869,1052.79428 349.002666,1040.76213 361.48382,1038.40087 C362.893346,1038.13421 364.324728,1038 365.759256,1038 Z" id="Rectangle" fill="#FFE640"></path>
        <path d="M338.228155,1034 L483.255854,1034 C490.027223,1034 495.516503,1039.48928 495.516503,1046.26065 C495.516503,1048.65603 494.814829,1050.99895 493.498152,1053 L487.811468,1061.64248 C483.557395,1068.10772 476.337009,1072 468.597733,1072 L352.015532,1072 C343.979645,1072 336.526439,1067.80594 332.355781,1060.93709 L327.536502,1053 C323.951178,1047.09516 325.831514,1039.40187 331.736351,1035.81654 C333.693266,1034.62834 335.938755,1034 338.228155,1034 Z" id="Rectangle-Copy-7" fill="#FFC635"></path>
        <path d="M1166.80584,192.196497 C1164.07498,192.196497 1164,189.286348 1164,185.696497 C1164,182.106647 1164.07498,179.196497 1166.80584,179.196497 C1168.39299,179.196497 1169.8055,180.179505 1170.71024,181.707641 C1171.3622,182.808811 1170.71024,184.193045 1170.71024,185.696497 C1170.71024,189.286348 1169.5367,192.196497 1166.80584,192.196497 Z M1217.80584,192.196497 C1215.07498,192.196497 1215,189.286348 1215,185.696497 C1215,182.106647 1215.07498,179.196497 1217.80584,179.196497 C1219.39299,179.196497 1220.8055,180.179505 1221.71024,181.707641 C1222.3622,182.808811 1221.71024,184.193045 1221.71024,185.696497 C1221.71024,189.286348 1220.5367,192.196497 1217.80584,192.196497 Z M1163.54276,174.469246 C1162.83984,175.321289 1161.57929,175.442178 1160.72725,174.739258 C1159.87521,174.036339 1159.75432,172.775792 1160.45724,171.923749 C1165.66031,165.616857 1171.49742,165.616857 1176.56172,171.947089 C1177.25175,172.809605 1177.11192,174.068192 1176.24941,174.758221 C1175.38689,175.44825 1174.12831,175.308421 1173.43828,174.445906 C1169.96905,170.109471 1167.13949,170.109471 1163.54276,174.469246 Z M1213.54276,174.469246 C1212.83984,175.321289 1211.57929,175.442178 1210.72725,174.739258 C1209.87521,174.036339 1209.75432,172.775792 1210.45724,171.923749 C1215.66031,165.616857 1221.49742,165.616857 1226.56172,171.947089 C1227.25175,172.809605 1227.11192,174.068192 1226.24941,174.758221 C1225.38689,175.44825 1224.12831,175.308421 1223.43828,174.445906 C1219.96905,170.109471 1217.13949,170.109471 1213.54276,174.469246 Z M1189,202.196497 L1199.49172,202.196497 C1196.20778,187.800863 1194.75431,181.103646 1194.75431,180.196497 C1194.75431,179.091928 1195.64974,178.196497 1196.75431,178.196497 C1197.85888,178.196497 1198.75431,179.091928 1198.75431,180.196497 C1198.75431,180.316699 1199.23177,182.693642 1200.0196,186.298153 C1200.89226,190.290688 1202.20243,196.108893 1203.94969,203.750713 C1204.23599,205.00291 1203.28451,206.196497 1202,206.196497 L1189,206.196497 C1187.89543,206.196497 1187,205.301067 1187,204.196497 C1187,203.091928 1187.89543,202.196497 1189,202.196497 Z M1401.78691,211.728562 C1405.72089,218.897808 1412.86333,224.780394 1423.26635,229.444931 C1445.1004,239.234946 1462.42143,245.969686 1475.2054,249.645844 C1476.26061,249.94928 1476.87818,251.054691 1476.58478,252.114847 C1476.29137,253.175004 1475.19811,253.788447 1474.1429,253.485011 C1461.14748,249.748049 1443.66644,242.951094 1421.67574,233.090841 C1414.86689,230.037869 1409.31278,226.434697 1405.02495,222.296515 C1409.44279,235.148338 1405.56182,242.941003 1393.72487,244.407303 C1396.62339,253.983628 1404.35102,261.691242 1417.0007,267.657067 C1438.63341,277.859456 1455.22455,284.356031 1466.7245,287.142028 C1467.79098,287.400394 1468.45388,288.479013 1468.20514,289.551192 C1467.9564,290.62337 1466.8902,291.283096 1465.82373,291.02473 C1454.0076,288.162136 1437.1964,281.579392 1415.34048,271.271736 C1392.74355,260.614601 1384.27864,244.056952 1390.36441,222.170564 C1390.65915,221.110593 1391.75308,220.498243 1392.80777,220.802843 C1393.86246,221.107443 1394.47852,222.213646 1394.18378,223.273617 C1392.4442,229.529702 1391.98669,235.261132 1392.8242,240.485602 C1402.74203,239.429841 1405.2442,233.788293 1400.73038,222.083661 C1400.33321,221.053789 1400.83717,219.895492 1401.856,219.496532 C1401.99849,219.440735 1402.1435,219.402746 1402.28863,219.381491 C1394.43634,210.106951 1392.2697,198.450706 1395.89815,184.556819 C1396.17614,183.492352 1397.26029,182.862862 1398.31966,183.150814 C1399.37904,183.438766 1400.01248,184.535117 1399.73448,185.599584 C1397.51526,194.097336 1397.63253,201.590256 1400.11952,208.122069 C1400.27487,208.025609 1400.4463,207.949471 1400.63125,207.898215 C1410.87266,205.060068 1412.51178,199.010341 1405.66823,188.096063 C1405.08185,187.160895 1405.35554,185.927719 1406.27952,185.341687 C1407.20351,184.755655 1408.4279,185.038686 1409.01427,185.973854 C1417.16682,198.975741 1414.7181,208.108016 1401.78691,211.728558 Z M1389.31943,280.387588 C1399.06885,277.486013 1400.52723,271.459375 1393.80777,260.743005 C1393.22139,259.807838 1393.49508,258.574662 1394.41906,257.98863 C1395.34305,257.402598 1396.56744,257.685629 1397.15382,258.620797 C1405.07986,271.261452 1402.98552,280.244528 1390.97998,284.061004 C1394.96889,291.481894 1402.28591,297.499615 1412.98706,302.185471 C1434.82609,311.748416 1450.56908,318.221501 1460.18905,321.596073 C1461.2259,321.95979 1461.78006,323.098426 1461.42679,324.139287 C1461.07352,325.180148 1459.9466,325.729081 1458.90974,325.365363 C1449.17119,321.949195 1433.35313,315.445241 1411.42858,305.844848 C1388.69192,295.888842 1379.67971,279.644675 1384.81699,257.653296 C1385.06728,256.581881 1386.13468,255.924337 1387.20109,256.18463 C1388.2675,256.444923 1388.9291,257.524486 1388.67881,258.595901 C1386.76212,266.800759 1386.96593,274.052266 1389.31943,280.387588 Z M1005.07352,277.695927 C1005.18449,277.757741 1005.29105,277.831309 1005.39153,277.916778 C1006.22496,278.6257 1006.32436,279.884965 1005.61354,280.729424 C997.317613,290.585046 998.098828,296.80402 1007.84557,301.039874 C1008.84835,301.475676 1009.30394,302.649998 1008.86314,303.662796 C1008.42235,304.675593 1007.2521,305.14334 1006.24931,304.707538 C994.770283,299.718844 992.921421,291.27225 1000.6137,280.686682 C996.137674,283.303714 990.850962,285.382339 984.761164,286.928888 C961.340012,292.876859 943.581628,296.13093 931.436389,296.686307 C930.340211,296.736433 929.419488,295.885389 929.379897,294.785447 C929.340307,293.685505 930.19684,292.753191 931.293018,292.703065 C943.113278,292.162549 960.639201,288.951074 983.821163,283.063847 C993.896971,280.505023 1001.47878,276.466276 1006.60863,270.982616 C1007.36303,270.176186 1008.6201,270.1302 1009.41638,270.879903 C1010.21265,271.629607 1010.2466,272.891102 1009.4922,273.697532 C1008.15868,275.123029 1006.68561,276.455678 1005.07352,277.695927 Z M986.055522,323.455051 C982.868798,324.407951 979.806496,325.315839 976.868599,326.17872 C964.733125,329.742995 951.312534,333.360065 936.606223,337.030251 C935.5398,337.296393 934.468405,336.645709 934.213194,335.576907 C933.957983,334.508105 934.6156,333.42592 935.682023,333.159777 C950.337544,329.502267 963.705861,325.899286 975.786372,322.351154 C978.717906,321.490142 981.773994,320.584095 984.95462,319.633019 C986.008172,319.317984 987.108689,319.918189 987.412694,320.973614 C987.7167,322.029039 987.109073,323.140016 986.055522,323.455051 Z M1008.53993,233.808783 C1003.13026,238.246711 996.035502,241.559412 987.271593,243.768991 C963.902765,249.660799 945.507022,253.318942 932.060118,254.742501 C930.968249,254.858092 929.998115,254.064125 929.893265,252.969126 C929.788414,251.874126 930.588552,250.892749 931.680422,250.777158 C944.908532,249.376762 963.135892,245.752103 986.338255,239.902264 C994.564691,237.828194 1001.12789,234.763689 1006.04377,230.730856 C1006.89703,230.030873 1008.14751,230.152442 1008.83681,231.002388 C1009.5261,231.852334 1009.39319,233.1088 1008.53993,233.808783 Z M1009.67297,241.849239 C1000.39229,250.78371 1000.51917,257.050275 1009.76975,262.281736 C1010.72149,262.819971 1011.05182,264.035481 1010.50758,264.996655 C1009.96333,265.957829 1008.7506,266.300689 1007.79886,265.762454 C996.051376,259.118922 995.859611,249.647365 1006.93972,238.980586 C1007.73492,238.215054 1008.99141,238.236638 1009.74617,239.028794 C1010.50094,239.820951 1010.46816,241.083707 1009.67297,241.849239 Z M1014.75296,204.249209 C1004.18888,211.621864 1003.33389,217.831126 1011.6522,224.445288 C1012.50802,225.125781 1012.64414,226.378003 1011.95624,227.242204 C1011.26833,228.106406 1010.0169,228.255331 1009.16107,227.574839 C998.597495,219.175387 999.889769,209.790443 1012.50212,200.9883 C1013.40728,200.356589 1014.64492,200.574466 1015.26648,201.474941 C1015.88803,202.375416 1015.65812,203.617498 1014.75296,204.249209 Z M1102.03432,1146.94487 C1105.30899,1143.90077 1111.52744,1138.86962 1120.81366,1131.72719 C1121.68558,1131.05656 1122.9421,1131.21298 1123.6202,1132.07656 C1124.29829,1132.94015 1124.14116,1134.18387 1123.26925,1134.8545 C1114.42459,1141.6573 1108.35538,1146.56233 1105.1782,1149.45278 C1121.77248,1143.84937 1131.07597,1151.19316 1131.91626,1170.46478 C1131.9322,1170.83022 1131.84976,1171.17643 1131.69259,1171.47752 C1132.37942,1171.45371 1133.07886,1171.41666 1133.79094,1171.36635 C1134.89264,1171.2885 1135.85013,1172.10951 1135.92955,1173.20013 C1136.00898,1174.29075 1135.18027,1175.23798 1134.07857,1175.31583 C1125.00856,1175.95676 1117.61097,1174.58968 1111.92301,1171.15561 C1106.32539,1167.77608 1103.02447,1161.69695 1101.95501,1153.09292 C1088.31676,1149.89516 1080.24144,1147.00653 1077.32652,1144.11075 C1074.42155,1141.22486 1072.40675,1135.05397 1071.04562,1125.42443 C1051.2404,1121.9482 1042.96759,1112.88846 1047.44903,1098.69326 C1051.76178,1085.03236 1082.33275,1051.78274 1139.65058,998.146897 C1140.45297,997.396047 1141.7188,997.431693 1142.47788,998.226513 C1143.23697,999.021333 1143.20186,1000.27435 1142.39946,1001.0252 C1094.80319,1045.56398 1065.63439,1076.14003 1055.18382,1092.27881 C1069.79626,1090.85291 1076.55743,1098.59189 1075.01637,1114.51662 C1081.04356,1109.11213 1091.0768,1100.44445 1105.24792,1088.38899 C1106.08534,1087.6766 1107.34808,1087.7715 1108.06835,1088.60096 C1108.78861,1089.43042 1108.69363,1090.68035 1107.85622,1091.39274 C1092.55158,1104.41249 1081.96581,1113.58125 1076.27541,1118.73222 C1093.43912,1114.80332 1102.25946,1124.60507 1102.03432,1146.94487 Z M1068.37539,1120.86207 C1068.3959,1120.83402 1068.41726,1120.80634 1068.43947,1120.77906 C1068.78312,1120.35706 1069.44216,1119.679 1070.41958,1118.74203 C1073.74632,1100.80854 1068.05232,1093.96708 1052.62205,1096.66404 C1052.02012,1097.85109 1051.56835,1098.92211 1051.26696,1099.87678 C1047.87641,1110.61657 1053.24912,1117.49062 1068.37539,1120.86207 Z M1106.02881,1153.38941 C1107.04504,1160.44739 1109.72283,1165.19085 1114.00402,1167.77559 C1117.74887,1170.03652 1122.47309,1171.28036 1128.19324,1171.48082 C1128.05434,1171.22191 1127.96994,1170.92836 1127.95629,1170.61526 C1127.22194,1153.77328 1120.31286,1148.37919 1106.02881,1153.38941 Z M1098.05262,1148.05929 C1098.59958,1126.22079 1091.12452,1118.43516 1074.7775,1123.25869 C1074.79346,1123.32547 1074.80603,1123.39356 1074.81503,1123.46277 C1076.06743,1133.09412 1077.93989,1139.11244 1080.15895,1141.31693 C1082.05007,1143.19563 1088.10187,1145.51164 1098.05261,1148.05929 Z" id="Combined-Shape" fill="#E96868"></path>
    </g>
</svg>