<?xml version="1.0" encoding="UTF-8"?>
<svg width="1794px" height="1276px" viewBox="0 0 1794 1276" version="1.1" xmlns="http://www.w3.org/2000/svg" xmlns:xlink="http://www.w3.org/1999/xlink">
    <!-- Generator: Sketch 56.1 (81669) - https://sketch.com -->
    <title>Ice Melting</title>
    <desc>Created with Sketch.</desc>
    <g id="Ice-Melting" stroke="none" stroke-width="1" fill="none" fill-rule="evenodd">
        <path d="M1423.00085,936 L1502,964.432172 L1476.38375,1032.45421 L1394.72656,1034.32975 L1468.15201,1054.31299 L1437.56391,1135.53743 L1411.29492,1221 L1240.83974,1221 L1252.41572,1190.95383 C1255.55294,1182.81096 1260.58269,1175.53144 1267.0894,1169.7167 L1276.37059,1161.42255 L1353.2481,1018.81188 L1423.00085,936 Z M807,1049.5 L807,1221 L717.593244,1221 L717,1158.46094 L670.679688,1221 L532.515625,1221 L411,1221 L417.289458,1204.59787 C423.617476,1188.09519 437.490725,1175.63904 454.577283,1171.11886 L526.941185,1151.97528 L549,1049.71983 L807,1049.5 Z" id="Combined-Shape" fill="#161616"></path>
        <path d="M732.200608,535.427283 L580.515533,719.276647 C545.367784,761.877353 551.409599,824.904929 594.010306,860.052678 C602.05189,866.687394 611.08151,872.023814 620.771944,875.868554 L643.218946,884.77454 L738.269678,1110.24226 L1005.23491,1147.76177 C1035.86187,1152.06611 1064.17928,1130.72741 1068.48361,1100.10046 C1069.53516,1092.6183 1069.06172,1085.00073 1067.09179,1077.70637 L957.604023,672.28869 C949.577865,642.568967 928.310599,618.202296 899.949058,606.231325 L732.200608,535.427283 Z" id="Mask-Copy" fill="#55ABD5" transform="translate(791.153409, 847.494640) scale(-1, 1) rotate(-8.000000) translate(-791.153409, -847.494640) "></path>
        <path d="M1033.65954,549.359829 L1081.93114,550.28305 C1088.26478,550.404185 1093.41335,555.427657 1093.69021,561.756409 L1104.4885,808.59894 L1359.07117,860.377608 C1401.28511,868.963354 1428.54616,910.14464 1419.96041,952.358585 C1418.54603,959.312755 1416.18923,966.041377 1412.95525,972.358208 L1329.57632,1135.2198 C1317.82112,1158.18089 1291.90214,1170.1418 1266.80341,1164.1878 L822.382834,1058.76106 C768.645687,1046.01337 735.417161,992.11677 748.164844,938.379622 C749.111261,934.390056 750.302157,930.462474 751.730788,926.619121 L892.887857,546.87343 L892.592665,546.846354 L845.538788,357.442917 C843.954537,351.065916 847.839828,344.612047 854.216829,343.027796 C858.526394,341.957162 863.073527,343.375599 866.010047,346.706582 L882.722547,365.664078 C889.661781,373.535462 901.668159,374.291119 909.539543,367.351884 C910.532171,366.476806 911.430664,365.500424 912.220394,364.438635 L928.426183,342.650015 C938.949259,328.50178 958.949308,325.563008 973.097543,336.086084 C976.913833,338.924537 980.047735,342.579777 982.27024,346.784698 L993.96875,368.917969 L1033.65954,549.359829 Z" id="Combined-Shape" fill="#60CBFF"></path>
        <path d="M946.197203,895.282412 C958.505274,851.689623 968.889965,818.028182 977.379929,794.231169 C987.39766,766.151891 994.375651,751.781972 1002.50035,746.7092 C1013.58371,739.789143 1037.16746,742.570136 1063.41012,751.179918 C1068.51624,752.855151 1073.47655,754.682265 1078.23959,756.647209 C1078.45123,756.550717 1078.66307,756.454686 1078.8751,756.359121 C1100.55364,746.588188 1120.01011,743.148182 1131.43936,750.284196 C1139.47908,755.303913 1146.61504,769.536903 1156.9496,797.244522 C1165.60911,820.461227 1176.2448,853.157228 1188.88457,895.395287 C1194.24762,895.404211 1199.67465,895.413664 1205.16567,895.423646 C1227.22863,895.463755 1245.09295,913.360583 1245.09295,935.423581 L1245.09295,1154.07769 C1245.09295,1178.89579 1225.79669,1199.43671 1201.027,1200.98602 C1147.00195,1204.36521 1102.28128,1206.0548 1066.865,1206.0548 C1030.65097,1206.0548 982.154952,1204.28824 921.376938,1200.7551 C896.478199,1199.30769 877.045712,1178.66394 877.104658,1153.72323 L877.62116,935.187874 C877.673285,913.133456 895.566569,895.282412 917.621048,895.282412 C927.146433,895.282412 936.671818,895.282412 946.197203,895.282412 Z M972.181942,895.282412 C995.418417,895.282412 1018.65489,895.282412 1041.89137,895.282412 C1047.58358,888.713323 1052.63372,882.907376 1052.79359,882.721706 C1053.38009,882.040568 1053.95833,881.367819 1054.52878,880.702874 C1043.07374,864.097213 1034.68913,850.018589 1029.38631,837.70902 C1021.78267,820.058522 1020.28841,805.719652 1028.20054,794.702904 C1033.66539,787.093715 1041.22182,779.784642 1050.04886,773.203263 C1041.77635,770.773644 1033.79461,769.063406 1027.08665,768.272404 C1023.27362,767.822772 1020.03721,767.692508 1017.61435,767.860668 C1016.973,767.905181 1016.42314,767.968456 1015.97635,768.042416 C1015.88032,768.176012 1015.77718,768.323796 1015.66775,768.485441 C1014.64301,769.999135 1013.38873,772.248465 1011.9652,775.179968 C1008.86807,781.557942 1005.17002,790.736711 1000.92629,802.631708 C993.096925,824.577079 983.507376,855.479568 972.181942,895.282412 Z M1095.99772,895.29006 C1116.87933,895.300685 1139.09985,895.322384 1162.65928,895.355155 C1150.60724,857.22724 1138.58718,827.996804 1130.64566,806.705078 C1130.3096,805.804078 1129.99383,804.914558 1129.69579,804.037205 C1129.73513,806.532099 1129.49188,809.118602 1128.99074,811.777398 C1127.74852,818.368052 1124.90156,825.557567 1120.60951,833.530648 C1113.66688,846.42755 1103.012,861.299876 1088.54573,879.046422 C1087.75122,880.02109 1086.94807,881.001022 1086.13408,881.988986 C1088.20791,884.825106 1090.41361,887.809302 1092.79915,891.011318 C1093.51022,891.965757 1094.68229,893.53296 1095.99772,895.29006 Z M1107.91939,772.627093 C1114.97564,777.668157 1120.77378,783.1232 1124.90957,788.881825 C1125.23423,789.333864 1125.54141,789.792872 1125.83141,790.258623 C1124.70078,785.736827 1123.69179,781.859045 1122.15745,778.798733 C1120.69789,775.88757 1119.41585,773.650243 1118.37022,772.138242 C1118.23354,771.940607 1118.10619,771.763051 1117.98953,771.606138 C1117.77867,771.579012 1117.53516,771.556003 1117.26071,771.539421 C1115.57541,771.437597 1113.28817,771.611252 1110.56089,772.09345 C1109.70801,772.244244 1108.82643,772.422427 1107.91939,772.627093 Z M1078.78897,784.364385 C1065.89957,791.556608 1054.80069,800.522099 1048.5063,809.286323 C1048.11653,809.829032 1047.84817,811.202014 1048.11827,813.793884 C1048.49464,817.405483 1049.90537,822.151494 1052.34646,827.81805 C1056.29189,836.97668 1062.61028,847.906999 1071.196,860.750032 C1083.70258,845.246359 1092.87363,832.311485 1098.59641,821.680609 C1101.77283,815.779965 1103.72563,810.848521 1104.42332,807.146887 C1104.69944,805.681885 1104.75069,804.558647 1104.64645,803.801329 C1104.60372,803.490937 1104.58279,803.435969 1104.60381,803.465244 C1099.98956,797.040414 1090.71263,790.319497 1078.78897,784.364385 Z" id="Combined-Shape" fill="#FBCEE4" fill-rule="nonzero"></path>
        <path d="M1128.91147,667.85362 C1129.1831,667.730468 1129.45551,667.606736 1129.72869,667.482422 L1132.10632,740.793787 L1134.04099,809.770497 C1134.22739,816.416422 1131.39833,822.790176 1126.34457,827.110196 C1120.6094,832.012699 1116.26168,834.460458 1113.30141,834.453473 C1109.09609,834.443551 1102.57425,829.535722 1093.73588,819.729988 C1089.66065,827.998894 1086.4933,832.975296 1084.23383,834.659194 C1080.04693,837.779541 1074.73635,835.009254 1071.4982,835.103932 C1068.94832,835.178486 1064.20824,830.732607 1057.27796,821.766296 C1048.7433,832.316373 1042.37997,837.320954 1038.18797,836.780041 C1029.76409,835.69307 1023.26881,830.488783 1018.70213,821.167182 C1018.41172,820.574375 1018.24157,819.929932 1018.20149,819.27103 L1015.68403,777.883677 C1008.4139,783.45126 1003.03828,787.597863 999.557179,790.323485 C993.613423,794.977309 987.711273,800.933522 981.89639,801.778554 C970.973073,803.365954 961.06268,799.938049 952.165211,791.494838 L1002.34151,723.72227 C1005.02695,720.095079 1007.97726,716.706487 1011.15821,713.578196 L994.502966,373.151441 L993.526884,368.713986 L982.22538,347.878894 C979.98061,343.740508 976.857162,340.143662 973.07434,337.340898 C958.760177,326.735263 938.55869,329.74162 927.953055,344.055783 L911.990022,365.600696 C911.145841,366.740065 910.176764,367.781349 909.100893,368.705094 C907.663456,369.93928 906.094517,370.920886 904.448187,371.654027 C896.976086,374.981494 887.909787,373.190784 882.308259,366.666773 L865.804778,347.445431 C862.934227,344.102147 858.423945,342.663019 854.1475,343.72586 C847.898851,345.278862 844.092277,351.603349 845.645278,357.851998 L892.522001,546.464963 L892.336799,546.9632 L717.41579,593.453325 C689.386403,600.902914 666.061266,620.123945 653.349956,646 L615.605482,646 L615.605471,646.000002 C615.369842,646.05374 615.13349,646.107078 614.896415,646.160015 L553.747866,647.762898 C543.593204,648.02908 534.576561,641.30817 531.930738,631.500641 C528.907999,620.295962 527.39663,604.373687 527.39663,583.733814 C527.39663,556.19984 530.086271,539.32007 535.465554,533.094503 L535.458008,533 L535.54814,533 C536.913756,531.45504 538.450958,530.589765 540.159745,530.404173 C540.334216,530.385227 540.509564,530.375476 540.68506,530.374965 L594.937391,530.216975 C594.962477,524.29932 595.008117,518.237391 595.074313,512.031186 C595.28749,492.044646 605.653768,477.700918 626.173146,469 L638.937473,531.30702 L658.447606,531.832314 L658.638767,531.361206 L781.882595,530.850148 L787.884295,346.967369 C787.884295,288.20757 806.193834,260.437694 842.81291,263.657742 L897.820628,263.419221 L897.820628,244.479074 C897.651217,244.477797 897.481471,244.476537 897.311391,244.475293 C868.682357,244.26591 855.019548,225.498766 856.322962,188.173861 L849.501283,189.980535 C848.539099,190.235363 847.516471,190.1223 846.633194,189.663434 C844.67281,188.645008 843.909203,186.230206 844.927629,184.269823 L853.819479,167.153764 L856.025403,135.017441 C857.288546,113.789117 865.441687,103.437613 880.484827,103.962931 C889.110111,104.264133 908.782397,104.264133 939.501684,103.962931 C961.86825,110.760508 973.039576,122.920291 973.015663,140.442278 C972.993826,156.442842 967.905388,187.306401 957.750349,233.032955 L964.374714,263.130634 L1045.37033,262.779426 C1049.29282,261.872796 1053.35039,261.301146 1057.51312,261.097486 C1062.20839,260.867772 1066.91484,261.122625 1071.55785,261.858006 C1103.44637,266.908652 1127.04057,294.225761 1127.39858,326.509798 L1129.63679,528.350341 C1129.64285,528.896446 1129.64443,529.442591 1129.64154,529.988722 L1128.91147,667.853632 Z" id="Combined-Shape" fill="#C7E0FF"></path>
        <path d="M585.667965,576.915216 L576.02599,569.858009 C587.074549,562.709363 592.637579,556.914997 592.715081,552.474912 C592.792583,548.034826 587.441316,541.697295 576.661279,533.462318 L535.781876,532.748765 L502.874861,453.832865 C502.449747,452.813379 502.931581,451.642299 503.951067,451.217185 C504.207014,451.110458 504.482358,451.058124 504.759614,451.063505 L627.362102,453.443047 C628.466463,453.464481 629.344349,454.377119 629.322915,455.48148 C629.31945,455.660021 629.292089,455.837294 629.241561,456.008571 L624.693276,471.426173 C614.563634,475.601204 606.860742,483.044679 601.584598,493.756597 C596.308455,504.468515 594.1142,517.053381 595.001835,531.511194 L596.7661,546.544709 L585.667965,576.915216 Z" id="Path-185" fill="#FFE640" transform="translate(565.839333, 513.959623) rotate(-1.000000) translate(-565.839333, -513.959623) "></path>
        <path d="M495.394244,168.264921 C505.594575,142.416283 524.074521,101.059131 550.834082,44.1934652 L629.712141,210.934024 L663.048922,152.486656 L697.969281,210.934024 L701.314954,306.741579 L590.574462,451.249056 L539.145043,452.188966 L515.051489,453.886376 L430.389149,319.759343 L422.492773,240.939215 L470.810985,130.599132 L495.394244,168.264921 Z" id="Combined-Shape" fill="#C7E0FF" transform="translate(561.903864, 249.039921) rotate(2.000000) translate(-561.903864, -249.039921) "></path>
        <path d="M576.76291,568.5 C585.742655,564.241075 590.036133,558.637467 590.036133,552.916032 C590.036133,548.893289 585.88402,543.501025 577.579795,536.73924 C576.689551,536.014385 576.445462,534.756404 577,533.751198 C577.031681,533.69377 577.066444,533.638097 577.104138,533.584423 C577.681615,532.762111 578.816368,532.563633 579.638684,533.141105 C588.739616,539.532329 593.410829,545.963158 593.652324,552.433594 C593.989293,561.462099 589.518858,566.598708 580.200749,571.044638 C586.097083,574.642993 590.146925,578.644788 592.2767,583.049203 C593.299209,585.045417 593.869709,587.113867 593.980136,589.256869 C594.017444,589.722356 594.036133,590.191678 594.036133,590.664833 C594.036133,597.785131 589.309476,603.642521 580.168038,608.27589 C589.321984,613.853496 594.036133,620.401228 594.036133,627.916032 C594.036133,633.143914 588.448757,639.348659 577.274005,646.530267 C577.186447,646.586565 577.093809,646.634539 576.997312,646.673582 C576.14171,647.019765 575.167472,646.6068 574.821289,645.751198 C574.390661,644.686889 574.783648,643.466938 575.754528,642.854087 C585.275598,636.84431 590.036133,631.864958 590.036133,627.916032 C590.036133,621.518439 585.483066,615.715167 576.033923,610.502397 L576.035246,610.5 L549,610.5 C547.895431,610.5 547,609.604569 547,608.5 C547,607.395431 547.895431,606.5 549,606.5 L573.676313,606.5 C573.826524,606.367515 573.999346,606.255524 574.192337,606.170333 C584.880292,601.452391 590,596.040806 590,590.030819 C590,589.867045 589.996214,589.703466 589.988635,589.540083 C589.854483,587.961615 589.435737,586.420118 588.727072,584.915532 C586.595502,580.706579 581.767765,576.649655 574.10004,572.786077 C573.943582,572.707242 573.801959,572.610657 573.676386,572.5 L549,572.5 C547.895431,572.5 547,571.604569 547,570.5 C547,569.395431 547.895431,568.5 549,568.5 L576.76291,568.5 Z M856.31665,199.640906 L856.31665,191.018788 C859.462683,192.239013 861.578137,193.119632 862.66301,193.660645 C864.783685,194.718199 862.668232,196.711619 856.31665,199.640906 Z M859.128315,171.293209 C856.401198,171.150287 855.393282,167.959157 855.595613,164.098462 C855.68035,162.481578 855.107305,160.958787 855.820432,159.808657 C856.810065,158.212578 858.276035,157.229331 859.861018,157.312396 C862.588136,157.455318 862.498989,160.588954 862.296658,164.449649 C862.094328,168.310344 861.855432,171.436132 859.128315,171.293209 Z M889.486194,167.700711 C889.163703,168.954547 888.952652,170.206308 888.86638,171.440056 C888.841807,171.791456 888.818542,172.157451 888.797047,172.536403 C888.506249,172.558136 888.20669,172.528984 887.910272,172.442424 L883.508628,171.157053 C874.652936,168.57101 865.349375,173.512192 862.533,182.297346 C862.111497,183.612147 860.703944,184.336307 859.389144,183.914804 C858.074344,183.4933 857.350183,182.085748 857.771686,180.770948 C861.415544,169.404616 873.452598,163.011658 884.910192,166.35751 L889.311837,167.64288 C889.371102,167.660187 889.429239,167.679496 889.486194,167.700711 Z M853.774921,156.271175 C852.904391,157.342875 851.329901,157.505955 850.258201,156.635425 C849.186501,155.764894 849.02342,154.190405 849.893951,153.118704 C856.313658,145.215475 863.549819,145.215475 869.798326,153.147962 C870.652697,154.232589 870.466039,155.804457 869.381413,156.658829 C868.296787,157.513201 866.724919,157.326543 865.870547,156.241917 C861.616242,150.841071 858.185736,150.841071 853.774921,156.271175 Z M1093.07825,817.316751 C1092.97309,817.085255 1092.9106,816.829724 1092.90118,816.55983 L1091.89865,787.851116 C1091.8601,786.747219 1092.72373,785.821084 1093.82763,785.782535 C1094.93153,785.743986 1095.85766,786.607621 1095.89621,787.711518 L1096.89874,816.420232 C1096.90368,816.561564 1096.89382,816.699983 1096.87057,816.833998 C1096.9035,816.884311 1096.93446,816.936538 1096.96329,816.99063 C1102.84639,828.029845 1108.90436,833.237271 1115.0116,833.024001 C1121.11785,832.810766 1126.78839,827.194939 1131.86964,815.773871 C1132.31864,814.764674 1133.50074,814.31054 1134.50993,814.759534 C1135.51913,815.208527 1135.97326,816.390624 1135.52427,817.399821 C1129.8884,830.067493 1123.14857,836.74229 1115.1512,837.021564 C1107.88858,837.275181 1101.28498,832.194843 1095.24632,822.088546 C1089.89301,832.810015 1083.59781,838.454529 1076.2434,838.711351 C1069.07588,838.961646 1062.84871,834.040975 1057.48742,824.277912 C1052.24014,834.451663 1046.09849,839.806907 1038.95292,840.056436 C1030.95655,840.335675 1023.7591,834.148745 1017.235,821.90674 C1016.71551,820.931956 1017.0846,819.720608 1018.05938,819.201118 C1019.03416,818.681628 1020.24551,819.050717 1020.765,820.025502 C1026.64811,831.064717 1032.70607,836.272142 1038.81332,836.058873 C1044.79064,835.85014 1050.35047,830.464534 1055.34873,819.524377 C1055.35952,819.172555 1055.46333,818.829718 1055.64715,818.531905 C1055.62308,818.418891 1055.60851,818.302223 1055.60434,818.182741 L1054.60181,789.474027 C1054.56326,788.37013 1055.42689,787.443995 1056.53079,787.405446 C1057.63469,787.366897 1058.56082,788.230532 1058.59937,789.334429 L1059.6019,818.043143 C1059.61383,818.38469 1059.53939,818.70922 1059.39819,818.995709 C1059.44444,819.135896 1059.4753,819.281311 1059.48974,819.429238 C1064.57967,829.972498 1070.1507,834.921674 1076.1038,834.713787 C1082.22789,834.499929 1087.91293,828.882745 1093.00725,817.460428 C1093.02921,817.411199 1093.05291,817.363293 1093.07825,817.316751 Z M954.597448,790.893483 C975.125952,780.911243 981.567197,771.852724 975.524726,763.358901 C974.884431,762.458848 975.095008,761.210149 975.995061,760.569854 C976.895115,759.92956 978.143814,760.140136 978.784109,761.04019 C986.800679,772.308979 978.787016,783.578838 956.346659,794.490741 C955.353304,794.973772 954.156456,794.560073 953.673425,793.566718 C953.190394,792.573363 953.604093,791.376515 954.597448,790.893483 Z M627.707124,471.756009 C621.031376,490.367621 622.392103,499.585679 630.811287,500.859028 C631.903436,501.024209 632.654892,502.043476 632.489712,503.135624 C632.324531,504.227773 631.305264,504.979229 630.213115,504.814049 C618.298041,503.011969 616.533675,491.059508 623.942001,470.405508 C624.314932,469.365798 625.460103,468.825266 626.499813,469.198197 C627.539523,469.571128 628.080054,470.716299 627.707124,471.756009 Z" id="Combined-Shape" fill="#6674A9" fill-rule="nonzero"></path>
        <path d="M870.334541,263.46428 C868.718192,263.479939 867.108803,263.250574 865.561182,262.783997 C857.10075,260.233347 853.728679,252.797857 856.27933,244.337426 L862.66301,225.223633 C869.181519,237.950503 881.136722,244.41315 897.820628,244.535171 C897.934015,244.536 897.934015,250.845703 897.820628,263.46428 L870.334541,263.46428 Z M923.420408,199.373348 C933.339189,192.803802 939.908969,177.008204 940.311845,171.246797 C941.200697,158.535622 929.706625,145.701092 916.916818,144.806741 C905.007205,143.97394 891.931916,156.596374 889.47096,168.600961 C877.391261,161.46073 867.168092,145.864703 858.801455,121.812879 C857.517588,117.200436 858.367449,113.09081 861.351038,109.484002 C865.826421,104.07379 869.134969,104.260477 877.116663,102.922479 C882.437792,102.03048 890.744751,101.510912 902.037541,101.363777 L913.963572,102.713771 C912.203578,100.980325 910.882846,98.6201833 909.79623,95.1400766 C908.188651,89.9914811 905.164072,78.1636432 906.67018,72.5481597 C907.881962,68.0300621 907.91001,60.4875888 910.787658,57.1962529 C913.342476,54.2741554 917.803552,52.263935 921.593085,51.1558182 C928.310714,49.1914815 935.241146,49.8445272 942.273893,51.7271374 C948.540886,53.4047636 954.488575,56.6921854 958.882703,61.1379573 C962.718121,65.0184521 965.369929,69.7814569 966.01735,75.1267612 C966.458993,78.7731041 963.699012,83.7706207 962.687114,87.5434549 C960.755265,94.7463048 956.370668,102.251394 950.649765,106.076248 C950.591971,106.114888 950.534041,106.153198 950.475977,106.191179 C962.225723,106.021253 972.739156,114.129406 975.324203,125.90481 C980.338418,148.745551 986.63595,168.920903 994.216797,186.430866 C996.000333,190.550413 1015.02213,199.748909 1051.28219,214.026355 C1061.12258,217.900978 1067.62929,227.357161 1067.73174,237.932386 C1067.87064,252.270585 1056.35984,264.006597 1042.02164,264.145503 L942.400734,265.110612 C938.928913,265.144247 935.479266,264.55416 932.216024,263.368444 C917.162691,257.89874 909.393625,241.261531 914.863329,226.208198 C918.648016,215.792249 921.500376,206.847299 923.420408,199.373348 Z" id="Combined-Shape" fill="#FF461C"></path>
        <path d="M1067.13623,433.620007 L1064.14984,376.507377 L1075.40051,372.828389 L1077.50978,407.803712 C1080.41983,403.648503 1083.99646,400.998755 1088.23968,399.854469 C1092.83667,398.614784 1097.50908,399.332688 1102.25693,402.008183 C1102.31109,402.038701 1102.36452,402.070478 1102.4172,402.103488 C1104.28916,403.276544 1104.85573,405.745015 1103.68267,407.616975 C1100.63474,412.480854 1096.78741,415.539344 1092.14069,416.792443 C1087.5437,418.032128 1082.87129,417.314224 1078.12344,414.638729 C1078.06928,414.608211 1078.01584,414.576434 1077.96317,414.543424 C1077.9468,414.533167 1077.93053,414.52281 1077.91436,414.512355 L1078.84831,429.998833 C1081.65938,426.923342 1084.95442,424.977374 1088.73343,424.160929 C1093.27827,423.179028 1097.83734,423.979006 1102.41062,426.560862 C1102.55219,426.640786 1102.68875,426.729265 1102.81955,426.825809 C1104.59697,428.137712 1104.97435,430.642102 1103.66244,432.419518 C1100.51375,436.685484 1096.66196,439.310502 1092.10707,440.294574 C1087.86858,441.210288 1083.61773,440.576249 1079.3545,438.392457 L1081.34678,471.427899 L1069.1468,472.070744 L1067.33983,437.513779 C1067.1139,437.973908 1066.79521,438.397965 1066.38566,438.756932 C1062.50119,442.161664 1058.31837,443.838825 1053.83719,443.788414 C1049.37432,443.738209 1045.28727,441.98208 1041.57602,438.520027 C1041.47807,438.428652 1041.38477,438.332414 1041.29648,438.231678 C1039.84034,436.570366 1040.00667,434.043174 1041.66798,432.587037 C1045.55245,429.182305 1049.73527,427.505144 1054.21645,427.555555 C1058.67932,427.60576 1062.76637,429.361889 1066.47762,432.823942 C1066.57557,432.915317 1066.66887,433.011555 1066.75716,433.112291 C1066.89884,433.273928 1067.02515,433.443761 1067.13623,433.620007 Z M1051.55441,419.483421 C1047.09154,419.433216 1043.00449,417.677087 1039.29324,414.215034 C1039.19529,414.123659 1039.10199,414.027421 1039.01369,413.926684 C1037.55756,412.265373 1037.72388,409.738181 1039.38519,408.282043 C1043.26967,404.877311 1047.45249,403.200151 1051.93367,403.250562 C1056.39653,403.300767 1060.48359,405.056896 1064.19483,408.518949 C1064.29279,408.610324 1064.38609,408.706562 1064.47438,408.807298 C1065.93052,410.46861 1065.76419,412.995801 1064.10288,414.451939 C1060.21841,417.856671 1056.03558,419.533832 1051.55441,419.483421 Z M1046.85058,296.237119 C1066.46584,288.297491 1060.82565,316.880612 1071.39806,317.821525 C1075.60889,318.196276 1078.81859,290.383723 1095.84365,296.237125 C1110.91065,301.417324 1110.70201,313.742399 1095.21771,333.212348 C1110.70201,329.38857 1118.44415,333.19495 1118.44415,344.631487 C1118.44415,356.068024 1110.04107,360.375946 1093.23489,357.555252 C1110.04107,366.407312 1113.17006,374.545829 1102.62186,381.970805 C1086.79957,393.108269 1078.72368,370.877856 1071.39806,370.833341 C1064.07244,370.788827 1051.93952,392.271634 1038.18003,384.81763 C1028.06877,379.340004 1030.3967,370.008079 1045.16384,356.821857 C1022.76233,353.280207 1013.09757,346.439511 1016.16955,336.29977 C1021.49891,318.709036 1039.90806,336.567642 1045.16384,328.106171 C1050.41962,319.644701 1027.23532,304.176758 1046.85058,296.237119 Z M995.323023,1051.56301 L993.202668,1050.29454 C992.288147,1049.74743 991.629748,1048.85802 991.373532,1047.8236 C990.842399,1045.67926 992.150161,1043.51036 994.294501,1042.97923 L1023.05292,1035.85603 L1028.13654,1063.4542 C1028.31267,1064.41038 1028.13451,1065.39798 1027.63536,1066.23235 C1026.50122,1068.12814 1024.04498,1068.74558 1022.14919,1067.61145 L1019.11318,1065.79519 C1014.34285,1073.00962 1011.71321,1077.12255 1011.22426,1078.13399 C1009.11995,1082.48698 1007.71406,1086.70708 1007.30498,1090.24948 C1006.84928,1094.19557 1007.43079,1096.42184 1009.61039,1097.7098 C1014.61985,1100.66998 1027.97655,1102.52902 1049.68049,1103.28694 L1048.8123,1128.14861 C1025.90846,1130.08059 1004.32407,1127.78445 993.355189,1119.80539 C982.477293,1111.89252 978.444202,1100.11683 979.945624,1087.11539 C980.753626,1080.11857 983.077912,1073.14171 986.402424,1066.26461 C987.713789,1063.55191 992.371176,1055.79394 992.522975,1055.57636 L995.323023,1051.56301 Z M1098.76966,1131.14191 L1098.71836,1133.57933 C1098.69619,1134.63234 1098.2596,1135.63412 1097.50336,1136.36721 C1095.91716,1137.90483 1093.38481,1137.86546 1091.84719,1136.27927 L1071.54531,1115.33612 L1092.83079,1097.29677 C1093.57547,1096.66566 1094.52521,1096.32864 1095.50113,1096.34918 C1097.70978,1096.39567 1099.46255,1098.22382 1099.41606,1100.43247 L1099.34563,1103.77875 C1107.92656,1104.24987 1112.77424,1104.44183 1113.88868,1104.35463 C1118.68498,1103.97934 1123.02252,1103.07508 1126.28374,1101.65898 C1129.91662,1100.0815 1131.55315,1098.4769 1131.59213,1095.97791 C1131.68174,1090.23435 1126.70908,1077.92611 1116.67416,1059.05317 L1138.576,1047.40776 C1151.52529,1065.96319 1160.17269,1085.50053 1158.68315,1098.82275 C1157.20597,1112.03445 1149.02109,1121.33758 1137.05163,1126.535 C1130.61018,1129.33203 1123.43917,1130.82699 1115.8617,1131.4199 C1112.87274,1131.65377 1103.87796,1131.54967 1103.61526,1131.5287 L1098.76966,1131.14191 Z M1116.92034,1001.70363 L1119.07703,1000.56682 C1120.00876,1000.0757 1121.0966,999.971874 1122.10441,1000.27789 C1124.21825,1000.91975 1125.41152,1003.15369 1124.76966,1005.26753 L1116.29492,1033.17738 L1090.19793,1023.30633 C1089.28493,1022.961 1088.52972,1022.29372 1088.07455,1021.43021 C1087.04444,1019.47594 1087.79361,1017.05662 1089.74788,1016.02651 L1092.70875,1014.46581 C1088.96069,1006.73235 1086.77838,1002.39941 1086.16182,1001.46697 C1083.50829,997.453975 1080.61453,994.098675 1077.7949,991.932883 C1074.65395,989.520277 1072.45713,988.866863 1070.25256,990.044301 C1065.1857,992.750462 1056.83145,1003.0668 1045.18984,1020.99332 L1024.3863,1007.48335 C1034.33731,987.161789 1047.23271,970.126715 1059.60673,964.970757 C1071.8781,959.857568 1083.9829,962.505979 1094.33158,970.454941 C1099.9008,974.732736 1104.68489,980.279868 1108.87709,986.619826 C1110.53072,989.120645 1114.80042,997.038132 1114.90944,997.278055 L1116.92034,1001.70363 Z M533.546234,216.841178 L480.146291,231.332678 L475.645662,145.332678 L497.138825,201.368472 L534.019707,211.906985 L550.099724,44.3326775 L622.962362,248.381979 L704.645662,211.113533 L704.645662,215.078647 L619.083701,268.790259 L573.177713,186.637079 L527.645662,278.332678 L533.546234,216.841178 Z" id="Combined-Shape" fill="#FFFFFF"></path>
        <path d="M440.814739,340.957416 C439.253907,348.071552 436.132966,359.317309 436.132966,364.14081 C436.132966,367.93879 438.005642,372.369768 438.613492,374.782637 C448.108091,412.471579 446.82128,435.825536 433.99402,435.361159 C421.423809,434.906087 421.52509,410.333724 430.154019,374.782637 C430.484393,373.421502 432.363502,369.796347 431.933259,364.14081 C431.76544,361.93482 430.481,352.18313 428.079941,334.88574 C426.099703,331.06496 426.073057,324.625973 428,315.568771 L451.572241,343.996615 L492.430556,368.576199 L527.645662,424.767565 L558.826853,384.97487 L592.645662,422.548085 L697.372224,315.774984 L623.790412,452.332678 L508.576654,452.332678 C487.139622,417.502308 470.956482,390.61247 460.027234,371.663164 C453.557643,360.446085 449.128917,352.155436 446.741055,346.791219 C444.623093,343.619978 442.662463,341.925381 440.814739,340.95742 Z M1120.32505,464.350598 L1122.32505,464.350598 C1090.85177,464.350598 1097.64335,494.554057 1097.64335,494.554057 C1097.64335,494.554057 1097.06047,505.996332 1106.31873,512.217723 C1112.68354,516.494767 1120.60837,520.43245 1130.09322,524.030772 L1129.81125,582.824246 C1113.74927,589.743604 1103.02664,594.172425 1097.64335,596.110708 C1089.6576,598.986025 1090.96059,618.375036 1097.64335,625.526337 C1101.57262,629.731089 1112.22981,633.335222 1129.61492,636.338736 C1129.69534,636.352629 1129.67108,639.1325 1129.54215,644.678347 L1036.02734,644.678347 C1036.02734,640.651326 1038.89449,637.194914 1042.85217,636.450841 C1056.86036,633.817242 1067.21544,628.838877 1073.91743,621.515746 C1085.53918,608.816885 1078.63019,602.796701 1072.85164,596.110708 C1067.07309,589.424716 1039.58254,587.538125 1026.91968,567.137613 C1014.25682,546.737101 1019.093,537.4263 1036.02734,521.941569 C1052.96168,506.456839 1053.28688,517.178919 1053.28688,494.554057 C1053.28688,479.470816 1044.49782,469.402996 1026.91968,464.350598 L1025.32505,464.350598 C1024.22048,464.350598 1023.32505,463.455167 1023.32505,462.350598 L1023.32505,457.206213 C1023.32505,456.101643 1024.22048,455.206213 1025.32505,455.206213 L1120.32505,455.206213 C1121.42962,455.206213 1122.32505,456.101643 1122.32505,457.206213 L1122.32505,462.350598 C1122.32505,463.455167 1121.42962,464.350598 1120.32505,464.350598 Z M1069.79467,379.476173 C1051.61024,380.429179 1036.09486,366.433277 1035.1401,348.21545 C1034.18535,329.997624 1048.15276,314.456593 1066.33719,313.503588 C1084.52163,312.550582 1100.037,326.546485 1100.99176,344.764311 C1101.94652,362.982137 1087.9791,378.523168 1069.79467,379.476173 Z M1055.09315,332.412372 L1055.68546,343.714299 C1055.74327,344.817355 1056.68434,345.664695 1057.78739,345.606887 C1058.89045,345.549078 1059.73779,344.608011 1059.67998,343.504956 L1059.08767,332.203029 C1059.02986,331.099973 1058.08879,330.252633 1056.98574,330.310441 C1055.88268,330.36825 1055.03534,331.309317 1055.09315,332.412372 Z M1073.90876,331.426288 L1074.50107,342.728215 C1074.55888,343.831271 1075.49994,344.678611 1076.603,344.620802 C1077.70605,344.562994 1078.55339,343.621927 1078.49559,342.518871 L1077.90328,331.216944 C1077.84547,330.113889 1076.9044,329.266549 1075.80135,329.324357 C1074.69829,329.382166 1073.85095,330.323233 1073.90876,331.426288 Z M1051.02607,354.991362 C1054.92525,361.058793 1060.99816,363.913614 1068.95721,363.496498 C1076.9348,363.07841 1082.5769,359.590185 1085.57441,353.123915 C1086.03896,352.121784 1085.60317,350.932804 1084.60104,350.468254 C1083.59891,350.003704 1082.40993,350.4395 1081.94538,351.441631 C1079.59942,356.502339 1075.30329,359.158424 1068.74787,359.501979 C1062.17391,359.846506 1057.48418,357.641903 1054.39111,352.828845 C1053.79395,351.899613 1052.55656,351.630419 1051.62733,352.227581 C1050.6981,352.824744 1050.42891,354.062131 1051.02607,354.991362 Z M685.521773,411.166139 C703.596503,464.050044 703.697538,490.350793 685.824876,490.068385 C667.952215,489.785978 667.851181,463.485229 685.521773,411.166139 Z M487.645662,510.206213 C503.645662,558.206213 503.645662,582.206213 487.645662,582.206213 C471.645662,582.206213 471.645662,558.206213 487.645662,510.206213 Z M453.379244,638.206213 C471.690687,693.242888 471.690687,720.761226 453.379244,720.761226 C435.067801,720.761226 435.067801,693.242888 453.379244,638.206213 Z M559.645662,689.206213 C575.645662,737.206213 575.645662,761.206213 559.645662,761.206213 C543.645662,761.206213 543.645662,737.206213 559.645662,689.206213 Z M506.645662,813.206213 C522.645662,861.206213 522.645662,885.206213 506.645662,885.206213 C490.645662,885.206213 490.645662,861.206213 506.645662,813.206213 Z" id="Combined-Shape" fill="#6381DD"></path>
        <path d="M1035.38029,902.987246 C1009.96496,903.185299 990.166837,903.533205 970.030773,903.029767 C970.967097,899.71073 971.892007,896.450243 972.80549,893.248336 C993.123907,893.62002 1016.47509,894.429967 1042.4611,894.803765 C1040.13537,897.487165 1037.67599,900.32831 1035.38029,902.987246 Z M944.327406,902.128537 C916.076278,900.928626 897.354185,899.202691 897.354185,895.282412 C897.354185,892.816122 900.307575,897.334851 913.65625,895.282412 C922.871769,893.865471 933.992298,893.253687 946.858593,893.097153 C946.069637,895.884143 945.272689,898.712404 944.467742,901.581955 C944.416677,901.763995 944.369919,901.946226 944.327406,902.128537 Z M1095.47422,894.795171 C1119.38394,894.457899 1142.01057,893.795074 1162.1447,893.514196 C1162.95456,896.192563 1163.77333,898.913033 1164.60099,901.675588 C1149.80893,902.235463 1132.89116,902.663641 1114.54214,902.875958 C1110.95411,902.917475 1106.48364,902.936259 1101.57724,902.941647 C1099.8966,900.69942 1097.45964,897.447912 1095.47422,894.795171 Z M1188.23071,893.437923 C1200.90839,893.596707 1212.00143,894.123168 1221.05664,895.282412 C1231.96677,896.679122 1218.53627,898.789213 1190.32726,900.453811 C1189.62232,898.086202 1188.92347,895.747576 1188.23071,893.437923 Z M1070.32572,902.887545 C1069.72648,902.886218 1069.13428,902.884973 1068.54995,902.883828 C1068.89178,902.490259 1069.21184,902.1218 1069.50724,901.781762 C1069.77783,902.147734 1070.05063,902.516288 1070.32572,902.887545 Z" id="Combined-Shape" fill="#FF66D5"></path>
    </g>
</svg>