<?xml version="1.0" encoding="UTF-8"?>
<svg width="1794px" height="1276px" viewBox="0 0 1794 1276" version="1.1" xmlns="http://www.w3.org/2000/svg" xmlns:xlink="http://www.w3.org/1999/xlink">
    <!-- Generator: Sketch 56.1 (81669) - https://sketch.com -->
    <title>In Forest</title>
    <desc>Created with Sketch.</desc>
    <g id="In-Forest" stroke="none" stroke-width="1" fill="none" fill-rule="evenodd">
        <path d="M1441.52823,750.178937 C1430.60776,467.154343 1417.85626,315.992319 1403.27374,296.692864 C1388.69122,277.39341 1318.65885,269.766403 1193.17663,273.811842 L1195.34783,253.178937 C1306.87432,253.178937 1381.30214,256.38055 1418.63129,262.783775 C1455.96043,269.187001 1477.47555,303.650669 1483.17663,366.174779 L1483.17663,708.530538 C1483.17663,731.532314 1464.53,750.178937 1441.52823,750.178937 Z M1221.51479,605.339953 C1190.96791,598.472145 1168.60959,570.876877 1169.29864,538.55006 L1169.86092,512.170901 L1168.9467,388.614317 L1168.9467,388.422068 C1168.9467,332.87966 1207.28647,286 1257.4467,286 C1333.83941,286 1331.1441,303.728003 1343.75445,313.714961 C1355.65126,323.13682 1361.29251,353.184877 1361.89282,383.215478 C1348.85051,353.466771 1320.44984,332.159411 1286.72958,329.092615 C1284.21206,328.863652 1281.68347,328.779553 1279.1563,328.840734 C1242.72569,329.722698 1213.90783,359.970512 1214.78979,396.401117 L1219.02891,571.503186 L1221.51479,605.339953 Z M1088.90349,562.30503 C1060.1345,574.678718 1045.75,576.079093 1045.75,566.506158 L1034,378.623195 C1034,323.046424 1060.61771,286.20147 1111,286.20147 C1161.38229,286.20147 1140.15349,283.640939 1140.15349,298.000343 C1140.15349,312.359746 1128.51289,324.000343 1114.15349,324.000343 C1094.9479,324.000343 1077.15349,345.585733 1077.15349,374.422068 L1088.90349,562.30503 Z" id="Combined-Shape" fill="#6381DD"></path>
        <path d="M1406.23178,750.032128 L1386.90647,561.207519 L1369.31105,408.675942 C1365.6326,376.788052 1345.68087,350.075543 1318.00911,336.887549 L1317.99906,333.099285 C1254.02574,315.615019 1203.89989,306.290201 1167.62152,305.124832 L1164.38341,262.178937 C1220.52311,266.065152 1261.02354,268.455735 1285.88469,269.350687 C1304.02829,270.00382 1333.00681,272.812769 1372.82025,277.777534 C1400.91435,281.28089 1422.37388,304.555458 1423.58969,332.841039 L1426.78129,407.093349 C1460.96857,409.724503 1486.30091,408.764228 1502.77832,404.212525 C1520.14377,399.415511 1531.8154,396.011336 1537.79321,394 L1537.79321,429.924417 C1525.80278,436.038988 1516.71434,439.953994 1510.5279,441.669434 C1500.56227,444.432807 1473.21966,446.23645 1428.50006,447.080362 L1432.01686,528.89809 C1463.64052,532.255037 1487.2666,531.774908 1502.8951,527.457704 C1520.26055,522.660689 1532.02106,518.337467 1538.17663,514.488037 L1538.17663,551.103354 C1525.93058,557.098634 1516.71434,560.953994 1510.5279,562.669434 C1500.95427,565.32411 1475.34382,567.093072 1433.69657,567.976321 L1441.52823,750.178937 L1406.23178,750.032128 Z" id="Combined-Shape" fill="#60CBFF"></path>
        <path d="M1318.02896,337.350266 C1345.70072,350.53826 1365.65245,377.250769 1369.3309,409.138659 L1386.92632,561.670235 L1421.92181,903.605734 C1422.95068,913.658698 1421.59391,923.405933 1418.30979,932.284637 C1375.84949,925.60734 1400.85404,889.5918 1341.60301,893.306055 C1309.68575,895.306845 1290.80602,919.742927 1284.96383,966.614302 C1284.7255,968.526403 1284.61233,970.429386 1284.61856,972.314224 C1263.25527,969.924269 1246.31189,952.584219 1244.77247,930.762021 L1232.72206,759.939894 L1036.9027,736.748492 L1039.85177,609.167868 L969.566587,700.410978 L693.879096,459.211343 C667.277065,435.937163 664.579308,395.504504 687.853488,368.902473 C690.926392,365.390191 694.374239,362.22455 698.135526,359.462019 L750.596907,320.931005 C766.991982,308.889407 789.426559,309.344011 805.320365,322.039897 L939.94292,429.575659 L1045.98849,343.684945 L1046.24725,332.490363 C1082.59592,315.447967 1119.23904,306.284513 1156.17663,305 C1171.94046,304.451809 1184.83411,292.152447 1206.88477,292.152447 C1225.40576,292.152447 1262.45048,305.955632 1318.01891,333.562002 L1318.02896,337.35026 Z" id="Combined-Shape" fill="#FF8ADF"></path>
        <path d="M1221.74471,605.518547 C1191.19784,598.650739 1168.83951,571.055471 1169.52856,538.728654 L1170.09084,512.349495 L1169.17663,388.792911 L1169.17663,388.600662 C1169.17663,333.058254 1202.38665,287.444336 1252.54687,287.444336 C1284.97507,287.444336 1310.09832,291.01884 1327.91662,298.167847 C1341.81964,303.745976 1352.0353,315.876855 1355.16634,330.526295 C1359.34693,350.086382 1361.65769,367.690659 1362.09864,383.339126 C1349.04546,353.619131 1320.659,332.336116 1286.95951,329.271209 C1284.44199,329.042245 1281.91339,328.958146 1279.38622,329.019328 C1242.95562,329.901292 1214.13775,360.149106 1215.01972,396.579711 L1219.25884,571.68178 L1221.74471,605.518547 Z M1089.34761,565.325859 C1089.37603,565.778266 1089.39023,566.231453 1089.39023,566.684751 C1089.39023,578.672177 1079.6725,588.389905 1067.68508,588.389905 C1055.69765,588.389905 1045.97993,578.672177 1045.97993,566.684751 L1034.22993,378.801789 C1034.22993,323.225018 1060.84764,286.380064 1111.22993,286.380064 C1161.61221,286.380064 1140.38341,283.819533 1140.38341,298.178937 C1140.38341,312.53834 1128.74282,324.178937 1114.38341,324.178937 C1095.17782,324.178937 1077.38341,345.764327 1077.38341,374.600662 L1089.34761,565.325859 Z" id="Combined-Shape" fill="#6381DD"></path>
        <path d="M671.602122,1139.21326 L661.771588,1139.04166 L603.157289,1138.01855 L327.934938,1133.21452 C316.506056,1133.01503 307.402836,1123.58837 307.602328,1112.15949 C307.643137,1109.82155 308.079833,1107.50743 308.893871,1105.31541 L310.803582,1100.17297 C316.076396,1085.97444 326.971041,1074.57874 340.918299,1068.67325 L453.448236,1021.02626 L527.924779,905.861053 L711.261119,969.983004 L720.57969,897.692506 L904.745391,905.692915 L968.184605,1002.03498 C979.207363,1018.77471 975.333498,1041.19755 959.333255,1053.26867 L845.751147,1138.95882 C828.586178,1163.97788 804.089076,1186.40705 772.259843,1206.24633 C754.035961,1217.60534 734.605838,1227.36904 713.969474,1235.53741 C695.78405,1242.73563 675.206534,1233.82876 668.0083,1215.64334 C666.385023,1211.54234 665.542118,1207.17419 665.522955,1202.76365 L665.360836,1165.45016 C665.329041,1158.13211 666.757998,1150.88129 669.563993,1144.1225 L671.602122,1139.21326 Z" id="Combined-Shape" fill="#161616"></path>
        <path d="M479.675282,1038.81818 L478.122635,1039.24734 C485.592046,1047.26486 492.976206,1051.65987 500.236216,1052.67852 C503.167691,1053.08983 504.105234,1052.09447 504.146724,1048.55052 C504.201346,1043.88486 501.638403,1038.51851 498.122732,1036.14716 C497.81144,1035.9372 497.00703,1035.73518 495.627227,1035.70707 C493.86788,1035.67123 491.555738,1035.94245 488.638323,1036.53133 C486.158898,1037.03181 483.348427,1037.73295 479.607837,1038.76448 L479.675282,1038.81818 Z M423.62588,1046.32903 C409.091229,1042.76647 400.671478,1034.8678 399.601614,1024.43806 C398.720908,1015.85235 403.32976,1006.98758 410.304313,1002.38101 C419.823971,996.093442 437.05824,1005.1473 467.076668,1028.79804 C470.205208,1027.91282 474.311855,1026.74329 475.376148,1026.44717 C479.77027,1025.22458 483.055262,1024.39609 486.066116,1023.78835 C494.629256,1022.05985 500.667616,1022.18288 505.39224,1025.36968 C512.696413,1030.2964 517.249706,1039.83018 517.145833,1048.7027 C517.019278,1059.51268 509.82451,1067.15119 498.429881,1065.55241 C486.360819,1063.859 475.054241,1056.32191 464.44918,1043.32691 C464.35106,1043.24781 464.253069,1043.16887 464.155209,1043.09009 C446.680918,1047.71912 434.800882,1049.0681 423.62588,1046.32903 Z M428.201852,1017.59167 C424.35743,1015.50076 421.254541,1014.19999 419.001769,1013.6728 C418.190939,1013.48305 417.575135,1013.41373 417.176867,1013.42992 C414.249875,1015.53469 412.178735,1019.65054 412.533754,1023.1115 C412.981983,1027.48114 417.100544,1031.34481 426.72067,1033.70277 C433.253121,1035.30393 440.817179,1034.97286 451.037292,1032.85834 C441.871949,1025.97295 434.246312,1020.87915 428.201852,1017.59167 Z M471.275722,994.795248 C468.114214,993.802508 466.35608,990.434824 467.34882,987.273317 C468.34156,984.111809 471.709244,982.353675 474.870751,983.346415 L520.35122,997.627665 C523.512728,998.620405 525.270861,1001.98809 524.278121,1005.1496 C523.285381,1008.3111 519.917698,1010.06924 516.75619,1009.0765 L471.275722,994.795248 Z M727.765011,1086.22263 L726.405682,1087.08699 C735.89281,1092.57034 744.239294,1094.61438 751.479901,1093.4659 C754.403541,1093.00217 755.009101,1091.77618 754.012628,1088.37496 C752.700755,1083.89719 748.680835,1079.51467 744.625466,1078.27481 C744.266387,1078.16503 743.438063,1078.20703 742.110332,1078.58357 C740.41738,1079.06367 738.285565,1079.99904 735.667801,1081.41517 C733.443041,1082.61869 730.960366,1084.11089 727.684814,1086.191 L727.765011,1086.22263 Z M676.360661,1109.79255 C661.419515,1110.63518 651.05832,1105.54334 646.98584,1095.88213 C643.633399,1087.92907 645.44906,1078.10415 650.772026,1071.6597 C658.037413,1062.86359 677.165719,1066.48303 712.787293,1080.32381 C715.520316,1078.56257 719.105585,1076.24347 720.036795,1075.64912 C723.881464,1073.19523 726.780692,1071.44251 729.482298,1069.98103 C737.165907,1065.82444 742.976389,1064.17665 748.426298,1065.84285 C756.851749,1068.41877 763.993491,1076.20471 766.488232,1084.71992 C769.527738,1095.09455 764.880633,1104.50284 753.516457,1106.30539 C741.479651,1108.21463 728.463484,1104.3126 714.522442,1094.98603 C714.405484,1094.93908 714.288696,1094.89224 714.172076,1094.84551 C698.814726,1104.38126 687.848197,1109.14469 676.360661,1109.79255 Z M672.334694,1080.97299 C668.046932,1080.09744 664.699318,1079.76072 662.390845,1079.91521 C661.559967,1079.97081 660.950804,1080.08457 660.574671,1080.21649 C658.390949,1083.08505 657.613665,1087.6266 658.96506,1090.83254 C660.671261,1094.8802 665.73949,1097.37089 675.628664,1096.81317 C682.343809,1096.43446 689.480559,1093.90634 698.635876,1088.89614 C687.857922,1084.9913 679.076205,1082.34959 672.334694,1080.97299 Z M706.861412,1046.57909 C703.547798,1046.55406 700.881871,1043.84756 700.906898,1040.53394 C700.931924,1037.22033 703.638427,1034.5544 706.952041,1034.57943 L754.620663,1034.93945 C757.934277,1034.96448 760.600204,1037.67098 760.575178,1040.9846 C760.550151,1044.29821 757.843648,1046.96414 754.530034,1046.93911 L706.861412,1046.57909 Z" id="Combined-Shape" fill="#FFFFFF"></path>
        <path d="M457.81592,804.102712 L543.221427,898.83946 L815.647362,759.573121 C864.822779,734.434251 884.30825,674.190618 859.16938,625.015201 C858.050753,622.826998 856.851842,620.680776 855.575089,618.580905 L772.087384,481.268969 C743.39495,434.078624 681.879803,419.083104 634.689458,447.775538 C622.250503,455.338608 611.612826,465.526351 603.519575,477.627049 L450.737307,706.060862 C430.373395,736.508153 433.28943,776.896505 457.81592,804.102712 Z" id="Path-177-Copy-2" fill="#E85353" transform="translate(663.806669, 623.090612) rotate(-46.000000) translate(-663.806669, -623.090612) "></path>
        <path d="M1221.69519,604.844402 L1245.69888,931.573294 C1246.82366,946.88334 1255.53811,959.997346 1268.06345,967.244513 C1263.59656,967.958904 1259.03521,968.377156 1254.40127,968.479469 L1058.37683,972.807509 C1045.54535,973.090816 1032.7793,970.901378 1020.7755,966.358702 L908.993334,924.056256 L795.522496,1000.4639 C778.377213,1012.00898 758.07561,1017.95743 737.410856,1017.49083 L575.175244,1013.82762 C519.960843,1012.5809 476.211391,966.810118 477.458109,911.595716 C477.840202,894.673688 482.511382,878.125545 491.034077,863.501431 L729.756421,453.877174 C757.56488,406.160572 818.790038,390.021833 866.50664,417.830291 C868.756343,419.141382 870.953979,420.539841 873.094524,422.022471 L1135.85517,604.021426 L1221.69519,604.844402 Z M1349.04612,893.42573 C1340.67401,926.066829 1316.44285,951.929953 1285.3672,962.857362 C1291.79094,918.68848 1310.48436,895.633548 1341.44747,893.692571 C1344.15097,893.523098 1346.67905,893.436338 1349.04614,893.42573 Z" id="Combined-Shape" fill="#FF6C6C"></path>
        <path d="M1419.02226,956.134974 C1427.00125,850.018232 1436.0435,796.836039 1446.14901,796.588393 C1456.25451,796.340748 1459.7974,845.625719 1456.77766,944.443306 C1478.51894,847.924436 1496.17198,800.497775 1509.73678,802.163322 C1523.30158,803.82887 1523.31146,850.246265 1509.76643,941.415507 C1539.05647,852.179509 1557.57412,808.037008 1565.31937,808.988005 C1571.83155,809.787602 1570.18285,846.659515 1560.37326,919.603745 C1556.94031,945.13125 1534.32948,963.643043 1508.6266,961.969436 L1419.02226,956.134974 Z M1141.47134,1120.53223 C1139.42878,1045.02776 1142.71998,1006.64053 1151.34494,1005.37054 C1161.81416,1003.829 1172.02463,1047.71239 1181.97637,1137.02072 C1191.77182,1047.71239 1203.82351,1003.05823 1218.13144,1003.05823 C1232.43937,1003.05823 1238.37193,1051.13022 1235.92911,1147.27422 C1254.97951,1051.13022 1268.58949,1003.05823 1276.75906,1003.05823 C1283.603,1003.05823 1286.59738,1041.17603 1285.74221,1117.41163 C1285.4355,1144.75376 1264.00541,1167.1873 1236.70591,1168.74402 L1196.41276,1171.04169 C1167.74053,1172.67669 1143.17166,1150.75869 1141.53666,1122.08646 C1141.50714,1121.56874 1141.48536,1121.0506 1141.47134,1120.53223 Z M328.699241,751.883547 C327.617997,657.66692 332.356846,609.872123 342.915788,608.499157 C355.509346,606.861632 366.407393,668.008947 375.60993,791.941101 C390.100408,668.42251 405.929098,606.813039 423.096,607.112688 C440.262901,607.412338 446.370193,665.439056 441.417876,781.192844 C466.296257,665.786867 483.63644,608.169426 493.438426,608.34052 C501.780829,608.486137 504.528839,655.936997 501.682456,750.693099 C500.767773,781.142951 476.451914,805.695836 446.012367,806.90585 L388.999183,809.172203 C356.991946,810.444535 330.013525,785.528972 328.741193,753.521735 C328.719495,752.975897 328.70551,752.42978 328.699241,751.883547 Z M305.445326,948.450401 C295.371258,896.35908 293.495739,869.262097 299.818768,867.159453 C308.19857,864.372854 323.738443,904.593858 346.438388,987.822465 C339.966781,901.732364 342.610143,857.650658 354.368473,855.577348 C366.126803,853.504037 377.982962,892.234193 389.93695,971.767816 C391.631158,889.827648 395.835157,848.265652 402.548948,847.08183 C407.746126,846.165427 414.968374,872.529619 424.215693,926.174406 C429.424293,956.390115 410.215219,985.440039 380.372625,992.478372 L375.353536,993.662117 C344.331994,1000.9785 313.252962,981.761677 305.936576,950.740135 C305.757367,949.980289 305.593595,949.216885 305.445326,948.450401 Z M139.538025,813.008188 C127.942157,754.02818 125.628578,723.378174 132.59729,721.05817 C141.599814,718.061075 158.314228,761.379677 182.740533,851.013974 C175.749633,758.305344 178.570641,710.837268 191.203558,708.609744 C203.836475,706.38222 216.592248,748.093805 229.470878,833.744499 C231.255599,745.50826 235.754541,700.754203 242.967705,699.482328 C248.68753,698.473768 256.703002,728.292478 267.01412,788.938456 C272.144357,819.112512 252.945049,848.079713 223.156231,855.109602 L209.770085,858.26861 C178.593935,865.625898 147.356411,846.316894 139.999124,815.140743 C139.832066,814.432845 139.67834,813.721868 139.538025,813.008188 Z M974.734461,956.62152 C972.334325,873.276214 975.81672,830.91331 985.181646,829.532808 C996.372878,827.883087 1007.28753,874.846016 1017.92559,970.421595 C1028.39659,874.846016 1041.27943,827.058226 1056.57411,827.058226 C1071.8688,827.058226 1078.2105,878.503696 1075.59921,981.394635 C1095.96343,878.503696 1110.51203,827.058226 1119.24502,827.058226 C1126.66411,827.058226 1129.8513,869.009522 1128.80657,952.912113 C1128.46644,980.227841 1107.04781,1002.62315 1079.77437,1004.18014 L1029.67668,1007.04014 C1001.00456,1008.67699 976.434288,986.760564 974.797443,958.088441 C974.769546,957.599788 974.74855,957.110766 974.734461,956.62152 Z M756.40184,185.238333 C754.679266,203.787009 753.193842,217.120923 751.94557,225.240076 C750.591094,234.050005 745.741555,245.674535 740.641226,262.182843 C740.366018,263.073612 739.640515,265.780664 738.464716,270.303999 C735.448395,281.907878 723.862858,289.108224 712.122782,286.67536 L703.421572,284.872232 C692.259007,282.559044 685.08517,271.634788 687.398358,260.472223 C687.888422,258.107358 688.789712,255.846847 690.061209,253.793546 C700.715762,236.587975 706.904241,223.903797 708.626644,215.741011 C709.995113,209.255588 711.263186,198.689094 712.430865,184.041528 C709.740037,184.097137 707.451317,184.056839 705.637862,183.790778 C670.355522,178.61434 633.190535,162.033227 634.893555,145.830078 C636.064639,134.687951 655.088094,132.830558 685.692783,131.025216 C699.594166,130.205186 720.187156,128.947744 736.828481,130.696818 C753.835623,132.48434 769.194501,139.158908 784.449649,142.215372 C798.233097,144.976972 809.134085,149.04939 818.505289,151.875466 C831.253938,155.720079 840.084742,158.578844 839.416533,164.936424 C838.411987,174.494043 826.343553,182.854381 793.352826,186.715114 C784.277985,187.777095 770.431054,186.49243 756.40184,185.238333 Z" id="Combined-Shape" fill="#C8FF57"></path>
        <path d="M636,134.411689 C636.099649,133.75097 636.22826,133.085945 636.385833,132.416613 C637.747538,126.632427 643.093787,123.637286 647.123085,119.878433 C653.260561,114.152901 668.546136,110.258995 692.97981,108.196715 C707.906344,74.6652142 725.819026,58.6301582 746.717855,60.0915467 C767.616685,61.5529353 781.793468,81.4818973 789.248206,119.878433 C826.490523,134.086586 842.314741,151.599313 836.720862,172.416613 C836.150634,174.538684 835.148652,176.404535 833.713038,178.028874 C835.317783,176.137944 836.253282,174.100877 836.630153,171.963537 C837.740216,165.668056 829.130341,162.200249 816.680935,157.475701 C807.529695,154.002807 796.939339,149.179894 783.382106,145.463537 C768.377327,141.350373 753.521457,133.620683 736.680435,130.651156 C720.201657,127.745503 699.571115,127.563387 685.646392,127.411708 C660.679855,127.139753 642.820158,128.089867 636,134.411689 Z M717.207857,159.973466 C719.583265,156.108301 723.350121,153.300917 727.732961,152.12926 C737.19156,149.600707 746.909066,155.21862 749.437618,164.677219 L749.437585,164.677228 C751.080657,170.823496 751.902193,176.110719 751.902193,180.538896 C751.902193,186.967797 755.448577,193.430697 762.541347,199.927596 C762.667657,200.043295 762.76213,200.189501 762.815707,200.352198 C762.988446,200.87675 762.703245,201.442016 762.178693,201.614755 L762.178705,201.614794 C760.02884,202.322761 758.668825,202.663473 758.098662,202.636932 C744.715726,202.013953 733.104731,199.212541 726.708741,198.46479 C720.383764,197.725341 710.813361,198.843771 697.655728,196.384704 C696.851163,196.234337 695.433535,195.282855 693.402843,193.530258 C693.351942,193.486328 693.305602,193.437377 693.264525,193.384147 C692.927113,192.946907 693.00804,192.318927 693.445287,191.981525 C702.276189,185.166842 707.974389,180.05301 710.539888,176.640029 C715.056496,170.631411 715.165378,163.296903 717.207857,159.973466 Z" id="Combined-Shape" fill="#82D121" transform="translate(736.908300, 131.319185) rotate(-4.000000) translate(-736.908300, -131.319185) "></path>
        <path d="M1135.80435,606.560286 C1134.9189,605.899948 1134.73641,604.646837 1135.39675,603.761383 C1136.05708,602.87593 1137.31019,602.693438 1138.19565,603.353776 L1197.19565,647.353776 C1198.0811,648.014114 1198.26359,649.267226 1197.60325,650.152679 C1196.94292,651.038132 1195.68981,651.220624 1194.80435,650.560286 L1135.80435,606.560286 Z M947.671609,479.239924 C948.350306,478.037536 949.875226,477.613001 951.077614,478.291699 C952.280001,478.970396 952.704536,480.495316 952.025839,481.697703 C948.657406,487.665257 945.349051,493.463477 942.100765,499.092377 C941.410658,500.288252 939.881767,500.698257 938.685892,500.00815 C937.490017,499.318043 937.080011,497.789152 937.770118,496.593277 C941.01037,490.9783 944.310871,485.193845 947.671609,479.239924 Z M927.695579,513.833093 C928.399104,512.645062 929.932513,512.252292 931.120544,512.955817 C932.308575,513.659342 932.701345,515.192751 931.99782,516.380782 C928.48056,522.320322 925.039498,528.044977 921.67461,533.554776 C920.954982,534.733123 919.41637,535.104988 918.238023,534.38536 C917.059676,533.665732 916.687811,532.127119 917.407439,530.948773 C920.760301,525.458668 924.189689,519.753432 927.695579,513.833093 Z M906.868925,547.894109 C907.608352,546.728085 909.153026,546.38226 910.31905,547.121687 C911.485075,547.861114 911.8309,549.405788 911.091472,550.571812 C907.348712,556.47388 903.709857,562.082579 900.174825,567.397985 C899.410228,568.547661 897.858403,568.85983 896.708726,568.095233 C895.559049,567.330636 895.24688,565.778811 896.011477,564.629134 C899.52597,559.34461 903.145147,553.766243 906.868925,547.894109 Z M884.748767,581.064834 C885.546812,579.938117 887.107139,579.671676 888.233855,580.46972 C889.360572,581.267765 889.627013,582.828092 888.828968,583.954809 C884.684581,589.806047 880.702468,595.197517 876.882202,600.129526 C876.036699,601.22108 874.466404,601.420544 873.37485,600.575041 C872.283296,599.729538 872.083832,598.159243 872.929335,597.067689 C876.704306,592.194157 880.644259,586.859769 884.748767,581.064834 Z M860.302664,612.341811 C861.222696,611.312294 862.803119,611.223539 863.832636,612.143571 C864.862153,613.063604 864.950908,614.644026 864.030875,615.673543 C858.849921,621.471036 854.026027,626.237394 849.551447,629.974792 C848.491755,630.859901 846.915183,630.718374 846.030074,629.658682 C845.144965,628.59899 845.286492,627.022417 846.346184,626.137308 C850.618894,622.568522 855.273636,617.969298 860.302664,612.341811 Z M830.116722,635.142861 C831.471658,634.877316 832.785317,635.760441 833.050863,637.115377 C833.316408,638.470313 832.433283,639.783972 831.078347,640.049517 C825.614869,641.12027 818.691499,640.962132 810.275492,639.609389 C808.912278,639.390274 807.984803,638.107542 808.203918,636.744327 C808.423034,635.381113 809.705766,634.453638 811.06898,634.672753 C818.950252,635.939546 825.310414,636.084819 830.116722,635.142861 Z M791.873147,630.239011 C793.200472,630.619241 793.968244,632.003487 793.588014,633.330812 C793.207784,634.658137 791.823538,635.425909 790.496213,635.045679 C784.59086,633.354011 778.199714,631.28561 771.321581,628.840535 C770.020626,628.378064 769.340899,626.948525 769.80337,625.647569 C770.26584,624.346613 771.69538,623.666886 772.996336,624.129357 C779.780088,626.540881 786.072756,628.577412 791.873147,630.239011 Z M754.409993,617.07745 C755.691639,617.591016 756.314291,619.046322 755.800726,620.327968 C755.28716,621.609613 753.831854,622.232266 752.550208,621.7187 C746.663081,619.359683 740.490843,616.780902 734.033304,613.982333 C732.766446,613.433302 732.184532,611.961232 732.733564,610.694374 C733.282595,609.427516 734.754664,608.845602 736.021523,609.394633 C742.437551,612.175213 748.567104,614.73616 754.409993,617.07745 Z M717.783474,601.253115 C719.038576,601.828515 719.589583,603.31243 719.014183,604.567531 C718.438783,605.822633 716.954868,606.37364 715.699767,605.79824 C709.851707,603.117204 703.802826,600.281611 697.553067,597.291447 C696.307569,596.695545 695.780967,595.202796 696.376869,593.957297 C696.972771,592.711799 698.465521,592.185197 699.711019,592.781099 C705.936565,595.759678 711.960735,598.583687 717.783474,601.253115 Z M681.750464,584.035756 C682.987919,584.648188 683.4946,586.147816 682.882169,587.385271 C682.269737,588.622725 680.770109,589.129406 679.532654,588.516975 C673.721158,585.640795 667.754939,582.645606 661.633975,579.531404 C660.403379,578.905306 659.913337,577.400158 660.539435,576.169562 C661.165534,574.938966 662.670682,574.448924 663.901278,575.075022 C670.00602,578.180971 675.955756,581.167885 681.750464,584.035756 Z M1126.81987,606.668107 C1127.74443,605.642652 1129.32523,605.560857 1130.35069,606.485415 C1131.37614,607.409972 1131.45794,608.99077 1130.53338,610.016225 C1125.94754,615.102521 1121.5092,620.068104 1117.21836,624.912959 C1116.30293,625.946577 1114.72292,626.042393 1113.68931,625.12697 C1112.65569,624.211547 1112.55987,622.631537 1113.4753,621.597919 C1117.77608,616.741834 1122.22427,611.765235 1126.81987,606.668107 Z M1100.27882,636.653465 C1101.18322,635.610187 1102.76212,635.497602 1103.8054,636.402 C1104.84868,637.306398 1104.96127,638.885302 1104.05687,639.92858 C1099.53812,645.141228 1095.20983,650.197952 1091.07202,655.098717 C1090.18128,656.153687 1088.60398,656.286827 1087.54901,655.396095 C1086.49404,654.505362 1086.3609,652.928059 1087.25163,651.873089 C1091.40372,646.955425 1095.74611,641.88223 1100.27882,636.653465 Z M1074.43945,667.293139 C1075.31266,666.223619 1076.88755,666.064475 1077.95707,666.937682 C1079.02659,667.810889 1079.18574,669.385782 1078.31253,670.455302 C1073.89338,675.86796 1069.74251,681.060819 1065.85998,686.033754 C1065.0103,687.122062 1063.43926,687.315511 1062.35095,686.465834 C1061.26264,685.616157 1061.06919,684.045109 1061.91887,682.956801 C1065.82436,677.954454 1069.99787,672.733275 1074.43945,667.293139 Z M1049.79188,698.959138 C1050.60773,697.845244 1052.17209,697.603629 1053.28599,698.419475 C1054.39988,699.235321 1054.6415,700.799685 1053.82565,701.913579 C1049.57691,707.71448 1045.77942,713.144765 1042.43344,718.203628 C1041.67176,719.355236 1040.12073,719.671333 1038.96912,718.909649 C1037.81751,718.147965 1037.50142,716.596934 1038.2631,715.445326 C1041.65503,710.316991 1045.49786,704.821865 1049.79188,698.959138 Z M1027.77874,732.731278 C1028.43473,731.516354 1029.9514,731.06325 1031.16633,731.719241 C1032.38125,732.375233 1032.83436,733.89191 1032.17837,735.106834 C1028.36008,742.178455 1025.87796,748.129758 1024.72571,752.925953 C1024.40318,754.268465 1023.0534,755.095326 1021.71089,754.772798 C1020.36837,754.450269 1019.54151,753.100486 1019.86404,751.757974 C1021.13122,746.483388 1023.77155,740.152753 1027.77874,732.731278 Z M1025.56833,772.308002 C1024.67599,771.254388 1024.80674,769.676884 1025.86035,768.784549 C1026.91397,767.892214 1028.49147,768.022957 1029.3838,769.076572 C1032.68702,772.976809 1037.46352,777.378141 1043.7058,782.25888 C1044.7935,783.109335 1044.98583,784.680521 1044.13537,785.768221 C1043.28492,786.855921 1041.71373,787.048246 1040.62603,786.197791 C1034.13577,781.123163 1029.11904,776.500462 1025.56833,772.308002 Z M1057.01013,797.913697 C1055.86041,797.149178 1055.54813,795.597373 1056.31265,794.447645 C1057.07717,793.297917 1058.62898,792.985643 1059.7787,793.750163 C1064.85317,797.124466 1070.45827,800.668235 1076.59352,804.380955 C1077.77478,805.09579 1078.15289,806.632879 1077.43806,807.81414 C1076.72322,808.9954 1075.18613,809.373513 1074.00487,808.658678 C1067.81108,804.91053 1062.14632,801.329041 1057.01013,797.913697 Z M1091.35075,818.807874 C1090.15002,818.126258 1089.72919,816.600311 1090.4108,815.399576 C1091.09242,814.198841 1092.61837,813.778012 1093.8191,814.459629 C1099.31512,817.579534 1105.13182,820.801328 1111.26909,824.12493 C1112.4832,824.782424 1112.93443,826.29966 1112.27693,827.513772 C1111.61944,828.727883 1110.1022,829.17911 1108.88809,828.521615 C1102.72223,825.18253 1096.87648,821.944642 1091.35075,818.807874 Z M1126.61863,837.942246 C1125.39464,837.303336 1124.92034,835.793154 1125.55925,834.569161 C1126.19816,833.345168 1127.70834,832.870865 1128.93233,833.509775 C1134.62226,836.479849 1140.54149,839.522684 1146.69002,842.638257 C1147.92164,843.262341 1148.41414,844.766686 1147.79006,845.998304 C1147.16597,847.229923 1145.66163,847.722426 1144.43001,847.098342 C1138.26384,843.973828 1132.32673,840.921804 1126.61863,837.942246 Z M1162.26807,856.02367 C1161.03037,855.411749 1160.52307,853.912329 1161.13499,852.674622 C1161.74691,851.436916 1163.24633,850.929617 1164.48404,851.541539 C1170.28853,854.411276 1176.27157,857.337635 1182.43314,860.320606 C1183.67588,860.922246 1184.19559,862.417408 1183.59395,863.660145 C1182.99231,864.902882 1181.49715,865.422594 1180.25441,864.820955 C1174.08057,861.832044 1168.08513,858.899618 1162.26807,856.02367 Z M1198.32102,873.486638 C1197.07405,872.893815 1196.54376,871.402371 1197.13659,870.155404 C1197.72941,868.908437 1199.22085,868.378149 1200.46782,868.970973 C1206.34696,871.765988 1212.37209,874.607285 1218.5432,877.494862 C1219.79377,878.08003 1220.33319,879.568196 1219.74803,880.818773 C1219.16286,882.06935 1217.67469,882.608771 1216.42411,882.023602 C1210.24385,879.131744 1204.20949,876.286091 1198.32102,873.486638 Z M1234.56975,890.453654 C1233.31604,889.875218 1232.76863,888.389975 1233.34707,887.136269 C1233.9255,885.882564 1235.41074,885.335149 1236.66445,885.913585 C1237.84125,886.45654 1239.02292,887.001035 1240.20944,887.547069 C1241.46371,888.124282 1242.01257,889.608991 1241.43536,890.86326 C1240.85814,892.117529 1239.37343,892.666392 1238.11916,892.089179 C1236.93117,891.542466 1235.74803,890.997291 1234.56975,890.453654 Z M932.19855,871.249801 C932.678365,870.254888 933.873867,869.837317 934.868781,870.317132 C935.863694,870.796946 936.281264,871.992449 935.80145,872.987362 L910.80145,924.825812 C910.321635,925.820725 909.126133,926.238295 908.131219,925.758481 C907.136306,925.278667 906.718736,924.083164 907.19855,923.088251 L932.19855,871.249801 Z" id="Combined-Shape" fill="#E85353"></path>
        <path d="M1221.11178,293.810276 C1212.5978,297.64774 1204.94456,303.052629 1198.2907,309.720656 C1197.63554,309.922835 1196.93761,310.115559 1196.1969,310.298828 C1191.44862,311.47367 1184.77634,312.525312 1176.18005,313.453755 C1170.78818,314.479082 1165.16682,314.643619 1159.50663,313.841749 C1155.88198,313.328251 1152.10531,312.77398 1148.17663,312.178937 C1117.24466,307.493945 1097.9305,278.996224 1101.84813,245.820969 C1105.76575,212.645714 1111.0548,187.2252 1126.40446,171.471592 C1133.36253,164.330412 1138.33418,152.501477 1168.16954,153.209309 C1177.53152,153.431418 1191.07388,158.268579 1208.79663,167.72079 C1231.71396,178.932846 1241.66542,194.03798 1238.65102,213.036192 C1237.74244,218.762455 1235.86082,225.946778 1233.00615,234.58916 C1245.28407,239.385139 1252.17136,252.604422 1248.546,265.24756 C1246.66021,271.824088 1235.89948,287.522247 1222.71864,291.773526 C1221.91213,292.033653 1221.086,292.238231 1220.24414,292.391974 L1221.11178,293.810276 Z M621.586518,323.248311 L591.462824,310.313906 C597.854494,300.190082 603.908089,294.217408 609.623612,292.395884 C615.339134,290.57436 626.193345,291.158554 642.186246,294.148465 C646.30122,295.491974 650.163028,296.799367 653.771671,298.070645 L673.984608,218.95632 C684.979749,223.714694 691.827857,228.780208 694.528933,234.152862 C697.230008,239.525516 698.372292,250.353528 697.955784,266.636897 C697.411362,270.095899 696.864021,273.387554 696.313761,276.511861 L739.888994,296.705543 C735.805812,279.479069 735.056193,266.15796 737.640138,256.742217 C740.224083,247.326473 746.486143,240.560571 756.426318,236.444509 L791.601381,319.311765 C800.618053,333.116945 797.779358,350.092067 783.085295,370.237132 C768.391232,390.382197 745.66995,400.026809 714.921449,399.170968 L638.876883,370.231205 L639.551238,368.573474 L572.223515,339.664536 C578.615184,329.540712 584.66878,323.568038 590.384302,321.746513 C595.936259,319.977117 606.337,320.477717 621.586523,323.248313 Z M1419.4401,999.072963 L1430.21445,1024.69674 L1315.4823,1014.8021 C1295.0485,1008.29726 1282.16513,988.138767 1284.84394,966.86256 C1290.84819,919.174701 1309.86668,894.326757 1341.89941,892.318729 C1401.27326,888.596774 1375.74547,925.756817 1418.57469,932.325781 C1425.87595,933.445616 1431.52937,935.039201 1437.22459,935.576204 C1446.12802,936.415708 1455.21203,937.44196 1464.47662,938.654957 C1466.83423,938.929293 1469.32699,939.221453 1471.95491,939.531436 C1480.39715,940.527261 1488.67795,942.595486 1496.597,945.686078 C1509.46553,950.708323 1517.98149,955.427183 1522.14486,959.842658 C1526.71756,964.692245 1529.70248,973.060392 1531.09964,984.947101 C1531.15079,985.382282 1531.15412,985.821757 1531.10956,986.257662 C1530.77259,989.554194 1527.82705,991.953389 1524.53052,991.616414 L1506.01873,989.724126 C1507.3368,994.801582 1508.20238,1000.88175 1508.61549,1007.96462 L1419.4401,999.072963 Z" id="Combined-Shape" fill="#FFBEBE"></path>
        <path d="M1160.69389,156.507542 C1152.82697,157.960486 1145.37952,160.82463 1138.35155,165.099974 C1126.52606,172.293803 1118.53005,181.283764 1113.95583,190.814625 C1112.8341,193.151868 1111.57413,196.606639 1110.17592,201.178937 C1107.21613,200.985132 1107.54263,197.101449 1111.15544,189.527889 C1127.04519,156.218054 1139.12697,156.532141 1154.22481,153.373019 C1161.96693,151.753034 1167.88598,151.781397 1171.98194,153.458109 C1175.17863,153.058342 1178.28942,153.087916 1181.31431,153.546833 C1192.415,155.23096 1224.65843,175.821809 1239.17663,207.178937 C1239.97421,208.901587 1245.16969,200.872114 1245.8254,202.720894 C1247.75473,208.160628 1249.04246,213.115023 1249.6886,217.584081 C1249.85989,218.768816 1249.94586,219.964323 1249.94586,221.161376 C1249.94586,228.642647 1246.65972,235.356398 1241.45213,239.937934 C1238.52855,237.226964 1234.92603,235.136191 1230.80974,233.955865 C1221.08231,231.166567 1211.09367,234.209486 1204.7225,240.991485 C1203.19059,238.9641 1202.23743,236.470064 1202.11423,233.749471 C1201.92541,229.579895 1201.85696,224.616683 1201.90888,218.859835 C1202.06467,201.587438 1186.82058,181.491933 1156.17663,158.57332 C1157.69893,157.802015 1159.20469,157.113422 1160.69389,156.507542 Z" id="Combined-Shape" fill="#7821D1"></path>
        <path d="M1154.41511,167.240335 C1176.71279,171.511844 1214.22684,194.372292 1226.49139,221.043707 C1228.11872,224.582619 1230.49329,229.235576 1233.6151,235.002578 C1238.23238,237.563839 1241.43896,239.863435 1243.23486,241.901367 C1245.43247,244.395143 1247.28241,247.869915 1248.7847,252.325684 L1256.46188,242.515648 C1264.68083,232.013311 1264.35209,217.171748 1255.67617,207.043635 C1244.71396,194.246557 1235.9177,184.980023 1229.2874,179.244032 C1210.46585,162.961175 1174.33349,140.478666 1140.64798,143.444864 C1121.29632,145.148886 1113.51977,156.65991 1117.31833,177.977936 C1127.18439,167.971863 1139.54999,164.392663 1154.41511,167.240335 Z" id="Mask" fill="#FFE640"></path>
        <path d="M1167.81703,209.851365 C1167.81703,185.386232 1155.43651,169.898665 1130.28741,162.992419 C1129.22228,162.699919 1128.59593,161.599337 1128.88843,160.534199 C1129.18093,159.469062 1130.28151,158.842715 1131.34665,159.135215 C1158.19755,166.508796 1171.81703,183.54626 1171.81703,209.851365 L1171.81703,238.063793 C1171.81703,238.063793 1171.81703,238.063793 1167.81703,238.063793 L1167.81703,209.851365 Z M783.813094,332.799106 C780.787025,334.210185 765.878917,333.919055 764.701954,332.297584 C763.221405,330.257869 775.874186,325.712436 779.680803,323.937381 C783.760402,322.035033 789.173123,315.508126 789.906348,317.978692 C790.401159,319.645935 787.931614,330.688338 785.571275,331.928378 C785.003608,332.226611 784.416722,332.51763 783.813094,332.799106 Z M744.996207,315.076418 C742.343075,316.715259 739.350997,314.49062 737.066503,310.877607 C736.109742,309.364454 734.595457,308.362551 734.528092,306.863013 C734.434606,304.782048 735.181328,302.945004 736.723264,301.992445 C739.376396,300.353604 741.301186,303.237534 743.58568,306.850547 C745.870174,310.46356 747.64928,313.437482 744.996207,315.076418 Z M738.459734,294.86225 C731.887386,292.733131 728.931843,294.558845 728.109854,301.193236 C727.940084,302.563471 726.691663,303.536641 725.321429,303.366871 C723.951194,303.197101 722.978025,301.948681 723.147794,300.578446 C724.360023,290.794377 730.472059,287.018818 740.000651,290.105615 C741.31416,290.531127 742.034023,291.940882 741.60851,293.254391 C741.182998,294.567899 739.773243,295.287762 738.459734,294.86225 Z M759.133887,291.57359 C758.548914,290.322922 759.088568,288.83484 760.339236,288.249868 C761.589905,287.664895 763.077987,288.204548 763.662959,289.455217 C763.866168,289.889676 770.134048,297.942308 780.686007,311.224101 C781.560926,312.325364 781.355511,313.931362 780.231578,314.776962 L771.174165,321.591386 C770.070846,322.421478 768.503507,322.199984 767.673415,321.096665 C766.843323,319.993346 767.064818,318.426006 768.168137,317.595915 L775.17491,312.324308 C764.424558,298.78042 759.592898,292.554953 759.133887,291.57359 Z M786.252252,290.725808 C783.78488,292.342244 780.851574,290.127738 778.541114,286.539112 C777.573478,285.036173 776.093524,284.03832 775.973849,282.551617 C775.807772,280.488463 776.451307,278.669697 777.885302,277.730195 C780.352674,276.113759 782.293414,278.978534 784.603874,282.56716 C786.914335,286.155785 788.719591,289.109322 786.252252,290.725808 Z M779.125838,270.681873 C772.894898,268.588084 770.297463,270.289766 769.764717,276.802835 C769.652156,278.178951 768.445345,279.203264 767.069229,279.090703 C765.693113,278.978142 764.668799,277.77133 764.781361,276.395214 C765.579392,266.638891 771.414704,262.815949 780.718479,265.942307 C782.027275,266.382102 782.731738,267.799615 782.291942,269.108411 C781.852146,270.417206 780.434633,271.121669 779.125838,270.681873 Z M1201.40063,112.648179 L1223.38853,142.394847 C1224.04474,143.282622 1223.85644,144.533697 1222.96794,145.1892 C1222.07943,145.844704 1220.82719,145.65641 1220.17097,144.768635 L1198.18307,115.021967 C1197.52685,114.134191 1197.71515,112.883117 1198.60366,112.227613 C1199.49216,111.57211 1200.74441,111.760403 1201.40063,112.648179 Z M1308.02374,163.720838 C1308.88621,164.410288 1309.02595,165.667721 1308.33586,166.529392 C1307.64577,167.391063 1306.38717,167.530676 1305.52471,166.841225 C1290.61184,154.919997 1275.54859,155.997727 1259.65325,170.235674 C1242.94898,185.198203 1233.45784,193.469664 1230.92849,195.255536 C1230.02645,195.892434 1228.77841,195.678167 1228.14093,194.776957 C1227.50344,193.875746 1227.7179,192.628863 1228.61995,191.991965 C1230.95412,190.343901 1240.49226,182.031473 1256.98306,167.260162 C1274.28278,151.764268 1291.52358,150.530741 1308.02374,163.720838 Z M1179.39119,260.742062 C1178.73742,261.63155 1177.48569,261.823125 1176.59538,261.169956 C1175.70507,260.516787 1175.51332,259.266216 1176.16709,258.376728 C1192.33117,236.384769 1215.49758,229.015217 1245.25543,236.305121 C1246.32822,236.567927 1246.98465,237.649837 1246.7216,238.721636 C1246.45855,239.793434 1245.37564,240.449252 1244.30285,240.186446 C1216.05835,233.267276 1194.5581,240.106798 1179.39119,260.742062 Z M1341.02475,181.706401 C1341.88721,182.395852 1342.02696,183.653284 1341.33687,184.514955 C1340.64678,185.376626 1339.38818,185.516239 1338.52572,184.826788 C1323.61285,172.905561 1308.5496,173.983291 1292.65426,188.221238 C1275.94999,203.183767 1266.45885,211.455227 1263.9295,213.2411 C1263.02746,213.877998 1261.77942,213.66373 1261.14194,212.76252 C1260.50445,211.86131 1260.71891,210.614427 1261.62096,209.977529 C1263.95513,208.329465 1273.49327,200.017036 1289.98407,185.245725 C1307.28379,169.749832 1324.52459,168.516304 1341.02475,181.706401 Z M814.214658,1145.82157 C811.544999,1131.26326 813.604901,1119.88374 820.517255,1111.82534 C827.342193,1103.86884 844.849729,1090.04579 873.177407,1070.20426 C874.081425,1069.57106 875.327401,1069.79141 875.960372,1070.69642 C876.593343,1071.60143 876.373616,1072.8484 875.469598,1073.4816 C847.429,1093.12205 830.076586,1106.82263 823.549898,1114.43143 C820.569349,1117.90614 818.611709,1122.14831 817.691764,1127.17507 C838.340358,1115.39206 851.600076,1114.98314 856.421847,1126.99878 C857.067228,1127.09869 857.651119,1127.51263 857.940362,1128.15249 C858.395346,1129.159 857.948966,1130.34336 856.943345,1130.79784 L816.375503,1149.13198 C815.369882,1149.58646 814.185828,1149.13895 813.730844,1148.13244 C813.362874,1147.31842 813.584472,1146.38807 814.214658,1145.82158 Z M817.956447,1144.02797 L852.652173,1128.34766 C848.81176,1119.24036 837.494007,1120.03782 817.559814,1131.88065 C817.423407,1131.96169 817.281254,1132.02462 817.136149,1132.07014 C816.953972,1135.71024 817.225987,1139.69454 817.956447,1144.02797 Z M793.860005,1086.17801 C794.889941,1085.70247 795.64691,1085.36069 796.138811,1085.14941 C796.415453,1085.03058 796.618,1084.94851 796.774652,1084.89402 C797.013055,1084.8111 797.158102,1084.77123 797.435867,1084.75813 C797.711392,1084.74266 797.711392,1084.74266 798.360668,1084.93389 C799.35733,1085.64737 799.35733,1085.64737 799.52247,1087.01148 C799.059241,1088.14984 799.059241,1088.14984 798.849039,1088.27604 C798.501253,1088.58377 797.552835,1089.09189 794.747611,1090.53414 C790.103928,1092.92161 781.118171,1097.43503 767.783522,1104.0779 C741.96571,1116.93947 732.887845,1135.50956 740.155185,1160.34594 C740.465274,1161.40568 739.857972,1162.51686 738.798736,1162.82784 C737.739501,1163.13882 736.629443,1162.53182 736.319354,1161.47208 C728.486648,1134.70355 738.513155,1114.19287 766.004131,1100.49779 C779.323876,1093.86234 788.299063,1089.35423 792.922873,1086.97698 C792.948668,1086.96372 792.974327,1086.95052 792.999849,1086.9374 C793.199166,1086.6164 793.491449,1086.34818 793.860005,1086.17801 Z" id="Combined-Shape" fill="#FF6C6C" transform="translate(1032.451934, 637.373027) scale(-1, 1) rotate(23.000000) translate(-1032.451934, -637.373027) "></path>
        <path d="M1454.77876,567.21631 C1483.88655,566.229379 1502.34179,564.654108 1510.14448,562.490497 C1516.33092,560.775057 1525.54717,556.919697 1537.79321,550.924417 L1537.79321,515 C1531.89325,518.508121 1520.26055,522.660689 1502.8951,527.457704 C1490.87422,530.778341 1474.06063,531.800334 1452.45432,530.523681 L1447.12866,446.455131 C1480.67357,445.492817 1501.67884,443.837939 1510.14448,441.490497 C1516.29289,439.785602 1525.43397,435.967015 1537.56772,430.034737 C1537.6699,469.732175 1537.74507,497.883276 1537.79321,514.488037 C1537.84851,533.558405 1537.92999,558.721435 1538.03765,589.977127 C1538.11476,612.364375 1520.97283,631.051339 1498.66205,632.901724 C1477.25985,634.676754 1458.47099,618.765787 1456.69596,597.363584 C1456.67509,597.111914 1456.65667,596.860046 1456.6407,596.608017 L1454.77876,567.21631 Z M1444.75513,408.987672 L1444.22349,400.595358 C1442.53959,374.014173 1462.68856,351.085388 1489.26571,349.338956 C1514.19965,347.700502 1535.74084,366.58523 1537.3793,391.519178 C1537.43764,392.407064 1537.46978,393.296464 1537.47569,394.186218 C1531.48114,397.654799 1519.95428,401.745294 1502.8951,406.457704 C1489.48214,410.162888 1470.10215,411.006211 1444.75513,408.987672 Z M1226.40219,176.949792 L1212.43807,201.178937 L1203.17663,192.585025 L1219.92267,171.864518 C1209.36121,163.985088 1195.82505,155.753539 1181.14764,150.106734 L1186.20595,152.178937 L1177.52504,175.744798 C1176.10008,175.004482 1175.00099,174.45064 1174.22778,174.083272 C1173.45456,173.715905 1172.46765,173.278657 1171.26706,172.77153 L1178.68049,149.186181 C1171.27584,146.509717 1163.61109,144.521357 1155.91591,143.588969 C1172.79204,133.875163 1184.06668,125.486156 1189.73982,118.421946 C1196.74137,109.7036 1208.35719,106.145373 1219.04057,109.446366 L1238.62186,115.496667 C1249.34736,118.810699 1256.04276,129.463434 1254.3777,140.565083 C1252.14387,155.459026 1252.57615,177.710654 1255.67454,207.319966 C1255.54913,207.167186 1255.42186,207.01542 1255.29275,206.864698 C1244.33054,194.06762 1235.53429,184.801086 1228.90399,179.065095 C1228.10105,178.370458 1227.2666,177.664538 1226.40219,176.949792 Z M1133.60577,144.629883 C1135.10946,144.143972 1136.3679,143.817068 1137.3811,143.64917 C1138.39431,143.481272 1139.82591,143.379709 1141.6759,143.344482 L1139.93628,166.66748 C1138.87675,166.844378 1138.02502,166.989886 1137.3811,167.104004 C1136.73719,167.218122 1135.72872,167.402285 1134.35571,167.656494 L1133.60577,144.629883 Z M1262.10438,221.6352 C1255.27138,227.295672 1250.13219,231.071963 1246.6868,232.964075 C1243.24141,234.856186 1238.57245,234.968168 1232.6799,233.300022 L1230.09375,228.305556 C1236.28811,228.6988 1240.98404,227.842566 1244.18154,225.736856 C1247.37904,223.631145 1252.3641,219.126991 1259.13672,212.224392 C1260.23874,214.504061 1260.97044,216.216879 1261.33181,217.362847 C1261.69319,218.508815 1261.95071,219.932933 1262.10438,221.6352 Z" id="Combined-Shape" fill="#FFC635"></path>
    </g>
</svg>