<?xml version="1.0" encoding="UTF-8"?>
<svg width="1794px" height="1276px" viewBox="0 0 1794 1276" version="1.1" xmlns="http://www.w3.org/2000/svg" xmlns:xlink="http://www.w3.org/1999/xlink">
    <!-- Generator: Sketch 56.1 (81669) - https://sketch.com -->
    <title>Nature</title>
    <desc>Created with Sketch.</desc>
    <g id="Nature" stroke="none" stroke-width="1" fill="none" fill-rule="evenodd">
        <path d="M1056.02509,607.951293 C1060.29076,614.572122 1063.83705,621.806561 1066.51973,629.584354 C1070.13798,640.074647 1071.98497,651.094021 1071.98497,662.190778 L1071.98497,808.668121 L1445.84551,924.542937 L1445.84569,924.542992 C1481.44702,930.802432 1505.6973,946.314813 1518.59654,971.080137 L1639.39628,1011.2432 C1655.99121,1016.76062 1668.97316,1029.8412 1674.36483,1046.4774 L1681.30677,1067.89705 L1392.56826,1067.89705 C1390.34219,1068.05318 1388.10855,1068.13348 1385.87118,1068.13722 L887.287348,1068.97067 C881.454713,1068.98042 875.737873,1068.49062 870.177314,1067.54163 L378.756351,1068.26178 C299.901379,1068.37734 235.883117,1004.54643 235.76756,925.691457 C235.684123,868.754318 269.436858,817.210151 321.659625,794.524753 C384.185224,767.36384 473.105956,732.58412 587.593636,690.730982 L633.645655,550.358877 L673.198487,396.136575 C685.036289,349.979246 727.798234,318.586463 775.38195,321.120734 L797.619278,322.305077 L794.7611,317 L802.564683,317.652463 L810.254454,246.950699 C800.334127,227.62404 794.373303,212.104764 792.37198,200.39287 C788.838389,179.714021 793.896873,162.050851 807.547432,147.403359 C847.783189,142.394046 874.252552,139.722387 886.955522,139.388384 C908.526654,138.821207 915.381617,140.633725 920.623646,146.02253 C937.07425,162.933746 931.832265,213.568308 928.906373,241.686822 C925.980482,269.805335 921.940974,285.645963 909.408203,291.864673 C903.913512,294.591115 892.026733,296.414408 873.747866,297.33455 L873.218969,323.161658 L946.156851,329.658313 L1281.332,357.682559 C1333.14948,362.015057 1373,405.33656 1373,457.334843 L1373,503.298854 C1373,557.696007 1329.51803,602.115668 1275.13325,603.276097 L1056.02509,607.951293 Z M937.913425,486.826713 L937.913425,524.285133 L1085.43664,486.826713 L937.913425,486.826713 Z" id="Combined-Shape" fill="#C8FF57"></path>
        <path d="M506.50196,720.702442 C506.498277,720.684386 506.494595,720.666329 506.490912,720.648269 C474.646302,564.470465 531.493246,647.643715 551.505599,635.812814 C571.517951,623.981914 511.478332,519.022172 541.498141,493.190264 C571.517951,467.358356 580.521016,521.932647 598.56767,505.712938 C616.614324,489.493228 561.419029,391.319446 590.729098,370.951204 C620.039166,350.582961 633.56725,404.513144 654.660833,387.356678 C675.754416,370.200211 660.768221,282.120084 673.709314,260.623812 C686.650407,239.12754 712.471183,238.222239 720.955492,267.92932 C722.988332,275.047137 726.91891,295.070253 732.747225,327.998667 C704.079575,339.62703 681.525685,364.285584 673.431081,395.847637 L633.878249,550.069939 L587.776257,690.594371 C559.05112,701.091981 531.959688,711.128005 506.50196,720.702442 Z M869.733771,590.992361 C892.439443,583.151984 915.730085,575.146329 939.605698,566.975397 C991.858908,549.092821 1048.7152,576.955726 1066.59777,629.208937 C1070.16472,639.631619 1071.98497,650.57206 1071.98497,661.588204 L1071.98497,860.805251 C1071.98497,876.935946 1067.50317,892.6516 1059.17094,906.252766 C1058.91448,906.557964 1058.65579,906.861564 1058.39487,907.163541 L1048.78224,918.288909 C1041.85609,920.875644 1036.30416,923.12952 1032.12646,925.050537 C1027.94876,926.971553 1021.24434,930.353471 1012.01318,935.196289 L1008.3789,937.018902 L746.603516,634.529297 L807.768688,612.484891 C820.315365,608.112736 833.059136,603.684893 846,599.201364 L846,440.803614 L906.908079,437.233038 C908.210693,437.156676 909.516622,437.155364 910.819386,437.22911 C929.567055,438.29036 943.90473,454.348661 942.84348,473.096329 L939.924806,524.6566 C933.799946,526.487152 927.286946,528.523568 920.385807,530.765846 C896.344219,542.220932 881.412704,551.904591 875.591262,559.816825 C870.192151,567.155046 868.239654,577.546891 869.733771,590.992361 Z" id="Combined-Shape" fill="#FF6C6C"></path>
        <path d="M926.022461,328.011719 L872.884277,323.415527 L873.748893,297.045612 C892.027761,296.12547 903.91454,294.302178 909.40923,291.575735 C920.086367,286.277784 924.599116,273.99627 927.510562,253.088918 L926.022461,328.011719 Z M904.670137,138.623304 L904.658962,138.605541 C911.501539,138.344093 917.475539,139.393199 922.580962,141.75286 C927.686386,144.11252 930.710793,157.36663 931.654183,181.515189 L905.367654,139.732026 L856.3097,206.856358 C853.345272,196.543056 843.868453,189 832.635843,189 C819.029843,189 808,200.067435 808,213.719807 C808,220.403631 813.135356,239.007923 824.672907,245.585184 C834.681838,251.291017 849.165582,248.554869 854.944642,246.598579 L846,599.201172 L670,662 L791.799371,155.505427 C793.49094,148.47115 799.201329,143.115068 806.329405,141.876924 L814.851078,140.396713 C816.003457,140.196545 817.163261,140.044678 818.327447,139.941399 C818.224806,139.862346 818.121138,139.78398 818.01644,139.706299 C814.478793,137.081519 811.337996,133.960473 808.690952,130.439454 C793.479454,110.205575 797.550898,81.4714186 817.784778,66.2599203 L817.784749,66.2598819 C822.616506,62.627446 829.155252,60.6749281 837.400988,60.4023281 C838.903754,60.3526474 840.363445,60.260733 841.780063,60.1265849 C843.272768,59.9852317 844.776319,60.0041505 846.264995,60.1830178 C857.780152,61.5665862 865.993428,72.0230696 864.609861,83.5382273 L857.924895,139.175834 L891.187628,138.623883 L904.670137,138.623304 Z M1197.22488,1067.71034 L1315,1068 L1305.48114,1041.44573 C1299.75264,1025.46524 1286.96554,1013.02563 1270.83333,1007.73948 L1188.8214,980.866071 L1175.35008,841.649221 L1251.88179,865.318728 L1344.37978,1068 L1553,1068 C1520.65646,1089.4658 1492.24856,1104.02098 1467.77631,1111.66553 C1431.06793,1123.13235 1458.08039,1126.18499 1307.72981,1144.61659 C1157.37922,1163.04818 1159.31858,1211.40659 947.825469,1211.40659 C736.332363,1211.40659 720.469489,1207.22642 572.147055,1186.54337 C473.265432,1172.75467 405.18256,1133.24022 367.898437,1068 L456.510789,1068 C454.407517,1064.71413 453.800601,1060.52184 455.227836,1056.5687 L587.331055,690.67041 L670,662 L627.083147,1068 L1197.25291,1068 L1197.22488,1067.71034 Z" id="Combined-Shape" fill="#60CBFF"></path>
        <path d="M1127.58069,291.00987 C1145.01394,280.604751 1166.03866,274.962956 1190.65484,274.084484 C1192.18697,274.029807 1193.69575,274.00161 1195.18117,273.999891 C1191.57824,259.449794 1188.1215,240.489167 1184.81094,217.118012 C1178.13654,195.498834 1189.9115,182.404858 1220.13582,177.836086 C1250.36015,173.267314 1263.39781,187.422995 1259.24879,220.303128 L1259.24879,264 C1253.23497,273.604223 1247.63302,281.704515 1242.44294,288.300876 C1258.61565,301.707473 1266.47443,324.540124 1266.01929,356.798828 L1083.84738,341 C1077.38456,330.62222 1073.45245,321.691145 1072.05105,314.206776 C1070.64965,306.722407 1070.64965,294.653482 1072.05105,278 L1127.58069,291.00987 Z" id="Combined-Shape" fill="#FF8ADF"></path>
        <path d="M522.189852,1033.95847 C540.015015,1021.92167 547.749445,1022.02177 563.970609,1027.7937 C567.506509,1029.05187 571.042908,1031.28934 574.579806,1034.50612 C599.395819,1032.10239 615.209189,1032.57588 622.019917,1035.9266 C629.951461,1039.82873 634.611489,1050.43478 636,1067.74474 L599.783613,1068 L596.993381,1067.98625 C596.995587,1067.99083 596.997794,1067.99542 597,1068 L534.40605,1068 L505.31779,1068 C505.311937,1067.9532 505.306165,1067.90642 505.300474,1067.85968 L477.451767,1068 L445,1067.74027 C449.407812,1051.21215 455.559464,1040.96284 463.454957,1036.99235 C471.340858,1033.02668 490.919156,1032.01539 522.189852,1033.95847 Z" id="Combined-Shape" fill="#FFFFFF"></path>
        <path d="M1194.12661,219.983986 C1190.83646,220.273564 1189.09223,216.599493 1188.68473,211.913792 C1188.51406,209.95139 1187.57145,208.213732 1188.23193,206.707282 C1189.1485,204.616724 1190.73871,203.18386 1192.65092,203.015559 C1195.94107,202.725982 1196.36175,206.516543 1196.76925,211.202245 C1197.17675,215.887946 1197.41677,219.694409 1194.12661,219.983986 Z M1221.79333,217 C1218.67235,217 1217.33115,213.19442 1217.33115,208.5 C1217.33115,206.533946 1216.58606,204.723794 1217.33115,203.283802 C1218.36515,201.285471 1219.97943,200 1221.79333,200 C1224.91431,200 1225,203.80558 1225,208.5 C1225,213.19442 1224.91431,217 1221.79333,217 Z" id="Combined-Shape" fill="#FF66D5"></path>
        <path d="M1259.31348,237.86084 L1263.74658,326.911621 C1254.2111,324.549966 1241.97628,321.933181 1227.04214,319.061267 C1212.10799,316.189352 1200.2915,303.639654 1191.59267,281.412172 L1184,254.923743 L1259.31348,237.86084 Z" id="Path-141" fill="#FBCEE4" fill-rule="nonzero"></path>
        <path d="M1102.70908,271.471648 C1108.63319,276.185139 1112.31691,278.911387 1113.76025,279.650391 C1119.26609,282.469434 1125.51511,283.580968 1131.31525,285.294082 C1137.54893,287.135243 1139.15345,284.007455 1146.83355,285.294082 C1165.45705,288.41403 1175.65456,280.690176 1187.77678,271.979796 C1196.06903,266.021426 1206.8101,252.499016 1220,231.412565 L1215.63272,219.67431 C1214.09205,215.533356 1209.48619,213.425404 1205.34523,214.966068 C1204.73343,215.193691 1204.15179,215.49534 1203.61328,215.864285 C1184.91155,228.677274 1170.61241,236.962238 1160.71585,240.719179 C1151.59672,244.180995 1133.68938,248.553475 1106.99384,253.836618 L1106.99384,253.836614 C1101.57607,254.908811 1098.05328,260.169971 1099.12548,265.587744 C1099.58538,267.911597 1100.85533,269.99672 1102.70908,271.471648 Z" id="Path-142" fill="#FFE640"></path>
        <path d="M839.708776,139.705984 C839.708776,138.485833 838.232987,121.250505 835.281408,88 C829.848736,116.141349 829.586196,132.214647 834.493787,136.219894 C841.855174,142.227765 839.708776,141.536211 839.708776,139.705984 Z" id="Path-147" fill="#FFFFFF"></path>
        <path d="M1169.10553,274.056297 C1194.98998,258.79836 1211.82981,244.112928 1219.62503,230 C1221.64918,235.265163 1222.37947,239.697186 1221.81589,243.296068 C1221.2523,246.89495 1219.82348,251.144448 1217.52941,256.044561 C1200.20659,271.037269 1184.06529,282.629176 1169.10553,290.820282 C1146.66588,303.106941 1136.4808,297.239949 1122.04103,290.820282 C1112.41453,286.540504 1105.40085,279.560374 1101,269.879891 C1120.51924,287.922098 1143.22108,289.314234 1169.10553,274.056297 Z" id="Path-138" fill="#FFC635"></path>
        <path d="M840.82295,139.823668 C840.528352,140.474167 839.894044,140.945354 839.131687,140.99566 C818.055424,142.386414 805.901181,143.736886 803.928869,144.771215 C802.950654,145.284215 801.741785,144.907084 801.228785,143.928869 C800.715785,142.950654 801.092916,141.741785 802.071131,141.228785 C804.786389,139.804837 816.351546,138.504692 837.976245,137.063497 C837.325182,110.949445 836.410788,93.8778647 835.245359,85.9386742 C834.513836,80.9553569 833.258979,76.6508961 831.601173,72.8632257 C830.262379,69.8044169 827.027295,64.4841783 827.170841,64.808813 C826.724146,63.7985966 827.180971,62.6175364 828.191187,62.1708413 C829.201403,61.7241462 830.382464,62.1809705 830.829159,63.191187 C830.895859,63.3420314 832.181071,65.3791417 832.324976,65.6157996 C833.403224,67.3890264 834.354964,69.1789131 835.265554,71.259382 C837.063868,75.3680793 838.418769,80.0157156 839.202946,85.3577226 C840.41486,93.6135833 841.342762,111.113589 841.999402,137.95108 C842.019669,138.779408 841.533347,139.502413 840.82295,139.823668 Z" id="Combined-Shape" fill="#55ABD5"></path>
        <path d="M918.031912,215.821308 C918.928247,220.305701 920.127069,226.186971 921.628138,233.463856 C921.950798,235.028047 920.753629,236.493793 919.153399,236.493793 L903.11639,236.493793 C901.720969,236.493793 900.589757,235.364875 900.589757,233.972278 C900.589757,232.579681 901.720969,231.450759 903.11639,231.450759 L916.054403,231.450759 C912.580579,214.567825 911.027934,206.623514 911.027934,205.539532 C911.027934,204.215045 911.883116,201.589167 913.734295,196.847806 C913.785091,196.708226 913.848807,196.57187 913.925626,196.440477 C914.002554,196.308146 914.090404,196.184831 914.187543,196.071247 C920.715002,188.085857 928.06029,188.101865 934.410314,196.148607 C935.273676,197.242658 935.084866,198.828038 933.988597,199.689652 C932.892327,200.551266 931.303732,200.362839 930.44037,199.268789 C926.172814,193.860947 922.707183,193.761831 918.317983,198.999359 C916.869863,202.73166 916.081201,205.160706 916.081201,205.539532 C916.081201,205.632791 916.238585,206.545804 916.525005,208.082658 C917.350239,207.989482 918.203015,208.32432 918.767777,209.053254 C923.188821,214.759459 926.672403,214.698652 931.049994,208.807537 C931.913968,207.64485 933.50977,207.442364 934.614318,208.355272 C935.718865,209.26818 935.913889,210.950783 935.049916,212.11347 C929.704266,219.307343 923.671031,220.555751 918.031912,215.821308 Z M916.528166,251.295925 C913.897748,252.437936 906.779241,252.438242 903.243584,251.260768 C899.707927,250.083293 898.246351,247.99236 898.218842,246.41641 C898.186551,244.566416 900.784673,245.270985 904.439961,245.816858 C905.987042,246.047896 912.561796,245.993359 913.898036,245.757309 C917.780193,245.071516 920.481107,244.068443 920.515298,246.027224 C920.542326,247.575679 919.158583,250.153914 916.528166,251.295925 Z M893.589493,209.931613 C894.453466,208.768926 896.049268,208.56644 897.153816,209.479348 C898.258364,210.392257 898.453388,212.074859 897.589414,213.237546 C891.21806,221.811754 883.869945,221.940016 877.37654,213.559033 C876.488683,212.413083 876.648857,210.727087 877.7343,209.793255 C878.819743,208.859424 880.419418,209.03138 881.307276,210.17733 C885.72832,215.883535 889.211901,215.822729 893.589493,209.931613 Z M881.421981,200.507011 C880.558007,201.669698 878.962205,201.872184 877.857657,200.959275 C876.75311,200.046367 876.558086,198.363765 877.422059,197.201078 C883.793413,188.62687 891.141528,188.498608 897.634933,196.879591 C898.52279,198.025541 898.362616,199.711537 897.277173,200.645368 C896.191731,201.5792 894.592055,201.407244 893.704198,200.261294 C889.283154,194.555089 885.799572,194.615895 881.421981,200.507011 Z M1049.12032,917.003622 C1095.9628,919.826676 1130.67906,937.101009 1145.9116,964.716571 L1196.61484,981.096851 L1195.38516,984.903149 L1143.15451,968.029416 L1142.77367,967.318959 C1128.49017,940.672506 1094.85896,923.767409 1048.87968,920.996378 L1049.12032,917.003622 Z M1086.47732,488.942206 C1085.40467,489.205823 1084.32141,488.549973 1084.05779,487.477322 C1083.79418,486.404671 1084.45003,485.321412 1085.52268,485.057794 L1203.52268,456.057794 C1204.59533,455.794177 1205.67859,456.450027 1205.94221,457.522678 C1206.20582,458.595329 1205.54997,459.678588 1204.47732,459.942206 L1086.47732,488.942206 Z M1007.53779,934.109393 C1008.58562,934.458858 1009.15176,935.59159 1008.80229,936.63942 C1008.45283,937.68725 1007.3201,938.253387 1006.27227,937.903921 L793.367237,866.897264 C792.319407,866.547799 791.753271,865.415067 792.102736,864.367237 C792.452201,863.319407 793.584933,862.753271 794.632763,863.102736 L1007.53779,934.109393 Z M897.875547,579.460512 C898.173498,580.524138 897.552796,581.627913 896.489171,581.925864 C895.425546,582.223815 894.32177,581.603113 894.023819,580.539488 C890.985122,569.691944 894.727115,560.666163 904.980881,553.887872 C914.77734,547.411886 939.192839,538.854538 978.470517,528.071361 C979.535675,527.778936 980.636214,528.405359 980.928639,529.470517 C981.221064,530.535675 980.594641,531.636214 979.529483,531.928639 C940.689792,542.591572 916.494484,551.071745 907.186699,557.224692 C898.33622,563.075335 895.322142,570.345365 897.875547,579.460512 Z" id="Combined-Shape" fill="#82D121"></path>
    </g>
</svg>