<?xml version="1.0" encoding="UTF-8"?>
<svg width="1794px" height="1276px" viewBox="0 0 1794 1276" version="1.1" xmlns="http://www.w3.org/2000/svg" xmlns:xlink="http://www.w3.org/1999/xlink">
    <!-- Generator: Sketch 56.1 (81669) - https://sketch.com -->
    <title>  Recycle Cosmetics</title>
    <desc>Created with Sketch.</desc>
    <g id="--Recycle-Cosmetics" stroke="none" stroke-width="1" fill="none" fill-rule="evenodd">
        <path d="M1416.16755,808 L1461.87471,808 C1490.90259,808 1515.11845,830.181038 1517.6597,859.097461 L1524.47078,936.599275 C1525.24438,945.401903 1518.73556,953.164969 1509.93293,953.938569 C1509.46715,953.979503 1508.99979,954 1508.53221,954 L1369.47554,954 C1360.63899,954 1353.47554,946.836556 1353.47554,938 C1353.47554,937.530061 1353.49625,937.060349 1353.53759,936.592232 L1360.38473,859.072813 C1362.93793,830.166973 1387.14917,808 1416.16755,808 Z" id="Rectangle" fill="#FFE640"></path>
        <path d="M1458.2365,710.053855 C1465.38934,710.679804 1471,716.684682 1471,724 L1471,759 L1491.80014,759 C1495.50631,740.742077 1511.64834,727 1531,727 C1553.09139,727 1571,744.90861 1571,767 C1571,789.09139 1553.09139,807 1531,807 C1513.45944,807 1498.55585,795.709773 1493.15992,780 L1471,780 L1471,808 L1407,808 L1407,740.396027 C1395.14367,744.039163 1382.55082,746 1369.5,746 C1299.08369,746 1242,688.916306 1242,618.5 C1242,548.083694 1299.08369,491 1369.5,491 C1439.91631,491 1497,548.083694 1497,618.5 C1497,654.4247 1482.14229,686.879195 1458.2365,710.053855 Z M1398,850 L1482,850 C1493.04569,850 1502,858.954305 1502,870 L1502,892 C1502,903.045695 1493.04569,912 1482,912 L1398,912 C1386.95431,912 1378,903.045695 1378,892 L1378,870 C1378,858.954305 1386.95431,850 1398,850 Z" id="Combined-Shape" fill="#FF66D5"></path>
        <path d="M482.942064,619.439342 L304.057936,619.439342 C305.605181,621.902085 306.5,624.816215 306.5,627.939342 L306.5,668.939342 C306.5,677.775898 299.336556,684.939342 290.5,684.939342 L272.5,684.939342 C263.663444,684.939342 256.5,677.775898 256.5,668.939342 L256.5,627.939342 C256.5,624.816215 257.394819,621.902085 258.942064,619.439342 L195,619.439342 C186.163444,619.439342 179,612.275898 179,603.439342 L179,585.439342 C179,576.602786 186.163444,569.439342 195,569.439342 L955,569.439342 C963.836556,569.439342 971,576.602786 971,585.439342 L971,603.439342 C971,612.275898 963.836556,619.439342 955,619.439342 L528.057936,619.439342 C529.605181,621.902085 530.5,624.816215 530.5,627.939342 L530.5,668.939342 C530.5,677.775898 523.336556,684.939342 514.5,684.939342 L496.5,684.939342 C487.663444,684.939342 480.5,677.775898 480.5,668.939342 L480.5,627.939342 C480.5,624.816215 481.394819,621.902085 482.942064,619.439342 Z M1297,954 L1583,954 C1591.83656,954 1599,961.163444 1599,970 L1599,988 C1599,996.836556 1591.83656,1004 1583,1004 L1297,1004 C1288.16344,1004 1281,996.836556 1281,988 L1281,970 C1281,961.163444 1288.16344,954 1297,954 Z" id="Combined-Shape" fill="#FFEECB"></path>
        <path d="M1126.12398,268.408314 L1014.55383,276.758852 C976.396145,279.614788 943.213558,303.994751 929.084465,339.555041 C882.685928,456.331498 852.431674,546.106423 838.321702,608.879815 C821.952879,681.70254 813.566165,750.284792 813.161559,814.626569 C800.720176,842.976645 797.056839,869.242219 802.171546,893.423291 C807.286254,917.604364 825.957312,931.129933 858.184722,934 C918.526658,934.308146 963.805564,934.410933 994.02144,934.308361 C1014.33165,934.239415 1044.51569,934.021065 1084.57356,933.65331 C1115.5002,933.369385 1140.34103,908.068221 1140.05711,877.141578 C1140.03198,874.404045 1139.80614,871.672039 1139.3814,868.967539 C1124.89092,776.698947 1118.76113,703.358423 1120.99204,648.945966 C1123.27074,593.367807 1119.28617,549.701507 1109.03833,517.947068 C1104.78095,504.754932 1103.31281,490.821738 1104.72712,477.031977 L1126.12398,268.408314 Z" id="Path-38-Copy-2" fill="#55ABD5" transform="translate(975.083474, 601.377550) scale(-1, 1) translate(-975.083474, -601.377550) "></path>
        <path d="M844.595965,161.698617 L761.386119,161.698617 C717.819167,161.698617 679.265873,189.904854 666.077794,231.427786 L551.411137,592.458079 L326.223471,907.421088 C320.762881,915.058646 322.527662,925.676793 330.16522,931.137383 C333.04963,933.199637 336.50669,934.308361 340.052492,934.308361 L652.899741,934.308361 C674.481986,934.308361 694.143468,921.905933 703.439177,902.428174 L841.401126,613.349682 C876.527165,510.414069 902.082584,430.969221 918.067383,375.015138 C925.608831,348.616631 933.47716,318.845649 941.672369,285.702194 C954.929179,232.088376 922.213359,177.879022 868.599541,164.622213 C860.746064,162.680324 852.68596,161.698617 844.595965,161.698617 Z" id="Path-38-Copy" fill="#60CBFF"></path>
        <path d="M906.208085,407.404093 L869.285704,281.925966 C857.593022,242.189207 880.327239,200.497409 920.063997,188.804728 C937.515596,183.669534 956.238772,185.052252 972.746684,192.695377 L1102.73054,252.877605 C1140.31855,270.280768 1156.68161,314.859924 1139.27844,352.447936 C1137.75676,355.734524 1135.99901,358.906572 1134.01899,361.939181 L1109.91146,398.862461 L1035.55402,576.250176 L1110.56697,717.304759 C1096.63552,732.867026 1085.5506,744.161724 1077.31222,751.188853 C1064.31216,762.277577 1048.21676,787.648773 1034.37193,779.396212 C1010.96555,765.444245 961.421143,714.746501 885.738711,627.302979 C862.847469,600.854426 855.439718,564.367367 866.204321,531.085867 L906.208085,407.404093 Z" id="Combined-Shape" fill="#6381DD"></path>
        <path d="M1268.52508,724.382789 L1195.6729,1020.58931 C1193.56244,1029.17014 1184.89543,1034.41541 1176.3146,1032.30495 C1176.28018,1032.29649 1176.24579,1032.28791 1176.21144,1032.27921 L1166.33787,1029.78111 C1157.81148,1027.62385 1152.62484,1018.98908 1154.72539,1010.44855 L1227.53884,714.399503 C1162.74658,687.930308 1125.67312,616.441063 1143.32468,545.604887 C1162.66752,467.981577 1240.40099,420.531939 1316.94813,439.628259 C1393.49254,458.7239 1439.86005,537.128604 1420.5179,614.749153 C1402.99856,685.054703 1337.57894,730.607525 1268.52508,724.382789 Z M1169.52355,552.133243 C1153.83446,615.093949 1191.44253,678.686968 1253.51847,694.173139 C1315.59169,709.65863 1378.63064,671.178742 1394.31903,608.220796 C1410.00812,545.26009 1372.40005,481.667071 1310.32411,466.1809 C1248.25089,450.695409 1185.21194,489.175297 1169.52355,552.133243 Z" id="Combined-Shape" fill="#C8FF57" transform="translate(1281.921289, 734.042308) rotate(38.000000) translate(-1281.921289, -734.042308) "></path>
        <path d="M1156.00218,397.822853 L1124.92518,393.736302 C1109.94346,391.766241 1099.39542,378.024105 1101.36548,363.042382 C1101.42056,362.623491 1101.48534,362.205931 1101.55976,361.790039 C1104.36664,346.104365 1119.18115,335.52731 1134.92826,337.966062 L1165.17249,342.649983 C1168.69106,336.759117 1173.40237,331.570394 1179.09673,327.457857 C1196.68711,314.753872 1205.65726,308.386738 1206.00717,308.356454 C1232.85322,306.032969 1251.45772,333.48388 1263.31728,333.86828 C1281.02045,334.442089 1292.89327,346.297153 1298.93572,369.433471 C1306.57545,387.693181 1309.66066,401.163773 1308.19135,409.845247 C1303.50889,437.511935 1288.54314,439.667206 1280.84968,444.82869 C1263.87775,456.215043 1239.96608,456.606359 1209.2924,454.361631 C1178.61872,452.116902 1154.40115,433.950299 1155.68574,404.568658 C1155.78319,402.33994 1155.88866,400.091339 1156.00218,397.822853 Z M1046.32087,825.354324 C1021.03756,784.825144 1021.03756,754.839521 1046.32087,735.397456 C1054.08791,729.424851 1061.12795,724.227067 1067.441,719.804106 C1084.60591,707.778249 1105.57156,702.434439 1126.39869,704.776728 L1219.46261,715.243007 C1219.57776,728.312179 1214.99857,738.526139 1205.72505,745.884886 C1200.78842,749.802218 1191.76183,750.073321 1183.73051,751.323278 C1179.02679,752.055344 1171.81229,753.231154 1162.08702,754.850707 L1189.02383,791.926541 C1189.26981,792.265098 1189.4723,792.633195 1189.62657,793.0222 C1193.79566,803.534802 1193.17867,812.517893 1187.77561,819.971472 C1185.12262,823.631283 1176.50686,824.953312 1161.92831,823.937561 C1163.90037,835.853882 1163.9206,842.778484 1161.98899,844.711367 C1157.55035,849.152931 1148.06935,851.205353 1133.54599,850.86863 C1134.77775,864.881874 1133.85313,873.530656 1130.77213,876.814974 C1128.51621,879.21977 1123.06578,880.864376 1114.42084,881.748789 C1107.85738,882.42026 1101.33905,880.11059 1096.66264,875.456442 L1046.32087,825.354324 Z M287.047433,1030 L334.958984,934 L540,934.308361 L501,1030 L287.047433,1030 Z M892,1030.32797 L907.362305,934 L1075.80273,934.327972 L1088.30231,1030.03737 L892,1030.32797 Z" id="Combined-Shape" fill="#C7E0FF"></path>
        <path d="M1334.22318,738.570817 C1334.07545,738.6056 1333.9214,738.624003 1333.76305,738.624003 L1303.15449,738.624003 C1302.04992,738.624003 1301.15449,737.728572 1301.15449,736.624003 C1301.15449,735.519433 1302.04992,734.624003 1303.15449,734.624003 L1333.76305,734.624003 C1334.05592,734.624003 1334.33409,734.686953 1334.58476,734.800062 C1334.64581,734.761177 1334.70957,734.725207 1334.77595,734.692428 C1346.79366,728.758324 1352.60122,722.387256 1352.60122,715.708204 C1352.60122,709.207983 1347.07826,703.352654 1335.60256,698.247856 C1335.4306,698.238699 1335.26106,698.207363 1335.09823,698.155301 C1334.80544,698.323302 1334.4661,698.419359 1334.10432,698.419359 L1303.49576,698.419359 C1302.39119,698.419359 1301.49576,697.523928 1301.49576,696.419359 C1301.49576,695.314789 1302.39119,694.419359 1303.49576,694.419359 L1334.10432,694.419359 C1334.24083,694.419359 1334.37414,694.433035 1334.50296,694.459091 C1334.81028,694.241205 1335.17501,694.113092 1335.55294,694.092269 C1347.07532,688.276008 1352.64688,682.044547 1352.64688,675.520846 C1352.64688,668.8599 1346.83901,662.494373 1334.82105,656.555509 C1333.83079,656.066158 1333.42473,654.866698 1333.91408,653.876441 C1334.40343,652.886184 1335.60289,652.480119 1336.59315,652.96947 C1349.82822,659.509788 1356.64688,666.983165 1356.64688,675.520846 C1356.64688,683.210256 1351.11621,690.028312 1340.34959,696.070554 C1351.07388,701.4774 1356.60122,707.996214 1356.60122,715.708204 C1356.60122,723.618412 1350.77123,730.610168 1339.42953,736.785435 C1350.53955,742.915969 1356.24864,749.837068 1356.24864,757.649282 C1356.24864,766.187967 1349.42882,773.65219 1336.19271,780.172776 C1335.20185,780.660908 1334.00289,780.253368 1333.51476,779.26251 C1333.02663,778.271651 1333.43417,777.072692 1334.42502,776.58456 C1346.44195,770.664591 1352.24864,764.309224 1352.24864,757.649282 C1352.24864,750.988337 1346.44078,744.62281 1334.42282,738.683946 C1334.35336,738.649624 1334.28678,738.611808 1334.22318,738.570817 Z M1301.21157,581.04534 C1301.65565,580.03397 1302.83552,579.574088 1303.84689,580.018164 C1304.85826,580.462241 1305.31815,581.642114 1304.87407,582.653484 C1294.11831,607.149377 1282.48301,616.145935 1270.26826,607.996563 C1269.34942,607.383535 1269.10151,606.141709 1269.71454,605.222867 C1270.32757,604.304025 1271.56939,604.056114 1272.48823,604.669143 C1281.84106,610.909114 1291.31548,603.583378 1301.21157,581.04534 Z M866.978406,580.790842 C867.470205,581.779885 867.06711,582.980346 866.078067,583.472145 C865.089023,583.963945 863.888563,583.56085 863.396763,582.571806 L836.282695,528.04354 C835.790895,527.054496 836.193991,525.854036 837.183034,525.362236 C838.172077,524.870436 839.372538,525.273532 839.864338,526.262575 L866.978406,580.790842 Z M1080.61692,374.013791 C1078.89849,371.442058 1078.39488,363.669956 1079.50008,362.451459 C1080.91995,360.886026 1083.49798,366.286223 1085.70568,369.590194 C1087.74146,372.636861 1092.06853,374.022904 1090.64793,375.275592 C1089.32874,376.438737 1083.42982,377.931531 1081.66976,375.521126 C1081.31552,375.035996 1080.96377,374.532876 1080.61692,374.013791 Z M1087.23431,334.68038 C1085.35672,332.665599 1087.59726,330.47147 1090.42469,327.833111 C1093.25213,325.194753 1095.59577,323.111257 1097.47336,325.126039 C1098.5646,326.297017 1098.76153,328.061598 1098.17999,329.852205 C1097.76094,331.142512 1096.22244,331.678851 1095.03829,332.783813 C1092.21086,335.422171 1089.1119,336.695162 1087.23431,334.68038 Z M1097.83549,318.678244 C1096.45842,318.778505 1095.26081,317.74345 1095.16055,316.366384 C1095.06028,314.989317 1096.09534,313.791706 1097.47241,313.691444 C1107.15215,312.98668 1111.87264,318.045979 1110.36232,327.551418 C1110.14565,328.915024 1108.86459,329.844804 1107.50099,329.62814 C1106.13738,329.411477 1105.2076,328.130414 1105.42426,326.766808 C1106.42588,320.462988 1104.32014,318.206108 1097.83549,318.678244 Z M1089.84755,358.301675 L1095.55335,363.312277 C1106.38488,351.006301 1111.39789,345.426877 1112.22562,344.821531 C1113.3401,344.006481 1114.90429,344.249214 1115.71934,345.36369 C1116.53439,346.478167 1116.29166,348.042357 1115.17718,348.857408 C1114.8018,349.131936 1108.33275,356.351278 1097.65782,368.489838 C1096.74648,369.526131 1095.16782,369.627976 1094.13087,368.717375 L1086.54831,362.058668 C1085.51084,361.147608 1085.40837,359.568015 1086.31943,358.53055 C1087.23049,357.493085 1088.81009,357.390614 1089.84755,358.301675 Z M1116.86967,368.76801 C1114.95408,366.782115 1117.15627,364.547677 1119.9377,361.858617 C1122.71912,359.169557 1125.0265,357.044166 1126.94209,359.030062 C1128.05542,360.184251 1128.2846,361.947774 1127.73524,363.750394 C1127.33937,365.049357 1125.80954,365.612143 1124.64466,366.738339 C1121.86324,369.427399 1118.78526,370.753905 1116.86967,368.76801 Z M1127.45048,352.631764 C1126.07809,352.783061 1124.84289,351.793163 1124.69159,350.420766 C1124.5403,349.048368 1125.53019,347.81317 1126.90259,347.661873 C1136.2696,346.629229 1140.90376,351.402552 1139.41108,360.607065 C1139.19005,361.969972 1137.90603,362.895653 1136.54312,362.674631 C1135.18021,362.45361 1134.25453,361.169582 1134.47555,359.806676 C1135.43475,353.891863 1133.55774,351.958484 1127.45048,352.631764 Z" id="Combined-Shape" fill="#6674A9" fill-rule="nonzero" transform="translate(1096.359975, 547.002813) scale(-1, -1) rotate(-135.000000) translate(-1096.359975, -547.002813) "></path>
        <path d="M1314.14359,610.262291 L1313.04671,609.656742 C1312.11418,609.141922 1311.42551,608.276415 1311.13334,607.252065 C1310.52741,605.127648 1311.75839,602.914267 1313.88281,602.30834 L1338.57772,595.264854 L1343.82305,619.060703 C1344.03238,620.010324 1343.88861,621.003678 1343.41863,621.854982 C1342.35094,623.788975 1339.91759,624.49125 1337.9836,623.423558 L1335.976,622.315232 C1331.91429,628.953559 1329.67954,632.735231 1329.27176,633.660249 C1327.51678,637.641328 1326.38546,641.480951 1326.12893,644.679759 C1325.84316,648.243103 1326.43578,650.227098 1328.43551,651.317007 C1333.03158,653.821994 1345.09666,655.074488 1364.63074,655.074488 L1364.63074,677.461811 C1344.10247,679.918736 1324.62758,678.531538 1314.51686,671.699841 C1304.49002,664.924814 1300.4949,654.460673 1301.43644,642.720302 C1301.94314,636.402131 1303.81349,630.054294 1306.58611,623.764763 C1307.67978,621.283835 1311.6229,614.160206 1311.75253,613.959756 L1314.14359,610.262291 Z M1409.75968,678.780878 L1409.77846,679.971964 C1409.79513,681.029371 1409.39239,682.05035 1408.6583,682.811604 C1407.12484,684.401822 1404.5926,684.447833 1403.00238,682.914373 L1384.81407,665.375232 L1402.64446,649.131142 C1403.36505,648.474661 1404.30056,648.103907 1405.27523,648.088538 C1407.48409,648.053709 1409.30297,649.816113 1409.3378,652.024977 L1409.37143,654.158005 C1417.08493,654.327167 1421.44013,654.356015 1422.437,654.244551 C1426.72734,653.764832 1430.58862,652.823055 1433.46743,651.452934 C1436.6743,649.926674 1438.08935,648.435231 1438.04168,646.186903 C1437.93212,641.019468 1433.0641,630.098994 1423.43765,613.425482 L1442.70059,602.304018 C1454.93102,618.605589 1463.33471,635.917703 1462.43904,647.941622 C1461.55079,659.865801 1454.51584,668.474196 1443.94996,673.502859 C1438.26386,676.209072 1431.88021,677.76606 1425.10209,678.523948 C1422.42844,678.822899 1414.3558,678.996046 1414.11945,678.984981 L1409.75968,678.780878 Z M1421.84591,562.081213 L1422.87855,561.487337 C1423.7953,560.960113 1424.88352,560.817384 1425.90522,561.090364 C1428.0395,561.660606 1429.30739,563.853049 1428.73715,565.987321 L1422.21494,590.398318 L1399.3632,582.678805 C1398.43968,582.366832 1397.66186,581.728359 1397.17589,580.883345 C1396.07455,578.968314 1396.73418,576.523061 1398.64921,575.42172 L1400.49849,574.358191 C1396.90686,567.529796 1394.82065,563.706674 1394.23987,562.888826 C1391.7403,559.368984 1389.04462,556.448412 1386.45061,554.594803 C1383.56099,552.529956 1381.57051,552.015384 1379.62719,553.147089 C1375.16077,555.748141 1367.96957,565.30015 1358.05358,581.803117 L1338.98767,570.347162 C1347.31592,551.747028 1358.38325,536.003918 1369.33383,530.957979 C1380.19358,525.953896 1391.13327,527.933376 1400.65387,534.736553 C1405.77746,538.397736 1410.23409,543.226157 1414.18305,548.787001 C1415.74073,550.980495 1419.80586,557.957039 1419.91077,558.169124 L1421.84591,562.081213 Z" id="Combined-Shape-Copy-9" fill="#FFFFFF" transform="translate(1381.913649, 605.947550) rotate(2.000000) translate(-1381.913649, -605.947550) "></path>
        <path d="M287.047433,1030 L501,1030 L492.296875,1051.04102 L610.078623,1079.70133 C628.183062,1084.10676 642.825981,1097.37884 648.984064,1114.96453 L656,1135 L390.68005,1135 L344.792326,1086.76553 L339.596715,1135 L257,1135 L287.047433,1030 Z M892.047433,1030.28223 L1088.30231,1030 L1118.60858,1060.92905 L1213.66012,1080.59521 C1232.55444,1084.50444 1248.01861,1098.02857 1254.4107,1116.23347 L1261,1135 L995.68005,1135 L949.792326,1086.89518 L944.596715,1135 L862,1135 L892.047433,1030.28223 Z" id="Combined-Shape" fill="#161616"></path>
        <path d="M1305.71687,409.975836 C1305.05108,407.317066 1304.97419,404.377675 1305.31671,400.666426 C1283.5408,379.254229 1264.70272,367.640183 1248.80245,365.824282 C1240.87165,364.918538 1232.37502,364.30809 1223.31256,363.992937 C1234.01454,360.208242 1240.83714,349.327358 1239.00939,337.836783 C1236.9445,324.855351 1224.62087,316.011559 1211.4838,318.083618 C1205.05225,319.098044 1188.94748,327.239873 1183.35151,338.82748 C1179.7698,346.244138 1181.66456,356.277777 1184.4805,364.287924 C1179.36423,364.512908 1174.11503,364.807265 1168.7329,365.170993 C1161.56954,365.655101 1155.37004,360.240492 1154.88593,353.077128 C1154.79828,351.780171 1154.90565,350.477402 1155.20446,349.212295 L1158.66224,334.572649 C1163.02162,316.115763 1180.98958,304.237112 1199.67909,307.456333 C1230.04,312.685939 1253.05977,319.21087 1268.73841,327.031124 C1296.96625,341.110715 1305.10656,373.542267 1306.72623,388.074728 C1311.03942,377.801417 1315.44303,370.83276 1319.93704,367.168756 C1325.88851,362.316476 1334.54814,360.777015 1341.85475,361.955278 C1345.68193,362.572449 1355.34498,372.118251 1357.12994,378.442336 C1359.17491,385.687659 1359.68088,397.267265 1358.41907,405.378699 C1357.00308,414.481255 1353.36677,418.654436 1348.64268,425.556208 C1345.97774,429.449619 1333.60797,433.223749 1329.02479,432.484665 C1323.32841,431.566068 1315.61572,424.374923 1311.7115,420.045905 C1309.83698,417.96742 1308.42085,416.092977 1307.39097,414.213502 C1307.16798,414.958191 1306.92472,415.720669 1306.66117,416.500936 C1301.81191,430.857955 1280.34557,493.866179 1244.10534,504.706101 C1232.56636,508.15756 1220.13619,522.006247 1206.81484,546.252165 C1202.42267,554.24626 1194.02536,559.21384 1184.90414,559.21384 C1171.09702,559.21384 1159.90414,548.020959 1159.90414,534.21384 L1159.90414,459.339484 L1158.64706,430.578587 L1160.60432,433.774756 C1160.61777,433.778528 1160.63122,433.782299 1160.64467,433.78607 C1170.33006,448.67796 1189.23039,456.734321 1210.73686,456.80395 C1241.49241,456.903522 1265.31854,454.845165 1281.45485,442.302646 C1288.35845,436.936587 1301.91094,433.789951 1305.71687,409.975836 Z" id="Combined-Shape" fill="#FF461C" transform="translate(1256.980844, 433.072272) rotate(4.000000) translate(-1256.980844, -433.072272) "></path>
        <path d="M460.606897,292.955725 L494.668421,292.955725 C502.380018,292.955725 508.994415,298.456457 510.400289,306.038822 L522.604482,371.86025 C524.215443,380.548721 518.477988,388.89806 509.789518,390.509022 C508.82746,390.6874 507.851068,390.777154 506.872614,390.777154 L446.812651,390.777154 C437.976095,390.777154 430.812651,383.61371 430.812651,374.777154 C430.812651,373.674408 430.926655,372.574616 431.152844,371.495316 L444.947091,305.673888 C446.500157,298.263187 453.035207,292.955725 460.606897,292.955725 Z M303.090729,322.947731 L365.486124,322.947731 C373.64204,322.947731 380.492645,329.082475 381.389166,337.188967 L405.147941,552.019802 C406.119279,560.80281 399.786671,568.71027 391.003663,569.681609 C390.419633,569.746198 389.832489,569.778567 389.244899,569.778567 L276.236483,569.778567 C267.399927,569.778567 260.236483,562.615123 260.236483,553.778567 C260.236483,553.115117 260.277749,552.452309 260.360041,551.793982 L287.214287,336.963147 C288.215157,328.956299 295.021568,322.947731 303.090729,322.947731 Z" id="Combined-Shape" fill="#FBCEE4" fill-rule="nonzero" transform="translate(391.555967, 431.367146) rotate(-180.000000) translate(-391.555967, -431.367146) "></path>
        <path d="M330.577452,472.439342 C327.145482,473.604534 317.885157,474.439342 307,474.439342 C296.114843,474.439342 286.854518,473.604534 283.422548,472.439342 L282,472.439342 L282,432.439342 C282,428.021064 285.581722,424.439342 290,424.439342 L324,424.439342 C328.418278,424.439342 332,428.021064 332,432.439342 L332,472.439342 L330.577452,472.439342 Z M342.158813,538.089935 L269.272278,538.089935 L262.640442,502.268003 L349.666626,502.268003 L342.158813,538.089935 Z M486.322835,378.756673 L414.677165,378.756673 C410.811172,378.756673 407.677165,375.622666 407.677165,371.756673 L407.677165,369.301697 C407.677165,365.435703 410.811172,362.301697 414.677165,362.301697 L486.322835,362.301697 C490.188828,362.301697 493.322835,365.435703 493.322835,369.301697 L493.322835,371.756673 C493.322835,375.622666 490.188828,378.756673 486.322835,378.756673 Z M476.937008,406.915541 L424.062992,406.915541 C420.196999,406.915541 417.062992,403.781534 417.062992,399.915541 L417.062992,397.460565 C417.062992,393.594571 420.196999,390.460565 424.062992,390.460565 L476.937008,390.460565 C480.803001,390.460565 483.937008,393.594571 483.937008,397.460565 L483.937008,399.915541 C483.937008,403.781534 480.803001,406.915541 476.937008,406.915541 Z M463,570.439342 L434,570.439342 C421.297451,570.439342 411,560.141891 411,547.439342 L411,536.439342 L486,536.439342 L486,547.439342 C486,560.141891 475.702549,570.439342 463,570.439342 Z" id="Combined-Shape" fill="#FF8ADF"></path>
    </g>
</svg>