<?xml version="1.0" encoding="UTF-8"?>
<svg width="1794px" height="1276px" viewBox="0 0 1794 1276" version="1.1" xmlns="http://www.w3.org/2000/svg" xmlns:xlink="http://www.w3.org/1999/xlink">
    <!-- Generator: Sketch 56.1 (81669) - https://sketch.com -->
    <title>Sun Energy</title>
    <desc>Created with Sketch.</desc>
    <g id="Sun-Energy" stroke="none" stroke-width="1" fill="none" fill-rule="evenodd">
        <path d="M639.079272,451.27638 C562.311692,451.27638 498.616109,393.308959 498.616109,316.541379 C498.616109,299.284708 501.593441,271.330901 507.340991,256.084974 C514.192835,237.909798 529.155551,225.597897 542.487804,211.968256 C567.72277,186.1704 600.140613,171.77638 639.079272,171.77638 C659.500493,171.77638 678.893159,177.680148 696.359417,185.589831 C710.834656,192.145015 730.714474,201.108181 742.032397,211.968256 C768.395699,237.265074 776.196809,269.953807 776.196809,309.37599 C776.196809,319.571498 778.28045,335.58254 776.196809,345.153557 C770.282362,372.321035 761.279421,395.400895 742.032397,414.081068 C717.004731,438.371633 676.711236,451.27638 639.079272,451.27638 Z M515.311694,211.27638 C499.795514,227.52638 492.037425,241.903984 492.037425,254.409193 C492.037425,273.167005 474,274.491224 474,254.409193 C474,234.327161 493.573412,200.440443 504.442553,200.440443 C511.688647,200.440443 515.311694,204.052422 515.311694,211.27638 Z M629.917602,159.395561 C607.559714,157.173143 591.45365,159.911422 581.599411,167.610397 C566.818053,179.15886 554.669607,165.760446 570.494464,153.396713 C586.31932,141.03298 625.073015,135.594292 631.764726,144.159292 C636.225867,149.869292 635.610159,154.948048 629.917602,159.395561 Z M752.88065,199.537451 C738.341551,182.407683 724.85365,173.189224 712.416947,171.882074 C693.761891,169.921349 694.330351,151.844316 714.302371,153.94346 C734.274391,156.042604 765.929496,179.050918 764.793361,189.860516 C764.035938,197.066915 760.065034,200.29256 752.88065,199.537451 Z M794.25547,316.588257 C797.644963,294.377321 795.753363,278.15002 788.58067,267.906353 C777.821631,252.540853 791.837483,241.110274 803.356063,257.560511 C814.874643,274.010748 818.277665,312.995971 809.374187,319.230254 C803.438534,323.386443 798.398962,322.505777 794.25547,316.588257 Z" id="Combined-Shape" fill="#FEE540"></path>
        <path d="M235.444702,479.185485 L264.198624,379.193851 L387,897.23116 L231.591118,943.950083 C219.955261,947.448048 207.686875,940.850982 204.18891,929.215125 C203.417086,926.647676 203.121038,923.960775 203.315361,921.286874 L235.444702,479.185485 Z" id="Rectangle" fill="#6674A9" fill-rule="nonzero"></path>
        <path d="M367.71536,331.71134 L782.06317,331.71134 C791.84298,331.71134 798.086252,339.696857 796.001869,349.547964 L667.580127,955.884587 C665.495743,965.755436 655.873991,973.71134 646.084303,973.71134 L231.746371,973.71134 C221.956683,973.71134 215.713411,965.725823 217.807673,955.884587 L346.229415,349.547964 C348.30392,339.696857 357.93555,331.71134 367.71536,331.71134 Z" id="Rectangle" fill="#FBCEE4" fill-rule="nonzero" transform="translate(506.903092, 652.711340) scale(-1, 1) rotate(3.000000) translate(-506.903092, -652.711340) "></path>
        <path d="M595.971697,370.831425 L618.361954,387.517531 L654.173477,521.624331 L641.193986,540.173976 L506.606061,547.237319 L484.215286,530.541352 L448.40428,396.444413 L461.383771,377.894769 L595.971697,370.831425 Z M646.422593,559.757063 L668.81285,576.443168 L704.624373,710.549969 L691.654743,729.099097 L557.056957,736.162957 L534.676043,719.466472 L498.85466,585.360189 L511.834667,566.820406 L646.422593,559.757063 Z M696.872972,748.672839 L719.263746,765.368806 L755.074752,899.465745 L742.105122,918.014872 L607.507336,925.078732 L585.126939,908.39211 L549.305556,774.285826 L562.285046,755.736182 L696.872972,748.672839 Z M406.371028,380.777864 L428.204432,397.058221 C428.565417,397.327395 428.825005,397.71051 428.941179,398.145559 L464.333,530.680663 C464.485359,531.251218 464.377777,531.85994 464.039082,532.343709 L452.152764,549.321339 C451.799679,549.825663 451.234002,550.139272 450.619209,550.171537 L317.726399,557.145919 C317.260444,557.170373 316.800603,557.031141 316.426473,556.752324 L295.172862,540.913293 C294.811655,540.644107 294.551902,540.26086 294.43568,539.82563 L259.043853,407.290506 C258.891542,406.720132 258.999005,406.111606 259.337462,405.627899 L271.22368,388.640706 C271.576738,388.136133 272.142562,387.822343 272.757544,387.790068 L406.371028,380.777864 Z M456.821924,569.703502 L479.212182,586.389607 L515.023704,720.496408 L502.044214,739.046052 L367.456288,746.109396 L345.065514,729.413428 L309.254508,595.31649 L322.233998,576.766845 L456.821924,569.703502 Z M507.272303,758.619278 L529.663078,775.315245 L565.4746,909.422045 L552.49511,927.97169 L417.906667,935.025171 L395.51641,918.339066 L359.704887,784.232265 L372.684377,765.682621 L507.272303,758.619278 Z" id="Combined-Shape" fill="#FF8ADF"></path>
        <path d="M801.450739,1086.04942 L773.75048,1086.04942 L725.355742,1086.04942 L498.105594,1086.04942 C488.676651,1086.04942 481.032982,1078.40575 481.032982,1068.9768 C481.032982,1067.04685 481.360221,1065.13086 482.000785,1063.31031 C486.947575,1049.25099 499.05443,1038.92458 513.718043,1036.25743 L624.964844,1016.02287 L633.207031,980.629098 L844.182706,1004.24014 L835.560311,988 L1102,1012.14583 L1102,1071.42425 C1102,1082.35571 1093.97365,1091.62905 1083.15521,1093.19682 L960.933437,1110.9088 L795.294378,1146.61295 C782.06876,1149.46372 769.036234,1141.05331 766.185403,1127.8277 C764.012494,1117.74712 768.385116,1107.38513 777.122871,1101.90871 C784.843607,1097.0697 792.952896,1091.78327 801.450739,1086.04942 Z" id="Combined-Shape" fill="#161616"></path>
        <path d="M568.232385,748.595132 L586.544888,983.385791 C590.839392,1038.44704 638.956741,1079.60163 694.017995,1075.30712 C702.621797,1074.63607 711.10254,1072.8541 719.248828,1070.00565 L909.397286,1003.51772 L913.649076,1033.77079 C916.108698,1051.27191 932.290075,1063.46545 949.791194,1061.00583 C950.498221,1060.90646 951.201725,1060.78346 951.900524,1060.63703 L1394.53446,967.885792 C1419.39952,962.675469 1435.33284,938.294548 1430.12252,913.42948 C1429.76446,911.720704 1429.3094,910.033699 1428.75956,908.376652 C1413.30697,861.807282 1389.75668,827.779491 1358.10871,806.293281 C1336.24894,791.452414 1313.04155,750.220808 1293.96737,724.152102 C1275.88386,699.437357 1240.03837,651.647081 1186.4309,580.781273 C1159.25206,544.852511 1111.40449,531.533193 1069.57048,548.250864 L568.232385,748.595132 Z" id="Mask" fill="#60CBFF" transform="translate(1004.776438, 816.419024) scale(-1, 1) rotate(8.000000) translate(-1004.776438, -816.419024) "></path>
        <path d="M1414.94817,474.208309 L1432.05469,477.00792 C1461.38573,546.566961 1484.22201,608.566302 1500.56353,663.005942 C1525.07581,744.665402 1562.52179,820.977852 1575.76449,867.058018 C1578.05389,875.024339 1580.16193,882.645865 1582.08861,889.922596 C1596.22451,943.311365 1564.40378,998.050928 1511.01501,1012.18683 C1506.573,1013.36296 1502.05521,1014.23151 1497.49375,1014.78632 L1419.04489,1024.3281 C1408.08765,1025.66083 1398.12233,1017.86473 1396.77879,1006.90881 C1388.70195,941.046172 1382.80954,887.320555 1379.10156,845.731957 C1375.0281,800.044117 1371.70042,747.800132 1369.11852,689 L1369.11852,674.108739 L1169.74287,625.201606 C1191.23786,533.04132 1202.24788,486.37454 1202.77294,485.201266 C1206.37657,477.148771 1219.04161,462.457204 1240.76804,441.126566 C1245.48922,430.034257 1256.48877,422.257135 1269.30477,422.257135 L1359.39659,422.257135 C1385.4346,422.257135 1407.90478,440.515691 1413.23281,466.002754 L1414.94817,474.208309 Z" id="Combined-Shape" fill="#6381DD"></path>
        <path d="M961.377583,679.547356 C968.943186,707.921791 967.365549,724.841215 958.396627,730.952851 C927.77265,751.820754 890.807987,724.964354 901.035114,689.241289 C905.55482,673.454088 929.210858,662.33747 956.415467,663.18507 C958.357707,668.97058 960.011762,674.424909 961.377583,679.547356 Z M1026.51461,714.824765 C1034.8298,747.89874 1014.86431,793.018803 978.891342,817.392298 C959.040207,830.84244 935.552063,837.447508 909.837325,835.815829 C880.666878,833.964873 849.265479,821.622927 816.530825,797.839809 C808.46376,791.978743 796.810376,793.716028 791.726202,801.593412 C785.980726,810.495415 790.827264,821.897542 804.577811,831.887899 C807.258657,833.835648 811.010875,833.241355 812.958624,830.560508 C814.906373,827.879662 814.31208,824.127444 811.631234,822.179695 C806.385056,818.368123 803.237796,814.82154 801.982067,811.867272 C801.218274,810.070347 801.281595,808.917274 801.808602,808.100733 C803.044658,806.185596 806.826249,805.621837 809.477402,807.548013 C843.966631,832.605904 877.506865,845.788494 909.077416,847.791743 C937.481137,849.594048 963.597,842.250043 985.622411,827.326718 C1025.58156,800.252385 1047.76288,750.124756 1038.15244,711.898874 C1029.33725,676.836158 1000.82638,655.709864 965.200907,651.786286 C955.200613,623.966409 939.458891,589.93428 918.135872,549.542376 C916.588883,546.611935 912.959207,545.490425 910.028766,547.037415 C907.098325,548.584405 905.976815,552.21408 907.523805,555.144521 C927.48284,592.952649 942.355052,624.970516 952.13681,651.146071 C921.936225,651.526266 895.521143,664.901866 889.498581,685.938504 C876.186481,732.43729 925.233597,768.072106 965.153998,740.8694 C981.008072,730.066059 982.257977,704.797176 969.509341,664.504808 C997.761851,669.367092 1019.48837,686.877664 1026.51461,714.824765 Z" id="Path-98" fill="#FFE640" transform="translate(914.868139, 697.200933) rotate(54.000000) translate(-914.868139, -697.200933) "></path>
        <path d="" id="Path-160" stroke="#979797"></path>
        <path d="M807.045737,338.417454 L1063.7643,349.488502 L1070.98138,528.618009 C1071.71508,546.828632 1057.54724,562.18604 1039.33662,562.919742 C1039.15488,562.927064 1038.97309,562.932883 1038.79126,562.9372 L847.15206,567.486297 C829.040142,567.916234 813.968352,553.664024 813.385986,535.556366 L807.045737,338.417454 Z" id="Rectangle-Copy-2" fill="#C8FF57" transform="translate(939.688876, 453.340157) rotate(-168.000000) translate(-939.688876, -453.340157) "></path>
        <path d="M927.168846,442.05245 C925.793873,439.835651 925,437.220659 925,434.420249 C925,426.41212 931.491871,419.920249 939.5,419.920249 C947.508129,419.920249 954,426.41212 954,434.420249 C954,437.451614 953.069783,440.265715 951.479227,442.592674 C955.474942,446.075839 958,451.203164 958,456.920249 C958,467.413659 949.49341,475.920249 939,475.920249 C928.50659,475.920249 920,467.413659 920,456.920249 C920,450.89992 922.800029,445.533574 927.168846,442.05245 Z M943.903871,419.840497 C942.869105,414.925657 943.566036,410.734018 945.994664,407.265578 C948.423291,403.797138 952.12378,401.708612 957.096129,401 C958.130895,405.91484 957.433964,410.106479 955.005336,413.574919 C952.576709,417.043359 948.87622,419.131885 943.903871,419.840497 Z" id="Combined-Shape" fill="#FFFFFF" transform="translate(939.000000, 438.460124) rotate(11.000000) translate(-939.000000, -438.460124) "></path>
        <path d="M1311.58301,275.393857 C1329.9976,285.208968 1338.01731,299.511841 1335.64213,318.302475 C1333.26696,337.093109 1320.74512,366.985316 1298.07661,407.979096 C1269.81246,411.468616 1252.0597,411.468616 1244.81832,407.979096 C1233.95626,402.744816 1224.00293,385.107365 1220.64996,359.793278 C1217.29699,334.479192 1210.8233,291.176416 1224.31261,275.393857 C1233.30548,264.872151 1262.39561,264.872151 1311.58301,275.393857 Z M1065.12841,578.033344 C1059.57277,579.669637 1051.50216,578.52417 1040.91659,574.596944 L1080.51778,508.331864 C1085.967,501.35044 1094.95889,501.141703 1107.49345,507.705653 C1111.46559,509.785735 1113.60483,512.828963 1113.91116,516.83534 C1120.92669,511.250921 1127.98223,510.132956 1135.07778,513.481445 C1142.48059,516.974935 1146.96117,521.034691 1148.51953,525.660712 C1157.4616,523.458635 1164.53604,523.458635 1169.74287,525.660712 C1174.94969,527.86279 1179.2561,532.675994 1182.66209,540.100325 C1197.62294,557.898435 1206.87372,573.76244 1210.41442,587.69234 C1215.4918,607.667911 1203.41444,627.977345 1183.43887,633.054732 C1178.33392,634.352307 1173.01211,634.554535 1167.82341,633.648117 C1133.41207,627.636785 1110.71855,621.464136 1099.74285,615.130178 C1090.70041,609.911879 1079.14538,597.58919 1065.07778,578.162109 L1065.12841,578.033344 Z M1556.79561,1042.45027 C1559.03519,1048.01127 1560.63491,1052.48829 1561.59476,1055.88132 C1562.59975,1059.43393 1563.77633,1064.8844 1565.12448,1072.23274 L1539.05569,1065.51386 C1494.17495,1055.95114 1463.48577,1049.08508 1446.98814,1044.91568 C1440.76294,1043.34241 1434.98282,1041.4088 1429.64776,1039.11485 C1414.39133,1032.55494 1405.60189,1016.41012 1408.37272,1000.03595 C1413.77997,968.081918 1433.2701,954.296919 1466.8431,958.680954 C1528.01915,966.669456 1528.71382,966.760168 1570.84846,978.067081 C1583.18857,978.888778 1605.01978,985.627471 1636.34211,998.283159 C1657.37955,1006.67191 1669.48698,1015.78353 1672.66439,1025.61802 C1675.8418,1035.45251 1676.97231,1047.24266 1676.05592,1060.98847 L1649.89462,1053.06338 C1649.92101,1057.14196 1649.39712,1061.64335 1648.32293,1066.56755 L1556.79561,1042.45027 Z" id="Combined-Shape" fill="#C7E0FF"></path>
        <path d="M1240.17013,277.532173 C1249.2703,276.544909 1255.89036,276.931291 1260.03031,278.69132 C1281.2168,287.698396 1284.61081,294.099614 1276.55609,293.309783 C1266.38531,292.312455 1253.7529,287.716681 1238.65886,279.522463 C1233.01849,286.608256 1226.42175,291.179383 1218.86865,293.23584 C1217.56365,293.591148 1217.84624,292.59013 1217.85474,291.847656 C1217.87243,290.301991 1219.473,287.551929 1222.51904,284.18883 C1226.54532,279.743466 1231.93803,278.940038 1241.93189,274.69132 C1244.75046,273.493049 1245.50481,272.336014 1244.19492,271.220215 C1242.91647,273.490234 1241.57487,275.59422 1240.17013,277.532173 Z" id="Combined-Shape" fill="#FF461C"></path>
        <path d="M1284.96219,341.058706 C1280.79792,341.56698 1269.68096,344.235352 1266.89941,349.884766 C1264.11787,355.53418 1263.89549,360.521085 1266.89941,363.106223 C1268.90203,364.829649 1276.80177,365.691362 1290.59863,365.691362 L1291.6709,358.253043 C1292.21323,349.231298 1292.21323,344.025427 1291.6709,342.635429 C1290.8574,340.550432 1289.12646,340.550432 1284.96219,341.058706 Z" id="Path-157" fill="#FBCEE4" fill-rule="nonzero"></path>
        <path d="M1354.04889,414.535145 C1361.1372,415.44164 1367.59108,416.44502 1373.41053,417.545287 C1392.63198,421.179429 1410.13693,435.954658 1425.92537,461.870975 L1433.81719,476.176568 C1434.02768,476.55812 1434.19597,476.961466 1434.3191,477.379469 C1435.25539,480.558152 1433.43757,483.893997 1430.25889,484.830287 C1408.24335,491.31503 1390.09818,494.931456 1375.82338,495.679567 C1353.36716,496.856448 1314.53896,495.536313 1259.33877,491.719162 C1252.57446,491.251403 1245.87527,490.096885 1239.34459,488.273429 L1212.5401,480.789233 C1209.34901,479.898235 1207.48409,476.589392 1208.37432,473.398087 C1211.35778,462.70299 1218.93381,451.950474 1231.1024,441.140537 C1242.36824,431.132559 1257.84388,422.565608 1277.52932,415.439684 C1273.44033,414.399072 1269.85194,412.755115 1266.76416,410.507813 C1286.52832,406.866589 1294.19081,382.068547 1289.75164,336.113686 C1285.67871,293.950195 1274.43823,275.510828 1233.21191,280.350586 C1230.79739,280.634039 1225.71341,282.275945 1222.43652,285.503906 C1220.57207,287.340525 1218.69381,290.993276 1216.80176,296.462158 C1215.82918,276.455366 1226.46627,266.45197 1248.71302,266.45197 C1270.95977,266.45197 1280.37487,266.287629 1276.95832,265.958946 C1291.96769,267.199629 1306.18439,269.892024 1319.6084,274.036133 C1333.03241,278.180241 1342.92987,282.764226 1349.30078,287.788086 C1390.18905,328.401164 1405.83293,361.485148 1396.23242,387.040039 C1389.69831,404.432713 1372.58706,411.647859 1354.04889,414.535145 Z" id="Combined-Shape" fill="#FFE640"></path>
        <path d="M1240.51995,372.124995 C1239.96112,372.134749 1239.41139,372.130146 1238.87349,372.1121 C1236.90343,372.046004 1235.08496,371.287867 1233.55703,370.245809 C1230.77989,368.351776 1228.9626,365.519772 1228.93957,364.200407 C1228.91043,362.531422 1231.75439,363.296282 1235.81717,363.75196 C1237.21558,363.908804 1238.75839,364.029018 1240.37814,364.000746 C1242.25924,363.967911 1244.05966,363.738025 1245.66206,363.490189 C1249.44805,362.904628 1252.12861,362.218868 1252.15612,363.79516 C1252.17956,365.137953 1250.27243,367.817919 1247.381,369.776978 C1245.44162,371.090985 1243.05942,372.080668 1240.51995,372.124995 Z M1266.04663,324.863206 C1262.14392,319.976892 1259.17582,320.028701 1255.58096,325.01919 C1254.85902,326.021406 1253.502,326.2154 1252.54998,325.452488 C1251.59795,324.689575 1251.41142,323.258655 1252.13336,322.256439 C1257.41331,314.926662 1263.67408,314.81738 1269.35428,321.929152 C1270.12453,322.893528 1270.0085,324.33212 1269.09512,325.142337 C1268.18174,325.952554 1266.81688,325.827583 1266.04663,324.863206 Z M1232.2329,323.818037 C1232.30029,323.928831 1232.3566,324.044049 1232.40195,324.162204 C1234.04946,328.173952 1234.81703,330.398283 1234.83673,331.526643 C1234.85285,332.450113 1233.64829,339.241143 1230.94002,353.67576 L1241.96183,353.483373 C1243.15058,353.462623 1244.13104,354.407558 1244.15175,355.593944 C1244.17246,356.780329 1243.22558,357.758901 1242.03683,357.779651 L1228.375,358.018119 C1227.01177,358.041914 1225.97011,356.811013 1226.22173,355.473644 C1227.67597,347.744038 1228.76483,341.856499 1229.48794,337.813099 C1230.14569,334.135219 1230.53437,331.744114 1230.53188,331.601785 C1230.52625,331.279054 1229.81827,329.221421 1228.52913,326.063321 C1224.71211,321.666616 1221.76123,321.802589 1218.20615,326.473112 C1217.48692,327.417998 1216.13641,327.602145 1215.18969,326.884417 C1214.24297,326.16669 1214.05855,324.818875 1214.77778,323.87399 C1220.06766,316.924361 1226.32483,316.801499 1232.00428,323.507375 C1232.08872,323.602696 1232.16539,323.706445 1232.2329,323.818037 Z M1224.94665,343.195829 C1222.19008,343.243946 1220.95005,340.088363 1220.88165,336.170249 C1220.85301,334.529317 1220.15039,331.990074 1220.78751,330.776723 C1221.67166,329.092911 1223.09689,329.035047 1224.69899,329.007082 C1227.45556,328.958966 1227.58669,332.133904 1227.65508,336.052018 C1227.72347,339.970133 1227.70323,343.147713 1224.94665,343.195829 Z M1261.28562,342.561531 C1258.52904,342.609647 1257.28901,339.454064 1257.22062,335.53595 C1257.19197,333.895018 1256.48936,331.355775 1257.12647,330.142425 C1258.01062,328.458612 1259.43585,328.400748 1261.03795,328.372783 C1263.79452,328.324667 1263.92565,331.499605 1263.99404,335.417719 C1264.06243,339.335834 1264.04219,342.513414 1261.28562,342.561531 Z M1561.06938,1055.45416 C1537.66084,1049.04303 1526.23909,1051.70808 1525.35917,1062.6111 C1525.27032,1063.71209 1524.30576,1064.53259 1523.20477,1064.44374 C1522.10378,1064.35488 1521.28328,1063.39032 1521.37214,1062.28933 C1522.49265,1048.4051 1535.6321,1044.86093 1559.48858,1050.90159 C1557.75005,1046.46192 1555.83578,1043.32066 1553.77189,1041.49168 C1553.18332,1040.9701 1552.57082,1040.47542 1551.93423,1040.00754 C1543.44987,1033.7717 1522.45411,1023.87369 1489.11537,1010.43045 C1488.09095,1010.01737 1487.59536,1008.85205 1488.00843,1007.82763 C1488.42151,1006.8032 1489.58684,1006.30761 1490.61126,1006.72069 C1524.27517,1020.29504 1545.44965,1030.27731 1554.30314,1036.78445 C1555.03774,1037.32437 1555.74502,1037.8956 1556.42482,1038.49802 C1559.54886,1041.26649 1562.21799,1046.08859 1564.48485,1052.99222 C1564.54769,1053.12998 1564.59508,1053.27509 1564.62549,1053.4248 C1566.19533,1058.30142 1567.56991,1064.19143 1568.7671,1071.10432 C1568.95559,1072.19268 1568.22609,1073.22778 1567.13772,1073.41627 C1566.04935,1073.60475 1565.01426,1072.87526 1564.82577,1071.78689 C1563.71953,1065.39917 1562.46192,1059.95202 1561.06938,1055.45416 Z M1063.3048,577.506385 C1063.25118,577.406844 1063.20531,577.301384 1063.1682,577.190519 C1060.00535,567.740846 1054.35839,566.495144 1044.5682,573.413012 C1043.66611,574.050438 1042.41809,573.835887 1041.78066,572.9338 C1041.14324,572.031712 1041.35779,570.78369 1042.25987,570.146264 C1054.08957,561.787261 1062.87522,563.723018 1066.95877,575.913158 C1072.34217,573.116468 1077.41173,568.444208 1082.20238,561.879852 C1095.2925,543.943208 1104.73998,529.515886 1110.53646,518.620987 C1111.05527,517.645842 1112.26637,517.275912 1113.24151,517.794725 C1114.21666,518.313537 1114.58659,519.524629 1114.06777,520.499774 C1108.16725,531.590212 1098.62526,546.161877 1085.43344,564.237871 C1071.73652,583.005982 1055.12918,587.798234 1036.24467,578.31501 C1035.25757,577.819319 1034.85921,576.61728 1035.3549,575.630181 C1035.85059,574.643082 1037.05263,574.244718 1038.03973,574.740409 C1047.15955,579.320108 1055.54904,580.257336 1063.3048,577.506385 Z M1133.95567,595.220128 C1133.59858,594.982529 1133.31488,594.628756 1133.1682,594.190519 C1130.00535,584.740846 1124.35839,583.495144 1114.5682,590.413012 C1113.66611,591.050438 1112.41809,590.835887 1111.78066,589.9338 C1111.14324,589.031712 1111.35779,587.78369 1112.25987,587.146264 C1124.09208,578.785486 1132.87895,580.723841 1136.96137,592.920927 C1137.09774,593.328362 1137.09559,593.748791 1136.98041,594.131093 C1143.24472,591.455147 1149.04252,586.302918 1154.42668,578.648239 C1167.23173,560.443278 1175.71563,548.026269 1179.8619,541.423677 C1180.44932,540.488257 1181.68382,540.206147 1182.61924,540.793568 C1183.55466,541.380988 1183.83677,542.615495 1183.24935,543.550915 C1179.05426,550.231257 1170.54278,562.688634 1157.6984,580.949509 C1144.33112,599.953806 1127.80994,605.035166 1108.7628,595.882966 C1107.7672,595.404578 1107.34792,594.209675 1107.82631,593.214075 C1108.3047,592.218476 1109.4996,591.799193 1110.4952,592.277582 C1118.96319,596.346472 1126.75843,597.339645 1133.95567,595.220128 Z M1098.65021,584.970196 C1098.43774,584.758036 1098.26998,584.494612 1098.1682,584.190519 C1095.00535,574.740846 1089.35839,573.495144 1079.5682,580.413012 C1078.66611,581.050438 1077.41809,580.835887 1076.78066,579.9338 C1076.14324,579.031712 1076.35779,577.78369 1077.25987,577.146264 C1089.09208,568.785486 1097.87895,570.723841 1101.96137,582.920927 C1102.06632,583.234473 1102.08923,583.555714 1102.04172,583.861352 C1108.65232,581.206953 1114.69357,575.812657 1120.22685,567.646746 C1132.66183,549.29546 1140.9839,535.028476 1145.18051,524.894652 C1145.60313,523.874129 1146.77303,523.389431 1147.79355,523.812049 C1148.81407,524.234667 1149.29877,525.404564 1148.87615,526.425087 C1144.55415,536.861719 1136.11236,551.333926 1123.53824,569.890566 C1110.50466,589.12526 1094.07468,594.49418 1074.87071,585.675793 C1073.86692,585.214853 1073.42685,584.027449 1073.88778,583.023653 C1074.34872,582.019856 1075.53613,581.579783 1076.53993,582.040723 C1084.52518,585.707521 1091.87507,586.694449 1098.65021,584.970196 Z M1577.95244,1000.99828 C1578.3502,1001.1182 1578.68308,1001.35086 1578.92664,1001.65076 C1578.96389,1001.66375 1579.0014,1001.67681 1579.03918,1001.68997 C1584.19275,1003.48468 1594.17994,1006.85768 1608.99353,1011.80646 C1639.48023,1021.99117 1653.239,1039.64039 1649.64862,1064.41496 C1649.4902,1065.50811 1648.4756,1066.26586 1647.38245,1066.10744 C1646.2893,1065.94902 1645.53155,1064.93442 1645.68997,1063.84127 C1648.97285,1041.18856 1636.52529,1025.22131 1607.7261,1015.60035 C1592.89673,1010.6463 1582.89834,1007.26951 1577.72368,1005.46747 C1574.62355,1004.38786 1573.54842,1003.99292 1573.15345,1003.73168 C1572.92735,1003.63577 1572.92735,1003.63577 1572.30997,1002.57371 C1572.2834,1001.19864 1572.2834,1001.19864 1573.1734,1000.35178 C1573.79093,1000.07188 1573.79093,1000.07188 1574.06633,1000.04891 C1574.34406,1000.02323 1574.49486,1000.04275 1574.74507,1000.09219 C1574.91289,1000.12536 1575.13358,1000.1806 1575.43631,1000.26308 C1575.97736,1000.41049 1576.81331,1000.65484 1577.95244,1000.99828 Z M1371.11539,673.565922 C1371.17714,674.668764 1370.33317,675.612854 1369.23033,675.674606 C1368.12749,675.736359 1367.1834,674.892389 1367.12165,673.789547 L1361.8397,579.458294 C1361.77794,578.355452 1362.62191,577.411362 1363.72476,577.34961 C1364.8276,577.287857 1365.77169,578.131828 1365.83344,579.23467 L1371.11539,673.565922 Z" id="Combined-Shape" fill="#6674A9"></path>
        <path d="M1292.87561,411.951375 C1329.12904,408.210268 1352.96813,393.571122 1364.65935,368.057574 C1365.11949,367.053411 1366.30654,366.612397 1367.31071,367.07254 C1368.31487,367.532683 1368.75588,368.719737 1368.29574,369.7239 C1355.77372,397.050492 1330.11524,412.499227 1291.59975,416.094891 C1312.44989,419.659555 1334.05007,418.785881 1356.41642,413.468851 C1357.49104,413.213387 1358.56929,413.877445 1358.82475,414.952067 C1359.08022,416.026689 1358.41616,417.104937 1357.34154,417.3604 C1328.98598,424.101211 1301.76588,423.86216 1275.7119,416.633703 C1274.64754,416.338404 1274.02409,415.236179 1274.31939,414.171814 C1274.57851,413.237853 1275.45894,412.643384 1276.38991,412.711253 C1309.40534,408.274658 1323.4185,376.601053 1318.10158,316.694301 C1318.00393,315.594056 1318.81669,314.62297 1319.91694,314.52532 C1321.01718,314.42767 1321.98827,315.240433 1322.08592,316.340677 C1326.66461,367.929612 1316.99152,399.99336 1292.87561,411.951375 Z" id="Combined-Shape" fill="#FFC635"></path>
        <path d="M807.816234,562.313178 L1132.81623,562.313178 C1153.80305,562.313178 1170.81623,579.326357 1170.81623,600.313178 L1170.81623,600.313178 L807.816234,600.313178 C797.322824,600.313178 788.816234,591.806588 788.816234,581.313178 C788.816234,570.819768 797.322824,562.313178 807.816234,562.313178 Z" id="Rectangle-Copy" fill="#82D121" transform="translate(979.816234, 581.313178) rotate(-168.000000) translate(-979.816234, -581.313178) "></path>
        <path d="M1126.4245,988.453059 L1113.99528,807.862674 C1113.91944,806.760711 1112.96464,805.928877 1111.86267,806.00472 C1110.76071,806.080563 1109.92888,807.035363 1110.00472,808.137326 L1122.43394,988.727712 C1122.50978,989.829674 1123.46458,990.661508 1124.56654,990.585665 C1125.66851,990.509822 1126.50034,989.555022 1126.4245,988.453059 Z" id="Path-165" fill="#55ABD5"></path>
    </g>
</svg>