<?xml version="1.0" encoding="UTF-8"?>
<svg width="1794px" height="1276px" viewBox="0 0 1794 1276" version="1.1" xmlns="http://www.w3.org/2000/svg" xmlns:xlink="http://www.w3.org/1999/xlink">
    <!-- Generator: Sketch 56.1 (81669) - https://sketch.com -->
    <title>Tesla Car</title>
    <desc>Created with Sketch.</desc>
    <g id="Tesla-Car" stroke="none" stroke-width="1" fill="none" fill-rule="evenodd">
        <path d="M410.267956,406.376414 L526.381636,379.179806 C550.989558,373.41604 575.638573,388.585099 581.582018,413.150242 L595.993816,472.716352 L636.538326,629.547262 L411.190325,669.282194 C397.136778,588.729965 388.326438,541.361056 384.759306,527.175467 C382.071671,516.487415 378.819699,492.730935 375.003392,455.906029 C372.616448,432.873552 387.722305,411.657146 410.267956,406.376414 Z" id="Rectangle" fill="#FF8ADF" transform="translate(503.806950, 519.023998) scale(-1, 1) rotate(10.000000) translate(-503.806950, -519.023998) "></path>
        <path d="M1351.07578,1022 L1371.69717,1200 L1278.90379,1200 L1227.52931,1200 L1086.81566,1200 L960.697168,1200 L967.629249,1181.86875 C973.942817,1165.35525 987.809656,1152.88342 1004.89768,1148.34954 L1081.03006,1128.14971 L1086.28872,1022 L1351.07578,1022 Z M192.5,969 C226.465512,969 254,996.534488 254,1030.5 L254,1143.5 C254,1177.46551 226.465512,1205 192.5,1205 C158.534488,1205 131,1177.46551 131,1143.5 L131,1030.5 C131,996.534488 158.534488,969 192.5,969 Z M844,969 C878.241654,969 906,996.758346 906,1031 L906,1143 C906,1177.24165 878.241654,1205 844,1205 C809.758346,1205 782,1177.24165 782,1143 L782,1031 C782,996.758346 809.758346,969 844,969 Z" id="Combined-Shape" fill="#161616"></path>
        <path d="M1513.962,630.188083 L1531.7295,1097.50516 C1533.82778,1152.69376 1490.78957,1199.13395 1435.60097,1201.23224 C1434.1568,1201.28714 1432.7116,1201.31074 1431.2664,1201.303 L1314.51949,1200.67805 C1259.2918,1200.38241 1214.76058,1155.37187 1215.05622,1100.14419 C1215.09806,1092.3277 1216.05622,1084.54308 1217.91108,1076.94974 L1345.34669,555.259763 C1317.38602,553.922443 1292.04885,551.661821 1269.33516,548.477896 C1199.63959,543.461081 1145.7046,540.277166 1107.53019,538.92615 C1070.10158,537.601528 1036.38898,515.929062 1019.64508,482.42836 L972.315607,387.732979 C954.926062,352.940498 966.93049,310.628735 1000.00057,290.152344 L1000.26902,289.986124 C1035.31235,268.287934 1080.07878,270.313447 1113.01941,295.087657 L1196.21649,357.659082 L1201.35201,351.496491 C1216.31011,333.546874 1237.08135,321.401745 1260.06005,317.169386 L1290.42126,311.57727 L1290.39991,311.869653 C1290.76747,311.774268 1291.13417,311.67963 1291.5,311.585738 C1303.49511,308.507169 1333.86127,300.880955 1382.59849,288.707097 C1396.92599,285.128294 1411.86829,284.767209 1426.35193,287.649784 C1444.73005,291.307449 1460.92149,299.78505 1473.87337,311.50646 L1647.28439,391.172721 C1683.73559,407.91866 1699.70985,451.043456 1682.96391,487.494649 C1680.45846,492.948313 1677.28672,498.070416 1673.52123,502.743826 L1623.18778,565.213375 C1617.75186,571.959962 1611.46222,577.971502 1604.47687,583.096969 L1553.83422,620.25574 C1541.88998,629.019768 1527.54825,632.169147 1513.962,630.188083 Z" id="Combined-Shape" fill="#FF6C6C"></path>
        <path d="M1343.48866,551.958042 L1333.71406,400.449329 C1333.64294,399.347051 1334.47887,398.395829 1335.58115,398.324715 C1336.68342,398.253602 1337.63465,399.089526 1337.70576,400.191803 L1347.54566,552.712546 C1347.61677,553.814824 1346.78085,554.766046 1345.67857,554.837159 C1345.65511,554.838672 1345.63173,554.839775 1345.60842,554.840473 L1218.07217,1076.94242 C1217.63043,1078.7508 1217.23955,1080.57002 1216.89979,1082.39795 L1152.59417,1087.83392 C1099.94909,1092.28419 1052.9253,1055.01411 1045.23571,1002.74387 L991.979658,640.73383 C991.003608,634.099093 990.755915,627.377525 991.240995,620.688945 C994.785669,571.812779 1035.89694,534.633357 1084.27847,535.349775 C1091.82534,537.41745 1099.67304,538.635054 1107.69128,538.918825 C1136.35059,539.933095 1173.89289,541.980426 1220.31818,545.060815 L1234.00268,546.053265 C1234.62359,546.098296 1235.24492,546.137528 1235.86657,546.170955 L1240.08297,546.397681 C1240.91885,546.455241 1241.75733,546.513103 1242.59841,546.571267 L1219.04749,440.433242 C1218.80822,439.3549 1219.48842,438.286761 1220.56676,438.047488 C1221.6451,437.808216 1222.71324,438.488416 1222.95251,439.566758 L1246.75977,546.860031 C1255.33115,547.456832 1264.16691,548.08438 1273.26705,548.742674 L1273.27717,548.60409 L1335.51494,551.529277 L1343.48866,551.958042 Z M1498.92437,548.281341 L1498.92429,548.413211 C1498.92361,549.51778 1498.02762,550.411973 1496.92305,550.411973 C1495.81848,550.411973 1494.92361,549.515304 1494.92429,548.410734 L1495,426.125479 C1495.00068,425.02091 1495.89667,424.126717 1497.00124,424.126717 C1498.10581,424.126717 1499.00068,425.023386 1499,426.127955 L1498.93293,534.454713 L1518.78305,468.920221 C1519.10325,467.863082 1520.21981,467.265677 1521.27695,467.58588 C1522.33409,467.906083 1522.93149,469.022639 1522.61129,470.079779 L1498.92437,548.281341 Z M1311.62152,451.968192 L1311.85104,460.509475 C1311.88071,461.613646 1311.00966,462.532807 1309.90549,462.562478 C1308.80132,462.59215 1307.88216,461.721096 1307.85249,460.616925 L1307.74972,456.792794 C1303.52348,460.812119 1297.77587,463.235907 1291.48379,463.121997 C1291.25949,463.117937 1291.03526,463.110595 1290.81118,463.099974 L1268.05665,462.021459 C1265.46246,461.8985 1262.98907,461.350329 1260.70067,460.447517 L1260.88772,462.394026 C1260.99337,463.49353 1260.1877,464.470507 1259.0882,464.576164 C1257.98869,464.681821 1257.01172,463.876149 1256.90606,462.776644 L1256.47047,458.243743 C1249.93246,453.917919 1245.77326,446.357683 1246.17137,437.958325 C1246.22922,436.73786 1246.38422,435.523944 1246.63492,434.328105 L1248.77057,424.140908 L1315.25443,420.76169 L1314.89634,440.54208 C1314.82063,444.723894 1313.63343,448.624795 1311.62152,451.968192 Z M1468.56001,442.761019 L1468.73702,445.743076 C1468.80247,446.845705 1467.96166,447.792618 1466.85904,447.858066 C1465.97147,447.910749 1465.1848,447.376226 1464.87756,446.59061 C1461.6824,449.225519 1457.73657,451.030099 1453.33027,451.623758 L1396.42939,459.290004 C1384.5979,460.884057 1373.51374,453.160782 1370.91142,441.509478 L1365.95721,419.328125 L1469.1875,400.320566 L1472.99771,425.37117 C1473.01734,425.500176 1473.03586,425.629348 1473.05328,425.75867 C1473.90042,432.046367 1472.12157,438.082448 1468.56001,442.761019 Z M1299.61976,302 L1313.99476,356.939175 C1313.11686,355.775621 1312.10734,354.717507 1310.98631,353.785923 C1302.95675,347.113314 1291.03828,348.213341 1284.36567,356.242902 L1276.1682,366.107422 C1263.89917,345.526693 1260.20358,330.540557 1265.08145,321.149016 C1269.95931,311.757474 1281.47208,305.374469 1299.61976,302 Z M1345.5498,282.332959 C1366.80306,275.975114 1380.09896,275.598731 1385.4375,281.203808 C1393.44531,289.611424 1390.54297,342.476775 1390.54297,349.334052 C1390.54297,350.653808 1383.0348,348.609594 1368.01845,343.20141 C1361.42619,340.82721 1354.07131,343.383268 1350.37225,349.334052 L1350.37225,332.322857 C1350.78434,324.071734 1350.78434,316.822813 1350.37225,310.576094 C1349.96017,304.329375 1348.35268,294.914997 1345.5498,282.332959 Z M1389.10226,462.53791 C1388.86493,461.459139 1389.54705,460.392226 1390.62582,460.154893 C1391.70459,459.91756 1392.7715,460.59968 1393.00884,461.678451 L1395.15748,471.44489 C1395.39482,472.523661 1394.71269,473.590574 1393.63392,473.827907 C1392.55515,474.06524 1391.48824,473.383119 1391.25091,472.304348 L1389.10226,462.53791 Z M1393.39955,482.070787 C1393.16222,480.992016 1393.84434,479.925103 1394.92311,479.68777 C1396.00188,479.450437 1397.0688,480.132557 1397.30613,481.211328 L1399.45477,490.977767 C1399.69211,492.056538 1399.00999,493.123451 1397.93122,493.360784 C1396.85244,493.598117 1395.78553,492.915996 1395.5482,491.837225 L1393.39955,482.070787 Z M1397.69684,501.603664 C1397.45951,500.524893 1398.14163,499.45798 1399.2204,499.220647 C1400.29917,498.983314 1401.36609,499.665434 1401.60342,500.744205 L1403.75207,510.510644 C1403.9894,511.589415 1403.30728,512.656328 1402.22851,512.893661 C1401.14974,513.130994 1400.08282,512.448873 1399.84549,511.370102 L1397.69684,501.603664 Z M1409.41679,515.164752 C1408.32451,515.329062 1407.30584,514.576794 1407.14153,513.484514 C1406.97722,512.392233 1407.72949,511.373566 1408.82177,511.209255 L1418.71051,509.721704 C1419.80279,509.557394 1420.82146,510.309662 1420.98577,511.401942 C1421.15008,512.494222 1420.39781,513.51289 1419.30553,513.677201 L1409.41679,515.164752 Z M1429.19427,512.18965 C1428.10199,512.35396 1427.08332,511.601692 1426.91901,510.509412 C1426.7547,509.417132 1427.50697,508.398464 1428.59925,508.234153 L1438.48799,506.746603 C1439.58027,506.582292 1440.59894,507.33456 1440.76325,508.426841 C1440.92756,509.519121 1440.17529,510.537789 1439.08301,510.702099 L1429.19427,512.18965 Z M1448.97175,509.214548 C1447.87947,509.378858 1446.86081,508.62659 1446.6965,507.53431 C1446.53219,506.44203 1447.28445,505.423362 1448.37673,505.259052 L1458.26547,503.771501 C1459.35775,503.60719 1460.37642,504.359459 1460.54073,505.451739 C1460.70504,506.544019 1459.95277,507.562687 1458.86049,507.726997 L1448.97175,509.214548 Z M1468.74924,506.239446 C1467.65696,506.403757 1466.63829,505.651488 1466.47398,504.559208 C1466.30967,503.466928 1467.06193,502.44826 1468.15421,502.28395 L1469.8939,502.022252 L1470.19141,504 L1468.19492,504.118504 L1467.70664,495.892237 C1467.64119,494.789608 1468.48199,493.842695 1469.58462,493.777247 C1470.68725,493.711799 1471.63416,494.5526 1471.69961,495.655229 L1472.18789,503.881496 C1472.24921,504.914573 1471.5123,505.823802 1470.48892,505.977748 L1468.74924,506.239446 Z M1471.10709,485.672799 C1471.17254,486.775428 1470.33174,487.722341 1469.22911,487.787789 C1468.12648,487.853236 1467.17957,487.012435 1467.11412,485.909806 L1466.5216,475.927376 C1466.45615,474.824747 1467.29696,473.877834 1468.39958,473.812386 C1469.50221,473.746938 1470.44913,474.587739 1470.51457,475.690368 L1471.10709,485.672799 Z M1469.92206,465.707937 C1469.9875,466.810566 1469.1467,467.75748 1468.04407,467.822927 C1466.94144,467.888375 1465.99453,467.047574 1465.92908,465.944945 L1465.33656,455.962514 C1465.27112,454.859886 1466.11192,453.912972 1467.21455,453.847524 C1468.31718,453.782077 1469.26409,454.622878 1469.32954,455.725507 L1469.92206,465.707937 Z M1312.11967,470.505866 L1312.38829,480.502257 C1312.41797,481.606428 1311.54691,482.525589 1310.44274,482.555261 C1309.33857,482.584933 1308.41941,481.713879 1308.38974,480.609708 L1308.12111,470.613317 C1308.09144,469.509146 1308.96249,468.589985 1310.06666,468.560313 C1311.17084,468.530641 1312.09,469.401695 1312.11967,470.505866 Z M1312.65692,490.498649 L1312.92555,500.49504 C1312.95522,501.599211 1312.08417,502.518372 1310.97999,502.548044 C1309.87582,502.577715 1308.95666,501.706661 1308.92699,500.602491 L1308.65836,490.606099 C1308.62869,489.501928 1309.49975,488.582767 1310.60392,488.553096 C1311.70809,488.523424 1312.62725,489.394478 1312.65692,490.498649 Z M1313.19417,510.491431 L1313.28717,513.952157 C1313.31871,515.125759 1312.33732,516.073981 1311.1655,516.002133 L1304.63973,515.602022 C1303.53723,515.534426 1302.69827,514.585875 1302.76587,513.483376 C1302.83347,512.380877 1303.78202,511.541923 1304.88452,511.60952 L1311.41029,512.009631 L1309.28862,514.059607 L1309.19562,510.598882 C1309.16595,509.494711 1310.037,508.57555 1311.14117,508.545878 C1312.24534,508.516207 1313.1645,509.38726 1313.19417,510.491431 Z M1294.65847,514.990047 L1284.67721,514.378072 C1283.57471,514.310476 1282.73576,513.361925 1282.80336,512.259426 C1282.87095,511.156927 1283.8195,510.317973 1284.922,510.38557 L1294.90326,510.997545 C1296.00576,511.065142 1296.84471,512.013692 1296.77712,513.116191 C1296.70952,514.21869 1295.76097,515.057644 1294.65847,514.990047 Z M1274.69596,513.766098 L1264.7147,513.154123 C1263.6122,513.086526 1262.77325,512.137975 1262.84084,511.035476 C1262.90844,509.932977 1263.85699,509.094023 1264.95949,509.16162 L1274.94075,509.773595 C1276.04325,509.841192 1276.8822,510.789742 1276.8146,511.892241 C1276.74701,512.99474 1275.79846,513.833694 1274.69596,513.766098 Z M1260.73224,502.593227 L1259.7757,492.639081 C1259.67004,491.539577 1260.47571,490.5626 1261.57522,490.456943 C1262.67472,490.351286 1263.6517,491.156958 1263.75736,492.256463 L1264.7139,502.210609 C1264.81956,503.310113 1264.01389,504.28709 1262.91438,504.392747 C1261.81488,504.498404 1260.8379,503.692732 1260.73224,502.593227 Z M1258.81915,482.684936 L1257.86261,472.73079 C1257.75695,471.631285 1258.56262,470.654309 1259.66213,470.548651 C1260.76163,470.442994 1261.73861,471.248667 1261.84426,472.348171 L1262.80081,482.302317 C1262.90647,483.401822 1262.10079,484.378798 1261.00129,484.484456 C1259.90179,484.590113 1258.92481,483.78444 1258.81915,482.684936 Z M1424.5,444 C1429.19442,444 1433,440.19442 1433,435.5 C1433,430.80558 1429.19442,427 1424.5,427 C1419.80558,427 1416,430.80558 1416,435.5 C1416,440.19442 1419.80558,444 1424.5,444 Z M1279.68297,452.917279 C1283.7848,452.340805 1286.58035,448.104936 1285.92701,443.456202 C1285.27367,438.807467 1281.41885,435.506248 1277.31703,436.082721 C1273.2152,436.659195 1270.41965,440.895064 1271.07299,445.543798 C1271.72633,450.192533 1275.58115,453.493752 1279.68297,452.917279 Z" id="Combined-Shape" fill="#E85353"></path>
        <path d="M234,620.023499 L800,620.023499 L751.625194,193.166136 C747.927145,158.201567 719.352273,131.721458 685.31981,131.721458 L361.75477,131.721458 C328.47131,131.721458 300.281631,157.080288 295.691714,191.150367 L234,620.023499 Z" id="Mask" fill="#6381DD"></path>
        <path d="M410.511589,406.259164 L526.625269,379.062556 C551.23319,373.298791 575.882206,388.467849 581.825651,413.032992 L596.237449,472.599102 L636.781959,629.430012 L411.433958,669.164945 C397.38041,588.612715 388.570071,541.243806 385.002939,527.058217 C382.315304,516.370165 379.063332,492.613686 375.247025,455.788779 C372.860081,432.756302 387.965938,411.539896 410.511589,406.259164 Z" id="Rectangle" fill="#FF8ADF" transform="translate(504.050583, 518.906748) scale(-1, 1) rotate(10.000000) translate(-504.050583, -518.906748) "></path>
        <path d="M598.843446,639.5 C595.994572,589.592478 554.620946,550 504,550 C453.379054,550 412.005428,589.592478 409.156554,639.5 L348,639.5 C348,553.619721 417.619721,484 503.5,484 C589.380279,484 659,553.619721 659,639.5 L598.843446,639.5 Z" id="Combined-Shape" fill="#161616"></path>
        <path d="M485.8251,309.382214 C485.084173,309.083931 484.361515,308.741352 483.662999,308.350117 C473.699087,302.769381 469.024816,286.573482 468.922771,280.727372 C468.823464,275.038032 470.873588,269.824565 474.305526,265.903031 C473.711788,263.592683 473.250424,261.418026 472.921434,259.37906 C470.08124,241.776523 474.103613,226.748466 484.988553,214.294886 C536.743254,205.397277 567.003768,205.751097 575.770095,215.356348 C588.919587,229.764223 584.276705,270.72067 581.966583,294.648989 C579.656461,318.577307 574.9306,335.060616 564.930331,340.341684 C559.844328,343.027564 548.183763,344.088144 529.948634,343.523423 L529.984289,357.869552 C529.987393,359.118776 529.701523,360.311759 529.18433,361.377921 L628.849546,368.932377 C644.703203,370.134058 657.89123,381.593256 661.294299,397.123922 L682.178648,492.434315 L692.028457,501.938681 C699.045021,501.922375 707.481011,507.264085 717.336427,517.963812 C721.71308,522.71541 722.020636,527.806761 718.259095,533.237864 C718.262023,567.688499 716.922572,591.985089 714.240741,606.127633 C713.475858,610.161219 711.786956,613.785646 709.434692,616.823358 L714.777293,641.205508 L657.758789,620.023499 C654.737857,598.014898 648.694833,579.836888 639.629717,565.489467 C635.884294,563.411872 631.754933,559.860812 627.241635,554.836288 C622.001518,551.694992 619.919815,545.835988 618.589844,543.93422 C615.178901,539.056804 604.71248,537.152271 598.115307,531.409805 C594.730526,528.463545 592.399608,523.687714 591.122552,517.082312 C590.545518,517.091982 589.999929,517.076382 589.485784,517.035511 C583.183359,516.53451 574.882143,511.393659 564.582138,501.612956 L621.531233,462.937257 C621.058073,454.513068 620.445453,445.033459 619.693372,434.498429 C618.044506,411.401379 599.48395,393.130402 576.363829,391.844908 L457.291535,385.224406 C432.056596,383.821326 410.416134,403.040189 408.828675,428.264201 L405.177992,486.271949 C406.003004,486.35615 406.828027,486.452398 407.652822,486.560767 L455.883619,492.897733 C455.77002,505.899848 451.086135,515.981192 441.831965,523.141766 C436.905631,526.953603 428.017537,527.068214 420.091934,528.173604 C415.946009,528.75184 409.822748,529.647795 401.722151,530.861469 L401.385518,535.143608 L424.942443,569.153064 C430.219022,577.902629 428.734633,586.957812 420.489273,596.318613 C417.558425,599.645949 409.853605,600.883009 397.374813,600.029794 C400.2422,610.445905 399.757522,617.502636 395.920779,621.199987 C390.165665,626.746013 392.261811,624.813683 386.799261,625.708618 C383.85139,626.191571 377.910026,626.399048 368.975167,626.331049 C369.944072,640.29143 368.883953,648.878642 365.794808,652.092686 C363.293191,654.695448 356.962173,656.306128 346.801754,656.924726 C341.798791,657.229322 336.841799,655.816436 332.751244,652.919925 C312.165361,638.34312 300.488391,624.617174 297.720335,611.742087 C293.164502,590.551494 294.25838,541.673812 332.088043,513.316245 C334.999611,511.133699 337.59965,509.04338 339.888161,507.045287 C339.992488,506.954199 340.097007,506.863388 340.201716,506.772852 L362.739576,406.251245 C370.017429,373.791134 400.009611,351.586694 433.180446,354.100988 L482.731515,357.856876 C482.637206,357.805546 482.542741,357.754 482.448122,357.702237 L485.8251,309.382214 Z M492.983968,311.002118 L493.504016,311.430562 C493.433259,311.295778 493.362679,311.161175 493.292275,311.026753 C493.189508,311.019048 493.086736,311.01084 492.983968,311.002118 Z" id="Combined-Shape" fill="#C7E0FF"></path>
        <path d="M520.194892,551.374887 C560.737181,558.338131 592.498193,590.994392 598.115307,631.981048 L570.095109,631.579749 C550.736267,601.828424 534.102858,575.093469 520.194882,551.374885 Z M484.690614,485.126031 C483.372084,482.298898 482.127114,479.553178 480.955705,476.888872 C464.959568,440.506522 446.864958,399.502889 426.671875,353.877974 C442.468685,351.970013 453.509204,351.146015 459.793431,351.405978 C466.077658,351.665941 473.406957,352.48994 481.781328,353.877974 C510.672122,410.839213 533.97086,456.551758 551.677543,491.01561 C551.799034,491.252077 551.92084,491.489141 552.042961,491.726799 C536.769039,486.712377 520.451274,484 503.5,484 C497.1336,484 490.856559,484.38259 484.690614,485.126031 Z" id="Combined-Shape" fill="#6674A9"></path>
        <path d="M473.21638,217.885747 C480.32854,211.960337 489.389293,208.595901 498.906319,208.615599 L527.218019,208.6742 C539.513647,207.771662 548.337204,207.771662 553.68869,208.6742 C555.963094,209.057783 557.665636,209.359816 558.796316,209.580301 L558.769851,209.544677 C562.277536,209.957644 565.117095,210.528 567.288528,211.255743 C569.860667,212.117781 570.423472,212.465336 572.87074,213.273518 C579.499262,215.462508 583.482799,225.908744 584.821352,244.612224 L559.662236,210.745904 C538.870754,236.393999 523.748902,257.798984 514.296681,274.960862 C513.169446,277.007521 512.193966,279.126377 511.37024,281.31743 C511.333127,280.799602 511.312652,280.313681 511.312652,279.865128 C511.312652,267.92205 501.881764,258.240273 490.248174,258.240273 C478.614583,258.240273 469.183695,267.92205 469.183695,279.865128 C469.183695,285.712129 473.574598,301.987139 483.439594,307.740918 C491.552135,312.472575 503.102868,310.567955 508.492483,308.899065 C508.846669,312.016508 509.398662,315.228058 510.148463,318.533715 C512.103149,327.151367 506.701748,335.72194 498.084096,337.676626 C495.704923,338.216279 493.233849,338.204727 490.859825,337.642855 C478.470162,334.710532 469.997237,331.224836 465.441048,327.185768 C460.709652,322.991379 452.902473,317.401386 442.019513,310.415791 C430.48269,303.010495 427.061531,287.695648 434.350391,276.084911 L446.109838,257.352784 C437.681981,257.796116 430.331561,255.157539 424.05816,250.380799 C412.451527,241.54319 414.508859,221.048531 415.673119,217.649286 C417.37985,212.666211 420.883406,208.647049 425.338357,205.712481 C430.442267,202.35043 436.794944,200.411977 443.125057,200.078567 C450.228639,199.704482 456.984163,200.486068 463.003555,203.728816 C466.3992,205.558108 470.252931,208.386824 472.099459,211.701189 C472.98409,213.289028 473.219558,215.508102 473.21638,217.885747 Z" id="Combined-Shape" fill="#FF461C" transform="translate(499.783960, 269.032814) rotate(-1.000000) translate(-499.783960, -269.032814) "></path>
        <polygon id="Path-255" fill="#C7E0FF" points="1304.02148 336.07684 1333.60835 398.28997 1354.66406 336.07684 1354.66406 288.597656 1298.10156 302"></polygon>
        <path d="M472.912202,548.88298 C473.360272,547.873372 474.541953,547.418156 475.55156,547.866225 C476.561168,548.314295 477.016384,549.495976 476.568315,550.505583 C465.864179,574.624557 454.285918,583.481773 442.136375,575.462137 C441.214523,574.853644 440.960496,573.613054 441.568989,572.691203 C442.177482,571.769352 443.418072,571.515324 444.339923,572.123818 C453.647295,578.267402 463.07044,571.058821 472.912202,548.88298 Z M475.174846,664.463759 C474.070313,664.454836 473.182145,663.552201 473.191001,662.447668 C473.199991,661.343134 474.102626,660.454966 475.207159,660.463889 L509.786615,660.743237 C510.891148,660.75216 511.779316,661.654795 511.77046,662.759329 C511.76147,663.863862 510.858835,664.75203 509.754302,664.743107 L475.174846,664.463759 Z M474.851485,704.036672 C473.746915,704.036672 472.851485,703.141241 472.851485,702.036672 C472.851485,700.932102 473.746915,700.036672 474.851485,700.036672 L505.302996,700.036672 C506.407566,700.036672 507.302996,700.932102 507.302996,702.036672 C507.302996,703.141241 506.407566,704.036672 505.302996,704.036672 L474.851485,704.036672 Z M620.965852,465.772259 C620.036671,466.3695 618.799261,466.10041 618.20202,465.171229 C617.604779,464.242049 617.873869,463.004639 618.80305,462.407398 C626.647875,457.365052 631.986883,448.452528 634.776313,435.544744 C639.776191,412.40836 642.330597,394.958969 642.446124,383.246675 C642.457019,382.142159 643.361237,381.255604 644.465753,381.266499 C645.570269,381.277393 646.456824,382.181612 646.445929,383.286128 C646.327169,395.326272 643.738348,413.010748 638.68606,436.389658 C635.688518,450.260453 629.796369,460.096348 620.965852,465.772259 Z M659.811421,463.248855 C658.892979,463.862481 657.650992,463.615379 657.037365,462.696937 C656.423739,461.778495 656.670841,460.536508 657.589283,459.922881 C665.197519,454.839691 670.379707,446.00282 673.09013,433.295199 C678.054627,410.019514 681.222929,393.317227 682.591981,383.216612 C682.740339,382.122051 683.747924,381.355003 684.842485,381.503361 C685.937046,381.651719 686.704095,382.659304 686.555736,383.753865 C685.169714,393.979686 681.986199,410.762171 677.002135,434.129595 C674.090245,447.781777 668.375246,457.52722 659.811421,463.248855 Z M586.896387,465.035645 C586.13955,465.840177 584.873811,465.878841 584.069279,465.122004 C583.264747,464.365167 583.226082,463.099428 583.982919,462.294896 C588.895718,457.072498 592.404127,449.645603 594.474816,439.980083 C599.437183,416.816855 602.375152,398.653139 603.290509,385.51342 C603.367271,384.411521 604.322764,383.580483 605.424663,383.657245 C606.526562,383.734007 607.3576,384.6895 607.280838,385.791399 C606.35009,399.152058 603.384571,417.4861 598.386067,440.818009 C596.172491,451.150488 592.353708,459.234409 586.896387,465.035645 Z M595.894596,460.406404 C595.203011,461.267672 593.944174,461.405228 593.082905,460.713644 C592.221636,460.022059 592.08408,458.763222 592.775665,457.901953 C602.41208,445.901193 611.894635,445.308469 619.617885,456.543908 C620.243594,457.454162 620.012925,458.699306 619.102672,459.325015 C618.192418,459.950724 616.947274,459.720055 616.321565,458.809801 C610.239878,449.962435 603.966036,450.354593 595.894596,460.406404 Z M634.843192,460.489426 C634.151607,461.350695 632.89277,461.488251 632.031501,460.796666 C631.170232,460.105081 631.032676,458.846244 631.724261,457.984975 C641.360676,445.984215 650.84323,445.391491 658.566481,456.62693 C659.19219,457.537184 658.961521,458.782328 658.051267,459.408037 C657.141014,460.033746 655.89587,459.803077 655.270161,458.892823 C649.188474,450.045457 642.914632,450.437615 634.843192,460.489426 Z M557.837173,463.817063 C557.145589,464.678332 555.886752,464.815888 555.025483,464.124303 C554.164214,463.432718 554.026658,462.173881 554.718243,461.312612 C564.354658,449.311853 573.837212,448.719128 581.560463,459.954567 C582.186172,460.864821 581.955503,462.109965 581.045249,462.735674 C580.134996,463.361383 578.889852,463.130714 578.264143,462.220461 C572.182456,453.373095 565.908614,453.765253 557.837173,463.817063 Z M429.811769,578.690682 C430.55087,577.869827 431.815464,577.803553 432.63632,578.542654 C433.457175,579.281755 433.523449,580.54635 432.784348,581.367205 C412.066524,604.376679 402.686009,626.834344 404.502647,648.786079 C404.593746,649.886886 403.775215,650.853116 402.674409,650.944214 C401.573602,651.035312 400.607373,650.216782 400.516274,649.115976 C398.599074,625.949082 408.410957,602.458691 429.811769,578.690682 Z M419.180227,344.324856 C417.618859,346.121005 415.470447,347.23209 413.35483,347.829002 C410.200649,348.718941 407.119363,348.46598 406.165096,347.636449 C405.044892,346.662671 407.153815,345.153458 409.856219,342.790066 C410.999998,341.789772 412.25009,340.636465 413.406666,339.305976 C414.402553,338.16034 415.245017,336.980067 415.9741,335.881281 C418.092293,332.688997 419.253474,330.184527 420.439551,331.215568 C421.377168,332.030627 422.325059,335.049207 422.018442,338.189132 C421.849747,339.916655 421.301315,341.680908 420.162511,343.135129 C419.851573,343.532189 419.523818,343.929601 419.180227,344.324856 Z M372.72024,328.125489 C372.912027,329.269483 372.14378,330.298705 371.004313,330.424319 C369.864845,330.549934 368.785651,329.724374 368.593864,328.58038 C367.179535,320.144022 371.181098,315.852871 379.619269,316.793927 C380.773038,316.9226 381.657183,317.954024 381.594061,319.097678 C381.53094,320.241333 380.544455,321.064138 379.390686,320.935465 C373.645545,320.294746 371.748491,322.329087 372.72024,328.125489 Z M388.015974,306.471202 C387.976151,306.355205 387.947506,306.237373 387.929619,306.119064 C386.513996,297.983406 390.370987,293.566019 398.568694,293.974801 C399.683271,294.030379 400.544207,294.978511 400.491648,296.092513 C400.43909,297.206514 399.492941,298.064535 398.378364,298.008956 C392.869066,297.734234 390.993838,299.770243 391.865806,305.171352 C393.366945,308.008166 394.424469,309.761744 394.653819,309.961115 C394.754967,310.049041 396.713441,311.217208 399.761947,312.971023 C403.113424,314.899138 408.015107,317.680841 414.465289,321.315132 C415.581292,321.943934 415.841643,323.436678 415.003477,324.400877 L406.603647,334.063776 C405.872757,334.90457 404.596777,334.992031 403.753662,334.259123 C402.910548,333.526215 402.819573,332.250478 403.550464,331.409684 L410.327109,323.614046 C398.286233,316.821859 392.6633,313.576386 392.00703,313.005898 C391.205151,312.308836 390.063302,310.411587 388.162367,306.800858 C388.104467,306.696792 388.055287,306.586638 388.015974,306.471202 Z M407.296944,311.949156 C405.602095,313.898857 403.298329,311.990203 400.51389,309.569728 C397.729452,307.149252 395.518751,305.133539 397.2136,303.183838 C398.198636,302.050685 399.09871,301.062598 400.845506,301.447008 C402.104243,301.724013 403.512316,303.765231 404.678457,304.778942 C407.462896,307.199417 408.991794,309.999455 407.296944,311.949156 Z M386.797823,335.569732 C385.035962,337.459097 382.800211,335.471206 380.101942,332.955029 C377.403673,330.438852 375.264666,328.347215 377.026526,326.457851 C378.050508,325.359765 378.984518,324.403693 380.716834,324.848831 C381.965137,325.169596 383.301115,327.258712 384.431167,328.312503 C387.129437,330.828679 388.559683,333.680368 386.797823,335.569732 Z" id="Combined-Shape" fill="#6674A9" fill-rule="nonzero" transform="translate(527.444366, 498.992710) scale(-1, -1) rotate(-134.000000) translate(-527.444366, -498.992710) "></path>
        <path d="M205.595939,662 L202,662 L202,658.047269 C106.311432,659.753181 66.0037281,645.237424 81.0768711,614.5 C91.9792647,592.267643 116.217005,578.007507 153.790097,571.719623 C156.889868,571.200871 160.027329,570.940155 163.170207,570.940155 C185.009172,570.940155 203.970958,583.258825 213.486046,601.326647 L266.088299,196.825802 C272.56751,147.001958 315.009959,109.721458 365.253323,109.721458 L683.127212,109.721458 C734.423042,109.721458 777.400212,148.534339 782.610097,199.564911 L823.951659,604.503498 C832.841094,584.718232 852.719461,570.940155 875.815869,570.940155 C878.958747,570.940155 882.096209,571.200871 885.195979,571.719623 C922.769071,578.007507 947.006812,592.267643 957.909205,614.5 C972.981617,645.235933 932.678554,659.751773 837.000016,658.047518 L837,662 L832.173224,662 L830.101496,664.740854 L835,712.721458 L199,712.721458 L205.595939,662 Z M249.790887,620 L785.23878,620 L742.589049,200.444678 C739.03474,165.480109 711.570552,139 678.860906,139 L367.872599,139 C335.882842,139 308.788876,164.35883 304.377365,198.428908 L249.790887,620 Z" id="Combined-Shape" fill="#55ABD5"></path>
        <path d="M716.325577,1087 L320.674423,1087 C306.974086,1106.93068 284.013294,1120 258,1120 L197,1120 C155.026359,1120 121,1085.97364 121,1044 L121,937.648268 C121,919.555488 125.908625,901.801662 135.202832,886.278569 L147.997462,864.909102 L147.997462,735.62104 C147.997462,735.554547 147.997528,735.488055 147.997661,735.421562 C148.107829,680.193197 192.968574,635.51107 248.196939,635.621239 L785.769447,636.693576 C785.99797,636.694031 786.22649,636.695271 786.455004,636.697293 C841.681317,637.186084 886.054845,682.3521 885.566053,737.578412 C885.012504,800.121399 885.490487,841.332155 887,861.210681 C887.74258,870.98959 891.324917,880.799885 897.747012,890.641566 C908.352778,906.894606 914,925.88257 914,945.289877 L914,1044 C914,1085.97364 879.973641,1120 838,1120 L779,1120 C752.986706,1120 730.025914,1106.93068 716.325577,1087 Z" id="Combined-Shape" fill="#60CBFF"></path>
        <path d="M147.997462,736.000004 L147.997462,865.288067 L135.202832,886.657534 C125.908625,902.180627 121,919.934452 121,938.027232 L121,1044.37896 C121,1068.12721 140.251756,1087.37896 164,1087.37896 L871,1087.37896 C894.748244,1087.37896 914,1068.12721 914,1044.37896 L914,945.668842 C914,926.261535 908.352778,907.273571 897.747012,891.020531 C891.324917,881.17885 887.74258,871.368555 887,861.589646 C885.490487,841.71112 885.012504,800.500363 885.566053,737.957377 C886.054845,682.731064 841.681317,637.565049 786.455004,637.076258 C786.22649,637.074235 785.99797,637.072996 785.769447,637.07254 L248.196939,636.000203 C192.968574,635.890035 148.107829,680.572162 147.997661,735.800527 C147.997528,735.867019 147.997462,735.933512 147.997462,736.000004 Z" id="Combined-Shape" fill="#60CBFF"></path>
        <path d="M519,824 C535.836851,824 552.841683,818.518469 565.58858,809.447266 C585.455473,795.309188 597,772.24136 597,746 C597,733.267113 595.225718,723.040998 591,712 C587.121323,701.865753 581.171242,690.692533 572.763142,683.847656 C559.339942,672.920081 537.658135,668 519,668 C499.836886,668 482.060621,673.436053 468,683.847656 C464.99228,686.074812 460.959472,693.153772 458.441194,696 C446.267613,709.758925 441,726.184102 441,746 C441,765.138983 447.002093,783.18799 458.441194,796.759766 C472.749333,813.735474 495.060773,824 519,824 Z" id="Oval" fill="#FFFFFF"></path>
        <path d="M1067.82052,236.781384 C1068.07963,238.000621 1068.10158,239.291226 1067.845,240.591479 C1048.42419,339.010219 1027.80477,411.553084 1005.0779,458.25608 C1024.80423,483.829789 1042.55398,525.852221 1051.45178,572.1537 C1066.39638,649.920958 1056.16029,729.881229 1015.84678,798.023157 C1004.47501,817.244854 966.997679,845.483924 903.414773,882.740367 C902.736007,880.862792 902.181282,878.506012 901.750598,875.670029 C901.319914,872.834045 900.82034,868.986723 900.251879,864.128062 C956.614021,830.172491 989.694797,804.912735 999.494207,788.348794 C1037.27596,724.486301 1046.9123,649.211013 1032.79318,575.739339 C1026.95027,545.334564 1017.18279,516.912774 1005.19198,494.037005 C1001.88928,487.736215 998.483938,481.999684 995.070852,476.917241 C976.47363,508.146837 956.456857,522.997137 934.561741,521.486319 C915.495334,520.170689 900.512892,511.401499 891.908851,497.473959 C884.067259,484.78061 882.371018,468.920018 887.124641,454.855074 C892.17267,439.919044 903.869191,428.6264 919.899976,424.435712 C937.258955,419.897814 958.341621,423.870804 981.776489,436.710307 C984.879516,438.410395 987.998402,440.607937 991.108328,443.259005 C991.276088,442.890782 991.44385,442.520785 991.611616,442.149012 C1011.80703,397.395357 1031.04845,328.922277 1049.20445,236.91317 C1049.20809,236.89473 1049.21178,236.876314 1049.21552,236.85792 L1038.44202,236.90224 C1025.40525,236.95587 1014.34431,227.346422 1012.57549,214.430096 L1003.27812,146.538649 C1002.97839,144.349938 1004.50971,142.332656 1006.69842,142.032924 C1006.87827,142.008293 1007.0596,141.995935 1007.24113,141.995935 L1104.17364,141.995935 C1106.38278,141.995935 1108.17364,143.786796 1108.17364,145.995935 C1108.17364,146.147461 1108.16503,146.298864 1108.14785,146.449413 L1100.47414,213.70071 C1098.98014,226.793852 1087.92671,236.698673 1074.74872,236.752883 L1067.82052,236.781384 Z M935.869679,502.531391 C950.613675,503.548764 966.367162,490.176502 982.302921,460.981077 C978.931786,457.60272 975.678897,455.03433 972.647163,453.373302 C953.160613,442.697005 936.894242,439.631637 924.705379,442.817989 C914.987503,445.358387 908.163373,451.946883 905.124393,460.93857 C902.167366,469.687774 903.233185,479.653644 908.073112,487.488135 C913.407431,496.122909 922.817803,501.630779 935.869679,502.531391 Z M531.632802,858.234989 C491.965165,861.00882 457.559556,831.100481 454.785725,791.432843 C452.011893,751.765206 481.920232,717.359597 521.58787,714.585765 C561.255508,711.811934 595.661116,741.720273 598.434948,781.387911 C601.208779,821.055549 571.30044,855.461157 531.632802,858.234989 Z M1473.78899,614.352788 L1677.93781,600.077312 C1690.83334,599.175569 1695.60346,600.191267 1700.49418,602.382899 C1705.3849,604.574532 1709.34352,608.015709 1712.19448,612.553817 C1715.04544,617.091924 1716.71513,621.674266 1717.61687,634.569798 L1747.32142,1059.36463 C1749.7468,1094.04917 1747.01492,1106.87915 1741.12019,1120.0335 C1735.22545,1133.18785 1725.96987,1143.83518 1713.76393,1151.50328 C1701.55798,1159.17138 1689.23306,1163.66226 1654.54853,1166.08764 L1575.72406,1171.59958 C1541.03952,1174.02496 1528.20954,1171.29308 1515.05519,1165.39835 C1501.90084,1159.50361 1491.25351,1150.24803 1483.58541,1138.04209 C1475.91731,1125.83614 1471.42643,1113.51122 1469.00105,1078.82669 L1439.2965,654.031854 C1438.39476,641.136322 1439.41046,636.3662 1441.60209,631.47548 C1443.79372,626.58476 1447.2349,622.626138 1451.77301,619.775178 C1456.31112,616.924218 1460.89346,615.254532 1473.78899,614.352788 Z" id="Combined-Shape" fill="#C8FF57" transform="translate(1101.406065, 657.239430) rotate(4.000000) translate(-1101.406065, -657.239430) "></path>
        <path d="M1346.5888,207.83835 C1353.2487,211.882151 1357.58555,219.306427 1357.29448,227.641647 C1357.12954,232.364999 1353.86998,243.606953 1347.32562,250.901401 L1347.32562,288.05196 C1347.32562,296.314964 1342.24413,303.727271 1334.53695,306.706633 C1331.3255,307.948082 1328.26873,308.999879 1325.36663,309.862024 C1324.11937,310.232558 1322.86224,310.594141 1321.59525,310.946773 C1312.55021,313.464215 1303.17696,308.172549 1300.65952,299.127506 C1300.64934,299.090931 1300.63928,299.054323 1300.62935,299.017681 L1299.07826,293.296588 C1292.22541,294.888493 1285.52288,295.881998 1278.97067,296.277102 C1251.31581,297.944717 1236.84008,274.776266 1234.16904,245.502574 C1233.69365,240.292515 1233.23304,235.3062 1232.93347,230.287793 C1232.30163,219.703123 1231.73119,206.059666 1231.22217,189.357422 C1234.5598,168.717012 1244.88785,156.767328 1262.20631,153.508372 C1270.3578,151.97444 1287.13804,153.664941 1312.54703,158.579877 C1334.45157,164.006506 1345.83469,175.172817 1346.69639,192.078808 C1346.92221,196.509378 1346.88635,201.762558 1346.5888,207.83835 Z M1020.09928,213.745252 L1043.08381,258.591466 C1045.51908,251.266416 1047.69501,246.18521 1049.61161,243.347846 C1051.52822,240.510483 1054.74061,236.478578 1059.24879,231.252133 C1063.29425,232.491374 1067.18168,233.215036 1070.9111,233.423119 C1074.64052,233.631202 1080.43516,233.513249 1088.29504,233.06926 L1069.91595,308.242736 C1068.52187,324.672584 1055.83401,336.301488 1031.85239,343.129447 C1007.87077,349.957407 984.028343,343.568847 960.325102,323.963767 L921.794387,257.468623 C921.509061,257.404597 921.222009,257.339641 920.933236,257.273757 L882.684394,187.789452 C893.953947,183.746874 902.401391,182.767308 908.026726,184.850755 C913.491077,186.874577 921.378772,193.67239 931.689811,205.244193 L915.915228,176.505742 C927.184781,172.463164 935.632225,171.483598 941.25756,173.567044 C946.882896,175.65049 955.076465,182.793361 965.83827,194.995657 C968.253767,198.587787 970.492002,201.995594 972.552974,205.219076 L1037.18863,155.320464 C1042.92337,165.839399 1045.20111,174.047195 1044.02185,179.943852 C1042.84259,185.840509 1037.07633,195.076359 1026.72308,207.651402 C1024.43456,209.789625 1022.22662,211.820908 1020.09928,213.745252 Z M1610.13407,641.515581 L1621.35397,666.94742 L1506.4666,659.056634 C1485.86439,652.892052 1472.58373,632.917024 1474.87073,611.534249 C1479.89402,564.568053 1498.3444,539.806196 1530.22188,537.248678 C1589.52173,532.491074 1564.92549,569.09863 1607.86283,574.91912 C1615.18252,575.91136 1621.10395,577.280584 1626.80768,577.71811 C1635.7244,578.402101 1644.82493,579.269658 1654.10929,580.320781 C1656.47132,580.55393 1658.9688,580.80254 1661.60173,581.066612 C1670.06006,581.914948 1678.3757,583.838339 1686.34748,586.790253 C1699.30171,591.587147 1707.89872,596.156664 1712.13852,600.498805 C1716.79515,605.267849 1719.92567,613.582628 1721.53007,625.443142 C1721.58881,625.877364 1721.5998,626.316714 1721.56286,626.753331 C1721.28347,630.055241 1718.38025,632.505478 1715.07834,632.226086 L1696.53635,630.657162 C1697.94283,635.710842 1698.9144,641.774975 1699.45105,648.849561 L1610.13407,641.515581 Z" id="Combined-Shape" fill="#FFBEBE"></path>
        <path d="M1355.03566,237.040024 C1356.33086,233.314825 1357.00669,229.959579 1357.0795,227.87455 C1357.50832,215.5949 1347.89273,205.292353 1335.60249,204.863169 C1323.70142,204.447574 1313.65639,213.442355 1312.64282,225.162103 C1308.37236,222.983757 1304.50078,219.680655 1300.9724,212.925116 C1293.96745,199.513277 1278.00003,180.915266 1253.07013,157.131084 C1238.98673,162.717994 1231.83687,175.911197 1231.62054,196.71068 C1231.37786,208.052445 1232.04099,220.343047 1233.60993,233.582485 C1226.11205,235.194393 1223.27865,223.231291 1225.10972,197.693177 C1226.99736,171.366016 1235.51693,157.011495 1250.66843,154.629614 C1251.41777,154.206183 1253.25645,153.6423 1256.18446,152.937966 C1264.5158,150.933858 1314.43934,142.870476 1332.12866,149.158635 C1349.81798,155.446795 1352.67687,163.404841 1357.70408,174.272337 C1362.73129,185.139833 1379.1591,210.276447 1368.05401,228.075855 C1365.0098,232.955165 1360.67035,235.943221 1355.03566,237.040024 Z" id="Combined-Shape" fill="#7821D1"></path>
        <path d="M1038.39397,94.5588819 L1054.39397,94.5588819 L1054.53236,140.626975 L1038.76742,140.602844 L1038.39397,94.5588819 Z M1075.39397,94.5588819 L1091.39397,94.5588819 L1091.06381,140.753722 L1075.45253,140.523363 L1075.39397,94.5588819 Z M500.835847,764.184779 C500.733077,763.163309 500.827876,762.131606 501.115072,761.145969 C502.351071,756.904097 506.791763,754.467356 511.033635,755.703353 C517.675119,757.638552 522.356005,759.923253 525.076292,762.557456 C529.021677,766.377988 532.589835,774.562089 535.780764,787.10976 C538.246624,778.38264 540.9292,771.645685 543.828492,766.898893 C545.606323,763.988186 549.069313,760.974532 554.217464,757.857931 C555.706714,756.956365 557.449406,756.565193 559.181109,756.74377 C563.576079,757.19699 566.771499,761.127224 566.318283,765.522194 C565.64133,772.086752 563.60067,777.593397 560.196301,782.042129 C554.644539,789.297011 548.108171,793.337618 540.587196,794.163951 C541.739164,801.326902 542.979946,806.40686 544.309541,809.403823 C545.406594,811.876628 547.376281,814.762008 550.218603,818.059964 C551.271961,819.282202 551.171164,821.118382 549.99034,822.217965 C548.679505,823.438613 546.694314,823.57832 545.225435,822.553301 C541.474187,819.935561 538.854939,817.03518 537.367693,813.852159 C535.556594,809.976026 534.436369,803.566667 534.007015,794.624082 C520.840794,792.462093 511.76102,787.891724 506.767694,780.912974 C503.471677,776.30641 501.494395,770.730345 500.835847,764.184779 Z M1619.78713,845.431695 L1669.60259,868.035862 L1567.81299,968.260729 L1599.10874,873.73032 L1545.99294,877.948328 L1623.68692,788.926312 L1619.78713,845.431695 Z" id="Combined-Shape" fill="#82D121" transform="translate(1085.199127, 531.409805) rotate(4.000000) translate(-1085.199127, -531.409805) "></path>
        <path d="M356.22452,772.714692 C363.956247,777.038143 368.680002,785.266915 368.514496,794.123801 C368.266695,807.384541 357.315859,817.933612 344.055119,817.685811 L344.055119,817.685839 C293.169217,816.734945 258.231661,813.625438 239.242451,808.35732 C204.484902,798.71464 185.284431,772.714692 176.253454,755.684212 C172.6942,748.972225 172.173514,741.058975 174.822601,733.938483 C179.947174,720.164123 195.267787,713.152085 209.042147,718.276658 L209.042143,718.276671 C257.097245,736.154952 285.734239,748.729395 294.953125,756 C313.951476,770.983318 338.550646,762.831758 356.22452,772.714692 Z M677.77548,772.714692 C695.449354,762.831758 720.048524,770.983318 739.046875,756 C748.265761,748.729395 776.902755,736.154952 824.957857,718.276671 L824.957853,718.276658 C838.732213,713.152085 854.052826,720.164123 859.177399,733.938483 C861.826486,741.058975 861.3058,748.972225 857.746546,755.684212 C848.715569,772.714692 829.515098,798.71464 794.757549,808.35732 C775.768339,813.625438 740.830783,816.734945 689.944881,817.685839 L689.944881,817.685811 C676.684141,817.933612 665.733305,807.384541 665.485504,794.123801 C665.319998,785.266915 670.043753,777.038143 677.77548,772.714692 Z" id="Combined-Shape" fill="#FFC635"></path>
        <path d="M258.5,802 C244.969024,802 234,791.702549 234,779 C234,766.297451 244.969024,756 258.5,756 C272.030976,756 283,766.297451 283,779 C283,791.702549 272.030976,802 258.5,802 Z M206,766 C194.954305,766 186,757.717268 186,747.5 C186,737.282732 194.954305,729 206,729 C217.045695,729 226,737.282732 226,747.5 C226,757.717268 217.045695,766 206,766 Z M775.5,802 C761.969024,802 751,791.702549 751,779 C751,766.297451 761.969024,756 775.5,756 C789.030976,756 800,766.297451 800,779 C800,791.702549 789.030976,802 775.5,802 Z M828,766 C816.954305,766 808,757.717268 808,747.5 C808,737.282732 816.954305,729 828,729 C839.045695,729 848,737.282732 848,747.5 C848,757.717268 839.045695,766 828,766 Z" id="Combined-Shape" fill="#FFE640"></path>
        <path d="M311.106429,863 L724.413319,863 C737.115869,863 747.413319,873.297451 747.413319,886 C747.413319,888.397249 747.038542,890.779762 746.302561,893.061239 L738.851719,916.15822 C734.668627,929.125449 731.30221,935.284857 726.710801,940.772788 C722.119392,946.260718 716.548047,950.317521 709.91554,953.002342 C703.283032,955.687162 696.38756,957 682.762316,957 L355.232001,957 C340.795709,957 334.311054,955.791037 327.844513,953.285609 C321.377971,950.780182 315.905491,946.97829 311.301122,941.792434 C306.696752,936.606578 303.301039,930.951361 298.263677,917.422447 L289.55207,894.025559 C285.119676,882.121415 291.176726,868.878035 303.08087,864.445641 C305.648593,863.489574 308.36649,863 311.106429,863 Z M256.770845,997 L779.077003,997 C787.093227,997 793.59166,1003.49843 793.59166,1011.51466 C793.59166,1014.77466 792.494194,1017.93976 790.476076,1020.5 L789.550274,1021.6745 C784.628343,1027.91861 780.664624,1031.96158 776.347439,1035.16094 C772.030254,1038.36029 767.474665,1040.57006 762.289487,1041.97998 C757.10431,1043.38991 751.475411,1044 743.52467,1044 L295.662562,1044 C286.30902,1044 281.353847,1043.49582 276.485201,1042.29359 C271.616555,1041.09137 267.318611,1039.19112 263.152921,1036.39897 C258.987231,1033.60683 255.279629,1030.28093 248.984997,1023.36237 L246.380753,1020.5 C241.159947,1014.76171 241.57945,1005.87761 247.317739,1000.6568 C249.90387,998.30389 253.274523,997 256.770845,997 Z" id="Combined-Shape" fill="#55ABD5"></path>
        <path d="M683.305585,1087 C683.305585,1095.56041 690.245172,1102.5 698.805585,1102.5 C707.365999,1102.5 714.305585,1095.56041 714.305585,1087 L714.305585,1081.56948 C714.305585,1081.03904 714.278357,1080.50895 714.224006,1079.9813 L703.511504,975.981305 C699.913628,941.052112 670.486033,914.5 635.37203,914.5 L409.676725,914.5 C376.031875,914.5 347.367776,938.933904 342.040771,972.154364 L325.364047,1076.15436 C324.788927,1079.74095 324.5,1083.3676 324.5,1087 C324.5,1095.56041 331.439586,1102.5 340,1102.5 C348.560414,1102.5 355.5,1095.56041 355.5,1087 C355.5,1085.01146 355.658172,1083.02607 355.973018,1081.06261 L372.649743,977.062608 C375.565986,958.876225 391.258011,945.5 409.676725,945.5 L635.37203,945.5 C654.595025,945.5 670.705022,960.035828 672.674662,979.157649 L683.305585,1082.36566 L683.305585,1087 Z" id="Path" fill="#FFEECB"></path>
        <path d="M1609.6533,674.771183 C1608.78335,670.464939 1607.61048,666.648484 1606.13691,663.315704 C1605.98304,663.32576 1605.82554,663.318057 1605.66689,663.29086 C1582.78995,659.36931 1571.93108,662.679208 1571.616,672.562993 L1609.6533,674.771183 Z M1613.79255,675.102889 C1614.58835,675.404069 1615.13246,676.195239 1615.08054,677.08962 C1615.01652,678.192333 1614.0707,679.034363 1612.96799,678.970347 L1568.48336,676.387867 C1567.38064,676.323851 1566.53861,675.37803 1566.60263,674.275318 C1566.64339,673.57317 1567.04168,672.976714 1567.61034,672.652562 C1567.799,659.699909 1580.33685,655.332828 1603.86571,658.94554 C1601.20204,654.573918 1597.84814,651.309742 1593.81171,649.131639 C1584.98461,644.368433 1563.85699,637.799548 1530.61183,629.517488 C1529.54002,629.250477 1528.8876,628.165148 1529.15461,627.093337 C1529.42162,626.021526 1530.50695,625.369106 1531.57876,625.636116 C1565.16428,634.002968 1586.48078,640.630576 1595.71125,645.611446 C1605.06293,650.657719 1611.06873,660.54723 1613.79254,675.102885 Z M1250.84075,211.246043 C1247.57656,208.132305 1244.88934,208.483116 1241.62063,212.277063 C1240.71941,213.323092 1239.14086,213.440486 1238.09483,212.539271 C1237.0488,211.638056 1236.93141,210.059502 1237.83262,209.013474 C1243.42084,202.527308 1249.85844,202.527308 1255.59556,208.984826 C1256.18564,209.648998 1256.35738,210.540052 1256.12983,211.335331 C1257.46057,214.633451 1258.06845,216.508815 1258.06845,217.588571 C1258.06845,218.533572 1256.77089,224.840425 1253.78256,238.610308 L1264.68078,238.610308 C1266.06149,238.610308 1267.18078,239.729596 1267.18078,241.110308 C1267.18078,242.49102 1266.06149,243.610308 1264.68078,243.610308 L1250.68078,243.610308 C1249.08585,243.610308 1247.89875,242.137003 1248.23798,240.578571 C1251.29744,226.523454 1253.06845,218.000507 1253.06845,217.588571 C1253.06845,217.609257 1252.92617,217.059845 1252.64699,216.249052 C1252.29388,215.223577 1251.75277,213.824794 1251.02648,212.063227 C1250.91611,211.795523 1250.85563,211.519685 1250.84075,211.246043 Z M1262.82857,256.952397 C1262.27442,256.952397 1261.72954,256.939186 1261.19662,256.913625 C1259.2448,256.820009 1257.45524,256.083845 1255.95861,255.087774 C1253.23838,253.277328 1254.292,248.581227 1258.31163,249.071955 C1259.69519,249.240864 1261.22253,249.377978 1262.82872,249.377946 C1264.69407,249.377909 1266.48285,249.192901 1268.07564,248.987946 C1271.83892,248.503697 1272.57104,253.096489 1269.67076,254.875432 C1267.72545,256.06863 1265.34678,256.952397 1262.82857,256.952397 Z M1283.78817,227.163192 C1281.05731,227.163192 1279.88376,224.029185 1279.88376,220.163192 C1279.88376,218.544089 1279.23181,217.053375 1279.88376,215.8675 C1280.78851,214.221815 1282.20101,213.163192 1283.78817,213.163192 C1286.51903,213.163192 1286.594,216.297198 1286.594,220.163192 C1286.594,224.029185 1286.51903,227.163192 1283.78817,227.163192 Z M1288.19869,211.730276 C1284.45911,207.521128 1281.56338,207.521128 1277.96164,211.701628 C1277.06042,212.747657 1275.48187,212.865052 1274.43584,211.963837 C1273.38981,211.062621 1273.27242,209.484068 1274.17363,208.438039 C1279.76184,201.951873 1286.19945,201.951873 1291.93657,208.409392 C1292.85361,209.441578 1292.76026,211.021736 1291.72808,211.938772 C1290.69589,212.855809 1289.11573,212.762462 1288.19869,211.730276 Z M1247.44716,227.738626 C1244.7163,227.738626 1243.54275,224.604619 1243.54275,220.738626 C1243.54275,219.119523 1242.8908,216.602724 1243.54275,215.416849 C1244.4475,213.771164 1245.86,213.738626 1247.44716,213.738626 C1250.17802,213.738626 1250.253,216.872633 1250.253,220.738626 C1250.253,224.604619 1250.17802,227.738626 1247.44716,227.738626 Z M1043.81478,146.389007 C1044.70206,145.731126 1045.95466,145.91709 1046.61254,146.804371 C1047.27042,147.691651 1047.08446,148.944251 1046.19718,149.602133 L1016.4671,171.645745 C1015.57982,172.303626 1014.32722,172.117662 1013.66934,171.230382 C1013.01146,170.343102 1013.19742,169.090501 1014.0847,168.43262 L1043.81478,146.389007 Z M926.909472,164.098349 C946.548634,156.297105 962.67511,162.518546 974.684162,182.409004 C986.131675,201.369391 992.820484,212.114646 994.570367,214.374601 C995.246613,215.247965 995.086817,216.504173 994.213452,217.180418 C993.340088,217.856664 992.083881,217.696868 991.407635,216.823504 C989.51143,214.374575 982.855586,203.682279 971.259882,184.476445 C960.225717,166.200682 946.136052,160.765022 928.386151,167.815798 C927.359606,168.223571 926.196861,167.721958 925.789087,166.695413 C925.381314,165.668868 925.882927,164.506123 926.909472,164.098349 Z M1050.24061,250.657225 L1041.99209,277.636904 C1038.16687,276.467417 1038.16687,276.467417 1038.16687,276.467417 L1046.41539,249.487738 C1049.9205,238.023043 1055.57388,229.196863 1063.38291,223.067269 C1064.25178,222.38526 1065.50902,222.536742 1066.19103,223.405614 C1066.87304,224.274486 1066.72156,225.531723 1065.85268,226.213731 C1058.72447,231.808925 1053.51799,239.9374 1050.24061,250.657225 Z M1021.5326,294.579213 C1013.06717,270.392978 994.50791,257.560193 965.472721,255.925259 C964.369898,255.863161 963.526224,254.918806 963.588323,253.815983 C963.650421,252.713161 964.594777,251.869487 965.697599,251.931586 C996.288507,253.654119 1016.28602,267.481382 1025.30803,293.257776 C1025.67293,294.30033 1025.12359,295.441301 1024.08103,295.806206 C1023.03848,296.17111 1021.89751,295.621767 1021.5326,294.579213 Z M890.088725,171.663569 C909.727887,163.862324 925.854362,170.083766 937.863414,189.974223 C949.310927,208.934611 955.999736,219.679866 957.749619,221.93982 C958.425865,222.813185 958.266069,224.069392 957.392705,224.745638 C956.51934,225.421884 955.263133,225.262088 954.586887,224.388723 C952.690682,221.939795 946.034839,211.247498 934.439135,192.041664 C923.40497,173.765901 909.315305,168.330242 891.565403,175.381017 C890.538858,175.78879 889.376113,175.287177 888.96834,174.260632 C888.560566,173.234087 889.06218,172.071342 890.088725,171.663569 Z M1611.43484,612.150775 C1611.84009,612.177388 1612.20919,612.322936 1612.51035,612.551145 C1612.5389,612.554244 1612.56759,612.557355 1612.59644,612.56048 C1617.76737,613.120667 1627.76648,614.108742 1642.58614,615.523873 C1673.17283,618.444601 1689.88484,633.998775 1692.15367,661.807251 C1692.24349,662.908163 1691.42383,663.873442 1690.32292,663.963262 C1689.22201,664.053083 1688.25673,663.233431 1688.16691,662.13252 C1686.06186,636.331265 1670.93102,622.248726 1642.20591,619.50576 C1627.36966,618.089045 1617.35878,617.099807 1612.16563,616.537213 C1609.02847,616.197353 1607.96049,616.063301 1607.52538,615.900782 C1607.28381,615.858385 1607.28381,615.858385 1606.4434,614.96164 C1606.10917,613.628536 1606.10917,613.628536 1606.78475,612.604519 C1607.32282,612.192886 1607.32282,612.192886 1607.58576,612.10843 C1607.84994,612.020961 1607.99972,612.006124 1608.25214,611.997983 C1608.418,611.992633 1608.63661,611.99657 1608.9376,612.00823 C1609.47281,612.028964 1610.30237,612.076405 1611.43484,612.150775 Z" id="Combined-Shape" fill="#E96868" transform="translate(1290.493463, 412.484606) rotate(-2.000000) translate(-1290.493463, -412.484606) "></path>
    </g>
</svg>