<?xml version="1.0" encoding="UTF-8"?>
<svg width="1794px" height="1276px" viewBox="0 0 1794 1276" version="1.1" xmlns="http://www.w3.org/2000/svg" xmlns:xlink="http://www.w3.org/1999/xlink">
    <!-- Generator: Sketch 56.1 (81669) - https://sketch.com -->
    <title>Water Polution</title>
    <desc>Created with Sketch.</desc>
    <g id="Water-Polution" stroke="none" stroke-width="1" fill="none" fill-rule="evenodd">
        <path d="M1054.62478,325.585664 C1052.18336,325.425159 1049.76168,325.166042 1047.35975,324.808313 C1018.66331,320.534437 1005.65653,293.558193 1009.29102,263.294125 C1012.9255,233.030058 1017.8323,209.840239 1032.0726,195.469038 C1038.5278,188.954509 1046.4254,174.983347 1074.10449,175.629066 C1082.78985,175.831685 1094.25838,181.304455 1108.51008,192.047376 C1129.77112,202.275554 1139.00336,216.055186 1136.20682,233.386271 C1134.48746,244.041703 1157.31432,279.765484 1150.72958,297.781595 C1149.53328,301.054733 1136.45854,306.365324 1111.50536,313.71337 C1110.62366,313.973007 1109.74933,314.256378 1108.8833,314.563141 L1112.32921,336.559345 C1309.61735,353.000417 1428.54259,371.772791 1469.10492,392.876467 C1494.32017,405.995397 1503.21425,420.761188 1517.65026,449.032975 C1542.26883,497.246518 1488.2904,561.381011 1355.71498,641.436454 C1355.90153,641.746917 1356.09014,642.060824 1356.28088,642.378263 C1358.71468,646.42878 1360.93557,650.20811 1362.94356,653.716253 C1365.08889,657.286888 1367.39339,661.493273 1369.85707,666.335405 C1370.87459,668.303742 1371.7856,670.136401 1372.59009,671.833389 C1374.84595,676.471207 1377.22361,681.595541 1379.72309,687.206397 C1384.47743,703.231735 1386.22977,714.264247 1384.98011,720.303931 C1383.73045,726.343614 1378.28135,733.177854 1368.63279,740.806648 L1358.88711,723.345253 C1356.254,726.433102 1352.78465,729.679173 1348.47905,733.083466 L1314.56556,672.673888 L1303.90458,691.550976 L1273.11931,634.053643 L1214.15616,599.34351 L1328.11985,499.198334 L1221.66169,473.721583 L1222.98936,584.823694 L1015.05295,607.92428 L982.534026,486.244041 L817.054174,524.71176 C806.361625,527.197367 795.332765,527.905408 784.410156,526.807468 C729.458605,521.283745 689.389434,472.25885 694.913157,417.307299 L705.756552,309.434154 L677.309518,322.699224 C672.546427,312.715493 672.40786,303.241684 676.893816,294.277798 C681.379771,285.313911 691.088422,275.664674 706.019766,265.330088 L656.588901,250.022837 C655.025548,252.518527 653.368572,255.114813 651.617974,257.811696 C640.767392,270.527044 632.469142,278.005416 626.723226,280.246814 C620.977309,282.488211 612.277837,281.640399 600.62481,277.703377 L639.46234,203.408096 C635.836065,201.893914 631.991767,200.232985 627.929447,198.425312 C613.673241,189.697437 604.988807,182.671228 601.876146,177.346685 C598.763484,172.022141 598.239961,163.297147 600.305577,151.171703 L632.1668,162.038577 C618.628355,153.655084 610.347338,146.877253 607.323753,141.705086 C604.211092,136.380543 603.687569,127.655548 605.753185,115.530104 L679.054259,140.530826 L679.358085,139.686605 L757.242951,169.951652 C769.539173,180.438409 778.352427,191.575059 783.682715,203.361603 L784.041672,203.011163 L784.792493,205.948633 C787.152643,211.763156 788.678627,217.733324 789.370445,223.859141 L828.775676,378.025842 C887.269147,362.464393 932.238873,352.174587 963.684855,347.156425 C985.724994,343.639251 1016.50583,340.256734 1056.02738,337.008874 L1054.62478,325.585664 Z" id="Combined-Shape" fill="#C7E0FF"></path>
        <path d="M854.429659,1150.49174 C1014.67149,1150.49174 1090.04064,1068.23643 1188.76019,1022.08779 C1273.41485,982.514091 1301,964.819949 1301,907.695798 C1301,869.027689 1288.39344,850.88846 1246.90996,819.142362 C1155.64502,749.299961 1034.58701,693.491745 829.949328,693.491745 C707.58162,693.491745 664.236686,738.144822 569.216373,759.154928 C490.335579,776.596398 438.200084,728.476289 342.550579,819.142362 C314.697082,845.544665 291.010484,888.860673 291.010484,919.5 C291.010484,976.744617 338.867865,1026.73444 435.230469,1055.8457 C466.477273,1065.2854 499.965121,1076.86954 542.324073,1080.10357 C649.759852,1088.30612 739.129061,1150.49174 854.429659,1150.49174 Z" id="Oval" fill="#FBCEE4" fill-rule="nonzero"></path>
        <path d="M1145.35186,230.800588 C1150.50282,240.989742 1158.71436,251.326463 1169.98648,261.810751 C1173.25562,264.851397 1175.65084,268.712021 1176.92327,272.99147 C1180.85835,286.225959 1173.31969,300.144643 1160.0852,304.079722 L1109.58188,319.096136 C1107.4166,319.739952 1105.12092,319.80843 1102.92111,319.294822 C1095.92944,317.662419 1091.5849,310.67123 1093.21731,303.679565 C1093.54899,302.258932 1093.87116,300.845224 1094.1838,299.43844 C1101.91492,303.481101 1112.4124,307.214578 1120.6796,304.481808 C1132.69397,300.510393 1142.55108,285.996411 1144.29375,279.926407 C1147.85331,267.527821 1140.61338,254.576864 1128.12291,250.999632 C1116.75336,247.743431 1104.95242,253.376413 1100.24123,263.764828 C1101.25404,254.751545 1101.79789,246.079243 1101.87277,237.747922 C1102.01019,222.458299 1093.44053,203.34785 1076.16379,180.416576 C1064.22901,179.997745 1053.34623,182.727702 1043.51546,188.606445 C1025.79929,199.20062 1009.98706,236.158818 1009.32324,278.024414 C1009.20181,285.683029 1011.33742,294.123438 1015.73008,303.34564 L987.649969,281.073397 C976.832464,272.493298 975.018688,256.768432 983.598787,245.950926 C985.297514,243.809228 987.335997,241.960634 989.633072,240.478748 C997.935722,235.122552 1004.19839,227.643905 1008.42108,218.042805 C1022.62345,185.750968 1042.63378,178.913936 1056.52011,176.057696 C1063.69041,174.582858 1069.58478,175.138652 1074.20322,177.72508 C1073.61666,175.984716 1075.6437,175.328147 1080.28433,175.755374 C1078.3606,166.604239 1077.70733,158.198219 1082.9528,149.112801 C1086.51206,142.947972 1089.24635,132.866178 1094.66662,128.823865 C1102.6124,122.898095 1112.58706,120.418039 1123.0501,120.657908 C1135.03731,120.932719 1148.44404,123.585956 1158.61823,131.101142 C1192.67578,156.257813 1178.3292,190.201323 1174.06686,197.583916 C1168.76925,206.759642 1155.75193,225.774686 1146.72592,230.154461 C1146.26138,230.379877 1145.80349,230.595201 1145.35186,230.800588 Z" id="Combined-Shape" fill="#FF461C"></path>
        <path d="M1035.69487,264.961639 C1035.78288,263.388247 1039.68125,263.388247 1047.38996,264.961639 C1055.54493,267.536677 1059.2877,269.707421 1058.61826,271.473871 C1058.30506,272.30032 1052.58728,271.37241 1046.83179,269.758916 C1041.25964,268.196816 1035.63804,265.977471 1035.69487,264.961639 Z M1071.05874,248.632848 C1068.32515,248.19989 1067.6467,244.880507 1068.25888,241.015355 C1068.51527,239.396604 1068.09872,237.802852 1068.93911,236.720597 C1070.10535,235.218711 1071.6869,234.38426 1073.27564,234.635893 C1076.00923,235.068851 1075.58801,238.214063 1074.97583,242.079215 C1074.36365,245.944368 1073.79233,249.065806 1071.05874,248.632848 Z M1079.85648,232.767749 L1066.19948,235.642533 C1064.84838,235.926939 1063.52254,235.062211 1063.23813,233.711108 C1062.95373,232.360005 1063.81846,231.034163 1065.16956,230.749758 L1078.82655,227.874973 C1080.17765,227.590567 1081.5035,228.455296 1081.7879,229.806399 C1082.07231,231.157501 1081.20758,232.483343 1079.85648,232.767749 Z M1054.5434,256.966015 C1055.88081,257.30908 1056.68689,258.671375 1056.34382,260.008788 C1056.00076,261.3462 1054.63846,262.152279 1053.30105,261.809214 L1043.42034,259.274678 C1042.0727,258.92899 1041.26654,257.549606 1041.62677,256.205778 C1045.6782,241.091943 1048.0429,231.916183 1048.05795,231.485883 C1048.10619,230.106014 1049.26391,229.026578 1050.64378,229.074764 C1052.02365,229.12295 1053.10314,230.280724 1053.0549,231.660592 C1053.01944,232.674756 1051.22793,239.669213 1047.11005,255.059261 L1054.5434,256.966015 Z M1031.21993,241.018318 C1028.49432,240.537718 1027.8739,237.207001 1028.55345,233.353121 C1028.83804,231.739091 1028.44937,230.138312 1029.30852,229.070889 C1030.5008,227.589586 1032.09666,226.782863 1033.68078,227.062185 C1036.40639,227.542785 1035.93035,230.680166 1035.2508,234.534046 C1034.57126,238.387926 1033.94555,241.498917 1031.21993,241.018318 Z M1038.22082,229.67894 L1027.40224,222.121659 C1026.27034,221.330978 1025.99373,219.772421 1026.78441,218.640525 C1027.57509,217.508629 1029.13365,217.23202 1030.26555,218.022701 L1041.08413,225.579982 C1042.21603,226.370663 1042.49264,227.92922 1041.70196,229.061116 C1040.91128,230.193012 1039.35272,230.469621 1038.22082,229.67894 Z M600.058736,275.220863 L618.182071,241.822024 C618.708885,240.851178 619.922977,240.491219 620.893823,241.018032 C621.864669,241.544846 622.224628,242.758939 621.697814,243.729784 L603.574479,277.128624 C603.047666,278.099469 601.833573,278.459428 600.862728,277.932615 C599.891882,277.405801 599.531923,276.191709 600.058736,275.220863 Z M601.29254,153.987468 C601.554941,152.914519 602.637456,152.25744 603.710405,152.519841 C604.783354,152.782242 605.440433,153.864757 605.178032,154.937706 C600.463528,174.215163 608.092925,187.918225 628.503299,196.599697 C649.915308,205.70721 661.868241,210.98469 664.655214,212.572747 C665.614915,213.119598 665.949596,214.340901 665.402744,215.300603 C664.855892,216.260304 663.63459,216.594985 662.674888,216.048133 C660.095707,214.578478 648.085592,209.275751 626.937658,200.280562 C604.788089,190.859331 596.094025,175.244032 601.29254,153.987468 Z M706.865002,267.142703 C683.990561,277.80923 674.863149,296.046935 679.280312,322.368986 C679.463117,323.458323 678.728226,324.489598 677.638889,324.672402 C676.549551,324.855206 675.518276,324.120316 675.335472,323.030978 C670.626004,294.967077 680.639841,274.958185 705.174529,263.517472 L731.51923,251.232736 C731.51923,251.232736 731.51923,251.232736 733.209703,254.857968 L706.865002,267.142703 Z M603.810439,115.054985 C604.07284,113.982036 605.155355,113.324957 606.228304,113.587358 C607.301253,113.849759 607.958332,114.932274 607.695931,116.005223 C602.981427,135.282679 610.610824,148.985742 631.021198,157.667213 C652.433207,166.774726 664.38614,172.052206 667.173112,173.640263 C668.132814,174.187115 668.467495,175.408417 667.920643,176.368119 C667.373791,177.32782 666.152488,177.662501 665.192787,177.115649 C662.613606,175.645995 650.60349,170.343268 629.455557,161.348078 C607.305988,151.926847 598.611923,136.311548 603.810439,115.054985 Z M1304.46628,686.529331 C1306.36025,684.391217 1307.92312,682.280781 1309.15897,680.196848 C1309.10704,680.108311 1309.06126,680.014631 1309.02244,679.916148 C1302.91883,664.433916 1297.224,658.874247 1291.65037,661.677481 L1304.46628,686.529331 Z M1302.02782,690.528027 L1287.49351,662.343959 C1287.45922,662.305605 1287.42615,662.265646 1287.39438,662.224094 C1286.96293,661.65978 1286.87822,660.939252 1287.1061,660.318385 C1287.26154,659.829866 1287.60364,659.400783 1288.09527,659.14725 C1288.13447,659.127036 1288.17402,659.108243 1288.21388,659.090854 C1296.59197,653.094564 1304.44027,659.043998 1311.46463,675.343768 C1312.584,672.191852 1312.93268,669.100806 1312.52563,666.066305 C1311.501,658.427988 1306.01509,642.241144 1296.10059,617.7082 C1295.68672,616.684098 1296.18141,615.518391 1297.20552,615.104521 C1298.22962,614.69065 1299.39533,615.185341 1299.8092,616.209443 C1309.85513,641.067634 1315.40454,657.441842 1316.49012,665.534495 C1316.73206,667.33815 1316.75548,669.145805 1316.56221,670.956922 C1316.74724,671.10963 1316.90772,671.298445 1317.03225,671.520167 L1349.28836,728.951719 C1362.62129,716.373172 1363.91752,701.265033 1353.1532,683.026778 C1347.29311,673.097868 1343.35977,666.383051 1341.34938,662.875663 C1340.0737,660.650089 1339.70701,659.984435 1339.59434,659.578666 C1339.48743,659.361694 1339.48743,659.361694 1339.7188,658.156146 C1340.60051,657.102883 1340.60051,657.102883 1341.82508,657.047522 C1342.47356,657.240557 1342.47356,657.240557 1342.69543,657.40293 C1342.91858,657.563115 1343.01349,657.669782 1343.16112,657.859737 C1343.24824,657.971835 1343.35004,658.117368 1343.48521,658.319386 C1343.71837,658.667862 1344.06772,659.211366 1344.53809,659.956948 C1344.72954,660.260407 1344.8293,660.595616 1344.84472,660.930129 C1346.85164,664.430237 1350.77065,671.120273 1356.59797,680.993657 C1368.78504,701.642528 1366.61843,719.414478 1350.071,733.626466 C1349.11326,734.449032 1347.64235,734.189388 1347.02412,733.088633 L1315.27735,676.563943 C1313.54816,681.493004 1310.23969,686.443462 1305.38897,691.404608 C1304.61676,692.194397 1303.35051,692.208648 1302.5607,691.436467 C1302.29546,691.177119 1302.1177,690.862052 1302.02782,690.528027 Z M1371.25931,740.206916 C1370.41621,740.920537 1369.15424,740.815574 1368.44061,739.972473 C1367.72699,739.129373 1367.83196,737.867401 1368.67506,737.153779 C1386.26932,722.261549 1389.37676,705.654036 1378.16802,686.662791 C1366.38371,666.696331 1359.91795,655.393009 1358.61911,652.46723 C1358.17093,651.45767 1358.62602,650.275941 1359.63558,649.827764 C1360.64514,649.379587 1361.82687,649.834678 1362.27505,650.844238 C1363.47719,653.552181 1369.97366,664.90919 1381.61279,684.62967 C1393.8275,705.325365 1390.31945,724.073929 1371.25931,740.206916 Z M826.842095,378.536984 C826.559799,377.469097 827.196647,376.374557 828.264534,376.092262 C829.332421,375.809966 830.42696,376.446813 830.709256,377.5147 L840.221518,413.498306 C840.503814,414.566193 839.866967,415.660733 838.799079,415.943028 C837.731192,416.225324 836.636653,415.588477 836.354357,414.52059 L826.842095,378.536984 Z" id="Combined-Shape" fill="#6674A9" fill-rule="nonzero"></path>
        <path d="M872.007302,868.004629 C872.014732,880.582144 841.566895,919.282422 792.053725,927.456567 C732.745172,937.247835 639.370354,889.495198 639.366419,882.835317 C639.362657,876.467556 596.4222,796.684385 647.78452,780.913759 C667.324118,774.914191 634.493549,707.45223 635.399637,693.357836 C636.808271,671.446228 706.215462,584.075856 708.324068,583.212099 C748.742146,566.655468 778.955753,613.086827 840.964386,702.271678 C858.918063,728.093825 872.004909,863.955123 872.007302,868.004629 Z M288.925737,573.2669 C298.130426,585.589995 304.09821,595.547991 306.829089,603.140889 C309.304743,610.024164 304.814256,612.579756 308.271969,617.298636 C312.335054,622.843692 315.552121,621.706871 323.7864,628.105267 C330.698348,633.476152 344.928981,650.339907 366.478301,678.696531 C348.916735,698.687111 334.750259,712.309322 323.978873,719.563164 C313.207487,726.817005 302.157619,732.895961 290.829268,737.800032 C286.838036,733.831445 282.912922,728.020873 279.053928,720.368318 C277.350821,716.990982 280.211536,705.364264 277.699807,701.268232 C275.381791,697.488098 260.418095,692.983693 257.351934,688.494511 C249.653046,677.222531 237.715722,658.142896 221.539962,631.255605 C234.725459,614.146713 245.323302,602.14569 253.333492,595.252536 C261.343682,588.359382 273.207763,581.030837 288.925737,573.2669 Z M526.788384,404.516996 L510.236644,498.38658 L515.160683,499.254821 C530.389723,501.940112 540.558441,516.462547 537.873151,531.691587 L513.041461,672.519096 C512.998653,672.761875 512.913727,672.98665 512.795524,673.187231 C509.252719,683.390511 485.943294,688.193232 459.084097,683.939153 C430.991609,679.48974 409.653928,666.817614 411.425054,655.635167 C411.464717,655.384744 411.515633,655.137191 411.577594,654.892555 C411.581484,654.80674 411.590946,654.720198 411.606263,654.633334 L436.437952,513.805825 C439.123243,498.576784 453.645678,488.408066 468.874718,491.093357 L474.783565,492.135246 L491.627438,396.608894 L492.059068,396.685002 C492.916539,392.9794 501.305975,391.356592 510.971825,393.060942 C520.761923,394.787201 528.15415,399.273004 527.482828,403.080264 C527.391229,403.599742 527.154245,404.079748 526.788384,404.516996 Z M721.661133,595.71145 C714.667658,593.541465 709.159145,596.77074 705.135593,605.399275 C701.11204,614.027811 684.361107,636.896876 654.882791,674.006472 C658.804578,688.609556 673.821953,697.268458 688.425036,693.346671 C694.514948,691.711172 699.853629,688.02364 703.539088,682.907071 C712.231018,670.840052 719.329846,661.836652 724.835571,655.896871 C732.967084,647.124293 742.480523,639.794507 753.375887,633.907511 C757.748929,631.544669 759.378513,626.084155 757.015667,621.711115 C756.352548,620.483846 755.413225,619.427521 754.271854,618.625531 L721.661133,595.71145 Z" id="Combined-Shape" fill="#C8FF57" transform="translate(546.773633, 660.579103) scale(-1, -1) rotate(65.000000) translate(-546.773633, -660.579103) "></path>
        <path d="M1000.77555,338.540638 C1005.56151,336.899663 1009.88505,336.079175 1013.74616,336.079175 C1017.60727,336.079175 1021.75166,336.59785 1026.17933,337.6352 C1049.45889,396.360645 1082.25001,425.723367 1124.5527,425.723367 C1166.85539,425.723367 1188.30811,399.462915 1188.91087,346.942009 C1193.47274,346.938322 1197.45382,347.214356 1200.85411,347.77011 C1204.25441,348.325864 1208.04853,349.437292 1212.23647,351.104394 C1223.99026,428.176835 1228.42391,475.310532 1225.53742,492.505486 C1222.65092,509.70044 1210.4504,520.019522 1188.93585,523.462733 L960.479438,508.095667 L962.266032,480.415722 C982.544959,457.075966 993.946769,437.159924 996.471461,420.667595 C998.996154,404.175266 1000.43085,376.799614 1000.77555,338.540638 Z" id="Rectangle" fill="#6381DD" transform="translate(1093.435254, 429.770954) scale(-1, 1) rotate(-3.000000) translate(-1093.435254, -429.770954) "></path>
        <path d="M1275.55981,976.990603 L1114.85358,1257.85344 C1108.54504,1268.87873 1094.49319,1272.70242 1083.4679,1266.39388 C1077.78428,1263.14179 1073.75633,1257.62125 1072.39387,1251.21631 L1035.95032,1079.89448 L814.414536,1110.48215 C801.831361,1112.21953 790.222264,1103.42726 788.484892,1090.84409 C787.458983,1083.41378 790.120713,1075.95 795.616758,1070.84555 L1003.58078,877.699037 L956.478439,875.470741 C953.000919,875.306228 949.534363,874.960228 946.092931,874.434153 C891.498645,866.08859 854.006648,815.065762 862.35221,760.471476 L886.733533,600.975828 L1320.59478,531.104932 C1340.99648,527.819354 1361.91504,530.934866 1380.47385,540.023038 C1430.07445,564.312242 1450.59338,624.211759 1426.30418,673.812354 L1284.0062,964.396771 C1282.8261,966.80663 1281.47433,969.128555 1279.96132,971.3446 C1278.59648,973.343618 1277.12505,975.226424 1275.55981,976.990602 Z" id="Mask" fill="#60CBFF" transform="translate(1112.392686, 899.633758) scale(-1, 1) rotate(20.000000) translate(-1112.392686, -899.633758) "></path>
        <path d="M1465.59264,1060.61489 L1379.64305,1210.82714 C1373.33451,1221.85244 1359.28267,1225.67613 1348.25737,1219.36759 C1342.57376,1216.1155 1338.5458,1210.59495 1337.18334,1204.19001 L1300.73979,1032.86819 L1079.20401,1063.45586 C1066.62083,1065.19323 1055.01174,1056.40097 1053.27436,1043.8178 C1052.24845,1036.38749 1054.91018,1028.9237 1060.40623,1023.81925 L1181.52824,911.327228 L1333.06581,887.851655 C1359.43487,883.766669 1385.39859,897.29458 1397.15954,921.246507 L1465.59264,1060.61489 Z M1262.85923,834.462644 C1299.9707,792.871501 1326.20537,762.098716 1341.5492,742.16383 C1356.77627,722.380638 1365.66622,707.556416 1368.19985,697.853755 C1368.47893,696.785022 1369.57154,696.144878 1370.64027,696.423954 C1371.70901,696.70303 1372.34915,697.795644 1372.07007,698.864378 C1369.3634,709.229697 1360.25277,724.421908 1344.71898,744.603602 C1329.30195,764.633602 1303.01491,795.46781 1265.84382,837.12577 C1265.10841,837.949941 1263.84413,838.021902 1263.01996,837.286501 C1262.19579,836.551099 1262.12383,835.286815 1262.85923,834.462644 Z" id="Combined-Shape" fill="#55ABD5" transform="translate(1259.325295, 959.383515) scale(-1, 1) rotate(20.000000) translate(-1259.325295, -959.383515) "></path>
        <path d="M684.401623,1056.58012 C701.420679,1059.79887 716.258047,1067.69747 728.913729,1080.2759 C739.355906,1090.65434 746.516139,1098.20124 747.631407,1097.95949 C748.908385,1097.68269 743.02399,1088.30686 738.11328,1080.2759 C730.40776,1067.67431 700.276904,1057.59918 686.948958,1051.50929 C694.308006,1037.93309 706.141548,1024.22555 723.721316,1012.0196 C725.286767,1010.93268 726.857479,1009.90475 728.433452,1008.93581 C728.434051,1009.39237 728.456326,1009.86836 728.500277,1010.36379 C729.236103,1018.65805 742.629299,1051.64581 749.676732,1067.81105 C754.37502,1078.58788 760.439339,1086.18033 767.869688,1090.5884 C757.644723,1076.05601 751.804811,1063.65171 750.349953,1053.37551 C748.965796,1043.59869 744.306156,1027.33219 736.371034,1004.57602 C752.065677,996.973138 768.270617,995.092636 784.985852,998.934512 C783.773516,1004.75742 777.95974,1020.3399 777.086485,1037.81357 C776.655162,1046.44428 778.090057,1060.948 781.391173,1081.32473 L785.198435,1084.69777 C782.66026,1068.19466 781.391173,1054.9839 781.391173,1045.06551 C781.391173,1035.91944 785.101448,1021.24526 792.522,1001.04298 C803.96941,1004.81222 815.651845,1011.21699 827.569305,1020.2573 C839.336013,1030.87498 841.414772,1041.55263 833.805582,1052.29024 C822.391796,1068.39666 817.113224,1078.54301 822.2919,1087.88559 C825.744351,1094.11397 828.386425,1098.8804 830.218123,1102.18487 L787.07606,1122.70774 L743.650543,1150.17006 C737.938015,1133.56261 730.798937,1125.47252 722.233309,1125.89981 C709.384868,1126.54074 695.07991,1135.32965 682.763708,1113.11063 C675.463349,1099.94043 674.149708,1078.70916 684.401617,1056.58013 L684.401623,1056.58012 Z M431.641241,1003.98513 C469.694967,954.927258 492.578923,928.708195 500.293111,925.327944 C508.007298,921.947692 512.375269,924.94054 513.397024,934.306488 L460.262511,1026.81194 C518.656173,1053.91854 551.272864,1070.40153 558.112583,1076.26093 C564.952303,1082.12033 561.538738,1085.8882 547.87189,1087.56456 L446.948862,1061.26298 C442.133487,1121.44479 436.666395,1155.96266 430.547585,1164.81657 C424.428775,1173.67048 420.091683,1172.98355 417.536311,1162.75578 L411.085078,1058.36233 C351.953124,1071.98866 319.272796,1076.91569 313.044092,1073.14341 C306.815389,1069.37113 306.238015,1064.85288 311.311972,1059.58867 L398.98226,1023.33818 C371.798637,967.762964 358.763647,936.459724 359.87729,929.428462 C360.990932,922.3972 365.512687,921.508477 373.442555,926.762292 L431.641241,1003.98513 Z" id="Combined-Shape" fill="#FF8ADF"></path>
        <circle id="Oval" fill="#FF6C6C" transform="translate(590.572922, 409.424280) rotate(-126.000000) translate(-590.572922, -409.424280) " cx="590.572922" cy="409.42428" r="52.5"></circle>
        <path d="M575.500229,399.122953 C572.186521,399.122953 569.500229,396.436661 569.500229,393.122953 C569.500229,389.809244 572.186521,387.122953 575.500229,387.122953 C578.813938,387.122953 581.500229,389.809244 581.500229,393.122953 C581.500229,396.436661 578.813938,399.122953 575.500229,399.122953 Z M603.500229,399.122953 C600.186521,399.122953 597.500229,396.436661 597.500229,393.122953 C597.500229,389.809244 600.186521,387.122953 603.500229,387.122953 C606.813938,387.122953 609.500229,389.809244 609.500229,393.122953 C609.500229,396.436661 606.813938,399.122953 603.500229,399.122953 Z M557.408706,418.798834 C556.483143,418.196003 556.221517,416.956993 556.824348,416.03143 C557.42718,415.105866 558.666189,414.84424 559.591752,415.447072 C568.469327,421.22915 578.821311,424.122953 590.695882,424.122953 C602.58791,424.122953 612.823434,421.436498 621.444269,416.076949 C622.382331,415.493758 623.615551,415.781438 624.198742,416.719501 C624.781934,417.657564 624.494253,418.890784 623.55619,419.473975 C614.27444,425.244414 603.307065,428.122953 590.695882,428.122953 C578.06724,428.122953 566.955456,425.016755 557.408706,418.798834 Z" id="Combined-Shape" fill="#FFFFFF" transform="translate(590.500249, 407.622953) rotate(-126.000000) translate(-590.500249, -407.622953) "></path>
        <path d="M591.620117,907.072754 C594.46297,903.769033 596.62687,901.636953 598.111816,900.676514 C602.506445,897.834138 607.288818,897.412842 608.894287,893.768066 C610.499756,890.123291 610.122733,885.471693 611.058838,878.494629 C611.291419,876.761131 612.124264,874.081118 613.557373,870.45459 C612.150146,873.616536 614.110423,877.692179 619.438202,882.681518 C624.765981,887.670856 631.005917,895.65505 638.158011,906.6341 C630.335241,906.136713 624.815542,906.136713 621.598912,906.6341 C616.395714,907.438668 611.708777,911.116955 608.490803,911.116955 C602.288791,911.116955 596.665229,909.768888 591.620117,907.072754 Z M667.158011,879.645107 C671.302925,880.223653 675.283142,880.223653 679.098661,879.645107 C682.0444,879.198446 684.357268,874.11736 686.763645,873.635299 C695.595285,871.866088 702.305608,874.40466 704.515188,877.740462 C705.629086,879.422114 706.29484,880.847249 706.512451,882.015869 C700.870829,883.832505 697.755351,886.187448 697.166016,889.080697 C696.236816,893.642459 695.772217,899.02474 695.772217,905.227539 C693.218018,904.613444 690.21516,902.948905 686.763645,900.233922 C684.899691,898.767725 683.277109,895.009337 680.641692,893.259208 C676.860061,890.747899 672.365501,886.209866 667.158011,879.645107 Z M678.980078,844.354 C655.359791,832.318863 637.634574,819.770036 639.389698,816.325411 C641.144822,812.880786 661.715658,819.844772 685.335945,831.879909 C708.956232,843.915047 726.681449,856.463874 724.926324,859.908499 C723.1712,863.353124 702.600365,856.389138 678.980078,844.354 Z M508.252411,798.656586 C537.762005,788.44946 549.877087,779.5946 544.597656,772.092004 C541.567461,767.785795 535.344566,766.210844 525.928972,767.367151 C529.947089,763.698886 530.83665,760.273836 528.597656,757.092004 C527.524249,755.566586 526.05021,754.383896 524.175539,753.543935 C532.858698,748.269836 535.666071,743.452525 532.597656,739.092004 C527.188192,731.404617 511.603944,732.421453 485.844912,742.142511 L474,712.268433 L553.55957,691 L584,789.505371 L512.353516,809 L508.252411,798.656586 Z" id="Combined-Shape" fill="#82D121"></path>
        <path d="M1016.25068,205.011163 C1007.03048,170.705809 1004.70264,153.553132 1009.26718,153.553132 C1016.11399,153.553132 1026.36309,183.260234 1032.6013,175.78497 C1038.83951,168.309706 1035.00567,127 1044.71478,127 C1051.18752,127 1057.66021,139.117699 1064.13285,163.353098 C1076.42211,139.117699 1085.10823,127 1090.19121,127 C1095.27418,127 1098.83676,142.371536 1100.87894,173.114608 C1116.83878,148.647872 1126.86125,137.6586 1130.94632,140.146792 C1135.03139,142.634983 1133.95663,158.074753 1127.72204,186.466101 C1140.42492,178.766236 1148.53325,176.464434 1152.04702,179.560693 C1155.49443,182.598475 1147.7546,200.123309 1128.82752,232.135194 L1128.82752,232.135193 C1128.54643,232.610597 1127.93318,232.768125 1127.45778,232.487041 C1127.25463,232.366934 1127.10052,232.178853 1127.02268,231.956066 C1116.28819,201.23084 1100.00646,183.765715 1078.17749,179.560693 C1055.86902,175.263303 1035.22675,183.746793 1016.25068,205.011163 Z" id="Path-5" fill="#FFE640"></path>
        <path d="M1347.47326,561.66936 C1351.74351,558.724408 1356.92037,557 1362.5,557 C1377.13555,557 1389,568.864454 1389,583.5 C1389,590.076036 1386.60471,596.092622 1382.63901,600.724879 L1393.28323,612.546485 C1395.50053,615.009051 1395.30171,618.802834 1392.83914,621.020138 C1390.37658,623.237442 1386.58279,623.038618 1384.36549,620.576052 L1372.92537,607.870516 C1369.72555,609.241141 1366.2014,610 1362.5,610 C1347.86445,610 1336,598.135546 1336,583.5 C1336,578.811223 1337.21772,574.406861 1339.35417,570.585917 L1298.71677,525.453515 C1296.49947,522.990949 1296.69829,519.197166 1299.16086,516.979862 C1301.62342,514.762558 1305.41721,514.961382 1307.63451,517.423948 L1347.47326,561.66936 Z M1311.06612,355.193535 C1314.33903,355.711913 1316.57202,358.78536 1316.05364,362.058271 L1296.03003,488.482379 C1295.51165,491.75529 1292.43821,493.98828 1289.16529,493.469902 C1285.89238,492.951524 1283.65939,489.878077 1284.17777,486.605165 L1304.20138,360.181058 C1304.71976,356.908147 1307.79321,354.675156 1311.06612,355.193535 Z M1286.82696,349.938607 C1290.09987,350.456985 1292.33286,353.530432 1291.81448,356.803344 L1271.79087,483.227451 C1271.27249,486.500362 1268.19904,488.733353 1264.92613,488.214974 C1261.65322,487.696596 1259.42023,484.623149 1259.93861,481.350238 L1279.96222,354.92613 C1280.4806,351.653219 1283.55404,349.420229 1286.82696,349.938607 Z" id="Combined-Shape" fill="#FFC635"></path>
        <path d="M1362.5,601 C1366.80119,601 1370.52745,599.154989 1373.78702,596.874101 C1380.82227,591.951172 1381.7154,585.221877 1379.41504,579.503906 C1377.57333,574.926002 1377.64973,572.772461 1373.24009,569 C1371.88319,567.839167 1366.87305,565.731445 1362.5,565.731445 C1359.83105,565.731445 1352.96369,568.235497 1349.80176,572.772461 C1347.82702,575.605952 1345,579.784403 1345,583.5 C1345,587.632746 1347.40612,591.490311 1349.80176,594.484375 C1353.00865,598.492333 1356.96776,601 1362.5,601 Z" id="Oval" fill="#FF6C6C"></path>
    </g>
</svg>