<?xml version="1.0" encoding="UTF-8"?>
<svg width="1794px" height="1276px" viewBox="0 0 1794 1276" version="1.1" xmlns="http://www.w3.org/2000/svg" xmlns:xlink="http://www.w3.org/1999/xlink">
    <!-- Generator: Sketch 56.1 (81669) - https://sketch.com -->
    <title>Wind Energy</title>
    <desc>Created with Sketch.</desc>
    <g id="Wind-Energy" stroke="none" stroke-width="1" fill="none" fill-rule="evenodd">
        <path d="M649.851769,481.370661 C580.189302,476.974099 535.1276,476.974099 514.666662,481.370661 C483.975256,487.965504 489.30685,553.982223 501.853725,555.999211 C510.218308,557.34387 563.022687,540.370182 660.266863,505.078147 C707.625848,517.264173 731.133317,513.259743 730.789269,493.064857 C730.687604,487.097364 733.304196,485.216764 718.134411,484.421749 C708.021221,483.891739 685.26034,482.87471 649.851769,481.370661 Z" id="Path-101" fill="#FF66D5" transform="translate(611.412267, 517.073240) rotate(-3.000000) translate(-611.412267, -517.073240) "></path>
        <path d="M1142.89068,1141.04521 C1147.26181,1146.15082 1150.71094,1152.07312 1152.99439,1158.56609 L1160.1806,1179 L911.484703,1179 L863.602079,1179 L813.046604,1179 L839.418657,1081 L921.271484,1053.15039 L999.27371,1081.4141 L1009.59888,1043.04521 L1196.89117,1043.04521 L1196.89117,1071.726 L1284.08375,1089.73738 C1302.97579,1093.63991 1318.44227,1107.15494 1324.84227,1125.35326 L1330.36082,1141.04521 L1142.89068,1141.04521 Z" id="Combined-Shape" fill="#161616"></path>
        <path d="M939.834411,636.43671 L692.28632,691.179687 L1009.09739,1043.04521 L1277.64054,1043.04521 C1306.55148,1043.04521 1330.71022,1021.03713 1333.39801,992.251398 L1362.93837,675.878701 C1368.07283,620.889413 1327.65751,572.149484 1272.66822,567.015022 C1262.258,566.042999 1251.75975,566.709589 1241.55608,568.990496 L939.834411,636.43671 Z" id="Path-38-Copy-3" fill="#E85353"></path>
        <path d="M533.053788,206.402919 C534.684984,159.512339 573.211754,122 620.5,122 C668.824916,122 708,161.175084 708,209.5 C708,257.824916 668.824916,297 620.5,297 C613.93641,297 607.541612,296.277312 601.390838,294.907168 L360,296 L533.053788,206.402919 Z M731.257146,274.448778 C734.174122,197.492436 797.481954,136 875.152115,136 C954.681119,136 1019.15211,200.470996 1019.15211,280 C1019.15211,359.529004 954.681119,424 875.152115,424 C863.641038,424 852.445424,422.649343 841.715107,420.097862 L447,421.888079 L731.257146,274.448778 Z" id="Combined-Shape" fill="#D2F7FF"></path>
        <path d="M575.10277,846.494504 C571.91975,850.69399 567.972139,854.369026 563.366271,857.293739 L526.279214,880.843917 C506.112307,893.649846 480.491897,894.157902 459.833158,882.16155 C419.110168,858.514059 392.320024,811.939967 379.462726,742.439272 C362.735603,652.020071 426.322709,571.373647 570.224042,500.5 L570.253087,500.56646 C576.178714,497.470452 582.901977,495.683045 590.044316,495.592519 L646.244751,494.880201 L966.087726,487.716797 L1061.93938,456.665562 C1079.65312,450.927181 1099.07151,456.690964 1110.786,471.164257 L1132.8535,498.428737 C1133.70337,499.478758 1134.51859,500.556367 1135.29782,501.659825 C1154.98345,529.536183 1148.34355,568.092792 1120.4672,587.778421 L969.967792,694.057563 C942.674566,713.331398 907.558487,717.700517 876.374424,705.702388 L784.951566,670.527263 L786.591946,766.639623 L575.375812,849.415039 L575.10277,846.494504 Z" id="Combined-Shape" fill="#FF8ADF"></path>
        <path d="M1107.0466,1120.33054 L927.633894,1057 L839.372052,1080.5 L819.323911,1155 L547.341632,1155 L610.675946,677.140676 L1107.0466,676 L1107.0466,1120.33054 Z" id="Combined-Shape" fill="#FFEECB"></path>
        <path d="M719.119482,742.60155 L768.00012,746.019617 C780.120787,746.867177 789.259447,757.380002 788.411887,769.500669 L773.693271,979.986683 C772.845711,992.10735 762.332887,1001.24601 750.21222,1000.39845 L701.331581,996.980383 C689.210914,996.132823 680.072255,985.619998 680.919814,973.499331 L695.63843,763.013317 C696.48599,750.89265 706.998815,741.75399 719.119482,742.60155 Z M879.66638,741.225512 L1002.59145,736.932873 C1014.73431,736.508835 1024.9218,746.00882 1025.34584,758.151683 L1032.88413,974.020101 C1033.30817,986.162964 1023.80818,996.35045 1011.66532,996.774488 L888.740249,1001.06713 C876.597387,1001.49116 866.4099,991.99118 865.985862,979.848317 L858.447571,763.979899 C858.023533,751.837036 867.523517,741.64955 879.66638,741.225512 Z" id="Combined-Shape" fill="#FFFFFF"></path>
        <path d="M1192.13233,575 C1192.15454,575.165021 1192.16585,575.331764 1192.16585,575.5 C1192.16585,579.089851 1187.01713,582 1180.66585,582 C1174.31458,582 1169.16585,579.089851 1169.16585,575.5 C1169.16585,575.196151 1169.20274,574.897172 1169.27412,574.604415 L1169.27412,315 L1192.27412,315 L1192.27412,575 L1192.13233,575 Z M950.053808,775.001805 C974.649172,774.87131 987.353186,788.829923 988.165851,816.877642 L968.626117,929 L934.149588,928.475507 C915.493763,874.328809 906.165851,837.129521 906.165851,816.877642 C906.165851,786.499824 913.160762,775.197547 950.053808,775.001805 Z M944.383478,815.932222 C943.084922,807.80564 938.492146,801.407329 933.164036,800.406967 C926.996087,799.248924 922.563124,805.157098 921.597947,816.071628 C920.610846,827.234089 928.219713,832.267395 940.878797,831.985662 C941.152554,831.97957 941.428807,831.970843 941.707353,831.959552 C942.664721,850.24032 943.379779,882.252959 943.843206,927.881427 L947.843,927.840803 C947.378368,882.093794 946.665102,850.067224 945.693943,831.645837 C948.492936,831.328487 951.413482,830.809836 954.282613,830.149242 C954.147063,841.04368 954.332069,855.838111 954.727614,876.015516 C954.925464,886.108162 954.925464,903.533395 954.727294,928.279404 L958.727166,928.311436 C958.925613,903.530751 958.925613,886.076582 958.726846,875.937118 C958.319448,855.155074 958.15768,840.03138 958.318344,829.118024 C962.218134,828.021437 965.855283,826.70122 968.752958,825.321013 C974.981339,822.35434 976.107172,813.979486 972.9938,806.233348 C971.596601,802.757087 969.494338,799.991356 967.05268,798.71056 C963.975865,797.096586 960.729852,797.971108 958.214747,801.21462 C955.848809,804.265765 954.698432,810.692549 954.353613,826.021595 C951.395798,826.740071 948.357324,827.307183 945.46585,827.645949 C945.133181,822.269996 944.7725,818.366791 944.383478,815.932222 Z M961.375755,803.665748 C962.750538,801.89281 963.911856,801.579934 965.194566,802.252792 C966.667333,803.025347 968.208181,805.052481 969.282363,807.72507 C971.708075,813.760294 970.88616,819.874358 967.032857,821.709746 C964.623479,822.857369 961.633584,823.968846 958.4011,824.929904 C958.734518,811.801721 959.664608,805.872466 961.375755,803.665748 Z M940.789797,827.986653 C930.203442,828.222256 924.852109,824.682321 925.582399,816.423975 C926.368264,807.53716 929.220038,803.736366 932.425926,804.338276 C935.814798,804.974543 939.374134,809.933143 940.433587,816.56338 C940.808062,818.906911 941.157286,822.708926 941.480937,827.965429 C941.248624,827.974479 941.018196,827.98157 940.789797,827.986653 Z" id="Combined-Shape" fill="#FFE640"></path>
        <path d="M934.665851,951.308361 C931.628285,951.308361 929.165851,948.845927 929.165851,945.808361 L929.165851,944.808361 C929.165851,942.589759 930.479477,940.677971 932.371365,939.808361 C930.479477,938.93875 929.165851,937.026963 929.165851,934.808361 L929.165851,933.808361 C929.165851,930.770795 931.628285,928.308361 934.665851,928.308361 L967.665851,928.308361 C970.703417,928.308361 973.165851,930.770795 973.165851,933.808361 L973.165851,934.808361 C973.165851,937.026963 971.852225,938.93875 969.960336,939.808361 C971.852225,940.677971 973.165851,942.589759 973.165851,944.808361 L973.165851,945.808361 C973.165851,948.845927 970.703417,951.308361 967.665851,951.308361 C970.703417,951.308361 973.165851,953.770795 973.165851,956.808361 L973.165851,957.808361 C973.165851,960.845927 970.703417,963.308361 967.665851,963.308361 L934.665851,963.308361 C931.628285,963.308361 929.165851,960.845927 929.165851,957.808361 L929.165851,956.808361 C929.165851,953.770795 931.628285,951.308361 934.665851,951.308361 Z M1125.58121,659.326883 C1127.08656,661.110369 1127.98563,663.326422 1128.14843,665.654591 C1128.57221,671.714924 1124.00288,676.971337 1117.94255,677.395117 L582.668148,714.825149 C579.699469,715.032739 576.792571,713.907342 574.73759,711.754854 C570.923872,707.760182 571.070566,701.430232 575.065238,697.616515 L816.114852,467.486231 C823.209077,460.713368 832.70222,457.034401 842.507817,457.257917 L940.559241,459.492974 C951.16153,459.734651 961.150447,464.514102 967.990727,472.618268 L1125.58121,659.326883 Z" id="Combined-Shape" fill="#6381DD"></path>
        <path d="M503.801785,1179 C485.370391,1180.87588 466.307928,1175.2361 451.544786,1162.02631 L394.479365,1110.9652 C393.890482,1110.43827 393.307866,1109.90439 392.731639,1109.36366 C352.458525,1071.57132 350.447458,1008.28677 388.239795,968.013656 L466.634151,884.473313 C487.480805,895.006123 506.535973,891.697125 523.799655,874.546318 C541.063337,857.39551 548.910663,832.036073 547.341632,798.468005 L670.698595,909.720761 L832.076685,916.822109 C885.543764,919.174896 927.680498,963.206609 927.680498,1016.72543 L927.680498,1123 C927.680498,1153.92795 902.608444,1179 871.680498,1179 L503.801785,1179 Z" id="Combined-Shape" fill="#FF6C6C"></path>
        <g id="Group-20" transform="translate(1042.160292, 89.132812)">
            <path d="M159.542933,156.453891 C161.097989,154.143686 162.005558,151.361424 162.005558,148.367188 C162.005558,146.749098 161.740517,145.192912 161.251481,143.739675 L161.90625,138.867187 L289.337891,132.068359 C240.988932,189.061849 213.467448,216.188802 206.773437,213.449219 C200.079427,210.709635 184.154948,193.057943 159,160.494141 L159.001584,160.482354 L159.001584,287.755266 C104.616591,236.48976 78.9671775,207.586277 82.0533438,201.04482 C84.298339,196.286313 98.4618336,182.822653 124.543827,160.653838 L9.3671875,166.798828 C57.7161458,109.805339 85.2376302,82.6783854 91.9316406,85.4179687 C97.9475427,87.8800302 112.776623,104.047504 136.418881,133.920389 L132.273438,9.02929687 C189.266927,57.3782552 216.39388,84.8997396 213.654297,91.59375 C210.94469,98.2145147 193.647524,113.864854 161.7628,138.544768 L161.146727,143.439405 C159.129762,137.857033 153.7836,133.867188 147.505558,133.867188 C139.497429,133.867188 133.005558,140.359059 133.005558,148.367188 C133.005558,156.375316 139.497429,162.867188 147.505558,162.867188 C152.49251,162.867188 156.891457,160.349637 159.500801,156.516134 L159.001584,160.482354 L159.542933,156.453891 Z" id="Combined-Shape" fill="#60CBFF"></path>
            <path d="M298.078125,17 C296.119792,87.5768229 293.20638,125.932943 289.337891,132.068359 C286.854672,136.006739 271.556319,143.767736 237.255859,144.517578 C224.499451,144.796446 199.382914,142.912982 161.90625,138.867188 L298.078125,17 Z M17.2050781,0.2890625 C87.781901,2.24739583 126.138021,5.16080729 132.273438,9.02929687 C136.211817,11.5125155 143.972814,26.810869 144.722656,61.1113281 C145.001524,73.8677368 143.11806,98.9842733 139.072266,136.460938 L17.2050781,0.2890625 Z M0.626953125,281.867187 C2.58528646,211.290365 5.49869792,172.934245 9.3671875,166.798828 C11.8504062,162.860448 27.1487596,155.099451 61.4492188,154.349609 C74.2056274,154.070742 99.3221639,155.954205 136.798828,160 L0.626953125,281.867187 Z M273.454818,302.505735 C203.077209,296.85638 164.926131,291.939557 159.001584,287.755266 C155.198563,285.069332 148.248856,269.385765 149.295189,235.09307 C149.684323,222.339549 152.879703,197.356006 158.88133,160.142443 L273.454818,302.505735 Z M181.600923,664.134505 C192.853122,653.337213 192.242248,629.39287 179.23399,592.691816 C158.77919,591.476958 139.341662,602.724154 131.572846,621.921555 C123.381035,642.164213 127.442795,660.042278 139.807032,669.357464 C151.693975,678.313058 168.236724,676.958413 181.600923,664.134505 Z M227.150939,647.572087 C225.219368,620.259797 211.948302,602.067725 192.862557,595.399727 C205.197796,633.231612 204.378857,658.908499 189.909375,672.793005 C172.375821,689.617709 149.268143,691.50994 132.586208,678.941811 C115.686029,666.209257 110.299582,642.500508 120.44917,617.420018 C129.547567,594.937112 151.231895,581.197854 174.690863,580.621639 C165.799884,558.221177 152.882234,531.709479 135.839683,501.158309 C134.225363,498.264413 135.262664,494.609781 138.15656,492.995461 C141.050456,491.381141 144.705088,492.418442 146.319408,495.312338 C164.863341,528.554947 178.80287,557.331355 188.03088,581.719783 C216.277008,587.092419 236.579437,610.787417 239.121042,646.725541 C242.312425,691.851478 235.441319,724.485946 213.010418,750.645828 C186.42992,781.64515 138.664626,800.962727 64.1530644,808.661617 C60.8569041,809.002192 57.9087477,806.606217 57.5681727,803.310057 C57.2275977,800.013896 59.6235729,797.06574 62.9197332,796.725165 C134.657203,789.312907 179.650462,771.116416 203.900741,742.834697 C223.894355,719.517283 230.14086,689.849368 227.150939,647.572087 Z" id="Combined-Shape" fill="#C8FF57"></path>
        </g>
        <path d="M538.25694,680.311816 C538.260877,679.207254 537.368644,678.308637 536.264081,678.304674 C535.159519,678.300763 534.260902,679.192996 534.256965,680.297559 L534.072088,732.157956 C534.069211,732.97236 534.560421,733.70719 535.314068,734.015865 C552.730604,741.149235 562.327716,755.143243 564.227442,776.303188 C564.326212,777.403333 565.298125,778.215107 566.39827,778.116337 C567.498414,778.017567 568.310189,777.045654 568.211418,775.94551 C566.227754,753.850624 556.144869,738.720766 538.076832,730.841292 L538.25694,680.311816 Z" id="Path-189" fill="#FF66D5"></path>
        <path d="M648.988222,433.641528 C639.258532,426.7807 634.903316,410.849281 634.903316,404.931144 C634.903316,396.82338 639.111304,389.692402 645.475136,385.577734 C644.881569,378.520021 644.661718,372.698301 644.815589,368.112572 C645.403199,350.600424 656.992091,338.837923 679.582264,332.825068 C705.696806,327.365781 722.989438,325.356087 731.46016,326.795989 C749.45686,329.855171 759.611442,343.181155 761.923906,366.773941 C763.688002,382.938081 763.823845,401.13503 762.331436,421.364789 C760.122304,451.309795 745.898937,475.3098 717.968609,474.75945 L717.651123,478.906738 L648.988222,479.404602 L648.988222,433.641528 Z M1155.05512,556.730986 C1115.88634,547.98491 1096.30195,528.40052 1096.30195,497.977816 C1096.30195,467.555111 1100.45557,448.729973 1108.76281,441.502401 L1169.68632,380.578896 L1169.27412,439.969343 L1229.88516,439.969343 C1230.0685,439.969343 1230.25171,439.979428 1230.43395,439.999557 C1239.00685,440.946213 1243.2933,458.872355 1243.2933,493.777982 C1243.2933,514.714689 1241.75116,530.837752 1238.66688,542.147169 C1236.0001,551.925693 1226.9977,558.616812 1216.86554,558.351219 L1155.05512,556.730986 Z M604.188587,835.917234 L649.693933,848.093011 C664.907536,855.018435 674.383517,860.933905 678.121876,865.839422 C681.860235,870.744939 683.443164,879.341097 682.870665,891.627896 L636.299386,881.870722 C640.351389,883.149818 644.679096,884.581384 649.282507,886.165421 C664.245148,893.617574 673.50891,899.860148 677.073791,904.893143 C680.638672,909.926138 681.920636,918.572303 680.919683,930.831637 L616.92027,915.072882 L516.03461,892.115711 C496.816144,878.83474 486.335163,864.734301 484.591666,849.814394 C482.84817,834.894488 490.233531,822.504274 506.74775,812.643753 L596.529404,764.478044 C601.63802,774.289464 602.107134,783.752665 597.936747,792.867649 C593.766359,801.982633 584.400376,811.964818 569.8388,822.814206 L603.841066,834.025167 L604.188587,835.917234 Z" id="Combined-Shape" fill="#FFBEBE"></path>
        <path d="M646.962668,327.051531 C647.573168,326.62195 649.567929,326.062919 652.946952,325.374439 C661.64482,323.602237 714.896869,320.637741 732.983236,327.781583 C751.069603,334.925424 753.741693,343.260958 758.553452,354.68452 C760.346733,358.941935 763.640587,365.951884 768.435014,375.714368 C769.663444,378.215593 770.379162,380.937261 770.540107,383.719214 C771.133861,393.982326 764.216559,402.943271 754.55494,405.249901 C754.555789,405.189578 754.556213,405.130212 754.556213,405.07182 C754.556213,392.329606 744.162707,382 731.341668,382 C719.610922,382 709.912392,390.64746 708.347712,401.878262 C704.181912,399.474262 700.440383,395.921487 697.147034,389.046498 C690.361288,374.881 674.434618,354.995838 649.367023,329.391012 C646.073828,330.915444 642.951203,333.036411 639.999138,335.753906 C635.535473,339.862891 631.658556,347.100996 629.563157,355.66059 C628.381683,360.486852 627.353194,369.143839 626.955301,374.166884 C626.563985,379.106913 626.37294,386.702846 626.382168,396.954682 C619.882602,396.954682 617.663653,387.566793 619.725323,368.791016 C621.777374,350.102838 630.856489,336.189677 646.962668,327.051531 Z" id="Combined-Shape" fill="#7821D1" transform="translate(694.778106, 364.240586) scale(-1, 1) translate(-694.778106, -364.240586) "></path>
        <path d="M1046.78309,434.272064 C1046.20544,434.312457 1045.63649,434.338412 1045.0791,434.350633 C1043.0377,434.395392 1041.11862,433.75902 1039.48598,432.830568 C1036.51852,431.143023 1034.49735,428.490551 1034.40775,427.209254 C1034.29442,425.588426 1037.27476,426.174587 1041.5006,426.392748 C1042.95514,426.467839 1044.55724,426.499331 1046.23153,426.38222 C1048.17598,426.246212 1050.02714,425.923112 1051.67255,425.593521 C1055.56015,424.814796 1058.29911,423.999835 1058.40615,425.530645 C1058.49734,426.834693 1056.65785,429.545455 1053.76415,431.609876 C1051.82326,432.994554 1049.40808,434.088506 1046.78309,434.272064 Z M1068.77784,403.48601 C1066.04698,403.48601 1064.87343,400.352003 1064.87343,396.48601 C1064.87343,394.866907 1064.22148,393.376194 1064.87343,392.190318 C1065.77818,390.544633 1067.19068,389.48601 1068.77784,389.48601 C1071.5087,389.48601 1071.58368,392.620017 1071.58368,396.48601 C1071.58368,400.352003 1071.5087,403.48601 1068.77784,403.48601 Z M1074.06072,387.059895 C1069.97365,382.766312 1066.64607,382.766312 1062.70848,387.031935 C1061.77196,388.046475 1060.19031,388.109723 1059.17577,387.173201 C1058.16123,386.23668 1058.09798,384.655032 1059.03451,383.640491 C1064.9433,377.239447 1071.61573,377.239447 1077.68227,383.61253 C1078.63424,384.612596 1078.59524,386.195028 1077.59518,387.146991 C1076.59511,388.098955 1075.01268,388.059961 1074.06072,387.059895 Z M1039.1232,385.03383 C1039.20102,385.164589 1039.26569,385.300478 1039.31738,385.439723 C1040.98078,389.620999 1041.73977,391.908865 1041.73977,393.127091 C1041.73977,394.101074 1040.40092,400.834251 1037.35231,415.379356 L1048.49949,415.379356 C1049.8802,415.379356 1050.99949,416.49865 1050.99949,417.879356 C1050.99949,419.260074 1049.8802,420.379356 1048.49949,420.379356 L1034.27304,420.379356 C1032.68543,420.379356 1031.49993,418.91876 1031.82651,417.365101 C1034.95195,402.496145 1036.73977,393.586363 1036.73977,393.127091 C1036.73977,392.862711 1036.04907,390.775563 1034.79902,387.609737 C1031.02658,383.210919 1028.12071,383.308967 1024.44772,387.87657 C1023.58248,388.952548 1022.00881,389.123387 1020.93283,388.258149 C1019.85686,387.392911 1019.68602,385.819245 1020.55126,384.743267 C1026.28569,377.612129 1032.9653,377.596287 1038.85807,384.666789 C1038.95627,384.779457 1039.0452,384.902044 1039.1232,385.03383 Z M1031.12442,403.954682 C1028.39356,403.954682 1027.22001,400.820675 1027.22001,396.954682 C1027.22001,395.335579 1026.56805,392.81878 1027.22001,391.632904 C1028.12475,389.98722 1029.53726,389.954682 1031.12442,389.954682 C1033.85528,389.954682 1033.93025,393.088688 1033.93025,396.954682 C1033.93025,400.820675 1033.85528,403.954682 1031.12442,403.954682 Z M594.814582,518.958822 C594.862849,519.130946 594.888662,519.312459 594.888662,519.5 C594.888662,519.75996 594.839065,520.008337 594.748816,520.236182 C604.744482,525.736686 609.888662,531.949335 609.888662,538.9872 C609.888662,546.909475 603.369875,553.795222 590.748623,559.806144 C589.751376,560.281088 588.557929,559.857676 588.082986,558.860429 C587.608043,557.863181 588.031454,556.669735 589.028702,556.194792 C600.40745,550.775617 605.888662,544.985852 605.888662,538.9872 C605.888662,532.989555 600.408614,527.209099 589.030873,521.807177 C588.857551,521.724887 588.701516,521.620897 588.564476,521.5 L564.888662,521.5 C563.784093,521.5 562.888662,520.604569 562.888662,519.5 C562.888662,518.395431 563.784093,517.5 564.888662,517.5 L588.564964,517.5 C588.725157,517.358661 588.910904,517.240782 589.119061,517.154001 C600.456421,512.427429 605.888662,507.004488 605.888662,501.030819 C605.888662,495.015532 600.407792,489.220784 589.029249,483.805937 C588.856793,483.723868 588.701486,483.620313 588.565008,483.5 L563.888662,483.5 C562.784093,483.5 561.888662,482.604569 561.888662,481.5 C561.888662,480.395431 562.784093,479.5 563.888662,479.5 L588.565008,479.5 C588.70134,479.379816 588.856462,479.276353 589.028702,479.194324 C600.40745,473.775149 605.888662,467.985384 605.888662,461.986732 C605.888662,455.989087 600.408614,450.208631 589.030873,444.806709 C588.033055,444.332965 587.60821,443.140029 588.081953,442.142211 C588.555697,441.144393 589.748634,440.719547 590.746452,441.193291 C603.368711,447.186085 609.888662,454.063451 609.888662,461.986732 C609.888662,469.227251 604.443556,475.601964 593.87117,481.234317 C593.882708,481.321239 593.888662,481.409924 593.888662,481.5 C593.888662,481.589774 593.882748,481.678167 593.871286,481.76481 C604.44348,487.394649 609.888662,493.776101 609.888662,501.030819 C609.888662,508.085599 604.755042,514.028051 594.814582,518.958822 Z M1186.85445,778.309273 C1187.46851,777.769905 1188.37806,777.64284 1189.13623,778.058479 C1205.08531,786.802022 1213.59013,786.891519 1215.92871,779.519594 C1216.2627,778.466732 1217.38697,777.883976 1218.43984,778.217972 C1219.4927,778.551969 1220.07546,779.676241 1219.74146,780.729104 C1216.33379,791.471165 1205.06508,791.352584 1187.21336,781.565982 C1186.97752,781.436693 1186.77808,781.266814 1186.61895,781.069794 C1186.52772,784.264936 1187.10213,787.197782 1188.33055,789.875915 C1191.48015,796.7425 1201.29177,807.366487 1217.68175,821.530415 C1217.72978,821.570658 1217.77602,821.613247 1217.82028,821.658086 L1223.52984,826.980415 C1224.33767,827.73373 1224.38187,828.999288 1223.62855,829.807119 C1222.87524,830.61495 1221.60968,830.659145 1220.80185,829.90583 L1215.90527,825.339703 C1184.48461,835.96802 1157.49335,844.740595 1134.92986,851.657811 C1112.99382,858.38267 1103.50995,870.945714 1105.91926,889.772752 C1106.05947,890.868386 1105.28495,891.870236 1104.18931,892.010445 C1103.09368,892.150655 1102.09183,891.376129 1101.95162,890.280495 C1099.27791,869.387383 1110.06618,855.096444 1133.75745,847.833487 C1155.76097,841.087938 1181.99477,832.570922 1212.45731,822.282795 C1197.22633,808.904671 1187.97992,798.705695 1184.69477,791.543591 C1181.09712,783.7002 1182.17211,774.334201 1187.74716,763.558219 C1188.25472,762.577168 1189.46147,762.193324 1190.44254,762.700845 C1191.42357,763.208435 1191.80742,764.415189 1191.29986,765.39624 C1188.87929,770.074942 1187.4038,774.375168 1186.85445,778.309273 Z M1103.75937,929.044314 C1101.34989,907.365001 1111.88577,892.889791 1134.88133,886.099727 C1156.84299,879.61495 1169.33966,875.739538 1172.06567,874.578935 C1173.08196,874.146245 1174.25659,874.61935 1174.68928,875.635644 C1175.12197,876.651938 1174.64887,877.826572 1173.63257,878.259261 C1170.68728,879.513227 1158.24968,883.37032 1136.01409,889.935983 C1114.81239,896.196359 1105.54788,908.924839 1107.73489,928.602468 C1107.8569,929.700278 1107.06586,930.689139 1105.96805,930.811152 C1104.87024,930.933164 1103.88138,930.142124 1103.75937,929.044314 Z" id="Combined-Shape" fill="#E96868" transform="translate(893.027257, 654.829887) scale(-1, 1) translate(-893.027257, -654.829887) "></path>
    </g>
</svg>