<?xml version="1.0" encoding="UTF-8"?>
<svg width="1794px" height="1276px" viewBox="0 0 1794 1276" version="1.1" xmlns="http://www.w3.org/2000/svg" xmlns:xlink="http://www.w3.org/1999/xlink">
    <!-- Generator: Sketch 56.1 (81669) - https://sketch.com -->
    <title>Eco Transport</title>
    <desc>Created with Sketch.</desc>
    <g id="Eco-Transport" stroke="none" stroke-width="1" fill="none" fill-rule="evenodd">
        <path d="M1152.18232,151.587474 C1133.50522,151.619302 1116.71268,149.170873 1101.80469,144.242187 C1086.63002,116.9458 1083.57412,104.133416 1092.63698,105.805035 C1129.34041,112.574877 1153.80461,115.8277 1179.5042,115.408203 C1197.88518,115.108168 1267.18945,112.574877 1303.84375,111.117187 C1324.9206,110.278991 1333.09435,112.883508 1332.26288,122.440299 C1329.49256,154.282003 1358.44953,135.381452 1297.19531,144.242187 C1260.77417,149.510692 1227.88188,150.931427 1201.02948,151.318164 L1198.02594,263.268747 L1222.82031,263.268747 L1199.20703,472.49399 L1167.96017,460.148216 L1154.78136,381.671392 C1146.69324,333.508441 1104.99964,298.232737 1056.16228,298.232737 L836.279605,298.232737 C801.641368,298.232737 769.469945,316.157913 751.243382,345.61296 L643.133992,520.323207 L617.35981,503.09847 L752.595947,275.217091 L702.589844,183.63955 L761.037468,186.21544 L799,263.268747 L1161.96936,263.268747 L1152.18232,151.587474 Z" id="Combined-Shape" fill="#FBCEE4" fill-rule="nonzero"></path>
        <path d="M474,1153.5 C417.456077,1153.5 364.925526,1138.34894 317.279902,1109.66882 C275.07851,1084.26583 237.325878,1048.61128 204.650359,1004.71085 C183.55241,976.365196 165.988915,945.486108 150.406079,910.194314 C132.369623,869.345595 123.5,837.758071 123.5,803 C123.5,778.384946 128.286133,754.00695 137.277649,728.602811 C144.161542,709.153432 152.557522,691.135395 165.700709,666.038431 C191.91288,615.986194 215.621505,582.829255 249.992774,552.61696 C265.551034,538.941272 285.958383,525.60498 312.872866,510.555008 C319.867265,506.643899 327.136991,502.704658 335.797734,498.10545 C340.338727,495.693998 354.929732,488.009895 356.814124,487.012463 C381.557359,473.915568 394.820788,467.648541 410.624757,462.345951 C430.420446,455.704048 450.432066,452.5 474,452.5 C495.116244,452.5 514.669541,456.211359 534.7133,463.423585 C549.727891,468.826196 561.656276,474.535967 585.388651,486.967348 C589.367478,489.051519 593.738851,491.228238 599.240855,493.883797 C602.382519,495.400131 613.424271,500.66232 614.583593,501.218047 C631.598867,509.374402 642.398281,515.0274 652.750862,521.604997 C691.048928,545.937985 720.720615,576.902047 757.025143,625.584818 C777.608122,653.185686 793.09437,678.840692 804.339957,705.537067 C817.578234,736.963974 824.5,769.109719 824.5,803 C824.5,823.779532 820.680402,844.012085 813.419316,865.346665 C808.054014,881.111036 802.37125,893.995451 790.665356,918.381291 C790.37942,918.976955 788.929295,921.996412 788.522406,922.844215 C787.702046,924.553537 787.039582,925.93642 786.405943,927.263141 C757.975749,986.790701 729.463024,1028.80212 690.741667,1062.01261 C657.71275,1090.34081 626.416033,1111.60778 593.556754,1126.8325 C555.651668,1144.39511 516.24618,1153.5 474,1153.5 Z M474,1108.5 C541.211161,1108.5 598.210494,1082.09043 661.445505,1027.85511 C694.597904,999.421 719.832238,962.240047 745.79942,907.86958 C746.447107,906.513442 747.12113,905.106431 747.95281,903.373523 C748.362935,902.518977 749.81408,899.497395 750.097267,898.907458 C761.052993,876.084376 766.207224,864.398294 770.819004,850.847925 C776.584202,833.908573 779.5,818.463487 779.5,803 C779.5,750.903039 760.229917,705.156973 720.951456,652.486289 C687.635345,607.810852 661.356252,580.387152 628.618654,559.587052 C620.170344,554.219349 610.639738,549.230514 595.131973,541.796791 C594.062762,541.284259 582.942662,535.984732 579.680615,534.410295 C573.771856,531.558414 568.988607,529.176602 564.508155,526.829673 C542.554181,515.329845 531.948814,510.253364 519.47752,505.765893 C504.12767,500.242648 489.678028,497.5 474,497.5 C455.25232,497.5 440.075608,499.929934 424.939041,505.008595 C412.129795,509.306388 400.545372,514.780079 377.865976,526.784558 C375.914205,527.817654 361.360148,535.482299 356.903235,537.849102 C348.506925,542.307885 341.508068,546.10035 334.835419,549.831544 C310.461273,563.461017 292.356288,575.292704 279.701948,586.41585 C250.101672,612.434449 229.431392,641.342207 205.564983,686.915204 C193.331339,710.275392 185.714304,726.62179 179.698912,743.617351 C172.312722,764.485891 168.5,783.905852 168.5,803 C168.5,830.247588 175.840813,856.390537 191.57181,892.017883 C205.854005,924.364004 221.764039,952.336075 240.748714,977.84249 C270.093278,1017.26769 303.594914,1048.9075 340.487373,1071.11479 C381.253397,1095.65376 425.792869,1108.5 474,1108.5 Z M1212.5,896 C1212.5,916.98682 1195.48682,934 1174.5,934 C1153.51318,934 1136.5,916.98682 1136.5,896 C1136.5,866.828168 1137.96059,807.575622 1141.12069,698.585152 C1141.24745,694.213481 1141.37933,689.676576 1141.52032,684.837018 C1145.89532,534.65441 1146.5084,512.208816 1146.5084,494 C1146.5084,473.01318 1163.52158,456 1184.5084,456 C1205.49522,456 1222.5084,473.01318 1222.5084,494 C1222.5084,513.420275 1221.94117,534.187408 1217.48809,687.050055 C1217.3472,691.886305 1217.21541,696.419781 1217.08877,700.787795 C1213.95992,808.700151 1212.5,867.925671 1212.5,896 Z M641.943811,127.79821 L784.747834,120.314168 C807.360477,119.12909 826.652341,136.499563 827.83742,159.112205 C829.022498,181.724847 811.652025,201.016712 789.039383,202.20179 L646.235359,209.685832 C623.622717,210.87091 604.330853,193.500437 603.145774,170.887795 C601.960696,148.275153 619.331169,128.983288 641.943811,127.79821 Z M1022.75841,90.4015562 L1118.47015,104.189403 C1131.24271,106.029367 1140.10533,117.875161 1138.26537,130.647723 C1138.23279,130.873888 1138.19689,131.099563 1138.15769,131.324675 C1135.85861,144.527315 1123.47883,153.50926 1110.21443,151.598444 L1014.50269,137.810597 C1001.73013,135.970633 992.867507,124.124839 994.707471,111.352277 C994.740051,111.126112 994.775947,110.900437 994.815148,110.675325 C997.11423,97.4726854 1009.49401,88.4907405 1022.75841,90.4015562 Z M1240.30247,107.58718 L1346.11101,95.8528338 C1358.69798,94.4569176 1370.03335,103.529058 1371.42927,116.116027 C1371.47158,116.49761 1371.50431,116.880195 1371.52742,117.263421 C1372.34045,130.747118 1362.4394,142.500607 1349.01352,143.98956 L1243.20498,155.723906 C1230.61801,157.119822 1219.28265,148.047681 1217.88673,135.460713 C1217.84441,135.07913 1217.81168,134.696545 1217.78858,134.313319 C1216.97555,120.829622 1226.8766,109.076132 1240.30247,107.58718 Z" id="Combined-Shape" fill="#FF8ADF"></path>
        <path d="M522.812262,739.982579 L601.204825,597.794906 C605.948344,589.191156 616.714632,585.9804 625.395868,590.580576 L626.451576,591.139994 C634.644356,595.481339 637.766561,605.642254 633.425217,613.835034 C633.115594,614.41934 632.771719,614.984842 632.395389,615.528584 L541.485014,746.880978 C538.302159,751.479745 532.427047,753.366957 527.161482,751.482003 C522.963383,749.979179 520.778432,745.357667 522.281257,741.159568 C522.426552,740.753691 522.604121,740.360103 522.812262,739.982579 Z M469.5,859 C456.226495,859 428.19871,836.688636 425.689252,832.61119 C421.418494,825.671926 419,817.706955 419,808.5 C419,802.57365 423.813819,792.72486 425.689252,787.441624 C428.421639,779.744287 434.793614,773.370993 440.639864,767.905819 C449.66535,759.468642 456.170283,758 469.5,758 C482.994489,758 488.591223,762.978566 497.650446,771.601653 C507.314804,780.800744 520,794.104109 520,808.5 C520,823.606998 508.16353,834.570509 497.650446,843.824991 C488.754386,851.656036 482.283382,859 469.5,859 Z M452.998504,720.831666 L413.295619,563.757417 C410.884655,554.21906 416.578631,544.512063 426.080661,541.961686 L427.211968,541.658039 C436.187451,539.248989 445.416439,544.572134 447.825489,553.547617 C447.994839,554.178569 448.1273,554.818847 448.222201,555.465201 L471.375918,713.160816 C472.188237,718.693365 469.176702,724.080137 464.038233,726.285832 C459.930537,728.049066 455.171208,726.148504 453.407973,722.040808 C453.239862,721.64917 453.102947,721.244865 452.998504,720.831666 Z M462.380914,891.268302 L423.467342,1048.89062 C421.112432,1058.42936 411.543535,1064.31751 401.967175,1062.12059 L400.802673,1061.85344 C391.764623,1059.78001 386.11868,1050.77238 388.192108,1041.73433 C388.339929,1041.08998 388.525675,1040.45493 388.748379,1039.83248 L442.558126,889.436942 C444.442251,884.170909 449.628961,880.827357 455.203109,881.285502 C459.647599,881.650799 462.954439,885.549901 462.589142,889.994391 C462.55384,890.423904 462.484208,890.849902 462.380914,891.268302 Z M399.366106,847.992352 L258.950458,929.493936 C250.453006,934.42612 239.570312,931.633083 234.498347,923.218316 L233.881587,922.195065 C229.094729,914.253312 231.652277,903.934733 239.59403,899.147875 C240.160219,898.806607 240.74607,898.499076 241.348521,898.226889 L386.91341,832.460862 C392.0103,830.158094 398.018442,831.566475 401.561009,835.894435 C404.385639,839.34529 403.877983,844.432576 400.427128,847.257206 C400.093639,847.530176 399.738832,847.77601 399.366106,847.992352 Z M393.983325,778.75657 L245.608385,713.052487 C236.628409,709.075932 232.493507,698.635181 236.315819,689.588474 L236.78832,688.470152 C240.396547,679.930143 250.244638,675.932144 258.784647,679.540371 C259.396945,679.799073 259.993337,680.093914 260.570672,680.423337 L399.230013,759.541404 C404.090944,762.315018 406.483703,768.007105 405.064402,773.420715 C403.933364,777.734808 399.519213,780.315184 395.20512,779.184146 C394.787069,779.074545 394.378492,778.93156 393.983325,778.75657 Z" id="Combined-Shape" fill="#FFEECB"></path>
        <path d="M769.682838,799.532864 C774.155764,890.603199 795.694365,989.250197 777.804688,1003.1828 C760.762609,1016.45528 687.594413,1020.69203 558.3001,1015.89304 L654.341632,727.984052 L685.875405,607.060999 C697.381264,562.939303 737.276706,532.188031 782.873827,532.294944 L891.894531,532.550567 C891.580839,532.790072 891.267717,533.029906 890.955163,533.270067 L1264.72199,535.636396 C1313.19208,535.943262 1352.32289,575.322589 1352.32289,623.793653 C1352.32289,674.14242 1314.71839,716.55908 1264.73248,722.592837 C1105.99758,741.75355 1002.17996,747.381439 953.279615,739.476504 L951.721534,766.624675 L769.682842,799.532868 Z" id="Combined-Shape" fill="#6381DD"></path>
        <path d="M652.395508,1006.86174 L698.741211,1154.62928 L335,1155.5 L342.093342,1135.33014 C347.618777,1119.61862 359.965955,1107.25707 375.671043,1101.71336 L567.500098,1034 L652.395508,1006.86174 Z M1239.18066,1084.97345 L1440.79297,1049.57968 L1449.03516,1084.97345 L1552.56332,1103.80408 C1571.99928,1107.33927 1588.04636,1121.02645 1594.60311,1139.66144 L1600,1155 L1348.64426,1155 L1300.24952,1155 L1242.72461,1155 L1239.18066,1084.97345 Z" id="Combined-Shape" fill="#161616"></path>
        <path d="M945.037607,589.476089 L956.900425,698.396558 C958.170095,710.054254 968.006958,718.890144 979.733581,718.906272 L1047.88286,719 L1072.4802,590.167429 C1074.24096,580.94517 1068.19221,572.041675 1058.96996,570.280917 C1057.88009,570.072835 1056.77248,569.971952 1055.66296,569.979709 L961.818806,570.635874 C952.430195,570.70152 944.872438,578.365709 944.938084,587.754321 C944.942106,588.329558 944.975323,588.90422 945.037607,589.476089 Z" id="Mask" fill="#C8FF57"></path>
        <rect id="Rectangle" fill="#FFEECB" x="1003" y="509" width="15" height="76" rx="7.5"></rect>
        <path d="M1081,588.035164 C1088.26528,588.547911 1094,594.604247 1094,602 C1094,609.731986 1087.73199,616 1080,616 L945,616 C937.268014,616 931,609.731986 931,602 C931,594.879105 936.31639,588.99992 943.19653,588.115086 C944.602455,577.882156 953.380739,570 964,570 L1081,570 L1081,588.035164 Z" id="Combined-Shape" fill="#82D121"></path>
        <path d="M740.244233,993.649679 L1045.92126,903.077533 C1055.14354,900.344969 1064.71183,898.957244 1074.33043,898.957244 L1121.05659,898.957244 C1156.28024,898.957244 1186.23321,924.661855 1191.57932,959.477432 L1203.91671,1039.82237 C1204.68793,1044.8448 1205.07522,1049.91871 1205.07522,1055 C1205.07522,1110.22847 1160.3037,1155 1105.07522,1155 L704.893692,1155 C695.201154,1155 685.565277,1153.52211 676.318263,1150.61728 C631.638329,1136.58167 604.601267,1092.69682 610.266796,1047.81768 L585.084665,1056.71174 C585.78724,1049.27386 586.484296,1043.74159 587.175832,1040.11491 C587.836307,1036.65113 589.03974,1032.05173 590.786131,1026.31669 L501.709053,1058.31934 C500.209784,1053.50749 499.295559,1049.06889 498.966378,1045.00353 L473.595355,1055.17857 C471.48442,1041.56493 471.583047,1029.72112 473.891234,1019.64712 C476.199422,1009.57313 487.466648,999.44095 507.692914,989.250584 C537.793032,973.913135 558.953857,965.297369 571.175389,963.403287 C612.164233,948.467125 612.848356,948.316213 673.095365,935.026267 C713.694619,926.070437 736.077575,945.611575 740.244233,993.649679 Z M1148.29795,694.995303 C1138.68961,706.608003 1121.82737,715.268625 1097.71123,720.97717 L1032.19609,721.171207 C1025.45714,721.191166 1019.08077,718.121424 1014.89342,712.84128 C1010.2639,707.003571 1008.00388,702.616511 1008.11336,699.6801 C1008.27004,695.47769 1013.40249,689.131102 1023.51071,680.640335 C1015.38906,676.279 1010.52623,672.939904 1008.92221,670.623047 C1005.94989,666.329796 1008.90382,661.119133 1008.92221,657.879654 C1008.93669,655.328729 1013.54529,650.746695 1022.748,644.133551 C1012.50221,635.235905 1007.72275,628.701794 1008.40963,624.531219 C1009.80677,616.048164 1015.35077,609.687068 1025.04162,605.447933 C1025.42415,605.280596 1025.82614,605.161836 1026.2382,605.094423 L1068.49132,598.181814 C1063.18085,590.721806 1059.22438,585.20475 1056.62191,581.630647 C1052.17836,575.528095 1046.43175,569.421672 1045.79017,563.58084 C1044.58496,552.608778 1048.35664,542.824054 1057.10523,534.226669 L1123.08538,586.737628 C1139.81238,600.049973 1150.98161,619.11505 1154.41516,640.215327 C1155.43989,646.51262 1156.43768,653.534128 1157.40855,661.279848 C1158.52518,670.188465 1157.49018,678.221445 1154.30355,685.378791 L1286.81285,654.972761 C1290.34907,654.161328 1293.92683,653.542943 1297.53026,653.120351 C1352.38282,646.687517 1402.06445,685.939458 1408.49728,740.792016 L1449.03516,1086.45708 L1239.18066,1089.28418 L1226.69531,942.408399 L1190.37988,952.444336 L1148.29795,694.995303 Z M944.278891,510.849055 L936.975952,533.050702 C944.658552,533.167012 953.049901,533.301504 962.15,533.454176 C962.15,546.832377 951.304826,557.677551 937.926625,557.677551 L876.126984,557.677551 C862.249734,557.677551 851,546.427817 851,532.550567 C863.555216,532.457782 875.664165,532.437516 887.326848,532.489769 C887.135747,532.377573 886.944329,532.264412 886.752596,532.150285 L897.465896,491.559245 L906.683371,494.903177 C892.283258,483.258548 883.690885,474.486907 880.90625,468.588256 C872.43412,450.641865 890.133104,435.492938 888.606365,424.892086 C886.03875,407.063954 890.382093,391.956953 901.636394,379.571083 C954.257015,371.497139 984.925514,372.387954 993.641891,382.243527 C1006.71646,397.026887 1001.28533,438.309886 998.520199,462.436084 C995.755065,486.562281 990.672854,503.126642 980.442245,508.284075 C975.178656,510.937545 963.124204,511.792538 944.278891,510.849055 Z" id="Combined-Shape" fill="#C7E0FF"></path>
        <polygon id="Rectangle" fill="#55ABD5" transform="translate(1138.206767, 952.999069) rotate(-52.000000) translate(-1138.206767, -952.999069) " points="1026.96723 887.218022 1249.4463 912.145992 1146.96581 1018.78012"></polygon>
        <path d="M771.070129,767.891853 L765.503879,939.826821 C763.71684,995.026377 807.01624,1041.22314 862.215796,1043.01018 C872.795497,1043.35269 883.362486,1042.01326 893.522137,1039.04192 L1193.94163,951.179688 L1226.69531,942.408399 L1153.24704,685.831058 C1136.70361,704.330185 1120.01742,715.386499 1103.18848,719 C1088.19403,722.219599 1064.81574,720.569675 1029.27786,720.569675 C1026.62759,720.569675 1023.16676,718.606106 1018.89537,714.678968 L771.070129,767.891853 Z" id="Mask" fill="#60CBFF"></path>
        <path d="M634.826079,453.107595 C648.297995,463.604117 655.868376,472.166798 657.536875,479.091647 C657.74964,479.974697 657.921955,480.867364 658.0538,481.769459 C659.642804,492.641537 658.515805,516.023891 654.696999,552.120127 C654.580789,553.218566 653.596121,554.014821 652.497682,553.898611 C651.399243,553.782402 650.602988,552.797734 650.719198,551.699295 C654.501118,515.951715 655.618604,492.766725 654.09585,482.347931 C653.981597,481.566201 653.832373,480.793157 653.64816,480.028609 C652.974273,477.231744 650.96293,473.90815 647.61409,470.09143 C642.710714,493.60143 634.079707,503.945616 621.620714,499.730169 C602.741411,562.296262 593.449572,597.422082 593.972187,603.93318 C594.590448,611.635913 599.238864,618.449223 608.100866,624.426719 C609.016596,625.044386 609.258223,626.28745 608.640556,627.20318 C608.022888,628.118909 606.779824,628.360537 605.864095,627.742869 C596.064116,621.1327 590.709944,613.284944 589.98501,604.253211 C589.345413,596.28467 600.488345,555.077557 623.715517,479.070801 C625.325947,473.80096 627.860179,465.560599 631.318438,454.34898 C631.340981,453.958994 631.47775,453.571559 631.735418,453.239677 C632.246889,452.580892 633.088482,452.329363 633.845656,452.537274 C633.883989,452.546677 633.922279,452.557261 633.960485,452.569047 C634.303032,452.674712 634.596731,452.864006 634.826079,453.107595 Z M634.415163,457.880647 C631.326794,467.896323 629.035307,475.349573 627.540883,480.239808 C625.893508,485.630548 624.306217,490.849647 622.779125,495.896521 C632.650914,499.253811 639.843093,489.988162 644.242482,466.527582 C641.535589,463.847619 638.25982,460.9622 634.415163,457.880647 Z M696.620525,478.233054 C696.288139,479.375456 696.037778,480.209627 695.866731,480.74367 C695.771024,481.042487 695.697164,481.257659 695.633575,481.416473 C695.538773,481.653238 695.473001,481.790343 695.300203,482.009281 C695.130949,482.227738 695.130949,482.227738 694.55987,482.593197 C693.364913,482.878381 693.364913,482.878381 692.226149,482.10718 C691.67168,481.010965 691.67168,481.010965 691.714385,480.769101 C691.710411,480.295576 691.964742,479.17879 692.74776,475.990808 C694.054756,470.669508 696.668259,460.44502 700.590092,445.309899 C708.206443,415.916913 701.594606,396.78113 680.808466,387.19683 C679.805391,386.734321 679.367175,385.54623 679.829684,384.543155 C680.292192,383.54008 681.480283,383.101865 682.483358,383.564374 C705.216523,394.046429 712.524845,415.19796 704.462209,446.313247 C700.54455,461.432261 697.933974,471.645299 696.632305,476.944913 C696.622763,476.983759 696.613293,477.022339 696.603894,477.060652 C696.722758,477.428257 696.736589,477.834146 696.620525,478.233054 Z M885.585909,1104.42204 C886.969873,1102.44553 889.015629,1101.09566 891.081855,1100.26702 C894.1624,1099.03161 897.288449,1098.95481 898.334685,1099.68739 C899.562851,1100.54736 897.598218,1102.29387 895.125362,1104.96428 C894.078739,1106.09452 892.941075,1107.39027 891.91591,1108.85435 C891.033177,1110.11503 890.308388,1111.39407 889.689185,1112.57886 C887.890227,1116.02103 886.982497,1118.66768 885.68211,1117.75714 C884.654128,1117.03734 883.386693,1114.09994 883.368667,1110.90539 C883.35875,1109.14782 883.727025,1107.3124 884.721446,1105.72564 C884.992961,1105.2924 885.281358,1104.85698 885.585909,1104.42204 Z M937.033058,1111.3365 C936.681894,1110.21698 937.3084,1109.07556 938.432398,1108.78708 C939.556395,1108.49859 940.75225,1109.17227 941.103413,1110.29179 C943.69306,1118.54767 940.281063,1123.4205 931.697302,1123.68086 C930.523626,1123.71646 929.494543,1122.80856 929.398781,1121.65302 C929.303019,1120.49747 930.176841,1119.53186 931.350517,1119.49626 C937.194784,1119.319 938.812337,1117.00889 937.033058,1111.3365 Z M920.872791,1139.18372 C920.924914,1139.29623 920.965982,1139.41179 920.996278,1139.52899 C923.266305,1147.56841 919.845515,1152.43119 911.55619,1152.90154 C910.429158,1152.96549 909.46448,1152.10345 909.401522,1150.97612 C909.338564,1149.84879 910.201167,1148.88306 911.3282,1148.81911 C916.89907,1148.50301 918.573834,1146.25123 917.135049,1140.90671 C915.329953,1138.21185 914.083761,1136.55996 913.832306,1136.38389 C913.72141,1136.30624 911.629739,1135.34073 908.380613,1133.9028 C904.808577,1132.32197 899.588294,1130.04845 892.721585,1127.08306 C891.533514,1126.56999 891.116392,1125.09497 891.859324,1124.03395 L899.304756,1113.40077 C899.952602,1112.47555 901.227133,1112.25021 902.151504,1112.89746 C903.075875,1113.54472 903.300043,1114.81946 902.652197,1115.74468 L896.645522,1124.3231 C909.464769,1129.86667 915.458844,1132.52956 916.178364,1133.03337 C917.057526,1133.64897 918.403486,1135.43644 920.691245,1138.86754 C920.760311,1138.96609 920.82124,1139.07172 920.872791,1139.18372 Z M897.901997,1133.03358 C899.404276,1130.88811 901.9203,1132.56206 904.973095,1134.69965 C908.02589,1136.83724 910.459424,1138.62901 908.957145,1140.77448 C908.084031,1142.02142 907.281302,1143.11315 905.484071,1142.91402 C904.188991,1142.77053 902.560241,1140.86673 901.281711,1139.97149 C898.228916,1137.8339 896.399718,1135.17906 897.901997,1133.03358 Z M917.706027,1104.7505 C919.208306,1102.60502 921.72433,1104.27898 924.777125,1106.41657 C927.82992,1108.55416 930.263454,1110.34592 928.761175,1112.4914 C927.888061,1113.73833 927.085332,1114.83006 925.288101,1114.63093 C923.993021,1114.48744 922.364272,1112.58365 921.085741,1111.68841 C918.032946,1109.55082 916.203748,1106.89597 917.706027,1104.7505 Z M689.417421,1032.25143 C689.362091,1032.4996 689.258208,1032.74128 689.103309,1032.9625 L672.62663,1056.49363 C671.993075,1057.39844 670.745983,1057.61834 669.841173,1056.98478 C668.936362,1056.35123 668.716466,1055.10414 669.350021,1054.19933 L685.8267,1030.66819 C685.907815,1030.55235 685.998986,1030.44773 686.098208,1030.3547 C686.102189,1030.2947 686.108896,1030.23436 686.118427,1030.17381 C688.063535,1017.81696 686.359338,1010.01235 681.353525,1006.50724 C676.348534,1003.00271 668.440149,1004.07509 657.508707,1010.13838 C656.542775,1010.67415 655.325405,1010.32544 654.789636,1009.3595 C654.253866,1008.39357 654.602582,1007.1762 655.568515,1006.64043 C667.693118,999.915334 677.092778,998.640734 683.64783,1003.23063 C689.600651,1007.39884 691.817097,1015.43033 690.557659,1027.13573 C701.285341,1021.79488 709.709872,1021.07552 715.73792,1025.29641 C721.612785,1029.41003 723.624692,1037.08746 722.030853,1048.1111 C732.344229,1043.14387 740.472036,1042.56311 746.328917,1046.66415 C752.883147,1051.25347 754.907899,1060.5261 752.75086,1074.22931 C752.579103,1075.32044 751.555327,1076.06575 750.464193,1075.89399 C749.373059,1075.72223 748.627757,1074.69846 748.799514,1073.60732 C750.744622,1061.25047 749.040425,1053.44586 744.034611,1049.94076 C739.13529,1046.51021 731.453878,1047.46536 720.878133,1053.19453 C720.657784,1053.46901 720.368559,1053.68034 720.042524,1053.80756 C719.993733,1053.9123 719.935157,1054.01425 719.866583,1054.11218 L703.389904,1077.64332 C702.756349,1078.54813 701.509257,1078.76802 700.604447,1078.13447 C699.699636,1077.50091 699.479741,1076.25382 700.113296,1075.34901 L716.589975,1051.81788 C716.785997,1051.53793 717.040754,1051.32354 717.325933,1051.17972 C717.373365,1051.03993 717.436229,1050.90522 717.513723,1050.77839 C719.79382,1039.29498 718.323082,1031.98965 713.443615,1028.57302 C708.423999,1025.05824 700.503219,1026.12298 689.560587,1032.17941 C689.513426,1032.20551 689.465667,1032.22951 689.417421,1032.25143 Z M788.265536,1139.82434 C765.863282,1135.44215 755.267522,1138.80017 754.981544,1149.22009 C754.95124,1150.32424 754.031581,1151.19477 752.927427,1151.16446 C751.823273,1151.13416 750.952746,1150.2145 750.98305,1149.11035 C751.362458,1135.2862 764.544825,1131.10843 789.033438,1135.89874 C790.117462,1136.11079 790.824337,1137.16147 790.612286,1138.24549 C790.400236,1139.32952 789.349561,1140.03639 788.265536,1139.82434 Z" id="Combined-Shape" fill="#6674A9" fill-rule="nonzero" transform="translate(765.954485, 768.142501) scale(-1, -1) rotate(-305.000000) translate(-765.954485, -768.142501) "></path>
        <path d="M976.122463,375.201831 L975.19466,376.21352 C954.456993,400.506654 939.251948,421.401863 929.579523,438.899146 C928.75038,440.399055 928.07077,441.935476 927.540693,443.508411 C926.158671,432.809929 917.206861,424.553546 906.369725,424.553546 C894.575083,424.553546 885.013636,434.333356 885.013636,446.397363 C885.013636,452.303568 889.465325,468.74337 899.46689,474.555409 C909.894511,480.615036 930.534219,474.270528 932.334961,472.926206 C932.362035,472.905994 932.388713,472.88549 932.415001,472.864694 C933.889197,475.466833 935.622789,478.132312 937.615777,480.861131 C942.82753,487.997119 941.267631,498.006942 934.131644,503.218696 C931.392051,505.219553 928.087389,506.297846 924.694927,506.297846 L869.177615,506.297846 C855.370496,506.297847 844.177615,495.104965 844.177615,481.297846 C844.177615,478.957755 844.506169,476.629252 845.153656,474.380521 C851.500678,452.337233 856.590236,434.877058 860.422329,421.999998 C860.399093,421.999999 860.375833,422 860.352549,422 C850.03661,422 840.221929,419.321693 833.878618,412.086716 C828.463273,405.910147 825.727736,395.902246 825.727736,387 C825.727736,382.337027 824.09033,375.72221 825.727736,371.653789 C828.128068,365.689744 832.660155,361.015902 838.284427,357.725085 C844.727995,353.954889 852.605125,352 860.352549,352 C869.046617,352 877.242304,353.38628 884.382846,357.725085 C888.410951,360.172681 892.934555,363.867827 894.977361,368.02606 C896.301955,370.722334 896.101476,374.751685 895.692845,378.751052 L943.479654,374.145893 C955.945499,373.234217 964.891207,373.234217 970.316778,374.145893 C972.711781,374.548334 974.639184,374.889227 976.098988,375.168574 L976.090454,375.156483 C981.58785,375.855384 986.32373,377.329305 990.298096,379.578247 C991.65059,380.343572 993.30061,381.344201 995.073608,383.950684 C995.941504,385.226576 996.701521,386.897519 997.736816,389.094116 C999.836995,393.55009 1001.26563,401.150513 1002.02273,411.895386 L976.122463,375.201831 Z M1000.39652,444.537592 C1003.64,452.443557 1007.28339,461.278307 1011.32668,471.04184 C1012.54341,473.979919 1013.18841,477.123155 1013.2271,480.30297 C1013.39508,494.109067 1002.33921,505.437295 988.533109,505.605277 L984,505.660433 C991.831566,498.684014 996.012223,483.383682 998.426503,462.318737 C999.029577,457.056823 999.759466,450.978804 1000.39652,444.537592 Z" id="Combined-Shape" fill="#FF461C"></path>
        <path d="M771,766.853097 L775.098136,662" id="Path-110" stroke="#6674A9" stroke-width="4" stroke-linecap="round" stroke-linejoin="round"></path>
        <path d="M1095.77066,219.72664 L1272.74449,221.569767 C1302.56625,221.880351 1326.48979,246.307442 1326.1792,276.129201 C1326.13871,280.016833 1325.6785,283.888725 1324.80656,287.677531 L1314.85217,330.932243 C1304.40375,376.333627 1263.98765,408.505034 1217.39951,408.505034 L1151.22821,408.505034 C1105.27174,408.505034 1065.2315,377.182271 1054.16879,332.577181 L1042.79621,286.72267 C1035.61708,257.776273 1053.26294,228.490749 1082.20934,221.311622 C1086.64451,220.211636 1091.20136,219.679052 1095.77066,219.72664 Z" id="Mask" fill="#FFE640"></path>
        <path d="M1237,329 L1130,329 L1130,347 C1130,353.075132 1125.07513,358 1119,358 C1112.92487,358 1108,353.075132 1108,347 L1108,329 L1053.2816,329 L1042.79621,286.72267 C1035.61708,257.776273 1053.26294,228.490749 1082.20934,221.311622 C1086.64451,220.211636 1091.20136,219.679052 1095.77066,219.72664 L1272.74449,221.569767 C1302.56625,221.880351 1326.48979,246.307442 1326.1792,276.129201 C1326.13871,280.016833 1325.6785,283.888725 1324.80656,287.677531 L1315.29684,329 L1259,329 L1259,347 C1259,353.075132 1254.07513,358 1248,358 C1241.92487,358 1237,353.075132 1237,347 L1237,329 Z" id="Combined-Shape" fill="#FFC635"></path>
        <path d="M1468.11295,1098.42389 L1466.505,1098.52085 C1472.14425,1107.91615 1478.45328,1113.75037 1485.34285,1116.2562 C1488.12475,1117.26802 1489.24875,1116.48933 1490.02616,1113.03145 C1491.04963,1108.4791 1489.65842,1102.69716 1486.71261,1099.64668 C1486.45178,1099.37658 1485.70694,1099.01173 1484.36314,1098.69736 C1482.64969,1098.29651 1480.33168,1098.08108 1477.35558,1098.05053 C1474.82629,1098.02457 1471.93146,1098.12606 1468.05814,1098.35734 L1468.11295,1098.42389 Z M1411.72676,1094.11728 C1398.25043,1087.61065 1391.65689,1078.13402 1392.77887,1067.70975 C1393.70248,1059.12855 1400.05371,1051.41574 1407.83361,1048.35992 C1418.4525,1044.189 1433.42776,1056.62821 1457.87294,1086.00332 C1461.11717,1085.78789 1465.37723,1085.49774 1466.47984,1085.42937 C1471.03213,1085.14708 1474.41758,1085.01969 1477.489,1085.05122 C1486.22439,1085.14087 1492.10522,1086.51666 1496.06403,1090.61612 C1502.18426,1096.95381 1504.65587,1107.22593 1502.70957,1115.88297 C1500.33826,1126.43041 1491.71258,1132.40613 1480.89935,1128.47321 C1469.44611,1124.30751 1459.95365,1114.58435 1452.28215,1099.6684 C1452.20262,1099.57064 1452.12318,1099.47305 1452.04384,1099.37564 C1433.98898,1100.2704 1422.08808,1099.11991 1411.72676,1094.11728 Z M1422.17757,1066.9593 C1418.85189,1064.11478 1416.08725,1062.19731 1413.99331,1061.21326 C1413.23965,1060.85908 1412.65172,1060.66324 1412.25879,1060.59627 C1408.95815,1062.04649 1406.07654,1065.64178 1405.70422,1069.10093 C1405.23416,1073.46827 1408.45942,1078.10381 1417.37907,1082.41038 C1423.43587,1085.33472 1430.90347,1086.58354 1441.33989,1086.64011 C1433.80638,1077.9996 1427.40644,1071.43165 1422.17757,1066.9593 Z M529.613037,1137.81152 C521.157304,1125.38231 519.586015,1116.49555 525.392736,1108.33997 C530.032643,1101.82319 538.483546,1097.9706 547.83224,1098.21017 C558.38923,1098.4807 567.771322,1117.41064 575.978516,1155 C556.661466,1155.04735 547.000131,1155.04735 546.994513,1155 C542.073242,1152.91211 536.09292,1147.33641 529.613037,1137.81152 Z M553.248211,1120.61554 C551.829183,1116.63145 550.382751,1113.80481 549.046892,1112.18945 C548.618475,1111.67139 548.268731,1111.35787 548.027024,1111.21054 C542.501821,1111.40615 537.852741,1113.25355 535.982739,1115.87998 C533.833397,1118.89875 534.525357,1124.15886 540.227886,1132.5411 C544.120062,1138.26227 550.176676,1143.1844 559.63277,1148.63059 C557.740562,1136.57991 555.601482,1127.22261 553.248211,1120.61554 Z" id="Combined-Shape" fill="#FFFFFF"></path>
    </g>
</svg>