<?xml version="1.0" encoding="UTF-8"?>
<svg width="1794px" height="1276px" viewBox="0 0 1794 1276" version="1.1" xmlns="http://www.w3.org/2000/svg" xmlns:xlink="http://www.w3.org/1999/xlink">
    <!-- Generator: Sketch 56.1 (81669) - https://sketch.com -->
    <title>Recycle</title>
    <desc>Created with Sketch.</desc>
    <g id="Recycle" stroke="none" stroke-width="1" fill="none" fill-rule="evenodd">
        <path d="M914.900177,588.100193 L676.597586,819.86534 L1043.20035,941.959171 L1362.78121,1057.6566 C1391.86208,1068.1847 1423.9715,1053.14472 1434.4996,1024.06385 C1439.43837,1010.42194 1438.88991,995.39572 1432.96974,982.150162 L1303.04795,691.467854 C1289.06547,660.183958 1260.03853,638.237833 1226.12798,633.311708 L914.900177,588.100193 Z" id="Path-38-Copy-6" fill="#FF66D5" transform="translate(1081.689973, 845.324379) scale(-1, 1) rotate(-21.000000) translate(-1081.689973, -845.324379) "></path>
        <path d="M513.404746,340 L897.816749,340 C918.80357,340 935.816749,357.01318 935.816749,378 C935.816749,379.018016 935.77584,380.03562 935.694122,381.050351 L896.440381,868.479032 C894.795051,888.909716 877.242992,904.35397 856.769019,903.38631 L563.653889,889.532827 C544.977105,888.650108 529.717742,874.311927 527.675279,855.726185 L475.632146,382.150987 C473.339619,361.289756 488.392528,342.519927 509.253759,340.2274 C510.632235,340.075914 512.017971,340 513.404746,340 Z" id="Rectangle" fill="#C8FF57"></path>
        <path d="M1194.19545,707.65024 L1319.60721,663.001029 L1445.22544,688.076414 L1471.855,686 L1471.75567,693.372268 L1487.64873,696.544773 L1535.11755,789.009525 C1544.4451,807.178714 1547.98574,827.7683 1545.26336,848.009627 L1534.9973,924.339411 C1530.41224,958.430074 1501.31007,983.204346 1467.8497,983.28306 L1467.84863,983.362213 L1132.04824,985 L753.366366,945.524764 C737.01236,943.81996 725.136836,929.180403 726.841639,912.826397 C728.251954,899.297399 738.652298,888.444629 752.109024,886.459858 L906.588827,750.222014 C922.852919,735.87849 943.338859,727.210545 964.958654,725.524762 L1194.19545,707.65024 Z" id="Combined-Shape" fill="#FF8ADF"></path>
        <path d="M1398.63497,371 L1375.47553,371 C1368.25292,371 1362.05585,365.852831 1360.73031,358.752904 L1358,344.128723 L1358.36357,343.934296 C1352.3949,344.15177 1346.53365,343.82938 1340.77982,342.967128 C1310.51404,338.431588 1296.79596,309.803736 1300.6292,277.686767 C1304.46245,245.569797 1309.63759,220.960193 1324.65666,205.709123 C1331.46487,198.795745 1336.32944,187.344151 1365.52223,188.029404 C1374.68258,188.244428 1387.93327,192.927283 1405.27431,202.077971 C1427.69806,212.932364 1437.43519,227.555647 1434.48571,245.947819 C1433.57864,251.604068 1432.02961,258.237543 1429.83861,265.848246 C1440.71575,271.180394 1445.96546,285.764724 1440.23745,297.533762 C1437.64686,302.856021 1426.94054,314.54863 1415.35457,318.51126 L1422.70554,351.172743 C1475.45617,349.102891 1521.00852,365.634165 1559.36258,400.766563 C1621.63688,457.809939 1602.96317,523 1602.96317,606 C1602.96317,660.672876 1605.38946,754.437886 1610.24202,887.29503 C1615.51545,895.319895 1621.51915,903.253959 1639.4433,906.003088 C1642.13104,906.415322 1644.62843,906.875327 1646.99551,907.318859 C1650.75993,907.540709 1655.15761,907.917339 1660.25947,908.321826 C1666.3876,908.807678 1677.16208,909.823927 1692.5829,911.370574 C1701.04123,912.21891 1709.35687,914.1423 1717.32865,917.094215 C1730.28288,921.891108 1738.87989,926.460625 1743.11969,930.802767 C1747.77632,935.571811 1750.90684,943.88659 1752.51124,955.747104 C1752.56998,956.181326 1752.58097,956.620676 1752.54403,957.057292 C1752.26464,960.359203 1749.36142,962.80944 1746.05951,962.530048 L1727.51752,960.961123 C1728.924,966.014803 1729.89557,972.078936 1730.43223,979.153522 L1641.32391,971.836677 L1652.07353,996.724909 L1536.59411,988.358179 C1520.77677,983.322933 1509.46475,970.136442 1506.35045,954.568244 L1506.24121,954.633789 L1457.89623,578.473399 L1309,527.05343 L1398.63497,371 Z M1076.95456,290.379934 L1041.9707,255.832301 L1000,211.810606 C1009.83926,204.989001 1017.74533,201.856453 1023.71822,202.412964 C1029.52018,202.953549 1038.89852,207.478246 1051.85322,215.987056 L1029.17808,192.310606 C1039.01734,185.489001 1046.92341,182.356453 1052.8963,182.912964 C1058.8692,183.469475 1068.63229,188.248306 1082.18558,197.249459 C1085.44848,200.094014 1088.49246,202.806404 1091.3175,205.38663 L1140.83604,140.459334 C1149.09787,149.135584 1153.42234,156.474183 1153.80943,162.475132 C1154.19652,168.47608 1151.01715,178.889643 1144.27134,193.715821 C1142.61421,196.373499 1141.00724,198.907024 1139.45044,201.316395 L1173.25885,238.685676 C1176.23118,221.233196 1180.74612,208.678152 1186.80368,201.020542 C1192.86124,193.362932 1201.26914,189.581668 1212.0274,189.676749 L1212.0274,279.700452 C1213.28968,286.751208 1212.25888,293.47846 1208.93499,299.882207 L1158.16406,422.390625 L1317.59926,365.404325 C1301.77767,375.318437 1291.80111,393.255516 1292.78991,412.989239 L1300.45698,566.003081 L1090.56505,600.844961 C1068.35218,604.532278 1045.54495,600.614997 1025.83544,589.727255 C977.49266,563.022195 959.951823,502.183902 986.656882,453.841123 L1076.95456,290.379934 Z" id="Combined-Shape" fill="#FFBEBE"></path>
        <path d="M715.5,697 C643.42684,697 585,638.349302 585,566 C585,493.650698 643.42684,435 715.5,435 C787.57316,435 846,493.650698 846,566 C846,638.349302 787.57316,697 715.5,697 Z M514.794645,319.5 L538.322419,289.238351 C542.183149,284.272644 548.155003,281.412461 554.444086,281.516978 L878.026571,286.894541 C884.469556,287.001616 890.466262,290.206488 894.13542,295.503733 L906.840682,313.846605 C908.036879,315.573581 908.916476,317.48783 909.449268,319.5 L955,319.5 C966.045695,319.5 975,328.454305 975,339.5 L975,349.5 C975,360.545695 966.045695,369.5 955,369.5 L447,369.5 C435.954305,369.5 427,360.545695 427,349.5 L427,339.5 C427,328.454305 435.954305,319.5 447,319.5 L514.794645,319.5 Z" id="Combined-Shape" fill="#82D121"></path>
        <path d="M639.677361,566.3568 L637.557006,565.088323 C636.642485,564.541221 635.984087,563.651807 635.72787,562.617388 C635.196737,560.473048 636.504499,558.304149 638.648839,557.773016 L667.407261,550.649819 L672.490879,578.247983 C672.667009,579.204168 672.488844,580.191769 671.989696,581.026132 C670.855561,582.921925 668.399318,583.539371 666.503525,582.405235 L663.467514,580.588977 C658.697184,587.803408 656.067547,591.91634 655.578602,592.927773 C653.474289,597.280765 652.068396,601.500866 651.659315,605.043267 C651.203615,608.989359 651.785132,611.215628 653.964725,612.503587 C658.974184,615.463763 672.330885,617.32281 694.034827,618.080729 L693.166638,642.942397 C670.262793,644.87438 648.678413,642.578242 637.709528,634.599181 C626.831632,626.686308 622.79854,614.910615 624.299962,601.909179 C625.107964,594.912355 627.43225,587.935497 630.756762,581.058395 C632.068128,578.345699 636.725515,570.587727 636.877313,570.370152 L639.677361,566.3568 Z M743.124,645.935698 L743.072695,648.373117 C743.05053,649.426129 742.61394,650.427906 741.857695,651.160995 C740.271503,652.69862 737.739149,652.659247 736.201525,651.073054 L715.89965,630.12991 L737.185132,612.090554 C737.929804,611.459447 738.879549,611.122422 739.855464,611.142964 C742.064114,611.189454 743.816891,613.017606 743.770401,615.226256 L743.699965,618.572535 C752.280894,619.04366 757.128577,619.235622 758.243016,619.148421 C763.03932,618.77313 767.376855,617.868871 770.63808,616.45277 C774.270954,614.87529 775.907484,613.270687 775.94647,610.771693 C776.036074,605.02814 771.063416,592.719895 761.028498,573.846958 L782.93034,562.201543 C795.879631,580.756976 804.527027,600.294317 803.037488,613.616533 C801.560304,626.828239 793.375427,636.131363 781.405972,641.328785 C774.964517,644.125818 767.79351,645.620779 760.21604,646.213685 C757.22708,646.447559 748.232295,646.343455 747.969602,646.322486 L743.124,645.935698 Z M761.274681,516.497419 L763.431368,515.360608 C764.3631,514.869483 765.450937,514.765662 766.458746,515.07168 C768.572583,515.71354 769.765857,517.947475 769.123997,520.061313 L760.649254,547.971171 L734.552271,538.100122 C733.639268,537.754783 732.884055,537.087511 732.428888,536.223997 C731.398774,534.26973 732.147949,531.850411 734.102216,530.820297 L737.063086,529.259593 C733.315024,521.526139 731.132714,517.193194 730.516156,516.260759 C727.862625,512.247762 724.968864,508.892462 722.14924,506.72667 C719.008293,504.314065 716.81147,503.66065 714.6069,504.838088 C709.540034,507.544249 701.185793,517.860589 689.544176,535.787107 L668.740642,522.277134 C678.691649,501.955576 691.587051,484.920502 703.961067,479.764544 C716.232438,474.651356 728.337241,477.299767 738.685915,485.248728 C744.255135,489.526523 749.039231,495.073655 753.231428,501.413613 C754.885056,503.914432 759.154762,511.831919 759.263779,512.071842 L761.274681,516.497419 Z" id="Combined-Shape-Copy-9" fill="#FFFFFF"></path>
        <path d="M1360.02482,354.974164 L1360.73031,358.752904 C1362.05585,365.852831 1368.25292,371 1375.47553,371 L1408.41677,371 C1416.70105,371 1423.41677,364.284271 1423.41677,356 C1423.41677,354.891986 1423.29401,353.787382 1423.05072,352.706408 L1422.46637,350.11009 C1441.06211,350.582741 1462.67683,353.240706 1487.31055,358.083984 C1468.94974,372.57487 1459.76934,402.945312 1459.76934,449.195312 C1459.76934,480.783744 1464.24076,563.413953 1473.18359,697.085938 L1332.28898,667.507108 C1316.29137,664.148636 1304.56454,650.43346 1303.73215,634.108325 L1292.46074,413.049727 C1291.05846,385.547761 1310.95143,361.553584 1338.23704,357.836027 C1346.03928,356.773003 1353.30187,355.819049 1360.02482,354.974164 Z" id="Combined-Shape" fill="#FF6C6C"></path>
        <path d="M1649.22225,993.349136 C1648.27598,989.256412 1647.07242,985.614242 1645.61326,982.417339 C1645.54893,982.411499 1645.48429,982.402501 1645.41951,982.390228 C1622.62923,978.07281 1611.71362,981.185869 1611.21294,991.047538 L1649.22225,993.349136 Z M1652.15895,996.691016 C1651.76631,997.177613 1651.15205,997.473319 1650.4804,997.432648 L1605.4804,994.707739 C1604.37785,994.640976 1603.53818,993.69306 1603.60494,992.59051 C1603.6717,991.48796 1604.61962,990.648289 1605.72217,990.715052 L1607.21634,990.80553 C1607.79988,978.165875 1620.23143,974.07631 1643.21951,977.933572 C1640.32658,973.295502 1636.70935,969.915863 1632.37599,967.769305 C1623.38804,963.317062 1602.04403,957.489522 1568.53008,950.372746 C1567.44961,950.143304 1566.75971,949.081405 1566.98915,948.000928 C1567.21859,946.920452 1568.28049,946.230552 1569.36097,946.459994 C1603.21803,953.649631 1624.75284,959.529266 1634.15152,964.184963 C1643.96606,969.046662 1650.40779,979.174585 1653.53984,994.372493 C1653.75057,995.395055 1653.14006,996.396086 1652.15895,996.691016 Z M1328.90934,280.60054 C1328.94622,279.024901 1333.0116,278.882935 1341.10548,280.174641 C1349.6997,282.451132 1353.67858,284.484254 1353.04211,286.274006 C1352.74433,287.111358 1346.7492,286.392237 1340.69083,284.989322 C1334.82543,283.631094 1328.88553,281.617823 1328.90934,280.60054 Z M1366.04068,263.361587 C1363.15758,262.904949 1362.44429,259.389708 1363.09275,255.295504 C1363.36433,253.580825 1362.92607,251.893099 1363.81328,250.746237 C1365.0445,249.154693 1366.71332,248.269769 1368.38896,248.535164 C1371.27205,248.991802 1370.82553,252.323347 1370.17707,256.41755 C1369.52861,260.511754 1368.92378,263.818225 1366.04068,263.361587 Z M1375.61226,246.430678 L1361.20476,249.48514 C1359.85407,249.771493 1358.52699,248.908677 1358.24063,247.557985 C1357.95428,246.207294 1358.8171,244.880207 1360.16779,244.593854 L1374.57528,241.539392 C1375.92597,241.253038 1377.25306,242.115855 1377.53941,243.466546 C1377.82577,244.817237 1376.96295,246.144324 1375.61226,246.430678 Z M1348.59778,272.333262 C1349.93484,272.67772 1350.73949,274.040854 1350.39504,275.377909 C1350.05058,276.714963 1348.68744,277.519622 1347.35039,277.175164 L1336.92927,274.49043 C1335.584,274.143855 1334.77928,272.766994 1335.13752,271.424783 C1339.42731,255.352475 1341.90914,245.680519 1341.92571,245.20456 C1341.97375,243.824684 1343.1313,242.744866 1344.51118,242.793053 C1345.89105,242.841239 1346.97072,243.998642 1346.92268,245.378518 C1346.88585,246.436648 1344.97449,253.927637 1340.61821,270.277531 L1348.59778,272.333262 Z M1324.02228,255.296248 C1321.14759,254.789363 1320.49576,251.262209 1321.21557,247.179946 C1321.51703,245.470268 1321.1083,243.775149 1322.01539,242.643946 C1323.2742,241.074132 1324.9582,240.218468 1326.62895,240.513067 C1329.50364,241.019952 1328.99904,244.343197 1328.27923,248.425459 C1327.55942,252.507722 1326.89697,255.803134 1324.02228,255.296248 Z M1331.00016,243.113242 L1319.59427,235.117603 C1318.46369,234.32505 1318.18966,232.766038 1318.98221,231.635452 C1319.77476,230.504865 1321.33377,230.230835 1322.46436,231.023387 L1333.87024,239.019026 C1335.00083,239.811579 1335.27486,241.370591 1334.48231,242.501177 C1333.68975,243.631764 1332.13074,243.905794 1331.00016,243.113242 Z M1138.36987,140.954086 C1139.02604,140.065535 1140.27828,139.877149 1141.16683,140.533313 C1142.05538,141.189478 1142.24376,142.441717 1141.5876,143.330267 L1119.60152,173.102911 C1118.94535,173.991462 1117.69311,174.179848 1116.80456,173.523684 C1115.91601,172.867519 1115.72762,171.61528 1116.38379,170.72673 L1138.36987,140.954086 Z M1031.75039,192.069417 C1048.25056,178.867115 1065.49135,180.101784 1082.79107,195.612016 C1099.28187,210.396996 1108.82001,218.717115 1111.15418,220.366704 C1112.05623,221.004192 1112.27069,222.252229 1111.63321,223.154273 C1110.99572,224.056317 1109.74768,224.270783 1108.84564,223.633296 C1106.31629,221.84577 1096.82515,213.566656 1080.12088,198.590282 C1064.22554,184.33916 1049.16229,183.260433 1034.24943,195.192692 C1033.38696,195.88278 1032.12836,195.743038 1031.43827,194.88057 C1030.74818,194.018101 1030.88793,192.759505 1031.75039,192.069417 Z M1174.9995,238.787548 L1174.9995,266.999976 C1170.9995,266.999976 1170.9995,266.999976 1170.9995,266.999976 L1170.9995,238.787548 C1170.9995,212.482444 1184.61898,195.444979 1211.46988,188.071398 C1212.53502,187.778898 1213.6356,188.405245 1213.9281,189.470383 C1214.2206,190.53552 1213.59425,191.636102 1212.52911,191.928602 C1187.38001,198.834848 1174.9995,214.322415 1174.9995,238.787548 Z M1160.38828,289.183761 C1145.22137,268.529403 1123.72112,261.683552 1095.47662,268.609125 C1094.40383,268.872174 1093.32092,268.215749 1093.05787,267.142959 C1092.79482,266.070169 1093.45125,264.987257 1094.52404,264.724208 C1124.28189,257.427559 1147.44831,264.80393 1163.61238,286.816239 C1164.26616,287.70655 1164.07441,288.958278 1163.18409,289.612051 C1162.29378,290.265825 1161.04205,290.074073 1160.38828,289.183761 Z M998.750394,210.069417 C1015.25056,196.867115 1032.49135,198.101784 1049.79107,213.612016 C1066.28187,228.396996 1075.82001,236.717115 1078.15418,238.366704 C1079.05623,239.004192 1079.27069,240.252229 1078.63321,241.154273 C1077.99572,242.056317 1076.74768,242.270783 1075.84564,241.633296 C1073.31629,239.84577 1063.82515,231.566656 1047.12088,216.590282 C1031.22554,202.33916 1016.16229,201.260433 1001.24943,213.192692 C1000.38696,213.88278 999.128361,213.743038 998.438272,212.88057 C997.748184,212.018101 997.887926,210.759505 998.750394,210.069417 Z M1648.4977,932.643605 C1648.90382,932.641884 1649.28218,932.76133 1649.59852,932.967976 C1649.62721,932.969076 1649.65606,932.970178 1649.68505,932.971283 C1654.88246,933.169399 1664.92613,933.457565 1679.80841,933.835482 C1710.52434,934.615475 1728.28064,948.965988 1732.48376,976.54846 C1732.65016,977.640424 1731.89984,978.660528 1730.80787,978.826925 C1729.71591,978.993322 1728.6958,978.243002 1728.52941,977.151038 C1724.62967,951.559475 1708.55335,938.566714 1679.70687,937.834193 C1664.80794,937.455853 1654.75244,937.167348 1649.53269,936.96838 C1646.37947,936.848185 1645.30473,936.788959 1644.85935,936.657187 C1644.61542,936.631744 1644.61542,936.631744 1643.71449,935.795808 C1643.28808,934.489266 1643.28808,934.489266 1643.89059,933.420617 C1644.39864,932.972453 1644.39864,932.972453 1644.65504,932.869861 C1644.91248,932.764177 1645.06086,932.738928 1645.31209,932.713199 C1645.47717,932.696293 1645.69553,932.68497 1645.9966,932.675606 C1646.53195,932.658956 1647.3628,932.648414 1648.4977,932.643605 Z" id="Combined-Shape" fill="#E96868"></path>
        <path d="M538.704572,895.095337 L324.514001,884.911852 C316.69748,884.540223 308.869535,885.346962 301.293103,887.30497 C242.43055,902.517057 204.321793,930.145476 186.966831,970.190226 C168.438229,1012.94303 160.431568,1048.00632 162.946846,1075.3801 L241.263141,1098.92293 L461.095737,1152.67581 L676.685079,899.295154 L538.704572,895.095337 Z" id="Path-171" fill="#60CBFF" transform="translate(419.590483, 1018.532475) rotate(-3.000000) translate(-419.590483, -1018.532475) "></path>
        <path d="M575.613541,1095.09351 C575.403134,1097.40292 575.103075,1099.70481 574.713686,1101.99396 C566.409632,1150.8121 520.102948,1183.65525 471.284811,1175.3512 L264.297056,1140.14221 C239.353332,1135.89923 218.041445,1119.76856 207.184306,1096.91436 C188.783519,1058.18082 205.266467,1011.86431 244,993.463518 L445.635492,897.674381 C459.043557,891.304734 473.701517,888 488.545661,888 L678,888 L677.674429,888.429632 L807.617161,888.040517 C816.596639,888.013628 825.53883,889.196308 834.202575,891.556661 L1094.87833,962.575231 C1137.87569,974.289444 1164.43786,1017.32229 1155.63698,1061.00914 C1146.57141,1106.00989 1106.72802,1138.16371 1060.82771,1137.52071 L898.434578,1135.24582 C886.824631,1135.08318 875.331705,1132.89984 864.470925,1128.79365 L795.111814,1102.57072 C790.719577,1100.91013 786.790246,1098.55953 783.400503,1095.68885 L575.613541,1095.09351 Z" id="Combined-Shape" fill="#6381DD"></path>
        <path d="M1438.72573,274.148158 C1436.34514,270.408678 1432.93455,267.256098 1428.65876,265.166289 C1416.9372,259.437357 1402.93815,263.760086 1396.46119,274.779616 C1396.45234,266.879823 1396.48101,259.230664 1396.54722,251.83214 C1396.69577,235.233335 1387.19818,214.383304 1368.05446,189.282044 C1354.30127,187.213991 1343.38847,190.025663 1335.31605,197.717062 C1319.12496,213.14393 1308.78857,231.925092 1304.30688,254.060547 C1301.3573,250.348107 1301.58199,241.892297 1304.98096,228.693115 C1310.07941,208.894343 1334.35151,187.783776 1348.99732,184.758274 C1356.76,183.154676 1365.49096,183.034475 1370.57464,186.043511 C1372.17415,185.982898 1374.35258,186.163392 1377.10994,186.584993 C1388.38991,188.309703 1428.09922,204.726936 1440.22785,239.19094 C1443.58587,248.7329 1443.08516,260.385304 1438.72573,274.148153 Z" id="Combined-Shape" fill="#7821D1"></path>
        <path d="M1276.7122,862.83816 L1281.82431,862.929507 C1307.48791,863.388081 1329.13446,882.17065 1333.20629,907.513311 L1365.53202,1108.70524 C1370.17549,1137.60568 1350.51133,1164.79838 1321.61089,1169.44184 C1318.56266,1169.93161 1315.47747,1170.15409 1312.39051,1170.10675 L1239.29278,1168.9858 C1210.02513,1168.53699 1186.66284,1144.44703 1187.11166,1115.17938 C1187.15529,1112.33435 1187.42795,1109.49746 1187.92701,1106.6962 L1223.58689,906.533865 C1228.15466,880.894529 1250.67331,862.37288 1276.7122,862.83816 Z M843,1144.5 C843,1172.94266 819.942665,1196 791.5,1196 L704.5,1196 C676.057335,1196 653,1172.94266 653,1144.5 C653,1116.05734 676.057335,1093 704.5,1093 L791.5,1093 C819.942665,1093 843,1116.05734 843,1144.5 Z M1569,1035.80862 L1569,1091 C1569,1120.27109 1545.27109,1144 1516,1144 L1455,1144 C1430.88765,1144 1411.34074,1124.45308 1411.34074,1100.34074 C1411.34074,1087.94376 1416.61095,1076.1313 1425.83652,1067.85038 L1442,1053.34198 L1464.94367,1052 C1508.27951,1054.46736 1533.70454,1054.91469 1541.21875,1053.34198 C1547.91691,1051.94007 1556.00259,1045.66397 1565.47579,1034.51369 C1566.19096,1033.67188 1567.45314,1033.56924 1568.29493,1034.28442 C1568.74221,1034.66443 1569,1035.22171 1569,1035.80862 Z M1418.49484,1027.67848 C1419.69189,1027.08684 1420.99531,1026.74093 1422.3282,1026.66115 C1427.84118,1026.33117 1432.57784,1030.53282 1432.90782,1036.04581 L1434.02005,1054.62796 C1434.11525,1056.21845 1433.82902,1057.80866 1433.1852,1059.26613 C1430.95359,1064.31804 1425.04913,1066.60434 1419.99723,1064.37273 L1387.82274,1050.16008 C1386.96545,1049.78139 1386.26836,1049.11369 1385.8531,1048.27351 C1384.87426,1046.29306 1385.68623,1043.89408 1387.66668,1042.91525 L1418.49484,1027.67848 Z M1194.5,191 C1171.0279,191 1152,171.748244 1152,148 C1152,124.251756 1171.0279,105 1194.5,105 C1217.9721,105 1237,124.251756 1237,148 C1237,171.748244 1217.9721,191 1194.5,191 Z" id="Combined-Shape" fill="#FFE640"></path>
        <path d="M612.075965,972.815255 C612.073951,972.86395 612.071898,972.912644 612.069805,972.961336 L612.074873,972.814925 C610.246297,972.263907 608.487108,971.52274 606.865871,970.548175 C596.210984,964.143267 591.970021,946.930841 592.183844,940.807734 C592.6206,928.300683 603.361835,918.524443 616.175064,918.971891 C618.688378,919.059657 621.094728,919.53426 623.336081,920.334953 C621.980082,912.312333 620.980825,905.378011 620.338311,899.531985 C618.278353,880.789103 626.504953,866.034775 645.01811,855.269002 C665.438381,852.907249 679.862425,851.764384 688.290242,851.840407 C715.148559,852.082681 728.479365,854.230383 734.492701,861.458539 C745.799917,875.050048 745.888652,901.875624 743.314533,925.064842 C746.869861,922.628179 751.163419,921.134674 755.824936,920.971891 C768.638165,920.524443 779.3794,930.300683 779.816156,942.807734 C780.029979,948.930841 775.789016,966.143267 765.134129,972.548175 C754.780372,978.772067 738.800213,975.476811 735.052553,973.927043 C728.769419,995.140594 709.098613,1009.94578 686.573569,1009.71383 C679.616897,1009.64219 672.672744,1008.38091 665.741111,1005.92998 C650.438913,1000.51935 638.71012,988.186933 633.992731,972.830704 C629.000489,974.048144 619.90276,975.1734 612.075965,972.815255 Z M561.78517,888.268011 L532.38669,888.912868 L317.956697,889.953208 C310.131438,889.991174 302.356442,891.206489 294.892868,893.558334 C236.907123,911.830202 200.296552,941.415215 185.061155,982.313373 C172.178614,1016.89549 165.916143,1052.36899 166.273742,1088.73388 L164.126845,1088.47803 C109.560627,1081.9752 70.5975505,1032.46896 77.1003775,977.902745 C78.5007388,966.152099 81.9860432,954.745482 87.3925112,944.218906 L239.048124,648.940313 L234.601527,638.131308 L119.109982,654.173786 C110.357462,655.389562 102.276561,649.279826 101.060783,640.527307 C100.454878,636.165332 101.673646,631.746475 104.429942,628.31183 C127.555353,599.49505 157.656305,571.997704 194.732798,545.819792 C216.383661,530.533168 234.76868,517.332184 249.887853,506.21684 C259.735675,498.976899 271.356012,495.877302 282.668812,496.600597 L249.469316,361.461348 C248.627133,358.033215 249.111083,354.41347 250.824254,351.326982 C266.015859,323.95744 286.355691,327.675662 311.84375,362.481646 C334.57039,393.516692 376.293488,429.778011 437.013043,471.265603 C458.936961,486.245464 470.319985,512.476751 466.285329,538.721294 L440.122812,708.902661 L549.227562,883.240966 C553.566991,884.607071 557.761749,886.29212 561.78517,888.268011 Z M871.524279,1024.82876 C891.815095,1049.04919 905.214748,1066.96756 911.723239,1078.58388 C921.797676,1096.56468 915.388306,1119.30793 897.407511,1129.38237 C892.812343,1131.95699 887.724212,1133.52971 882.477711,1133.99712 C866.813684,1135.3926 853.435085,1136.14187 842.341915,1136.2449 C838.391625,1111.72656 817.132724,1093 791.5,1093 L741.083598,1093 L761.942809,1019.59469 C766.823286,1011.13507 776.166692,1008.45332 789.973027,1011.54942 C792.445771,1012.10394 794.432615,1013.10717 795.933557,1014.5591 L798.117173,1014.70934 L798.284601,1013.98225 C805.579704,1011.56627 811.081146,1010.46344 814.788929,1010.67376 C822.395724,1011.10526 830.115215,1013.80895 833.212091,1017.12399 L834.376723,1017.20412 C839.554134,1013.38239 848.630313,1012.30361 861.605261,1013.96779 C867.766413,1014.75803 871.072752,1018.37835 871.524279,1024.82876 Z M559.050781,1194 C524.115315,1179.38542 508.206635,1159.05208 511.324744,1133 C511.756773,1129.39036 512.157725,1125.99451 512.527602,1122.81245 C515.148033,1100.26882 526.573456,1079.67492 544.313487,1065.51959 L605.61066,1016.60864 C614.443498,1025.28709 618.216474,1035.19973 616.929589,1046.34655 C616.244533,1052.28041 610.374845,1058.51335 605.828156,1064.73484 C603.165281,1068.37861 598.253658,1075.30033 591.093287,1085.5 L688.73506,1088.4535 C689.307769,1088.47082 689.87324,1088.58646 690.406777,1088.79534 C701.440089,1093.11517 706.956745,1099.52128 706.956745,1108.01368 C706.956745,1116.24414 702.066531,1122.90574 692.286103,1127.99846 C701.649498,1131.33282 706.331195,1137.66667 706.331195,1147 C706.331195,1156.33333 701.321239,1162.356 691.301327,1165.06799 C700.204609,1165.75315 704.227214,1172.30355 703.369141,1184.71918 C702.511068,1197.13482 697.914359,1203.34263 559.050781,1194 Z" id="Combined-Shape" fill="#C7E0FF"></path>
        <path d="M1295.56261,862.030553 L1308.91495,862.030553 C1318.82862,862.030553 1327.24619,869.292941 1328.69902,879.09958 L1334.17028,916.030553 L1221.71325,916.030553 L1228.53335,878.45851 C1230.26006,868.946062 1238.54388,862.030553 1248.21178,862.030553 L1258.17028,862.030553 L1258.17028,816.696165 C1258.17028,806.370558 1266.54084,798 1276.86644,798 L1278.00938,798 C1287.70376,798 1295.56261,805.858845 1295.56261,815.553223 L1366.77942,826.683473 C1371.82995,827.472804 1375.55309,831.823021 1375.55309,836.93486 C1375.55309,841.631478 1371.74573,845.438838 1367.04912,845.438838 C1366.92644,845.438838 1366.80379,845.436184 1366.68123,845.430877 L1297.64913,842.441711 C1296.54559,842.393927 1295.61226,843.249782 1295.56448,844.353318 C1295.56323,844.382141 1295.56261,844.410988 1295.56261,844.439839 L1295.56261,862.030553 Z M717,1092.93732 L794,1092.93732 L794,1127 C794,1143.01626 781.016258,1156 765,1156 L746,1156 C729.983742,1156 717,1143.01626 717,1127 L717,1092.93732 Z M865,1172 C850.088312,1172 838,1159.91169 838,1145 C838,1130.08831 850.088312,1118 865,1118 C879.911688,1118 892,1130.08831 892,1145 C892,1159.91169 879.911688,1172 865,1172 Z M1455.5,1085 C1432.58018,1085 1414,1066.41982 1414,1043.5 C1414,1020.58018 1432.58018,1002 1455.5,1002 C1478.41982,1002 1497,1020.58018 1497,1043.5 C1497,1066.41982 1478.41982,1085 1455.5,1085 Z M1176.17437,147.13 C1173.79768,147.856626 1171.02015,145.662683 1169.97058,142.229692 C1168.92101,138.7967 1169.99685,135.424664 1172.37354,134.698038 C1174.75022,133.971412 1177.52775,136.165355 1178.57732,139.598346 C1179.6269,143.031338 1178.55106,146.403374 1176.17437,147.13 Z M1207.73243,137.481734 C1205.35574,138.20836 1202.57821,136.014417 1201.52864,132.581425 C1200.47907,129.148434 1201.55491,125.776398 1203.93159,125.049772 C1206.30828,124.323146 1209.08581,126.517089 1210.13538,129.95008 C1211.18495,133.383071 1210.10911,136.755108 1207.73243,137.481734 Z M1179.30688,163.093431 C1178.40513,162.455526 1178.19124,161.207389 1178.82914,160.305641 C1179.46705,159.403892 1180.71519,159.190004 1181.61693,159.827909 C1187.34704,163.881435 1193.46223,164.870061 1200.14977,162.825475 C1206.80384,160.791121 1211.02009,156.679594 1212.97806,150.344701 C1213.30424,149.289388 1214.42415,148.698303 1215.47946,149.024476 C1216.53478,149.350648 1217.12586,150.470564 1216.79969,151.525877 C1214.44534,159.143222 1209.22535,164.233558 1201.31926,166.650694 C1193.44663,169.057598 1186.04675,167.861281 1179.30688,163.093431 Z" id="Combined-Shape" fill="#FFC635"></path>
        <path d="M1261.05534,1017.42176 L1277.94176,1038.98401 L1295.3042,1017.0861 C1300.10799,1011.02745 1308.91374,1010.01019 1314.97239,1014.81398 C1317.73016,1017.00056 1319.56321,1020.14562 1320.10653,1023.62287 L1329.64348,1084.65994 C1330.83711,1092.29924 1325.61186,1099.45974 1317.97256,1100.65337 C1317.26811,1100.76344 1316.55628,1100.81953 1315.84329,1100.82116 L1240.56082,1100.99312 C1232.82886,1101.01078 1226.54654,1094.7571 1226.52888,1087.02513 C1226.52721,1086.29208 1226.58311,1085.56004 1226.69607,1084.83575 L1236.20038,1023.89636 C1237.39188,1016.25673 1244.55093,1011.02949 1252.19056,1012.22099 C1255.69797,1012.76802 1258.86663,1014.627 1261.05534,1017.42176 Z M1278.17028,1011.03055 C1268.78144,1011.03055 1261.17028,1003.41939 1261.17028,994.030553 C1261.17028,984.641713 1268.78144,977.030553 1278.17028,977.030553 C1287.55912,977.030553 1295.17028,984.641713 1295.17028,994.030553 C1295.17028,1003.41939 1287.55912,1011.03055 1278.17028,1011.03055 Z M1442,1042 C1437.02944,1042 1433,1037.97056 1433,1033 C1433,1028.02944 1437.02944,1024 1442,1024 C1446.97056,1024 1451,1028.02944 1451,1033 C1451,1037.97056 1446.97056,1042 1442,1042 Z" id="Combined-Shape" fill="#FFEECB"></path>
        <path d="" id="Path-167" stroke="#979797"></path>
        <path d="M688.176679,989.09296 C681.910098,989.09296 676.508555,983.935121 676.508555,981.967471 C676.508555,979.999822 681.910098,981.967471 688.176679,981.967471 C694.443261,981.967471 699.508555,979.999822 699.508555,981.967471 C699.508555,983.76129 695.301202,988.808218 689.807063,989.056456 C689.274652,989.080511 688.730296,989.09296 688.176679,989.09296 Z M660.071977,961.385541 C657.351509,961.623551 657.023181,958.73101 656.710305,955.15482 C656.397429,951.578629 656.218484,948.67302 658.938953,948.435009 C660.520071,948.29668 662.012873,949.152839 663.047361,950.596306 C663.792809,951.636464 663.263978,953.072252 663.395012,954.569984 C663.707889,958.146174 662.792445,961.14753 660.071977,961.385541 Z M711.29195,961.42134 C708.56109,961.42134 708.486113,958.511191 708.486113,954.92134 C708.486113,951.331489 708.56109,948.42134 711.29195,948.42134 C712.879108,948.42134 714.29161,949.404347 715.196355,950.932483 C715.848311,952.033653 715.196355,953.417887 715.196355,954.92134 C715.196355,958.511191 714.02281,961.42134 711.29195,961.42134 Z M655.871755,942.654832 C654.956471,943.688572 653.376474,943.784601 652.342733,942.869316 C651.308992,941.954032 651.212964,940.374035 652.128248,939.340294 C657.757417,932.982595 663.966688,933.199428 668.997552,939.958577 C669.821936,941.066167 669.592352,942.632342 668.484762,943.456726 C667.377171,944.28111 665.810997,944.051526 664.986613,942.943936 C661.861402,938.7451 659.409286,938.659471 655.871755,942.654832 Z M707.76541,943.720919 C706.850126,944.754659 705.270129,944.850688 704.236388,943.935403 C703.202647,943.020119 703.106619,941.440122 704.021903,940.406381 C709.651072,934.048682 715.860343,934.265515 720.891207,941.024664 C721.715591,942.132254 721.486007,943.698429 720.378417,944.522813 C719.270827,945.347197 717.704652,945.117613 716.880268,944.010023 C713.755057,939.811187 711.302941,939.725558 707.76541,943.720919 Z M834.389018,1015.64243 C833.775107,1014.80999 833.896321,1013.63197 834.691956,1012.9441 C844.438726,1004.51738 858.160841,1000.3365 875.780966,1000.3365 C892.697105,1000.3365 938.074934,990.237403 1011.56136,970.071303 C1012.62655,969.778994 1013.72702,970.405538 1014.01933,971.470728 C1014.31164,972.535918 1013.68509,973.636388 1012.6199,973.928697 C938.709066,994.211264 893.213785,1004.3365 875.780966,1004.3365 C859.052133,1004.3365 846.253604,1008.23598 837.308044,1015.97 C837.118576,1016.13381 836.907131,1016.25575 836.684996,1016.33666 C836.987206,1016.74742 837.133355,1017.27312 837.052068,1017.81733 C835.383292,1028.98954 830.693409,1045.07411 822.982045,1066.1215 C814.988912,1087.93795 800.345832,1097.12216 779.578949,1093.21157 C778.493458,1093.00717 777.779198,1091.9615 777.983606,1090.87601 C778.188013,1089.79052 779.233683,1089.07626 780.319174,1089.28066 C799.088312,1092.81505 811.881937,1084.79083 819.226194,1064.74542 C826.85222,1043.93096 831.475599,1028.07447 833.095957,1017.22641 C833.208033,1016.47608 833.723311,1015.88573 834.389018,1015.64243 Z M690.32545,1168.08958 C690.288019,1168.08981 690.250365,1168.08901 690.212517,1168.08715 L607.212517,1163.99758 C606.109286,1163.94322 605.259006,1163.00481 605.313365,1161.90158 C605.367723,1160.79834 606.306135,1159.94806 607.409366,1160.00242 L690.409366,1164.09199 C691.512597,1164.14635 692.362876,1165.08476 692.308518,1166.188 C692.278305,1166.80118 691.974986,1167.33623 691.522057,1167.68123 C692.115457,1167.4832 692.723607,1167.28664 693.346465,1167.09149 C694.400507,1166.76123 695.522702,1167.34798 695.852957,1168.40202 C696.183212,1169.45606 695.596466,1170.57826 694.542424,1170.90851 C683.375917,1174.40723 678,1178.14945 678,1181.49127 C678,1184.83409 683.376886,1188.58221 694.544114,1192.09202 C695.597863,1192.42321 696.183615,1193.54592 695.852427,1194.59967 C695.521238,1195.65342 694.398525,1196.23917 693.344775,1195.90798 C680.586076,1191.89799 674,1187.30696 674,1181.49127 C674,1176.1527 679.548681,1171.85141 690.32545,1168.08958 Z M293.679497,531.025653 C292.697092,529.120466 291.768578,527.213186 290.892722,525.30856 C289.345039,521.942983 288.07441,518.823429 287.061527,516.025681 C286.705366,515.041906 286.40649,514.16715 286.162505,513.410885 C286.013818,512.950009 285.915271,512.626651 285.864479,512.450286 C285.558796,511.388857 286.17145,510.280594 287.232879,509.974911 C288.294308,509.669228 289.402571,510.281882 289.708254,511.343311 C289.747509,511.479618 289.833753,511.762606 289.969298,512.182745 C290.199032,512.894837 290.482709,513.725109 290.822631,514.664029 C291.798557,517.359695 293.027219,520.376216 294.526881,523.637367 C298.816715,532.965994 304.410483,542.36567 311.450863,551.229007 C328.0713,572.15295 350.032681,586.807503 378.107005,592.264599 C379.191281,592.475361 379.899404,593.525196 379.688642,594.609472 C379.47788,595.693747 378.428045,596.40187 377.34377,596.191108 C348.267968,590.539345 325.499405,575.346168 308.318738,553.716936 C303.372456,547.48992 299.122403,541.011213 295.5185,534.473854 L241.770508,649.349528 C241.302405,650.350005 240.111886,650.781579 239.111409,650.313476 C238.110933,649.845374 237.679358,648.654855 238.147461,647.654378 L292.188477,532.152425 C292.479428,531.530575 293.049469,531.128509 293.679497,531.025653 Z M835.698858,1090.9909 C835.409374,1090.80304 835.164746,1090.53773 834.999588,1090.20656 C830.552379,1081.28903 824.787005,1080.84136 816.054872,1089.05443 C815.250276,1089.8112 813.98454,1089.77243 813.227771,1088.96783 C812.471002,1088.16324 812.509773,1086.8975 813.314369,1086.14073 C823.867828,1076.2146 832.838953,1076.91119 838.57915,1088.42141 C838.755794,1088.77562 838.81756,1089.15711 838.778613,1089.52353 C845.827655,1085.5885 851.262234,1078.33485 855.161066,1067.69338 C862.813627,1046.80649 867.939847,1031.76803 870.532723,1022.60556 C870.833492,1021.54273 871.93891,1020.92496 873.001741,1021.22573 C874.064573,1021.5265 874.682347,1022.63191 874.381577,1023.69474 C871.754298,1032.97878 866.601747,1048.09449 858.916917,1069.06946 C850.923784,1090.88591 836.280704,1100.07012 815.513821,1096.15953 C814.42833,1095.95513 813.714071,1094.90946 813.918478,1093.82396 C814.122885,1092.73847 815.168555,1092.02421 816.254046,1092.22862 C823.653667,1093.62203 830.124525,1093.21891 835.698858,1090.9909 Z M438.025515,710.681552 C438.201389,709.591074 439.227971,708.849641 440.318448,709.025515 C441.408926,709.201389 442.150359,710.227971 441.974485,711.318448 L413.42761,888.318448 C413.251736,889.408926 412.225154,890.150359 411.134677,889.974485 C410.044199,889.798611 409.302766,888.772029 409.47864,887.681552 L438.025515,710.681552 Z M741.505174,1092.59242 C740.419683,1092.38801 739.705423,1091.34234 739.90983,1090.25685 C740.114238,1089.17136 741.159907,1088.4571 742.245399,1088.66151 C761.014536,1092.1959 773.808162,1084.17168 781.152418,1064.12627 C788.791439,1043.27634 793.896226,1026.80383 796.465124,1014.73325 C796.695052,1013.65288 797.757262,1012.96346 798.837635,1013.19338 C799.918008,1013.42331 800.60743,1014.48552 800.377502,1015.5659 C797.762498,1027.85311 792.606639,1044.49043 784.90827,1065.50234 C776.915136,1087.31879 762.272057,1096.50301 741.505174,1092.59242 Z M780.003759,1084.02281 C779.199163,1084.77958 777.933426,1084.74081 777.176657,1083.93621 C776.419889,1083.13162 776.45866,1081.86588 777.263256,1081.10911 C787.816714,1071.18297 796.787839,1071.87957 802.528037,1083.38979 C803.02099,1084.37826 802.619296,1085.57919 801.630827,1086.07214 C800.642358,1086.5651 799.441428,1086.1634 798.948475,1085.17493 C794.501266,1076.25741 788.735892,1075.80974 780.003759,1084.02281 Z M744.370164,1081.96199 C743.565569,1082.71876 742.299832,1082.67999 741.543063,1081.87539 C740.786294,1081.0708 740.825066,1079.80506 741.629662,1079.04829 C752.18312,1069.12216 761.154245,1069.81875 766.894442,1081.32897 C767.387396,1082.31744 766.985702,1083.51837 765.997233,1084.01133 C765.008764,1084.50428 763.807834,1084.10259 763.31488,1083.11412 C758.867672,1074.19659 753.102298,1073.74892 744.370164,1081.96199 Z M604.280623,1017.40884 C604.724455,1016.39736 605.904217,1015.93719 606.915694,1016.38102 C607.927172,1016.82486 608.38734,1018.00462 607.943508,1019.0161 C597.730485,1042.29124 586.649694,1050.86468 575.001055,1043.08789 C574.082399,1042.47458 573.834865,1041.23268 574.448173,1040.31402 C575.06148,1039.39537 576.303381,1039.14783 577.222037,1039.76114 C586.007541,1045.62647 594.927096,1038.72521 604.280623,1017.40884 Z M695.282196,1092.25852 C696.324453,1091.89277 697.465869,1092.44119 697.831619,1093.48345 C698.197369,1094.5257 697.648951,1095.66712 696.606693,1096.03287 C685.384068,1099.97112 680,1104.16876 680,1108.13592 C680,1112.10408 685.385118,1116.30841 696.608523,1120.25916 C697.650425,1120.62592 698.197736,1121.76787 697.830976,1122.80977 C697.464215,1123.85168 696.322268,1124.39899 695.280366,1124.03223 C682.577845,1119.5608 676,1114.42528 676,1108.13592 C676,1101.84555 682.578895,1096.71637 695.282196,1092.25852 Z M695.282196,1131.11283 C696.324453,1130.74708 697.465869,1131.29549 697.831619,1132.33775 C698.197369,1133.38001 697.648951,1134.52142 696.606693,1134.88717 C685.384068,1138.82543 680,1143.02307 680,1146.99022 C680,1150.95839 685.385118,1155.16271 696.608523,1159.11347 C697.650425,1159.48023 698.197736,1160.62218 697.830976,1161.66408 C697.464215,1162.70598 696.322268,1163.25329 695.280366,1162.88653 C682.577845,1158.41511 676,1153.27959 676,1146.99022 C676,1140.69986 682.578895,1135.57068 695.282196,1131.11283 Z M607.310941,1129.97271 C606.206372,1129.97271 605.310941,1129.07728 605.310941,1127.97271 C605.310941,1126.86814 606.206372,1125.97271 607.310941,1125.97271 L691.310941,1125.97271 C692.415511,1125.97271 693.310941,1126.86814 693.310941,1127.97271 C693.310941,1129.07728 692.415511,1129.97271 691.310941,1129.97271 L607.310941,1129.97271 Z M558.205896,1050.7669 C558.404482,1051.85347 557.684628,1052.8953 556.598057,1053.09388 C555.511486,1053.29247 554.46966,1052.57262 554.271073,1051.48605 C550.468979,1030.68279 504.932876,1011.16018 418.010913,993.99265 C416.927277,993.778627 416.222317,992.726665 416.43634,991.643029 C416.650364,990.559393 417.702325,989.854433 418.785962,990.068456 C507.593166,1007.60833 553.950427,1027.483 558.205896,1050.7669 Z M681.757639,970.298616 L691.648739,970.471266 C688.674413,955.649789 687.38685,948.866368 687.403827,947.893743 C687.427924,946.513242 688.566576,945.413658 689.947077,945.437755 C691.327579,945.461852 692.427162,946.600504 692.403065,947.981005 C692.395534,948.412476 694.136536,957.495779 697.162878,972.531828 C697.477934,974.097145 696.264862,975.552602 694.668397,975.524736 L681.670377,975.297855 C680.289876,975.273758 679.190292,974.135106 679.214389,972.754604 C679.238486,971.374103 680.377138,970.27452 681.757639,970.298616 Z" id="Combined-Shape" fill="#6674A9" fill-rule="nonzero"></path>
        <path d="M772.786537,965.141793 C777.748953,957.474873 779.81171,947.648701 779.660987,943.332555 C779.224231,930.825503 768.482996,921.049263 755.669768,921.496711 C747.673023,921.775963 740.759138,925.971362 736.797401,932.126316 C735.175008,925.229522 732.89406,918.475226 729.954555,911.863431 C725.360926,901.531033 711.681291,891.874141 688.915648,882.892755 C687.522214,882.343025 686.552713,881.060818 686.4035,879.570316 L685.665724,872.201106 L684.950279,878.41073 C684.778652,879.900307 683.788366,881.168802 682.384951,881.696747 C658.087385,890.837154 643.740965,901.456258 639.345693,913.55406 C637.455837,918.75581 635.864839,923.968612 634.572698,929.192467 C630.567742,923.284808 623.798362,919.28713 615.99889,919.014767 C603.185661,918.567319 592.444426,928.343559 592.007671,940.85061 C591.847152,945.447247 594.197155,956.293332 599.886515,964.125122 L586.077609,960.014762 C572.844296,956.075733 565.30979,942.1548 569.248818,928.921488 C571.051385,922.865695 575.080101,917.717044 580.524688,914.511059 C599.053384,903.600643 610.613713,892.656181 615.205676,881.677675 C627.663638,851.893068 641.119141,853.141602 647.949219,850.713379 C652.318648,849.159964 658.292063,847.896177 664.303755,847.208284 C663.399014,846.411241 662.552545,845.538109 661.772215,844.5843 C657.087753,838.858414 654.937763,829.770733 655.217379,821.763593 C655.363841,817.569473 654.096536,811.568254 655.699396,807.960416 C658.049086,802.671558 662.278662,798.610236 667.448703,795.827237 C673.371871,792.638834 680.529459,791.12831 687.508799,791.372034 C695.340932,791.645538 702.68055,793.150255 708.976894,797.277433 C712.528772,799.605646 716.48784,803.071559 718.197513,806.875952 C720.123222,811.161072 717.776943,818.919495 717.60155,823.942096 C717.383557,830.18462 710.545522,841.387776 707.269419,846.173097 C706.840211,846.800031 706.415199,847.380974 705.991714,847.919147 C710.091682,848.349716 714.792678,848.99306 720.094702,849.849179 C732.731358,849.724144 743.885376,859.276183 753.556754,878.505295 C759.34784,890.019419 772.693205,902.943449 793.592848,917.277386 C798.728885,920.799917 802.365205,926.112643 803.789884,932.17543 C806.948352,945.616435 798.612709,959.072966 785.171703,962.231434 L772.786537,965.141793 Z" id="Combined-Shape" fill="#FF461C"></path>
    </g>
</svg>